<?xml version="1.0" encoding="utf-8"?>
<!-- Generator: Adobe Illustrator 19.2.1, SVG Export Plug-In . SVG Version: 6.00 Build 0)  -->
<svg version="1.1" id="Default" xmlns="http://www.w3.org/2000/svg" xmlns:xlink="http://www.w3.org/1999/xlink" x="0px" y="0px"
	 viewBox="0 0 1186.3 2050.3" style="enable-background:new 0 0 1186.3 2050.3;" xml:space="preserve">
<style type="text/css">
	.st0{fill:none;stroke:#000000;stroke-width:6;stroke-linecap:round;stroke-linejoin:round;}
</style>
<rect x="161.1" y="1025.1" transform="matrix(0.866 -0.5 0.5 0.866 -649.0989 491.7803)" class="st0" width="864" height="864"/>
<line class="st0" x1="435" y1="1183.2" x2="1183.2" y2="751.2"/>
<line class="st0" x1="3" y1="435" x2="435" y2="1183.2"/>
<line class="st0" x1="751.2" y1="3" x2="3" y2="435"/>
<line class="st0" x1="1183.2" y1="751.2" x2="751.2" y2="3"/>
<line class="st0" x1="435" y1="2047.2" x2="1183.2" y2="1615.2"/>
<line class="st0" x1="3" y1="1299" x2="435" y2="2047.2"/>
<line class="st0" x1="751.2" y1="867" x2="3" y2="1299"/>
<line class="st0" x1="1183.2" y1="1615.2" x2="751.2" y2="867"/>
<line class="st0" x1="1183.2" y1="1615.2" x2="1183.2" y2="751.2"/>
<line class="st0" x1="435" y1="2047.2" x2="435" y2="1183.2"/>
<line class="st0" x1="751.2" y1="867" x2="751.2" y2="3"/>
<line class="st0" x1="3" y1="1299" x2="3" y2="435"/>
<path class="st0" d="M967.2,377.1"/>
<path class="st0" d="M219,809.1"/>
<path class="st0" d="M377.1,219"/>
<path class="st0" d="M809.1,967.2"/>
<path class="st0" d="M967.2,1241.1"/>
<path class="st0" d="M219,1673.1"/>
<path class="st0" d="M377.1,1083"/>
<path class="st0" d="M809.1,1831.2"/>
<path class="st0" d="M1183.2,1183.2"/>
<path class="st0" d="M435,1615.2"/>
<path class="st0" d="M809.1,967.2"/>
<path class="st0" d="M809.1,1831.2"/>
<path class="st0" d="M751.2,435"/>
<path class="st0" d="M1183.2,1183.2"/>
<path class="st0" d="M967.2,377.1"/>
<path class="st0" d="M967.2,1241.1"/>
<path class="st0" d="M3,867"/>
<path class="st0" d="M751.2,435"/>
<path class="st0" d="M377.1,219"/>
<path class="st0" d="M377.1,1083"/>
<path class="st0" d="M435,1615.2"/>
<path class="st0" d="M3,867"/>
<path class="st0" d="M219,809.1"/>
<path class="st0" d="M219,1673.1"/>
</svg>
