<?xml version="1.0" encoding="utf-8"?>
<!-- Generator: Adobe Illustrator 21.0.2, SVG Export Plug-In . SVG Version: 6.00 Build 0)  -->
<svg version="1.1" id="Default" xmlns="http://www.w3.org/2000/svg" xmlns:xlink="http://www.w3.org/1999/xlink" x="0px" y="0px"
	 viewBox="0 0 1192.2 2056.2" style="enable-background:new 0 0 1192.2 2056.2;" xml:space="preserve">
<style type="text/css">
	.st0{fill:none;stroke:#000000;stroke-linecap:round;stroke-linejoin:round;}
	.st1{fill:none;stroke:#000000;stroke-width:6;stroke-linecap:round;stroke-linejoin:round;}
	.st2{fill:none;stroke:#000000;stroke-width:12;stroke-linecap:round;stroke-linejoin:round;}
</style>
<rect x="164.1" y="1028.1" transform="matrix(0.866 -0.5 0.5 0.866 -650.1848 493.6675)" class="st0" width="864" height="864"/>
<line class="st1" x1="438" y1="1186.2" x2="1186.2" y2="754.2"/>
<line class="st1" x1="6" y1="438" x2="438" y2="1186.2"/>
<line class="st2" x1="754.2" y1="6" x2="6" y2="438"/>
<line class="st2" x1="1186.2" y1="754.2" x2="754.2" y2="6"/>
<line class="st2" x1="438" y1="2050.2" x2="1186.2" y2="1618.2"/>
<line class="st2" x1="6" y1="1302" x2="438" y2="2050.2"/>
<line class="st2" x1="1186.2" y1="1618.2" x2="1186.2" y2="754.2"/>
<line class="st1" x1="438" y1="2050.2" x2="438" y2="1186.2"/>
<line class="st0" x1="754.2" y1="870" x2="754.2" y2="6"/>
<line class="st2" x1="6" y1="1302" x2="6" y2="438"/>
<path class="st1" d="M970.2,380.1"/>
<path class="st1" d="M222,812.1"/>
<path class="st1" d="M380.1,222"/>
<path class="st1" d="M812.1,970.2"/>
<path class="st1" d="M970.2,1244.1"/>
<path class="st1" d="M222,1676.1"/>
<path class="st1" d="M380.1,1086"/>
<path class="st1" d="M812.1,1834.2"/>
<path class="st1" d="M1186.2,1186.2"/>
<path class="st1" d="M438,1618.2"/>
<path class="st1" d="M812.1,970.2"/>
<path class="st1" d="M812.1,1834.2"/>
<path class="st1" d="M754.2,438"/>
<path class="st1" d="M1186.2,1186.2"/>
<path class="st1" d="M970.2,380.1"/>
<path class="st1" d="M970.2,1244.1"/>
<path class="st1" d="M6,870"/>
<path class="st1" d="M754.2,438"/>
<path class="st1" d="M380.1,222"/>
<path class="st1" d="M380.1,1086"/>
<path class="st1" d="M438,1618.2"/>
<path class="st1" d="M6,870"/>
<path class="st1" d="M222,812.1"/>
<path class="st1" d="M222,1676.1"/>
</svg>
