<?xml version="1.0" encoding="utf-8"?>
<!-- Generator: Adobe Illustrator 19.2.1, SVG Export Plug-In . SVG Version: 6.00 Build 0)  -->
<svg version="1.1" id="Default" xmlns="http://www.w3.org/2000/svg" xmlns:xlink="http://www.w3.org/1999/xlink" x="0px" y="0px"
	 viewBox="0 0 1227.9 2091.9" style="enable-background:new 0 0 1227.9 2091.9;" xml:space="preserve">
<style type="text/css">
	.st0{fill:none;stroke:#000000;stroke-width:6;stroke-linecap:round;stroke-linejoin:round;}
</style>
<rect x="181.9" y="1045.9" transform="matrix(0.7071 -0.7071 0.7071 0.7071 -865.2426 866.9998)" class="st0" width="864" height="864"/>
<line class="st0" x1="613.9" y1="1224.9" x2="1224.9" y2="613.9"/>
<line class="st0" x1="3" y1="613.9" x2="613.9" y2="1224.9"/>
<line class="st0" x1="613.9" y1="3" x2="3" y2="613.9"/>
<line class="st0" x1="1224.9" y1="613.9" x2="613.9" y2="3"/>
<line class="st0" x1="613.9" y1="2088.9" x2="1224.9" y2="1477.9"/>
<line class="st0" x1="3" y1="1477.9" x2="613.9" y2="2088.9"/>
<line class="st0" x1="613.9" y1="867" x2="3" y2="1477.9"/>
<line class="st0" x1="1224.9" y1="1477.9" x2="613.9" y2="867"/>
<line class="st0" x1="1224.9" y1="1477.9" x2="1224.9" y2="613.9"/>
<line class="st0" x1="613.9" y1="2088.9" x2="613.9" y2="1224.9"/>
<line class="st0" x1="613.9" y1="867" x2="613.9" y2="3"/>
<line class="st0" x1="3" y1="1477.9" x2="3" y2="613.9"/>
</svg>
