<?xml version="1.0" encoding="utf-8"?>
<!-- Generator: Adobe Illustrator 21.0.2, SVG Export Plug-In . SVG Version: 6.00 Build 0)  -->
<svg version="1.1" xmlns="http://www.w3.org/2000/svg" xmlns:xlink="http://www.w3.org/1999/xlink" x="0px" y="0px"
	 viewBox="0 0 356.1 615.3" style="enable-background:new 0 0 356.1 615.3;" xml:space="preserve">
<style type="text/css">
	.st0{display:none;}
	.st1{display:inline;}
	.st2{fill:none;stroke:#000000;stroke-width:0.5;stroke-miterlimit:10;}
	.st3{fill:none;stroke:#000000;stroke-width:2;stroke-linecap:round;stroke-linejoin:round;}
</style>
<g id="Layer_1" class="st0">
	<g id="Make2D::hidden::lines" class="st1">
		<line class="st2" x1="274.5" y1="215.4" x2="311.9" y2="193.8"/>
		<line class="st2" x1="311.9" y1="193.8" x2="311.9" y2="150.6"/>
		<line class="st2" x1="231.3" y1="140.6" x2="231.3" y2="97.4"/>
		<line class="st2" x1="250" y1="129.8" x2="231.3" y2="140.6"/>
		<line class="st2" x1="274.5" y1="215.4" x2="274.5" y2="172.2"/>
		<line class="st2" x1="225.5" y1="130.6" x2="188.1" y2="152.2"/>
		<line class="st2" x1="231.3" y1="140.6" x2="225.5" y2="130.6"/>
		<line class="st2" x1="336.4" y1="365.9" x2="333.5" y2="360.9"/>
		<line class="st2" x1="140.6" y1="242.8" x2="140.6" y2="199.6"/>
		<line class="st2" x1="333.5" y1="360.9" x2="296.1" y2="382.5"/>
		<line class="st2" x1="296.1" y1="382.5" x2="317.7" y2="419.9"/>
		<line class="st2" x1="119" y1="205.4" x2="119" y2="162.2"/>
		<line class="st2" x1="119" y1="205.4" x2="140.6" y2="242.8"/>
		<line class="st2" x1="137.7" y1="194.6" x2="119" y2="205.4"/>
		<line class="st2" x1="296.1" y1="382.5" x2="296.1" y2="339.3"/>
		<line class="st2" x1="333.5" y1="360.9" x2="333.5" y2="317.7"/>
		<line class="st2" x1="178" y1="221.2" x2="159.3" y2="188.8"/>
		<line class="st2" x1="140.6" y1="242.8" x2="178" y2="221.2"/>
		<line class="st2" x1="296.1" y1="339.3" x2="317.7" y2="376.7"/>
		<line class="st2" x1="81.6" y1="313.4" x2="44.2" y2="335"/>
		<line class="st2" x1="355.1" y1="355.1" x2="333.5" y2="317.7"/>
		<line class="st2" x1="103.2" y1="350.8" x2="81.6" y2="313.4"/>
		<line class="st2" x1="81.6" y1="356.6" x2="81.6" y2="313.4"/>
		<line class="st2" x1="333.5" y1="317.7" x2="296.1" y2="339.3"/>
		<line class="st2" x1="81.6" y1="356.6" x2="62.9" y2="367.4"/>
		<line class="st2" x1="103.2" y1="394" x2="81.6" y2="356.6"/>
		<line class="st2" x1="178" y1="221.2" x2="178" y2="178"/>
		<line class="st2" x1="209.7" y1="189.6" x2="247.1" y2="168"/>
		<line class="st2" x1="247.1" y1="211.2" x2="247.1" y2="168"/>
		<line class="st2" x1="188.1" y1="195.4" x2="188.1" y2="152.2"/>
		<line class="st2" x1="188.1" y1="152.2" x2="209.7" y2="189.6"/>
		<line class="st2" x1="209.7" y1="232.8" x2="209.7" y2="189.6"/>
		<line class="st2" x1="209.7" y1="232.8" x2="247.1" y2="211.2"/>
		<line class="st2" x1="188.1" y1="195.4" x2="209.7" y2="232.8"/>
		<line class="st2" x1="225.5" y1="173.8" x2="188.1" y2="195.4"/>
		<line class="st2" x1="247.1" y1="211.2" x2="225.5" y2="173.8"/>
		<line class="st2" x1="146.4" y1="425.7" x2="109" y2="447.3"/>
		<line class="st2" x1="225.5" y1="260.2" x2="225.5" y2="173.8"/>
		<line class="st2" x1="225.5" y1="260.2" x2="1" y2="389.8"/>
		<line class="st2" x1="168" y1="463.1" x2="146.4" y2="425.7"/>
		<line class="st2" x1="146.4" y1="468.9" x2="146.4" y2="425.7"/>
		<line class="st2" x1="225.5" y1="130.6" x2="225.5" y2="1"/>
		<line class="st2" x1="146.4" y1="468.9" x2="127.7" y2="479.7"/>
		<line class="st2" x1="149.3" y1="473.9" x2="146.4" y2="468.9"/>
		<line class="st2" x1="311.9" y1="193.8" x2="293.2" y2="161.4"/>
		<line class="st2" x1="231.3" y1="140.6" x2="274.5" y2="215.4"/>
		<line class="st2" x1="355.1" y1="484.7" x2="317.7" y2="419.9"/>
		<line class="st2" x1="103.2" y1="394" x2="103.2" y2="350.8"/>
		<line class="st2" x1="103.2" y1="350.8" x2="65.8" y2="372.4"/>
		<line class="st2" x1="296.1" y1="382.5" x2="225.5" y2="260.2"/>
		<line class="st2" x1="65.8" y1="415.6" x2="103.2" y2="394"/>
	</g>
	<g id="Make2D::visible::lines" class="st1">
		<line class="st3" x1="1" y1="389.8" x2="130.6" y2="614.3"/>
		<line class="st3" x1="65.8" y1="415.6" x2="65.8" y2="372.4"/>
		<line class="st3" x1="109" y1="490.5" x2="130.6" y2="527.9"/>
		<line class="st3" x1="355.1" y1="355.1" x2="355.1" y2="225.5"/>
		<line class="st3" x1="355.1" y1="484.7" x2="355.1" y2="398.3"/>
		<line class="st3" x1="130.6" y1="614.3" x2="355.1" y2="484.7"/>
		<line class="st3" x1="130.6" y1="614.3" x2="130.6" y2="527.9"/>
		<line class="st3" x1="130.6" y1="484.7" x2="130.6" y2="398.3"/>
		<line class="st3" x1="1" y1="130.6" x2="109" y2="317.7"/>
		<line class="st3" x1="268.7" y1="75.8" x2="225.5" y2="1"/>
		<line class="st3" x1="355.1" y1="225.5" x2="311.9" y2="150.6"/>
		<line class="st3" x1="168" y1="333.5" x2="355.1" y2="225.5"/>
		<line class="st3" x1="231.3" y1="97.4" x2="274.5" y2="172.2"/>
		<line class="st3" x1="130.6" y1="527.9" x2="168" y2="506.3"/>
		<line class="st3" x1="293.2" y1="161.4" x2="268.7" y2="119"/>
		<line class="st3" x1="168" y1="506.3" x2="149.3" y2="473.9"/>
		<line class="st3" x1="127.7" y1="479.7" x2="109" y2="490.5"/>
		<line class="st3" x1="225.5" y1="1" x2="1" y2="130.6"/>
		<line class="st3" x1="1" y1="389.8" x2="1" y2="130.6"/>
		<line class="st3" x1="168" y1="506.3" x2="168" y2="463.1"/>
		<line class="st3" x1="109" y1="490.5" x2="109" y2="447.3"/>
		<line class="st3" x1="156.4" y1="140.6" x2="178" y2="178"/>
		<line class="st3" x1="44.2" y1="378.2" x2="65.8" y2="415.6"/>
		<line class="st3" x1="62.9" y1="367.4" x2="44.2" y2="378.2"/>
		<line class="st3" x1="44.2" y1="378.2" x2="44.2" y2="335"/>
		<line class="st3" x1="317.7" y1="376.7" x2="355.1" y2="355.1"/>
		<line class="st3" x1="44.2" y1="335" x2="65.8" y2="372.4"/>
		<line class="st3" x1="317.7" y1="419.9" x2="317.7" y2="376.7"/>
		<line class="st3" x1="159.3" y1="188.8" x2="156.4" y2="183.8"/>
		<line class="st3" x1="156.4" y1="183.8" x2="137.7" y2="194.6"/>
		<line class="st3" x1="156.4" y1="140.6" x2="119" y2="162.2"/>
		<line class="st3" x1="156.4" y1="140.6" x2="156.4" y2="183.8"/>
		<line class="st3" x1="119" y1="162.2" x2="140.6" y2="199.6"/>
		<line class="st3" x1="355.1" y1="398.3" x2="336.4" y2="365.9"/>
		<line class="st3" x1="317.7" y1="419.9" x2="355.1" y2="398.3"/>
		<line class="st3" x1="146.4" y1="296.1" x2="109" y2="317.7"/>
		<line class="st3" x1="109" y1="360.9" x2="109" y2="317.7"/>
		<line class="st3" x1="168" y1="376.7" x2="168" y2="333.5"/>
		<line class="st3" x1="168" y1="333.5" x2="146.4" y2="296.1"/>
		<line class="st3" x1="146.4" y1="339.3" x2="146.4" y2="296.1"/>
		<line class="st3" x1="146.4" y1="339.3" x2="109" y2="360.9"/>
		<line class="st3" x1="168" y1="376.7" x2="146.4" y2="339.3"/>
		<line class="st3" x1="130.6" y1="398.3" x2="168" y2="376.7"/>
		<line class="st3" x1="109" y1="360.9" x2="130.6" y2="398.3"/>
		<line class="st3" x1="178" y1="178" x2="140.6" y2="199.6"/>
		<line class="st3" x1="130.6" y1="484.7" x2="168" y2="463.1"/>
		<line class="st3" x1="109" y1="447.3" x2="130.6" y2="484.7"/>
		<line class="st3" x1="268.7" y1="119" x2="250" y2="129.8"/>
		<line class="st3" x1="274.5" y1="172.2" x2="311.9" y2="150.6"/>
		<line class="st3" x1="268.7" y1="75.8" x2="231.3" y2="97.4"/>
		<line class="st3" x1="268.7" y1="119" x2="268.7" y2="75.8"/>
	</g>
</g>
<g id="Layer_2">
	<line class="st2" x1="250.7" y1="229.5" x2="218.3" y2="173.4"/>
	<line class="st2" x1="229" y1="242.1" x2="250.7" y2="229.5"/>
	<line class="st2" x1="229" y1="285.3" x2="196.6" y2="229.2"/>
	<line class="st2" x1="229" y1="242.1" x2="196.6" y2="186"/>
	<line class="st2" x1="229" y1="285.3" x2="229" y2="242.1"/>
	<line class="st2" x1="211.5" y1="395.2" x2="255.3" y2="369.9"/>
	<line class="st2" x1="212.1" y1="295" x2="179.7" y2="238.9"/>
	<line class="st2" x1="212.1" y1="229.9" x2="212.1" y2="295"/>
	<line class="st2" x1="212.1" y1="229.9" x2="179.7" y2="173.8"/>
	<line class="st2" x1="168.3" y1="320.4" x2="135.9" y2="264.3"/>
	<line class="st2" x1="168.3" y1="255.2" x2="135.9" y2="199.1"/>
	<line class="st2" x1="168.3" y1="320.4" x2="168.3" y2="255.2"/>
	<line class="st2" x1="107.4" y1="455.3" x2="189.2" y2="408"/>
	<line class="st2" x1="146" y1="333.2" x2="113.6" y2="277.1"/>
	<line class="st2" x1="146" y1="264.2" x2="146" y2="333.2"/>
	<line class="st2" x1="221.6" y1="395.2" x2="189.2" y2="339"/>
	<line class="st2" x1="189.2" y1="339" x2="107.4" y2="386.3"/>
	<line class="st2" x1="139.8" y1="442.4" x2="107.4" y2="386.3"/>
	<line class="st2" x1="139.8" y1="511.4" x2="107.4" y2="455.3"/>
	<line class="st2" x1="318.4" y1="390" x2="293.9" y2="347.6"/>
	<line class="st2" x1="250.7" y1="272.7" x2="229" y2="285.3"/>
	<line class="st2" x1="107.4" y1="290.3" x2="293.9" y2="182.6"/>
	<line class="st2" x1="293.9" y1="182.6" x2="250.7" y2="107.8"/>
	<line class="st2" x1="337.1" y1="379.2" x2="326.3" y2="360.5"/>
	<line class="st2" x1="315.4" y1="391.8" x2="304.6" y2="373.1"/>
	<line class="st2" x1="315.4" y1="435" x2="304.6" y2="416.3"/>
	<line class="st2" x1="250.7" y1="107.8" x2="64.2" y2="215.5"/>
	<line class="st2" x1="298.5" y1="379.5" x2="287.7" y2="360.8"/>
	<line class="st2" x1="254.7" y1="404.9" x2="243.9" y2="386.2"/>
	<line class="st2" x1="254.7" y1="470" x2="243.9" y2="451.3"/>
	<line class="st2" x1="64.2" y1="215.5" x2="107.4" y2="290.3"/>
	<line class="st2" x1="232.4" y1="413.9" x2="221.6" y2="395.2"/>
	<line class="st2" x1="150.6" y1="461.1" x2="139.8" y2="442.4"/>
	<line class="st2" x1="150.6" y1="530.1" x2="139.8" y2="511.4"/>
	<line class="st2" x1="304.6" y1="373.1" x2="304.6" y2="416.3"/>
	<line class="st2" x1="326.3" y1="360.5" x2="304.6" y2="373.1"/>
	<line class="st2" x1="326.3" y1="385.4" x2="326.3" y2="360.5"/>
	<line class="st2" x1="107.4" y1="506.3" x2="293.9" y2="398.6"/>
	<line class="st2" x1="293.9" y1="398.6" x2="250.7" y2="323.8"/>
	<line class="st2" x1="250.7" y1="323.8" x2="64.2" y2="431.5"/>
	<line class="st2" x1="243.9" y1="386.2" x2="243.9" y2="451.3"/>
	<line class="st2" x1="287.7" y1="360.8" x2="243.9" y2="386.2"/>
	<line class="st2" x1="287.7" y1="385.8" x2="287.7" y2="360.8"/>
	<line class="st2" x1="64.2" y1="431.5" x2="107.4" y2="506.3"/>
	<line class="st2" x1="64.2" y1="311.4" x2="31.8" y2="255.3"/>
	<line class="st2" x1="243.9" y1="451.3" x2="254.7" y2="445.1"/>
	<line class="st2" x1="139.8" y1="442.4" x2="139.8" y2="511.4"/>
	<line class="st2" x1="221.6" y1="395.2" x2="139.8" y2="442.4"/>
	<line class="st2" x1="221.6" y1="420.1" x2="221.6" y2="395.2"/>
	<line class="st2" x1="64.2" y1="380.4" x2="31.8" y2="324.3"/>
	<line class="st2" x1="64.2" y1="311.4" x2="146" y2="264.2"/>
	<line class="st2" x1="139.8" y1="511.4" x2="150.6" y2="505.1"/>
	<line class="st2" x1="146" y1="264.2" x2="113.6" y2="208.1"/>
	<line class="st2" x1="344.3" y1="466" x2="344.3" y2="206.8"/>
	<line class="st2" x1="189.2" y1="408" x2="189.2" y2="339"/>
	<line class="st2" x1="202.5" y1="431.1" x2="189.2" y2="408"/>
	<line class="st2" x1="146" y1="333.2" x2="64.2" y2="380.4"/>
	<line class="st2" x1="211.5" y1="330" x2="211.5" y2="395.2"/>
	<line class="st2" x1="243.9" y1="451.3" x2="211.5" y2="395.2"/>
	<line class="st2" x1="243.9" y1="386.2" x2="211.5" y2="330"/>
	<line class="st2" x1="255.3" y1="304.7" x2="211.5" y2="330"/>
	<line class="st2" x1="287.7" y1="360.8" x2="255.3" y2="304.7"/>
	<line class="st2" x1="255.3" y1="369.9" x2="255.3" y2="304.7"/>
	<line class="st2" x1="270.3" y1="395.8" x2="255.3" y2="369.9"/>
	<line class="st2" x1="212.1" y1="295" x2="168.3" y2="320.4"/>
	<line class="st2" x1="272.2" y1="317" x2="272.2" y2="360.2"/>
	<line class="st2" x1="304.6" y1="416.3" x2="272.2" y2="360.2"/>
	<line class="st2" x1="304.6" y1="373.1" x2="272.2" y2="317"/>
	<line class="st2" x1="293.9" y1="304.4" x2="272.2" y2="317"/>
	<line class="st2" x1="344.3" y1="466" x2="119.8" y2="595.6"/>
	<line class="st2" x1="355.1" y1="484.7" x2="344.3" y2="466"/>
	<line class="st2" x1="326.3" y1="360.5" x2="293.9" y2="304.4"/>
	<line class="st2" x1="250.7" y1="272.7" x2="218.3" y2="216.6"/>
	<line class="st2" x1="272.2" y1="360.2" x2="293.9" y2="347.6"/>
	<line class="st2" x1="293.9" y1="304.4" x2="293.9" y2="182.6"/>
	<line class="st2" x1="107.4" y1="386.3" x2="107.4" y2="290.3"/>
	<line class="st2" x1="218.3" y1="216.6" x2="207.5" y2="197.9"/>
	<line class="st2" x1="218.3" y1="173.4" x2="207.5" y2="154.7"/>
	<line class="st2" x1="196.6" y1="186" x2="185.8" y2="167.3"/>
	<line class="st2" x1="196.6" y1="229.2" x2="185.8" y2="210.5"/>
	<line class="st2" x1="179.7" y1="238.9" x2="168.9" y2="220.2"/>
	<line class="st2" x1="179.7" y1="173.8" x2="168.9" y2="155"/>
	<line class="st2" x1="135.9" y1="199.1" x2="125.1" y2="180.4"/>
	<line class="st2" x1="135.9" y1="264.3" x2="125.1" y2="245.5"/>
	<line class="st2" x1="113.6" y1="277.1" x2="102.8" y2="258.4"/>
	<line class="st2" x1="113.6" y1="208.1" x2="102.8" y2="189.4"/>
	<line class="st2" x1="31.8" y1="255.3" x2="21" y2="236.6"/>
	<line class="st2" x1="31.8" y1="324.3" x2="21" y2="305.6"/>
	<line class="st2" x1="185.8" y1="167.3" x2="185.8" y2="210.5"/>
	<line class="st2" x1="207.5" y1="154.7" x2="185.8" y2="167.3"/>
	<line class="st2" x1="207.5" y1="197.9" x2="207.5" y2="154.7"/>
	<line class="st2" x1="185.8" y1="210.5" x2="207.5" y2="197.9"/>
	<line class="st2" x1="125.1" y1="180.4" x2="125.1" y2="245.5"/>
	<line class="st2" x1="168.9" y1="220.2" x2="168.9" y2="155"/>
	<line class="st2" x1="125.1" y1="245.5" x2="168.9" y2="220.2"/>
	<line class="st2" x1="21" y1="236.6" x2="21" y2="305.6"/>
	<line class="st2" x1="102.8" y1="189.4" x2="21" y2="236.6"/>
	<line class="st2" x1="102.8" y1="258.4" x2="102.8" y2="189.4"/>
	<line class="st2" x1="21" y1="305.6" x2="102.8" y2="258.4"/>
	<line class="st2" x1="107.4" y1="506.3" x2="107.4" y2="455.3"/>
	<line class="st2" x1="225.5" y1="260.2" x2="225.5" y2="1"/>
	<line class="st2" x1="218.3" y1="216.6" x2="196.6" y2="229.2"/>
	<line class="st2" x1="218.3" y1="173.4" x2="218.3" y2="216.6"/>
	<line class="st2" x1="196.6" y1="186" x2="218.3" y2="173.4"/>
	<line class="st2" x1="196.6" y1="229.2" x2="196.6" y2="186"/>
	<line class="st2" x1="179.7" y1="238.9" x2="135.9" y2="264.3"/>
	<line class="st2" x1="179.7" y1="173.8" x2="179.7" y2="238.9"/>
	<line class="st2" x1="135.9" y1="199.1" x2="179.7" y2="173.8"/>
	<line class="st2" x1="135.9" y1="264.3" x2="135.9" y2="199.1"/>
	<line class="st2" x1="113.6" y1="277.1" x2="31.8" y2="324.3"/>
	<line class="st2" x1="113.6" y1="208.1" x2="113.6" y2="277.1"/>
	<line class="st2" x1="31.8" y1="255.3" x2="113.6" y2="208.1"/>
	<line class="st2" x1="31.8" y1="324.3" x2="31.8" y2="255.3"/>
	<line class="st2" x1="293.9" y1="398.6" x2="293.9" y2="347.6"/>
	<line class="st2" x1="236.3" y1="278.9" x2="236.3" y2="19.7"/>
	<line class="st2" x1="250.7" y1="323.8" x2="250.7" y2="272.7"/>
	<line class="st2" x1="225.5" y1="260.2" x2="1" y2="389.8"/>
	<line class="st2" x1="236.3" y1="278.9" x2="225.5" y2="260.2"/>
	<line class="st2" x1="11.8" y1="408.5" x2="236.3" y2="278.9"/>
	<line class="st2" x1="250.7" y1="229.5" x2="250.7" y2="107.8"/>
	<line class="st2" x1="64.2" y1="311.4" x2="64.2" y2="215.5"/>
	<line class="st2" x1="304.6" y1="416.3" x2="315.4" y2="410"/>
	<line class="st2" x1="64.2" y1="431.5" x2="64.2" y2="380.4"/>
	<line class="st3" x1="11.8" y1="149.3" x2="236.3" y2="19.7"/>
	<line class="st3" x1="225.5" y1="1" x2="1" y2="130.6"/>
	<line class="st3" x1="1" y1="130.6" x2="11.8" y2="149.3"/>
	<line class="st3" x1="1" y1="389.8" x2="11.8" y2="408.5"/>
	<polyline class="st3" points="11.8,149.3 11.8,408.5 63.3,378.8 	"/>
	<line class="st3" x1="1" y1="389.8" x2="1" y2="130.6"/>
	<line class="st3" x1="130.6" y1="355.1" x2="355.1" y2="225.5"/>
	<line class="st3" x1="355.1" y1="225.5" x2="344.3" y2="206.8"/>
	<line class="st3" x1="344.3" y1="206.8" x2="119.8" y2="336.4"/>
	<line class="st3" x1="119.8" y1="336.4" x2="130.6" y2="355.1"/>
	<line class="st3" x1="130.6" y1="614.3" x2="355.1" y2="484.7"/>
	<line class="st3" x1="119.8" y1="595.6" x2="130.6" y2="614.3"/>
	<line class="st3" x1="355.1" y1="484.7" x2="355.1" y2="225.5"/>
	<line class="st3" x1="130.6" y1="614.3" x2="130.6" y2="355.1"/>
	<line class="st3" x1="150.6" y1="530.1" x2="150.6" y2="461.1"/>
	<line class="st3" x1="150.6" y1="461.1" x2="232.4" y2="413.9"/>
	<line class="st3" x1="232.4" y1="413.9" x2="232.4" y2="482.9"/>
	<line class="st3" x1="287.7" y1="426" x2="270.3" y2="395.8"/>
	<line class="st3" x1="232.4" y1="482.9" x2="150.6" y2="530.1"/>
	<line class="st3" x1="254.7" y1="470" x2="254.7" y2="404.9"/>
	<line class="st3" x1="254.7" y1="404.9" x2="298.5" y2="379.5"/>
	<line class="st3" x1="298.5" y1="379.5" x2="298.5" y2="444.7"/>
	<line class="st3" x1="298.5" y1="444.7" x2="254.7" y2="470"/>
	<line class="st3" x1="315.4" y1="435" x2="315.4" y2="391.8"/>
	<line class="st3" x1="315.4" y1="391.8" x2="337.1" y2="379.2"/>
	<line class="st3" x1="337.1" y1="379.2" x2="337.1" y2="422.4"/>
	<line class="st3" x1="221.6" y1="464.2" x2="202.5" y2="431.1"/>
	<line class="st3" x1="337.1" y1="422.4" x2="315.4" y2="435"/>
	<line class="st3" x1="119.8" y1="595.6" x2="119.8" y2="336.4"/>
	<line class="st3" x1="150.6" y1="505.1" x2="221.6" y2="464.2"/>
	<line class="st3" x1="221.6" y1="464.2" x2="221.6" y2="420.1"/>
	<line class="st3" x1="254.7" y1="445.1" x2="287.7" y2="426"/>
	<line class="st3" x1="287.7" y1="426" x2="287.7" y2="385.8"/>
	<polyline class="st3" points="225.5,1 236.3,19.7 236.3,116.2 	"/>
	<line class="st3" x1="315.4" y1="410" x2="326.3" y2="403.7"/>
	<line class="st3" x1="326.3" y1="403.7" x2="326.3" y2="385.4"/>
	<line class="st3" x1="232.4" y1="482.9" x2="221.6" y2="464.2"/>
	<line class="st3" x1="298.5" y1="444.7" x2="287.7" y2="426"/>
	<line class="st3" x1="337.1" y1="422.4" x2="326.3" y2="403.7"/>
	<line class="st3" x1="326.3" y1="403.7" x2="318.4" y2="390"/>
	<path class="st3" d="M265.8,100.9"/>
</g>
</svg>
