<?xml version="1.0" encoding="utf-8"?>
<!-- Generator: Adobe Illustrator 21.0.2, SVG Export Plug-In . SVG Version: 6.00 Build 0)  -->
<svg version="1.1" xmlns="http://www.w3.org/2000/svg" xmlns:xlink="http://www.w3.org/1999/xlink" x="0px" y="0px"
	 viewBox="0 0 356.1 615.3" style="enable-background:new 0 0 356.1 615.3;" xml:space="preserve">
<style type="text/css">
	.st0{display:none;}
	.st1{display:inline;}
	.st2{fill:none;stroke:#000000;stroke-width:0.5;stroke-miterlimit:10;}
	.st3{fill:none;stroke:#000000;stroke-width:2;stroke-linecap:round;stroke-linejoin:round;}
	.st4{fill:none;stroke:#000000;stroke-width:0.5;stroke-linecap:round;stroke-linejoin:round;}
</style>
<g id="Layer_1" class="st0">
	<g id="Make2D::hidden::lines" class="st1">
		<line class="st2" x1="274.5" y1="215.4" x2="311.9" y2="193.8"/>
		<line class="st2" x1="311.9" y1="193.8" x2="311.9" y2="150.6"/>
		<line class="st2" x1="231.3" y1="140.6" x2="231.3" y2="97.4"/>
		<line class="st2" x1="250" y1="129.8" x2="231.3" y2="140.6"/>
		<line class="st2" x1="274.5" y1="215.4" x2="274.5" y2="172.2"/>
		<line class="st2" x1="225.5" y1="130.6" x2="188.1" y2="152.2"/>
		<line class="st2" x1="231.3" y1="140.6" x2="225.5" y2="130.6"/>
		<line class="st2" x1="336.4" y1="365.9" x2="333.5" y2="360.9"/>
		<line class="st2" x1="140.6" y1="242.8" x2="140.6" y2="199.6"/>
		<line class="st2" x1="333.5" y1="360.9" x2="296.1" y2="382.5"/>
		<line class="st2" x1="296.1" y1="382.5" x2="317.7" y2="419.9"/>
		<line class="st2" x1="119" y1="205.4" x2="119" y2="162.2"/>
		<line class="st2" x1="119" y1="205.4" x2="140.6" y2="242.8"/>
		<line class="st2" x1="137.7" y1="194.6" x2="119" y2="205.4"/>
		<line class="st2" x1="296.1" y1="382.5" x2="296.1" y2="339.3"/>
		<line class="st2" x1="333.5" y1="360.9" x2="333.5" y2="317.7"/>
		<line class="st2" x1="178" y1="221.2" x2="159.3" y2="188.8"/>
		<line class="st2" x1="140.6" y1="242.8" x2="178" y2="221.2"/>
		<line class="st2" x1="296.1" y1="339.3" x2="317.7" y2="376.7"/>
		<line class="st2" x1="81.6" y1="313.4" x2="44.2" y2="335"/>
		<line class="st2" x1="355.1" y1="355.1" x2="333.5" y2="317.7"/>
		<line class="st2" x1="103.2" y1="350.8" x2="81.6" y2="313.4"/>
		<line class="st2" x1="81.6" y1="356.6" x2="81.6" y2="313.4"/>
		<line class="st2" x1="333.5" y1="317.7" x2="296.1" y2="339.3"/>
		<line class="st2" x1="81.6" y1="356.6" x2="62.9" y2="367.4"/>
		<line class="st2" x1="103.2" y1="394" x2="81.6" y2="356.6"/>
		<line class="st2" x1="178" y1="221.2" x2="178" y2="178"/>
		<line class="st2" x1="209.7" y1="189.6" x2="247.1" y2="168"/>
		<line class="st2" x1="247.1" y1="211.2" x2="247.1" y2="168"/>
		<line class="st2" x1="188.1" y1="195.4" x2="188.1" y2="152.2"/>
		<line class="st2" x1="188.1" y1="152.2" x2="209.7" y2="189.6"/>
		<line class="st2" x1="209.7" y1="232.8" x2="209.7" y2="189.6"/>
		<line class="st2" x1="209.7" y1="232.8" x2="247.1" y2="211.2"/>
		<line class="st2" x1="188.1" y1="195.4" x2="209.7" y2="232.8"/>
		<line class="st2" x1="225.5" y1="173.8" x2="188.1" y2="195.4"/>
		<line class="st2" x1="247.1" y1="211.2" x2="225.5" y2="173.8"/>
		<line class="st2" x1="146.4" y1="425.7" x2="109" y2="447.3"/>
		<line class="st2" x1="225.5" y1="260.2" x2="225.5" y2="173.8"/>
		<line class="st2" x1="225.5" y1="260.2" x2="1" y2="389.8"/>
		<line class="st2" x1="168" y1="463.1" x2="146.4" y2="425.7"/>
		<line class="st2" x1="146.4" y1="468.9" x2="146.4" y2="425.7"/>
		<line class="st2" x1="225.5" y1="130.6" x2="225.5" y2="1"/>
		<line class="st2" x1="146.4" y1="468.9" x2="127.7" y2="479.7"/>
		<line class="st2" x1="149.3" y1="473.9" x2="146.4" y2="468.9"/>
		<line class="st2" x1="311.9" y1="193.8" x2="293.2" y2="161.4"/>
		<line class="st2" x1="231.3" y1="140.6" x2="274.5" y2="215.4"/>
		<line class="st2" x1="355.1" y1="484.7" x2="317.7" y2="419.9"/>
		<line class="st2" x1="103.2" y1="394" x2="103.2" y2="350.8"/>
		<line class="st2" x1="103.2" y1="350.8" x2="65.8" y2="372.4"/>
		<line class="st2" x1="296.1" y1="382.5" x2="225.5" y2="260.2"/>
		<line class="st2" x1="65.8" y1="415.6" x2="103.2" y2="394"/>
	</g>
	<g id="Make2D::visible::lines" class="st1">
		<line class="st3" x1="1" y1="389.8" x2="130.6" y2="614.3"/>
		<line class="st3" x1="65.8" y1="415.6" x2="65.8" y2="372.4"/>
		<line class="st3" x1="109" y1="490.5" x2="130.6" y2="527.9"/>
		<line class="st3" x1="355.1" y1="355.1" x2="355.1" y2="225.5"/>
		<line class="st3" x1="355.1" y1="484.7" x2="355.1" y2="398.3"/>
		<line class="st3" x1="130.6" y1="614.3" x2="355.1" y2="484.7"/>
		<line class="st3" x1="130.6" y1="614.3" x2="130.6" y2="527.9"/>
		<line class="st3" x1="130.6" y1="484.7" x2="130.6" y2="398.3"/>
		<line class="st3" x1="1" y1="130.6" x2="109" y2="317.7"/>
		<line class="st3" x1="268.7" y1="75.8" x2="225.5" y2="1"/>
		<line class="st3" x1="355.1" y1="225.5" x2="311.9" y2="150.6"/>
		<line class="st3" x1="168" y1="333.5" x2="355.1" y2="225.5"/>
		<line class="st3" x1="231.3" y1="97.4" x2="274.5" y2="172.2"/>
		<line class="st3" x1="130.6" y1="527.9" x2="168" y2="506.3"/>
		<line class="st3" x1="293.2" y1="161.4" x2="268.7" y2="119"/>
		<line class="st3" x1="168" y1="506.3" x2="149.3" y2="473.9"/>
		<line class="st3" x1="127.7" y1="479.7" x2="109" y2="490.5"/>
		<line class="st3" x1="225.5" y1="1" x2="1" y2="130.6"/>
		<line class="st3" x1="1" y1="389.8" x2="1" y2="130.6"/>
		<line class="st3" x1="168" y1="506.3" x2="168" y2="463.1"/>
		<line class="st3" x1="109" y1="490.5" x2="109" y2="447.3"/>
		<line class="st3" x1="156.4" y1="140.6" x2="178" y2="178"/>
		<line class="st3" x1="44.2" y1="378.2" x2="65.8" y2="415.6"/>
		<line class="st3" x1="62.9" y1="367.4" x2="44.2" y2="378.2"/>
		<line class="st3" x1="44.2" y1="378.2" x2="44.2" y2="335"/>
		<line class="st3" x1="317.7" y1="376.7" x2="355.1" y2="355.1"/>
		<line class="st3" x1="44.2" y1="335" x2="65.8" y2="372.4"/>
		<line class="st3" x1="317.7" y1="419.9" x2="317.7" y2="376.7"/>
		<line class="st3" x1="159.3" y1="188.8" x2="156.4" y2="183.8"/>
		<line class="st3" x1="156.4" y1="183.8" x2="137.7" y2="194.6"/>
		<line class="st3" x1="156.4" y1="140.6" x2="119" y2="162.2"/>
		<line class="st3" x1="156.4" y1="140.6" x2="156.4" y2="183.8"/>
		<line class="st3" x1="119" y1="162.2" x2="140.6" y2="199.6"/>
		<line class="st3" x1="355.1" y1="398.3" x2="336.4" y2="365.9"/>
		<line class="st3" x1="317.7" y1="419.9" x2="355.1" y2="398.3"/>
		<line class="st3" x1="146.4" y1="296.1" x2="109" y2="317.7"/>
		<line class="st3" x1="109" y1="360.9" x2="109" y2="317.7"/>
		<line class="st3" x1="168" y1="376.7" x2="168" y2="333.5"/>
		<line class="st3" x1="168" y1="333.5" x2="146.4" y2="296.1"/>
		<line class="st3" x1="146.4" y1="339.3" x2="146.4" y2="296.1"/>
		<line class="st3" x1="146.4" y1="339.3" x2="109" y2="360.9"/>
		<line class="st3" x1="168" y1="376.7" x2="146.4" y2="339.3"/>
		<line class="st3" x1="130.6" y1="398.3" x2="168" y2="376.7"/>
		<line class="st3" x1="109" y1="360.9" x2="130.6" y2="398.3"/>
		<line class="st3" x1="178" y1="178" x2="140.6" y2="199.6"/>
		<line class="st3" x1="130.6" y1="484.7" x2="168" y2="463.1"/>
		<line class="st3" x1="109" y1="447.3" x2="130.6" y2="484.7"/>
		<line class="st3" x1="268.7" y1="119" x2="250" y2="129.8"/>
		<line class="st3" x1="274.5" y1="172.2" x2="311.9" y2="150.6"/>
		<line class="st3" x1="268.7" y1="75.8" x2="231.3" y2="97.4"/>
		<line class="st3" x1="268.7" y1="119" x2="268.7" y2="75.8"/>
	</g>
</g>
<g id="Layer_2">
	<line class="st4" x1="226.8" y1="250" x2="226.8" y2="271.6"/>
	<line class="st4" x1="208.1" y1="260.8" x2="226.8" y2="250"/>
	<line class="st4" x1="208.1" y1="282.4" x2="208.1" y2="260.8"/>
	<line class="st4" x1="277.6" y1="446" x2="261.6" y2="418.3"/>
	<line class="st4" x1="268.3" y1="408.4" x2="260" y2="393.9"/>
	<line class="st4" x1="226.8" y1="271.6" x2="208.1" y2="282.4"/>
	<line class="st4" x1="291.4" y1="361.9" x2="285.1" y2="351.1"/>
	<line class="st4" x1="297.1" y1="393.4" x2="286.2" y2="374.6"/>
	<line class="st4" x1="189.4" y1="293.2" x2="170.6" y2="304"/>
	<line class="st4" x1="189.4" y1="271.6" x2="189.4" y2="293.2"/>
	<line class="st4" x1="170.6" y1="282.4" x2="189.4" y2="271.6"/>
	<line class="st4" x1="170.6" y1="304" x2="170.6" y2="282.4"/>
	<line class="st4" x1="250.5" y1="485.6" x2="230.8" y2="451.5"/>
	<line class="st4" x1="239" y1="444" x2="228.9" y2="426.4"/>
	<line class="st4" x1="30.4" y1="320.2" x2="39.7" y2="314.8"/>
	<line class="st4" x1="39.7" y1="314.8" x2="39.7" y2="336.4"/>
	<line class="st4" x1="39.7" y1="336.4" x2="21" y2="347.2"/>
	<line class="st4" x1="151.9" y1="314.8" x2="133.2" y2="325.6"/>
	<line class="st4" x1="151.9" y1="293.2" x2="151.9" y2="314.8"/>
	<line class="st4" x1="133.2" y1="304" x2="151.9" y2="293.2"/>
	<line class="st4" x1="133.2" y1="325.6" x2="133.2" y2="304"/>
	<line class="st4" x1="218.1" y1="515.8" x2="195.8" y2="477.2"/>
	<line class="st4" x1="204.9" y1="471.3" x2="193.7" y2="451.9"/>
	<line class="st4" x1="126.3" y1="464.8" x2="116.3" y2="447.5"/>
	<line class="st4" x1="138" y1="506.8" x2="116.7" y2="469.8"/>
	<line class="st4" x1="58.4" y1="325.6" x2="58.4" y2="304"/>
	<line class="st4" x1="114.5" y1="336.4" x2="95.8" y2="347.2"/>
	<line class="st4" x1="114.5" y1="314.8" x2="114.5" y2="336.4"/>
	<line class="st4" x1="95.8" y1="325.6" x2="114.5" y2="314.8"/>
	<line class="st4" x1="95.8" y1="347.2" x2="95.8" y2="325.6"/>
	<line class="st4" x1="181.1" y1="538.1" x2="157.9" y2="497.9"/>
	<line class="st4" x1="167.6" y1="493.1" x2="156.2" y2="473.3"/>
	<line class="st4" x1="58.4" y1="304" x2="77.1" y2="293.2"/>
	<line class="st4" x1="77.1" y1="293.2" x2="77.1" y2="314.8"/>
	<line class="st4" x1="77.1" y1="314.8" x2="58.4" y2="325.6"/>
	<line class="st4" x1="77.1" y1="358" x2="58.4" y2="368.8"/>
	<line class="st4" x1="77.1" y1="336.4" x2="77.1" y2="358"/>
	<line class="st4" x1="58.4" y1="347.2" x2="77.1" y2="336.4"/>
	<line class="st4" x1="58.4" y1="368.8" x2="58.4" y2="347.2"/>
	<line class="st4" x1="140.2" y1="553.6" x2="117.6" y2="514.5"/>
	<line class="st4" x1="127.9" y1="510.8" x2="117.2" y2="492.2"/>
	<line class="st4" x1="163.7" y1="443.2" x2="152.6" y2="424"/>
	<line class="st4" x1="177.1" y1="488.1" x2="154.4" y2="448.7"/>
	<line class="st4" x1="95.8" y1="304" x2="95.8" y2="282.4"/>
	<line class="st4" x1="39.7" y1="379.6" x2="21" y2="390.4"/>
	<line class="st4" x1="39.7" y1="358" x2="39.7" y2="379.6"/>
	<line class="st4" x1="30.4" y1="363.4" x2="39.7" y2="358"/>
	<line class="st4" x1="95.8" y1="282.4" x2="114.5" y2="271.6"/>
	<line class="st4" x1="114.5" y1="271.6" x2="114.5" y2="293.2"/>
	<line class="st4" x1="114.5" y1="293.2" x2="95.8" y2="304"/>
	<line class="st4" x1="200.6" y1="420.6" x2="189.3" y2="401.1"/>
	<line class="st4" x1="213.8" y1="465.1" x2="191.5" y2="426.5"/>
	<line class="st4" x1="133.2" y1="282.4" x2="133.2" y2="260.8"/>
	<line class="st4" x1="133.2" y1="260.8" x2="151.9" y2="250"/>
	<line class="st4" x1="151.9" y1="250" x2="151.9" y2="271.6"/>
	<line class="st4" x1="151.9" y1="271.6" x2="133.2" y2="282.4"/>
	<line class="st4" x1="235.3" y1="394.4" x2="225" y2="376.6"/>
	<line class="st4" x1="246.9" y1="436" x2="226.9" y2="401.5"/>
	<line class="st4" x1="170.6" y1="239.2" x2="189.4" y2="228.4"/>
	<line class="st4" x1="189.4" y1="228.4" x2="189.4" y2="250"/>
	<line class="st4" x1="189.4" y1="250" x2="170.6" y2="260.8"/>
	<line class="st4" x1="265.3" y1="360" x2="256.9" y2="345.4"/>
	<line class="st4" x1="274.7" y1="397.8" x2="258.4" y2="369.6"/>
	<line class="st4" x1="208.1" y1="239.2" x2="208.1" y2="217.6"/>
	<line class="st4" x1="208.1" y1="217.6" x2="226.8" y2="206.8"/>
	<line class="st4" x1="226.8" y1="206.8" x2="226.8" y2="228.4"/>
	<line class="st4" x1="226.8" y1="228.4" x2="208.1" y2="239.2"/>
	<line class="st4" x1="289.8" y1="316" x2="283.1" y2="304.4"/>
	<line class="st4" x1="296" y1="348.4" x2="284.1" y2="327.7"/>
	<line class="st4" x1="30.4" y1="277" x2="39.7" y2="271.6"/>
	<line class="st4" x1="39.7" y1="271.6" x2="39.7" y2="293.2"/>
	<line class="st4" x1="39.7" y1="293.2" x2="21" y2="304"/>
	<line class="st4" x1="124.5" y1="418.4" x2="115.3" y2="402.5"/>
	<line class="st4" x1="135.7" y1="459.5" x2="115.8" y2="425"/>
	<line class="st4" x1="58.4" y1="282.4" x2="58.4" y2="260.8"/>
	<line class="st4" x1="58.4" y1="260.8" x2="77.1" y2="250"/>
	<line class="st4" x1="77.1" y1="250" x2="77.1" y2="271.6"/>
	<line class="st4" x1="77.1" y1="271.6" x2="58.4" y2="282.4"/>
	<line class="st4" x1="159.7" y1="393.1" x2="148.8" y2="374.2"/>
	<line class="st4" x1="173" y1="437.7" x2="150.8" y2="399.2"/>
	<line class="st4" x1="95.8" y1="260.8" x2="95.8" y2="239.2"/>
	<line class="st4" x1="95.8" y1="239.2" x2="114.5" y2="228.4"/>
	<line class="st4" x1="114.5" y1="228.4" x2="114.5" y2="250"/>
	<line class="st4" x1="114.5" y1="250" x2="95.8" y2="260.8"/>
	<line class="st4" x1="196.3" y1="370.1" x2="185" y2="350.5"/>
	<line class="st4" x1="209.5" y1="414.6" x2="187.2" y2="375.8"/>
	<line class="st4" x1="133.2" y1="239.2" x2="133.2" y2="217.6"/>
	<line class="st4" x1="133.2" y1="217.6" x2="151.9" y2="206.8"/>
	<line class="st4" x1="151.9" y1="206.8" x2="151.9" y2="228.4"/>
	<line class="st4" x1="151.9" y1="228.4" x2="133.2" y2="239.2"/>
	<line class="st4" x1="231.7" y1="345" x2="221.3" y2="327"/>
	<line class="st4" x1="243.4" y1="386.8" x2="223.2" y2="351.8"/>
	<line class="st4" x1="170.6" y1="217.6" x2="170.6" y2="196"/>
	<line class="st4" x1="170.6" y1="196" x2="189.4" y2="185.2"/>
	<line class="st4" x1="189.4" y1="185.2" x2="189.4" y2="206.8"/>
	<line class="st4" x1="189.4" y1="206.8" x2="170.6" y2="217.6"/>
	<line class="st4" x1="262.5" y1="311.8" x2="253.9" y2="297"/>
	<line class="st4" x1="271.9" y1="349.7" x2="255.4" y2="321.2"/>
	<line class="st4" x1="208.1" y1="196" x2="208.1" y2="174.4"/>
	<line class="st4" x1="208.1" y1="174.4" x2="226.8" y2="163.6"/>
	<line class="st4" x1="226.8" y1="163.6" x2="226.8" y2="185.2"/>
	<line class="st4" x1="226.8" y1="185.2" x2="208.1" y2="196"/>
	<line class="st4" x1="288.4" y1="270.4" x2="281.3" y2="258"/>
	<line class="st4" x1="295.1" y1="303.7" x2="282.2" y2="281.2"/>
	<line class="st4" x1="30.4" y1="233.8" x2="39.7" y2="228.4"/>
	<line class="st4" x1="39.7" y1="228.4" x2="39.7" y2="250"/>
	<line class="st4" x1="39.7" y1="250" x2="21" y2="260.8"/>
	<line class="st4" x1="122.5" y1="371.7" x2="114.1" y2="357.3"/>
	<line class="st4" x1="133.2" y1="411.9" x2="114.7" y2="379.9"/>
	<line class="st4" x1="58.4" y1="239.2" x2="58.4" y2="217.6"/>
	<line class="st4" x1="58.4" y1="217.6" x2="77.1" y2="206.8"/>
	<line class="st4" x1="77.1" y1="206.8" x2="77.1" y2="228.4"/>
	<line class="st4" x1="77.1" y1="228.4" x2="58.4" y2="239.2"/>
	<line class="st4" x1="155.6" y1="342.7" x2="144.8" y2="324.1"/>
	<line class="st4" x1="168.8" y1="387.2" x2="146.9" y2="349.2"/>
	<line class="st4" x1="95.8" y1="217.6" x2="95.8" y2="196"/>
	<line class="st4" x1="95.8" y1="196" x2="114.5" y2="185.2"/>
	<line class="st4" x1="114.5" y1="185.2" x2="114.5" y2="206.8"/>
	<line class="st4" x1="114.5" y1="206.8" x2="95.8" y2="217.6"/>
	<line class="st4" x1="192.1" y1="319.6" x2="180.7" y2="299.9"/>
	<line class="st4" x1="205.4" y1="364.2" x2="182.9" y2="325.2"/>
	<line class="st4" x1="133.2" y1="196" x2="133.2" y2="174.4"/>
	<line class="st4" x1="133.2" y1="174.4" x2="151.9" y2="163.6"/>
	<line class="st4" x1="151.9" y1="163.6" x2="151.9" y2="185.2"/>
	<line class="st4" x1="151.9" y1="185.2" x2="133.2" y2="196"/>
	<line class="st4" x1="228.3" y1="295.9" x2="217.8" y2="277.7"/>
	<line class="st4" x1="240" y1="337.8" x2="219.5" y2="302.3"/>
	<line class="st4" x1="170.6" y1="174.4" x2="170.6" y2="152.8"/>
	<line class="st4" x1="170.6" y1="152.8" x2="189.4" y2="142"/>
	<line class="st4" x1="189.4" y1="142" x2="189.4" y2="163.6"/>
	<line class="st4" x1="189.4" y1="163.6" x2="170.6" y2="174.4"/>
	<line class="st4" x1="259.7" y1="263.9" x2="251.1" y2="248.9"/>
	<line class="st4" x1="269.2" y1="302" x2="252.5" y2="272.9"/>
	<line class="st4" x1="208.1" y1="152.8" x2="208.1" y2="131.2"/>
	<line class="st4" x1="208.1" y1="131.2" x2="226.8" y2="120.4"/>
	<line class="st4" x1="226.8" y1="120.4" x2="226.8" y2="142"/>
	<line class="st4" x1="226.8" y1="142" x2="208.1" y2="152.8"/>
	<line class="st4" x1="287.1" y1="225" x2="279.6" y2="211.9"/>
	<line class="st4" x1="294.4" y1="259.1" x2="280.4" y2="235"/>
	<line class="st4" x1="30.4" y1="190.6" x2="39.7" y2="185.2"/>
	<line class="st4" x1="39.7" y1="185.2" x2="39.7" y2="206.8"/>
	<line class="st4" x1="39.7" y1="206.8" x2="21" y2="217.6"/>
	<line class="st4" x1="120.2" y1="324.6" x2="112.8" y2="311.8"/>
	<line class="st4" x1="130.4" y1="363.8" x2="113.5" y2="334.6"/>
	<line class="st4" x1="58.4" y1="196" x2="58.4" y2="174.4"/>
	<line class="st4" x1="67.8" y1="169" x2="77.1" y2="163.6"/>
	<line class="st4" x1="77.1" y1="163.6" x2="77.1" y2="185.2"/>
	<line class="st4" x1="77.1" y1="185.2" x2="58.4" y2="196"/>
	<line class="st4" x1="151.3" y1="292" x2="140.7" y2="273.7"/>
	<line class="st4" x1="164.5" y1="336.6" x2="142.8" y2="298.9"/>
	<line class="st4" x1="95.8" y1="174.4" x2="95.8" y2="152.8"/>
	<line class="st4" x1="105.2" y1="147.4" x2="114.5" y2="142"/>
	<line class="st4" x1="114.5" y1="142" x2="114.5" y2="163.6"/>
	<line class="st4" x1="114.5" y1="163.6" x2="95.8" y2="174.4"/>
	<line class="st4" x1="188.1" y1="269.4" x2="176.6" y2="249.5"/>
	<line class="st4" x1="201.4" y1="314" x2="178.6" y2="274.7"/>
	<line class="st4" x1="133.2" y1="152.8" x2="133.2" y2="131.2"/>
	<line class="st4" x1="142.6" y1="125.8" x2="151.9" y2="120.4"/>
	<line class="st4" x1="151.9" y1="120.4" x2="151.9" y2="142"/>
	<line class="st4" x1="151.9" y1="142" x2="133.2" y2="152.8"/>
	<line class="st4" x1="225.1" y1="247.1" x2="214.4" y2="228.7"/>
	<line class="st4" x1="236.8" y1="289" x2="216.1" y2="253.2"/>
	<line class="st4" x1="170.6" y1="131.2" x2="170.6" y2="109.6"/>
	<line class="st4" x1="180" y1="104.2" x2="189.4" y2="98.8"/>
	<line class="st4" x1="189.4" y1="98.8" x2="189.4" y2="120.4"/>
	<line class="st4" x1="189.4" y1="120.4" x2="170.6" y2="131.2"/>
	<line class="st4" x1="257.1" y1="216.2" x2="248.3" y2="201"/>
	<line class="st4" x1="266.7" y1="254.4" x2="249.7" y2="224.9"/>
	<line class="st4" x1="208.1" y1="109.6" x2="208.1" y2="88"/>
	<line class="st4" x1="217.4" y1="82.6" x2="226.8" y2="77.2"/>
	<line class="st4" x1="226.8" y1="77.2" x2="226.8" y2="98.8"/>
	<line class="st4" x1="226.8" y1="98.8" x2="208.1" y2="109.6"/>
	<line class="st4" x1="286" y1="179.8" x2="278.1" y2="166.1"/>
	<line class="st4" x1="293.7" y1="214.7" x2="278.8" y2="189"/>
	<line class="st4" x1="226.8" y1="34" x2="226.8" y2="55.6"/>
	<line class="st4" x1="226.8" y1="55.6" x2="208.1" y2="66.4"/>
	<line class="st4" x1="293.1" y1="170.5" x2="226.8" y2="55.6"/>
	<line class="st4" x1="189.4" y1="55.6" x2="189.4" y2="77.2"/>
	<line class="st4" x1="189.4" y1="77.2" x2="170.6" y2="88"/>
	<line class="st4" x1="264.4" y1="207.2" x2="189.4" y2="77.2"/>
	<line class="st4" x1="151.9" y1="77.2" x2="151.9" y2="98.8"/>
	<line class="st4" x1="151.9" y1="98.8" x2="133.2" y2="109.6"/>
	<line class="st4" x1="233.7" y1="240.5" x2="151.9" y2="98.8"/>
	<line class="st4" x1="114.5" y1="98.8" x2="114.5" y2="120.4"/>
	<line class="st4" x1="114.5" y1="120.4" x2="95.8" y2="131.2"/>
	<line class="st4" x1="197.5" y1="264.1" x2="114.5" y2="120.4"/>
	<line class="st4" x1="77.1" y1="120.4" x2="77.1" y2="142"/>
	<line class="st4" x1="77.1" y1="142" x2="58.4" y2="152.8"/>
	<line class="st4" x1="160.2" y1="285.8" x2="77.1" y2="142"/>
	<line class="st4" x1="39.7" y1="142" x2="39.7" y2="163.6"/>
	<line class="st4" x1="39.7" y1="163.6" x2="21" y2="174.4"/>
	<line class="st4" x1="170.6" y1="260.8" x2="170.6" y2="239.2"/>
	<line class="st4" x1="127.3" y1="315.3" x2="39.7" y2="163.6"/>
	<path class="st3" d="M118,536.8c0.1,7.4,0.2,14.8,0.4,22.2"/>
	<line class="st3" x1="125.6" y1="290.8" x2="39.7" y2="142"/>
	<line class="st3" x1="113.5" y1="334.6" x2="21" y2="174.4"/>
	<line class="st3" x1="112.8" y1="311.8" x2="21" y2="152.8"/>
	<path class="st3" d="M140.2,553.6c-0.3-7.8-0.7-15.6-1-23.4"/>
	<path class="st3" d="M139.1,530.2c-7,2.4-14,4.6-21.2,6.5"/>
	<line class="st3" x1="21" y1="152.8" x2="39.7" y2="142"/>
	<line class="st3" x1="21" y1="174.4" x2="21" y2="152.8"/>
	<path class="st3" d="M113.5,334.6c4.3-6.7,8.8-13.2,13.8-19.3"/>
	<line class="st3" x1="158" y1="260.5" x2="77.1" y2="120.4"/>
	<line class="st3" x1="142.8" y1="298.9" x2="58.4" y2="152.8"/>
	<line class="st3" x1="140.7" y1="273.7" x2="58.4" y2="131.2"/>
	<path class="st3" d="M127.3,315.3c-0.5-8.2-1.1-16.3-1.7-24.5"/>
	<path class="st3" d="M125.6,290.8c-4.8,6.7-9,13.7-12.8,21"/>
	<line class="st3" x1="58.4" y1="131.2" x2="77.1" y2="120.4"/>
	<line class="st3" x1="58.4" y1="152.8" x2="58.4" y2="131.2"/>
	<path class="st3" d="M112.8,311.8c0.2,7.6,0.5,15.2,0.7,22.8"/>
	<line class="st3" x1="195.6" y1="239.3" x2="114.5" y2="98.8"/>
	<line class="st3" x1="178.6" y1="274.7" x2="95.8" y2="131.2"/>
	<line class="st3" x1="176.6" y1="249.5" x2="95.8" y2="109.6"/>
	<path class="st3" d="M142.8,298.9c5.5-4.8,11.3-9.1,17.4-13.1"/>
	<path class="st3" d="M160.2,285.8c-0.7-8.5-1.5-16.9-2.2-25.4"/>
	<line class="st3" x1="95.8" y1="109.6" x2="114.5" y2="98.8"/>
	<line class="st3" x1="95.8" y1="131.2" x2="95.8" y2="109.6"/>
	<path class="st3" d="M158,260.5c-6.1,4-11.9,8.3-17.3,13.2"/>
	<line class="st3" x1="232.3" y1="216.3" x2="151.9" y2="77.2"/>
	<line class="st3" x1="216.1" y1="253.2" x2="133.2" y2="109.6"/>
	<line class="st3" x1="214.4" y1="228.7" x2="133.2" y2="88"/>
	<path class="st3" d="M140.7,273.7c0.7,8.4,1.4,16.8,2.1,25.3"/>
	<path class="st3" d="M178.6,274.7c6.3-3.5,12.6-7,18.9-10.5"/>
	<line class="st3" x1="133.2" y1="88" x2="151.9" y2="77.2"/>
	<line class="st3" x1="133.2" y1="109.6" x2="133.2" y2="88"/>
	<path class="st3" d="M197.5,264.1c-0.6-8.3-1.3-16.6-1.9-24.9"/>
	<line class="st3" x1="263.3" y1="183.6" x2="189.4" y2="55.6"/>
	<line class="st3" x1="249.7" y1="224.9" x2="170.6" y2="88"/>
	<line class="st3" x1="248.3" y1="201" x2="170.6" y2="66.4"/>
	<path class="st3" d="M195.6,239.3c-6.4,3.4-12.7,6.8-19.1,10.2"/>
	<path class="st3" d="M176.6,249.5c0.7,8.4,1.4,16.8,2.1,25.2"/>
	<line class="st3" x1="170.6" y1="66.4" x2="189.4" y2="55.6"/>
	<line class="st3" x1="170.6" y1="88" x2="170.6" y2="66.4"/>
	<path class="st3" d="M216.1,253.2c6.1-3.9,12-8,17.6-12.7"/>
	<line class="st3" x1="292.8" y1="148.4" x2="226.8" y2="34"/>
	<line class="st3" x1="278.8" y1="189" x2="208.1" y2="66.4"/>
	<line class="st3" x1="278.1" y1="166.1" x2="208.1" y2="44.8"/>
	<path class="st3" d="M233.7,240.5c-0.5-8.1-1-16.1-1.5-24.2"/>
	<path class="st3" d="M232.3,216.3c-5.6,4.6-11.6,8.6-17.8,12.4"/>
	<line class="st3" x1="208.1" y1="44.8" x2="226.8" y2="34"/>
	<line class="st3" x1="208.1" y1="66.4" x2="208.1" y2="44.8"/>
	<path class="st3" d="M214.4,228.7c0.5,8.2,1.1,16.3,1.7,24.5"/>
	<path class="st3" d="M249.7,224.9c5.1-5.7,9.9-11.7,14.7-17.8"/>
	<line class="st3" x1="293.4" y1="192.6" x2="286" y2="179.8"/>
	<line class="st3" x1="280.4" y1="235" x2="264.4" y2="207.2"/>
	<line class="st3" x1="279.6" y1="211.9" x2="263.3" y2="183.6"/>
	<path class="st3" d="M264.4,207.2c-0.4-7.8-0.8-15.7-1.1-23.5"/>
	<path class="st3" d="M263.3,183.6c-4.9,5.8-9.8,11.7-14.9,17.4"/>
	<path class="st3" d="M248.3,201c0.4,8,0.9,16,1.4,23.9"/>
	<line class="st3" x1="208.1" y1="88" x2="217.4" y2="82.6"/>
	<path class="st3" d="M278.8,189c4.8-6.1,9.6-12.3,14.3-18.5"/>
	<path class="st3" d="M293.1,170.5c-0.1-7.4-0.2-14.7-0.3-22.1"/>
	<path class="st3" d="M292.8,148.4c-4.8,5.9-9.8,11.8-14.7,17.7"/>
	<line class="st3" x1="265.5" y1="230.8" x2="257.1" y2="216.2"/>
	<line class="st3" x1="252.5" y1="272.9" x2="233.7" y2="240.5"/>
	<line class="st3" x1="251.1" y1="248.9" x2="232.3" y2="216.3"/>
	<path class="st3" d="M278.1,166.1c0.2,7.6,0.5,15.3,0.7,22.9"/>
	<path class="st3" d="M280.4,235c4.6-6.6,9-13.4,13.3-20.2"/>
	<path class="st3" d="M293.7,214.7c-0.1-7.4-0.2-14.8-0.3-22.1"/>
	<line class="st3" x1="170.6" y1="109.6" x2="180" y2="104.2"/>
	<path class="st3" d="M293.4,192.6c-4.5,6.5-9.1,13-13.8,19.3"/>
	<path class="st3" d="M279.6,211.9c0.3,7.7,0.5,15.3,0.8,23"/>
	<path class="st3" d="M252.5,272.9c5-6,9.7-12.2,14.2-18.5"/>
	<line class="st3" x1="235.3" y1="264.7" x2="225.1" y2="247.1"/>
	<line class="st3" x1="219.5" y1="302.3" x2="197.5" y2="264.1"/>
	<line class="st3" x1="217.8" y1="277.7" x2="195.6" y2="239.3"/>
	<path class="st3" d="M266.7,254.4c-0.4-7.9-0.8-15.8-1.2-23.7"/>
	<path class="st3" d="M265.5,230.8c-4.7,6.2-9.4,12.3-14.5,18.1"/>
	<path class="st3" d="M251.1,248.9c0.5,8,0.9,16,1.4,24"/>
	<line class="st3" x1="133.2" y1="131.2" x2="142.6" y2="125.8"/>
	<path class="st3" d="M219.5,302.3c6-4.1,11.7-8.5,17.3-13.3"/>
	<path class="st3" d="M236.8,289c-0.5-8.1-1-16.2-1.5-24.3"/>
	<path class="st3" d="M235.3,264.7c-5.5,4.7-11.4,9-17.5,13"/>
	<line class="st3" x1="199.4" y1="289.1" x2="188.1" y2="269.4"/>
	<line class="st3" x1="182.9" y1="325.2" x2="160.2" y2="285.8"/>
	<line class="st3" x1="180.7" y1="299.9" x2="158" y2="260.5"/>
	<path class="st3" d="M217.8,277.7c0.6,8.2,1.2,16.4,1.7,24.6"/>
	<path class="st3" d="M182.9,325.2c6.2-3.7,12.4-7.4,18.5-11.1"/>
	<path class="st3" d="M201.4,314c-0.7-8.3-1.3-16.7-2-25"/>
	<line class="st3" x1="95.8" y1="152.8" x2="105.2" y2="147.4"/>
	<path class="st3" d="M199.4,289.1c-6.2,3.6-12.5,7.2-18.7,10.8"/>
	<path class="st3" d="M180.7,299.9c0.7,8.4,1.4,16.8,2.1,25.3"/>
	<path class="st3" d="M146.9,349.2c5.7-4.5,11.6-8.7,17.6-12.7"/>
	<line class="st3" x1="162.3" y1="311.2" x2="151.3" y2="292"/>
	<line class="st3" x1="146.9" y1="349.2" x2="127.3" y2="315.3"/>
	<line class="st3" x1="144.8" y1="324.1" x2="125.6" y2="290.8"/>
	<path class="st3" d="M164.5,336.6c-0.7-8.5-1.4-16.9-2.2-25.4"/>
	<path class="st3" d="M162.3,311.2c-6.1,4-11.9,8.2-17.5,12.9"/>
	<path class="st3" d="M144.8,324.1c0.7,8.4,1.4,16.7,2,25.1"/>
	<line class="st3" x1="58.4" y1="174.4" x2="67.8" y2="169"/>
	<path class="st3" d="M114.7,379.9c5.1-5.5,10.3-10.9,15.6-16.1"/>
	<path class="st3" d="M130.4,363.8c-0.5-8.1-1-16.1-1.5-24.2"/>
	<path class="st3" d="M128.8,339.6c-5.2,5.7-10.1,11.6-14.7,17.7"/>
	<line class="st3" x1="128.8" y1="339.6" x2="120.2" y2="324.6"/>
	<line class="st3" x1="114.7" y1="379.9" x2="21" y2="217.6"/>
	<line class="st3" x1="114.1" y1="357.3" x2="21" y2="196"/>
	<path class="st3" d="M114.1,357.3c0.2,7.5,0.4,15.1,0.6,22.6"/>
	<path class="st3" d="M282.2,281.2c4.3-7.2,8.4-14.6,12.2-22.1"/>
	<path class="st3" d="M294.4,259.1c-0.1-7.4-0.2-14.8-0.3-22.2"/>
	<line class="st3" x1="21" y1="196" x2="30.4" y2="190.6"/>
	<line class="st3" x1="21" y1="217.6" x2="21" y2="196"/>
	<path class="st3" d="M294,236.9c-4.1,7.2-8.3,14.2-12.7,21.1"/>
	<path class="st3" d="M281.3,258c0.3,7.7,0.6,15.4,0.9,23.2"/>
	<line class="st3" x1="294" y1="236.9" x2="287.1" y2="225"/>
	<line class="st3" x1="282.2" y1="281.2" x2="266.7" y2="254.4"/>
	<line class="st3" x1="281.3" y1="258" x2="265.5" y2="230.8"/>
	<path class="st3" d="M255.4,321.2c5-6.2,9.5-12.6,13.8-19.2"/>
	<path class="st3" d="M269.2,302c-0.4-7.9-0.9-15.9-1.3-23.8"/>
	<path class="st3" d="M268,278.2c-4.4,6.5-9,12.8-14,18.9"/>
	<path class="st3" d="M253.9,297c0.5,8,1,16.1,1.5,24.1"/>
	<path class="st3" d="M223.2,351.8c5.9-4.4,11.5-9,16.9-14"/>
	<path class="st3" d="M240,337.8c-0.5-8.1-1.1-16.3-1.6-24.4"/>
	<line class="st3" x1="268" y1="278.2" x2="259.7" y2="263.9"/>
	<line class="st3" x1="255.4" y1="321.2" x2="236.8" y2="289"/>
	<line class="st3" x1="253.9" y1="297" x2="235.3" y2="264.7"/>
	<path class="st3" d="M238.4,313.3c-5.4,4.9-11.1,9.4-17.1,13.7"/>
	<path class="st3" d="M221.3,327c0.6,8.3,1.2,16.5,1.8,24.8"/>
	<path class="st3" d="M187.2,375.8c6.1-3.8,12.2-7.7,18.2-11.6"/>
	<path class="st3" d="M205.4,364.2c-0.7-8.4-1.4-16.7-2-25.1"/>
	<path class="st3" d="M203.4,339.1c-6.1,3.8-12.2,7.6-18.4,11.4"/>
	<path class="st3" d="M185,350.5c0.7,8.4,1.4,16.9,2.2,25.3"/>
	<line class="st3" x1="238.4" y1="313.3" x2="228.3" y2="295.9"/>
	<line class="st3" x1="223.2" y1="351.8" x2="201.4" y2="314"/>
	<line class="st3" x1="221.3" y1="327" x2="199.4" y2="289.1"/>
	<path class="st3" d="M150.8,399.2c5.9-4.1,11.9-8.1,18.1-11.9"/>
	<path class="st3" d="M168.8,387.2c-0.7-8.4-1.4-16.9-2.1-25.3"/>
	<path class="st3" d="M166.7,361.9c-6.1,3.9-12,8-17.8,12.3"/>
	<path class="st3" d="M148.8,374.2c0.6,8.3,1.3,16.6,1.9,24.9"/>
	<path class="st3" d="M115.8,425c5.8-4.4,11.6-8.7,17.4-13.1"/>
	<path class="st3" d="M133.2,411.9c-0.4-8-0.9-16-1.4-24"/>
	<line class="st3" x1="203.4" y1="339.1" x2="192.1" y2="319.6"/>
	<line class="st3" x1="187.2" y1="375.8" x2="164.5" y2="336.6"/>
	<line class="st3" x1="185" y1="350.5" x2="162.3" y2="311.2"/>
	<path class="st3" d="M131.8,387.9c-5.6,4.8-11.1,9.6-16.5,14.6"/>
	<path class="st3" d="M115.3,402.5c0.2,7.5,0.4,15,0.5,22.5"/>
	<path class="st3" d="M284.1,327.7c4-7.9,7.7-15.9,11-24.1"/>
	<path class="st3" d="M295.1,303.7c-0.1-7.4-0.3-14.9-0.4-22.3"/>
	<path class="st3" d="M294.7,281.4c-3.6,7.8-7.5,15.5-11.6,23.1"/>
	<path class="st3" d="M283.1,304.4c0.3,7.8,0.6,15.5,1,23.3"/>
	<line class="st3" x1="166.7" y1="361.9" x2="155.6" y2="342.7"/>
	<line class="st3" x1="150.8" y1="399.2" x2="130.4" y2="363.8"/>
	<line class="st3" x1="148.8" y1="374.2" x2="128.8" y2="339.6"/>
	<path class="st3" d="M258.4,369.6c4.9-6.4,9.3-13,13.5-19.9"/>
	<path class="st3" d="M271.9,349.7c-0.5-8-0.9-15.9-1.3-23.9"/>
	<path class="st3" d="M270.5,325.8c-4.3,6.7-8.7,13.3-13.6,19.6"/>
	<path class="st3" d="M256.9,345.4c0.5,8.1,1,16.2,1.5,24.2"/>
	<path class="st3" d="M226.9,401.5c5.7-4.6,11.2-9.5,16.4-14.7"/>
	<path class="st3" d="M243.4,386.8c-0.6-8.2-1.1-16.4-1.7-24.5"/>
	<line class="st3" x1="131.8" y1="387.9" x2="122.5" y2="371.7"/>
	<line class="st3" x1="115.8" y1="425" x2="21" y2="260.8"/>
	<line class="st3" x1="115.3" y1="402.5" x2="21" y2="239.2"/>
	<path class="st3" d="M241.7,362.2c-5.3,5.1-10.8,9.9-16.6,14.4"/>
	<path class="st3" d="M225,376.6c0.6,8.3,1.3,16.6,1.9,24.9"/>
	<path class="st3" d="M191.5,426.5c6.1-3.8,12.1-7.8,18-11.9"/>
	<line class="st3" x1="21" y1="239.2" x2="30.4" y2="233.8"/>
	<line class="st3" x1="21" y1="260.8" x2="21" y2="239.2"/>
	<path class="st3" d="M209.5,414.6c-0.7-8.4-1.4-16.8-2.1-25.2"/>
	<path class="st3" d="M207.4,389.3c-6,4-12,8-18.1,11.8"/>
	<line class="st3" x1="294.7" y1="281.4" x2="288.4" y2="270.4"/>
	<line class="st3" x1="284.1" y1="327.7" x2="269.2" y2="302"/>
	<line class="st3" x1="283.1" y1="304.4" x2="268" y2="278.2"/>
	<path class="st3" d="M189.3,401.1c0.7,8.5,1.4,16.9,2.2,25.4"/>
	<path class="st3" d="M154.4,448.7c6.2-3.6,12.4-7.3,18.6-11"/>
	<path class="st3" d="M173,437.7c-0.7-8.4-1.4-16.8-2.1-25.2"/>
	<path class="st3" d="M170.9,412.5c-6.1,3.8-12.3,7.6-18.3,11.5"/>
	<path class="st3" d="M152.6,424c0.6,8.2,1.2,16.5,1.8,24.7"/>
	<path class="st3" d="M116.7,469.8c6.4-3.3,12.7-6.8,19-10.3"/>
	<line class="st3" x1="270.5" y1="325.8" x2="262.5" y2="311.8"/>
	<line class="st3" x1="258.4" y1="369.6" x2="240" y2="337.8"/>
	<line class="st3" x1="256.9" y1="345.4" x2="238.4" y2="313.3"/>
	<path class="st3" d="M135.7,459.5c-0.4-7.9-0.8-15.8-1.2-23.8"/>
	<path class="st3" d="M134.5,435.8c-6,4-12.1,7.8-18.2,11.7"/>
	<path class="st3" d="M116.3,447.5c0.2,7.5,0.3,14.9,0.5,22.4"/>
	<path class="st3" d="M286.2,374.6c3.8-8.6,7-17.3,9.8-26.2"/>
	<path class="st3" d="M296,348.4c-0.2-7.5-0.3-14.9-0.5-22.4"/>
	<path class="st3" d="M295.6,326c-3.1,8.6-6.5,16.9-10.4,25.1"/>
	<line class="st3" x1="241.7" y1="362.2" x2="231.7" y2="345"/>
	<line class="st3" x1="226.9" y1="401.5" x2="205.4" y2="364.2"/>
	<line class="st3" x1="225" y1="376.6" x2="203.4" y2="339.1"/>
	<path class="st3" d="M285.1,351.1c0.4,7.8,0.7,15.6,1.1,23.5"/>
	<path class="st3" d="M261.6,418.3c4.8-6.6,9.1-13.4,13.1-20.5"/>
	<path class="st3" d="M274.7,397.8c-0.5-8-0.9-16-1.4-24"/>
	<path class="st3" d="M273.2,373.7c-4.1,7-8.5,13.7-13.3,20.2"/>
	<path class="st3" d="M260,393.9c0.5,8.1,1.1,16.2,1.6,24.4"/>
	<path class="st3" d="M230.8,451.5c5.6-4.9,10.9-10,16-15.4"/>
	<line class="st3" x1="207.4" y1="389.3" x2="196.3" y2="370.1"/>
	<line class="st3" x1="191.5" y1="426.5" x2="168.8" y2="387.2"/>
	<line class="st3" x1="189.3" y1="401.1" x2="166.7" y2="361.9"/>
	<path class="st3" d="M246.9,436c-0.6-8.2-1.2-16.4-1.8-24.7"/>
	<path class="st3" d="M245.1,411.4c-5.2,5.3-10.6,10.3-16.2,15.1"/>
	<path class="st3" d="M228.9,426.4c0.7,8.3,1.3,16.7,2,25"/>
	<path class="st3" d="M195.8,477.2c6.1-3.8,12.1-7.9,17.9-12.1"/>
	<path class="st3" d="M213.8,465.1c-0.7-8.4-1.4-16.9-2.1-25.3"/>
	<path class="st3" d="M211.6,439.8c-5.9,4.2-11.9,8.2-18,12.1"/>
	<line class="st3" x1="170.9" y1="412.5" x2="159.7" y2="393.1"/>
	<line class="st3" x1="154.4" y1="448.7" x2="133.2" y2="411.9"/>
	<line class="st3" x1="152.6" y1="424" x2="131.8" y2="387.9"/>
	<path class="st3" d="M193.7,451.9c0.7,8.5,1.4,16.9,2.2,25.4"/>
	<path class="st3" d="M157.9,497.9c6.5-3.1,12.9-6.4,19.3-9.8"/>
	<path class="st3" d="M177.1,488.1c-0.7-8.4-1.4-16.8-2-25.1"/>
	<path class="st3" d="M175.1,462.9c-6.3,3.6-12.6,7-18.9,10.4"/>
	<path class="st3" d="M156.2,473.3c0.6,8.2,1.1,16.4,1.7,24.5"/>
	<path class="st3" d="M117.6,514.5c6.9-2.4,13.7-4.9,20.5-7.7"/>
	<line class="st3" x1="134.5" y1="435.8" x2="124.5" y2="418.4"/>
	<line class="st3" x1="116.7" y1="469.8" x2="21" y2="304"/>
	<line class="st3" x1="116.3" y1="447.5" x2="21" y2="282.4"/>
	<path class="st3" d="M138,506.8c-0.4-7.9-0.7-15.7-1.1-23.6"/>
	<path class="st3" d="M136.9,483.2c-6.5,3.2-13.1,6.2-19.7,9"/>
	<path class="st3" d="M117.2,492.2c0.1,7.4,0.3,14.9,0.4,22.3"/>
	<line class="st3" x1="21" y1="282.4" x2="30.4" y2="277"/>
	<line class="st3" x1="21" y1="304" x2="21" y2="282.4"/>
	<path class="st3" d="M288.5,421.8c3.5-9.3,6.4-18.7,8.5-28.4"/>
	<path class="st3" d="M297.1,393.4c-0.2-7.5-0.4-15-0.5-22.5"/>
	<line class="st3" x1="295.6" y1="326" x2="289.8" y2="316"/>
	<line class="st3" x1="286.2" y1="374.6" x2="271.9" y2="349.7"/>
	<line class="st3" x1="285.1" y1="351.1" x2="270.5" y2="325.8"/>
	<path class="st3" d="M296.5,370.9c-2.5,9.3-5.5,18.4-9.2,27.3"/>
	<path class="st3" d="M287.3,398.1c0.4,7.9,0.8,15.8,1.2,23.6"/>
	<path class="st3" d="M264.8,467.1c4.7-6.8,8.9-13.8,12.8-21.1"/>
	<path class="st3" d="M277.6,446c-0.5-8.1-1-16.1-1.5-24.2"/>
	<path class="st3" d="M276.1,421.9c-3.9,7.2-8.2,14.1-12.9,20.8"/>
	<path class="st3" d="M263.2,442.7c0.5,8.2,1.1,16.3,1.7,24.5"/>
	<line class="st3" x1="273.2" y1="373.7" x2="265.3" y2="360"/>
	<line class="st3" x1="261.6" y1="418.3" x2="243.4" y2="386.8"/>
	<line class="st3" x1="260" y1="393.9" x2="241.7" y2="362.2"/>
	<path class="st3" d="M234.9,501.8c5.5-5.1,10.7-10.5,15.6-16.2"/>
	<path class="st3" d="M250.5,485.6c-0.6-8.3-1.2-16.5-1.9-24.8"/>
	<path class="st3" d="M248.7,460.8c-5,5.6-10.3,10.8-15.8,15.8"/>
	<path class="st3" d="M118.3,559c7.4-1.5,14.6-3.3,21.8-5.4"/>
	<path class="st3" d="M232.9,476.6c0.7,8.4,1.4,16.8,2.1,25.2"/>
	<path class="st3" d="M200.2,527.9c6.2-3.7,12.2-7.8,18-12.1"/>
	<line class="st3" x1="245.1" y1="411.4" x2="235.3" y2="394.4"/>
	<line class="st3" x1="230.8" y1="451.5" x2="209.5" y2="414.6"/>
	<line class="st3" x1="228.9" y1="426.4" x2="207.4" y2="389.3"/>
	<path class="st3" d="M218.1,515.8c-0.7-8.5-1.5-16.9-2.2-25.4"/>
	<path class="st3" d="M215.9,490.4c-5.8,4.3-11.8,8.3-17.9,12.1"/>
	<path class="st3" d="M198,502.6c0.7,8.4,1.4,16.9,2.2,25.3"/>
	<path class="st3" d="M161.1,546.7c6.8-2.6,13.5-5.4,20-8.5"/>
	<path class="st3" d="M181.1,538.1c-0.7-8.3-1.3-16.7-2-25"/>
	<path class="st3" d="M179.1,513.1c-6.4,3.3-13,6.3-19.6,9.2"/>
	<line class="st3" x1="211.6" y1="439.8" x2="200.6" y2="420.6"/>
	<line class="st3" x1="195.8" y1="477.2" x2="173" y2="437.7"/>
	<line class="st3" x1="193.7" y1="451.9" x2="170.9" y2="412.5"/>
	<path class="st3" d="M159.5,522.3c0.5,8.1,1.1,16.2,1.6,24.3"/>
	<line class="st3" x1="21" y1="390.4" x2="21" y2="368.8"/>
	<line class="st3" x1="21" y1="368.8" x2="30.4" y2="363.4"/>
	<line class="st3" x1="118" y1="536.8" x2="21" y2="368.8"/>
	<line class="st3" x1="118.3" y1="559" x2="21" y2="390.4"/>
	<line class="st3" x1="139.1" y1="530.2" x2="127.9" y2="510.8"/>
	<line class="st3" x1="175.1" y1="462.9" x2="163.7" y2="443.2"/>
	<line class="st3" x1="157.9" y1="497.9" x2="135.7" y2="459.5"/>
	<line class="st3" x1="156.2" y1="473.3" x2="134.5" y2="435.8"/>
	<line class="st3" x1="159.5" y1="522.3" x2="136.9" y2="483.2"/>
	<line class="st3" x1="161.1" y1="546.7" x2="138" y2="506.8"/>
	<line class="st3" x1="179.1" y1="513.1" x2="167.6" y2="493.1"/>
	<line class="st3" x1="198" y1="502.6" x2="175.1" y2="462.9"/>
	<line class="st3" x1="200.2" y1="527.9" x2="177.1" y2="488.1"/>
	<line class="st3" x1="215.9" y1="490.4" x2="204.9" y2="471.3"/>
	<line class="st3" x1="136.9" y1="483.2" x2="126.3" y2="464.8"/>
	<line class="st3" x1="117.6" y1="514.5" x2="21" y2="347.2"/>
	<line class="st3" x1="117.2" y1="492.2" x2="21" y2="325.6"/>
	<line class="st3" x1="232.9" y1="476.6" x2="211.6" y2="439.8"/>
	<line class="st3" x1="234.9" y1="501.8" x2="213.8" y2="465.1"/>
	<line class="st3" x1="248.7" y1="460.8" x2="239" y2="444"/>
	<line class="st3" x1="21" y1="325.6" x2="30.4" y2="320.2"/>
	<line class="st3" x1="21" y1="347.2" x2="21" y2="325.6"/>
	<line class="st3" x1="263.2" y1="442.7" x2="245.1" y2="411.4"/>
	<line class="st3" x1="264.8" y1="467.1" x2="246.9" y2="436"/>
	<line class="st3" x1="296.5" y1="370.9" x2="291.4" y2="361.9"/>
	<line class="st3" x1="288.5" y1="421.8" x2="274.7" y2="397.8"/>
	<line class="st3" x1="287.3" y1="398.1" x2="273.2" y2="373.7"/>
	<line class="st3" x1="276.1" y1="421.9" x2="268.3" y2="408.4"/>
</g>
</svg>
