<?xml version="1.0" encoding="utf-8"?>
<!-- Generator: Adobe Illustrator 21.0.2, SVG Export Plug-In . SVG Version: 6.00 Build 0)  -->
<svg version="1.1" xmlns="http://www.w3.org/2000/svg" xmlns:xlink="http://www.w3.org/1999/xlink" x="0px" y="0px"
	 viewBox="0 0 356.1 615.3" style="enable-background:new 0 0 356.1 615.3;" xml:space="preserve">
<style type="text/css">
	.st0{display:none;}
	.st1{display:inline;}
	.st2{fill:none;stroke:#000000;stroke-width:0.5;stroke-miterlimit:10;}
	.st3{fill:none;stroke:#000000;stroke-width:2;stroke-linecap:round;stroke-linejoin:round;}
	.st4{fill:none;stroke:#000000;stroke-width:0.5;stroke-linecap:round;stroke-linejoin:round;}
</style>
<g id="Layer_1" class="st0">
	<g id="Make2D::hidden::lines" class="st1">
		<line class="st2" x1="274.5" y1="215.4" x2="311.9" y2="193.8"/>
		<line class="st2" x1="311.9" y1="193.8" x2="311.9" y2="150.6"/>
		<line class="st2" x1="231.3" y1="140.6" x2="231.3" y2="97.4"/>
		<line class="st2" x1="250" y1="129.8" x2="231.3" y2="140.6"/>
		<line class="st2" x1="274.5" y1="215.4" x2="274.5" y2="172.2"/>
		<line class="st2" x1="225.5" y1="130.6" x2="188.1" y2="152.2"/>
		<line class="st2" x1="231.3" y1="140.6" x2="225.5" y2="130.6"/>
		<line class="st2" x1="336.4" y1="365.9" x2="333.5" y2="360.9"/>
		<line class="st2" x1="140.6" y1="242.8" x2="140.6" y2="199.6"/>
		<line class="st2" x1="333.5" y1="360.9" x2="296.1" y2="382.5"/>
		<line class="st2" x1="296.1" y1="382.5" x2="317.7" y2="419.9"/>
		<line class="st2" x1="119" y1="205.4" x2="119" y2="162.2"/>
		<line class="st2" x1="119" y1="205.4" x2="140.6" y2="242.8"/>
		<line class="st2" x1="137.7" y1="194.6" x2="119" y2="205.4"/>
		<line class="st2" x1="296.1" y1="382.5" x2="296.1" y2="339.3"/>
		<line class="st2" x1="333.5" y1="360.9" x2="333.5" y2="317.7"/>
		<line class="st2" x1="178" y1="221.2" x2="159.3" y2="188.8"/>
		<line class="st2" x1="140.6" y1="242.8" x2="178" y2="221.2"/>
		<line class="st2" x1="296.1" y1="339.3" x2="317.7" y2="376.7"/>
		<line class="st2" x1="81.6" y1="313.4" x2="44.2" y2="335"/>
		<line class="st2" x1="355.1" y1="355.1" x2="333.5" y2="317.7"/>
		<line class="st2" x1="103.2" y1="350.8" x2="81.6" y2="313.4"/>
		<line class="st2" x1="81.6" y1="356.6" x2="81.6" y2="313.4"/>
		<line class="st2" x1="333.5" y1="317.7" x2="296.1" y2="339.3"/>
		<line class="st2" x1="81.6" y1="356.6" x2="62.9" y2="367.4"/>
		<line class="st2" x1="103.2" y1="394" x2="81.6" y2="356.6"/>
		<line class="st2" x1="178" y1="221.2" x2="178" y2="178"/>
		<line class="st2" x1="209.7" y1="189.6" x2="247.1" y2="168"/>
		<line class="st2" x1="247.1" y1="211.2" x2="247.1" y2="168"/>
		<line class="st2" x1="188.1" y1="195.4" x2="188.1" y2="152.2"/>
		<line class="st2" x1="188.1" y1="152.2" x2="209.7" y2="189.6"/>
		<line class="st2" x1="209.7" y1="232.8" x2="209.7" y2="189.6"/>
		<line class="st2" x1="209.7" y1="232.8" x2="247.1" y2="211.2"/>
		<line class="st2" x1="188.1" y1="195.4" x2="209.7" y2="232.8"/>
		<line class="st2" x1="225.5" y1="173.8" x2="188.1" y2="195.4"/>
		<line class="st2" x1="247.1" y1="211.2" x2="225.5" y2="173.8"/>
		<line class="st2" x1="146.4" y1="425.7" x2="109" y2="447.3"/>
		<line class="st2" x1="225.5" y1="260.2" x2="225.5" y2="173.8"/>
		<line class="st2" x1="225.5" y1="260.2" x2="1" y2="389.8"/>
		<line class="st2" x1="168" y1="463.1" x2="146.4" y2="425.7"/>
		<line class="st2" x1="146.4" y1="468.9" x2="146.4" y2="425.7"/>
		<line class="st2" x1="225.5" y1="130.6" x2="225.5" y2="1"/>
		<line class="st2" x1="146.4" y1="468.9" x2="127.7" y2="479.7"/>
		<line class="st2" x1="149.3" y1="473.9" x2="146.4" y2="468.9"/>
		<line class="st2" x1="311.9" y1="193.8" x2="293.2" y2="161.4"/>
		<line class="st2" x1="231.3" y1="140.6" x2="274.5" y2="215.4"/>
		<line class="st2" x1="355.1" y1="484.7" x2="317.7" y2="419.9"/>
		<line class="st2" x1="103.2" y1="394" x2="103.2" y2="350.8"/>
		<line class="st2" x1="103.2" y1="350.8" x2="65.8" y2="372.4"/>
		<line class="st2" x1="296.1" y1="382.5" x2="225.5" y2="260.2"/>
		<line class="st2" x1="65.8" y1="415.6" x2="103.2" y2="394"/>
	</g>
	<g id="Make2D::visible::lines" class="st1">
		<line class="st3" x1="1" y1="389.8" x2="130.6" y2="614.3"/>
		<line class="st3" x1="65.8" y1="415.6" x2="65.8" y2="372.4"/>
		<line class="st3" x1="109" y1="490.5" x2="130.6" y2="527.9"/>
		<line class="st3" x1="355.1" y1="355.1" x2="355.1" y2="225.5"/>
		<line class="st3" x1="355.1" y1="484.7" x2="355.1" y2="398.3"/>
		<line class="st3" x1="130.6" y1="614.3" x2="355.1" y2="484.7"/>
		<line class="st3" x1="130.6" y1="614.3" x2="130.6" y2="527.9"/>
		<line class="st3" x1="130.6" y1="484.7" x2="130.6" y2="398.3"/>
		<line class="st3" x1="1" y1="130.6" x2="109" y2="317.7"/>
		<line class="st3" x1="268.7" y1="75.8" x2="225.5" y2="1"/>
		<line class="st3" x1="355.1" y1="225.5" x2="311.9" y2="150.6"/>
		<line class="st3" x1="168" y1="333.5" x2="355.1" y2="225.5"/>
		<line class="st3" x1="231.3" y1="97.4" x2="274.5" y2="172.2"/>
		<line class="st3" x1="130.6" y1="527.9" x2="168" y2="506.3"/>
		<line class="st3" x1="293.2" y1="161.4" x2="268.7" y2="119"/>
		<line class="st3" x1="168" y1="506.3" x2="149.3" y2="473.9"/>
		<line class="st3" x1="127.7" y1="479.7" x2="109" y2="490.5"/>
		<line class="st3" x1="225.5" y1="1" x2="1" y2="130.6"/>
		<line class="st3" x1="1" y1="389.8" x2="1" y2="130.6"/>
		<line class="st3" x1="168" y1="506.3" x2="168" y2="463.1"/>
		<line class="st3" x1="109" y1="490.5" x2="109" y2="447.3"/>
		<line class="st3" x1="156.4" y1="140.6" x2="178" y2="178"/>
		<line class="st3" x1="44.2" y1="378.2" x2="65.8" y2="415.6"/>
		<line class="st3" x1="62.9" y1="367.4" x2="44.2" y2="378.2"/>
		<line class="st3" x1="44.2" y1="378.2" x2="44.2" y2="335"/>
		<line class="st3" x1="317.7" y1="376.7" x2="355.1" y2="355.1"/>
		<line class="st3" x1="44.2" y1="335" x2="65.8" y2="372.4"/>
		<line class="st3" x1="317.7" y1="419.9" x2="317.7" y2="376.7"/>
		<line class="st3" x1="159.3" y1="188.8" x2="156.4" y2="183.8"/>
		<line class="st3" x1="156.4" y1="183.8" x2="137.7" y2="194.6"/>
		<line class="st3" x1="156.4" y1="140.6" x2="119" y2="162.2"/>
		<line class="st3" x1="156.4" y1="140.6" x2="156.4" y2="183.8"/>
		<line class="st3" x1="119" y1="162.2" x2="140.6" y2="199.6"/>
		<line class="st3" x1="355.1" y1="398.3" x2="336.4" y2="365.9"/>
		<line class="st3" x1="317.7" y1="419.9" x2="355.1" y2="398.3"/>
		<line class="st3" x1="146.4" y1="296.1" x2="109" y2="317.7"/>
		<line class="st3" x1="109" y1="360.9" x2="109" y2="317.7"/>
		<line class="st3" x1="168" y1="376.7" x2="168" y2="333.5"/>
		<line class="st3" x1="168" y1="333.5" x2="146.4" y2="296.1"/>
		<line class="st3" x1="146.4" y1="339.3" x2="146.4" y2="296.1"/>
		<line class="st3" x1="146.4" y1="339.3" x2="109" y2="360.9"/>
		<line class="st3" x1="168" y1="376.7" x2="146.4" y2="339.3"/>
		<line class="st3" x1="130.6" y1="398.3" x2="168" y2="376.7"/>
		<line class="st3" x1="109" y1="360.9" x2="130.6" y2="398.3"/>
		<line class="st3" x1="178" y1="178" x2="140.6" y2="199.6"/>
		<line class="st3" x1="130.6" y1="484.7" x2="168" y2="463.1"/>
		<line class="st3" x1="109" y1="447.3" x2="130.6" y2="484.7"/>
		<line class="st3" x1="268.7" y1="119" x2="250" y2="129.8"/>
		<line class="st3" x1="274.5" y1="172.2" x2="311.9" y2="150.6"/>
		<line class="st3" x1="268.7" y1="75.8" x2="231.3" y2="97.4"/>
		<line class="st3" x1="268.7" y1="119" x2="268.7" y2="75.8"/>
	</g>
</g>
<g id="Layer_2">
	<line class="st4" x1="181.2" y1="213.1" x2="125.7" y2="181.4"/>
	<line class="st4" x1="181.2" y1="191.5" x2="125.7" y2="159.8"/>
	<line class="st4" x1="243.4" y1="189.1" x2="181.2" y2="191.5"/>
	<line class="st4" x1="181.2" y1="213.1" x2="181.2" y2="191.5"/>
	<line class="st4" x1="188.8" y1="212.8" x2="181.2" y2="213.1"/>
	<line class="st4" x1="243.4" y1="210.7" x2="225.1" y2="211.4"/>
	<line class="st4" x1="258.4" y1="283.2" x2="243.4" y2="189.1"/>
	<line class="st4" x1="243.4" y1="210.7" x2="243.4" y2="189.1"/>
	<line class="st4" x1="258.4" y1="304.8" x2="243.4" y2="210.7"/>
	<line class="st4" x1="317.3" y1="292.4" x2="258.4" y2="283.2"/>
	<line class="st4" x1="258.4" y1="304.8" x2="258.4" y2="283.2"/>
	<line class="st4" x1="295.5" y1="310.6" x2="258.4" y2="304.8"/>
	<line class="st4" x1="106.6" y1="195.1" x2="171.7" y2="235.1"/>
	<line class="st4" x1="317.3" y1="314" x2="311.4" y2="313.1"/>
	<line class="st4" x1="227.4" y1="318.7" x2="315.2" y2="288.3"/>
	<line class="st4" x1="227.4" y1="297.1" x2="315.2" y2="266.7"/>
	<line class="st4" x1="175.1" y1="366.2" x2="227.4" y2="297.1"/>
	<line class="st4" x1="227.4" y1="318.7" x2="227.4" y2="297.1"/>
	<line class="st4" x1="175.1" y1="387.8" x2="227.4" y2="318.7"/>
	<line class="st4" x1="128.9" y1="339.4" x2="175.1" y2="366.2"/>
	<line class="st4" x1="175.1" y1="387.8" x2="175.1" y2="366.2"/>
	<line class="st4" x1="128.9" y1="361" x2="175.1" y2="387.8"/>
	<line class="st4" x1="57.3" y1="394.2" x2="128.9" y2="339.4"/>
	<line class="st4" x1="128.9" y1="361" x2="128.9" y2="339.4"/>
	<line class="st4" x1="67" y1="408.4" x2="128.9" y2="361"/>
	<line class="st4" x1="171.7" y1="235.1" x2="171.7" y2="213.5"/>
	<line class="st4" x1="127" y1="384.9" x2="68.2" y2="431.7"/>
	<line class="st4" x1="127" y1="363.3" x2="68.2" y2="410.1"/>
	<line class="st4" x1="180.8" y1="394.5" x2="127" y2="363.3"/>
	<line class="st4" x1="127" y1="384.9" x2="127" y2="363.3"/>
	<line class="st4" x1="180.8" y1="416.1" x2="127" y2="384.9"/>
	<line class="st4" x1="238.3" y1="318.5" x2="180.8" y2="394.5"/>
	<line class="st4" x1="180.8" y1="416.1" x2="180.8" y2="394.5"/>
	<line class="st4" x1="238.3" y1="340.1" x2="180.8" y2="416.1"/>
	<line class="st4" x1="327.6" y1="285.5" x2="238.3" y2="318.5"/>
	<line class="st4" x1="238.3" y1="340.1" x2="238.3" y2="318.5"/>
	<line class="st4" x1="327.6" y1="307.1" x2="238.3" y2="340.1"/>
	<line class="st4" x1="106.6" y1="173.5" x2="171.7" y2="213.5"/>
	<path class="st4" d="M29.3,296.2c-1.7,0.5-3.4,0.4-5.1,0.7c-1.7,0.3-3.4,0.7-5.1,1.1c-3.4,0.8-6.7,1.7-10,2.7"/>
	<line class="st4" x1="9.2" y1="279.1" x2="9.2" y2="300.7"/>
	<path class="st4" d="M29.3,274.6c-1.7,0.5-3.4,0.4-5.1,0.7c-1.7,0.3-3.4,0.7-5.1,1.1c-3.4,0.8-6.7,1.7-10,2.7"/>
	<line class="st4" x1="29.3" y1="296.2" x2="29.3" y2="274.6"/>
	<path class="st4" d="M125.7,181.4c-6.4,4.4-12.8,9-19,13.7"/>
	<line class="st4" x1="106.6" y1="173.5" x2="106.6" y2="195.1"/>
	<path class="st4" d="M125.7,159.8c-6.4,4.4-12.8,9-19,13.7"/>
	<line class="st4" x1="125.7" y1="181.4" x2="125.7" y2="159.8"/>
	<line class="st4" x1="225.1" y1="233" x2="238.8" y2="318.6"/>
	<line class="st4" x1="238.8" y1="318.6" x2="238.8" y2="297"/>
	<path class="st4" d="M163,47.8c0.5-0.4,0.9-0.8,1.3-1.3"/>
	<line class="st4" x1="163" y1="47.8" x2="163" y2="37.1"/>
	<line class="st4" x1="225.1" y1="211.4" x2="238.8" y2="297"/>
	<line class="st4" x1="238.8" y1="297" x2="295.5" y2="307.4"/>
	<line class="st4" x1="225.5" y1="260.2" x2="1" y2="389.8"/>
	<line class="st4" x1="238.8" y1="318.6" x2="295.5" y2="329"/>
	<line class="st4" x1="178.2" y1="195.9" x2="165.6" y2="55.6"/>
	<line class="st4" x1="171.7" y1="213.5" x2="176.5" y2="213.3"/>
	<line class="st4" x1="177.4" y1="208.1" x2="163" y2="47.8"/>
	<line class="st4" x1="137.2" y1="234.9" x2="176.5" y2="218.2"/>
	<line class="st4" x1="137.2" y1="213.3" x2="178.2" y2="195.9"/>
	<line class="st4" x1="178.2" y1="212.7" x2="178.2" y2="195.9"/>
	<line class="st4" x1="176.5" y1="218.2" x2="176.5" y2="213.3"/>
	<line class="st4" x1="127" y1="276.3" x2="137.2" y2="213.3"/>
	<line class="st4" x1="137.2" y1="234.9" x2="137.2" y2="213.3"/>
	<line class="st4" x1="127" y1="297.9" x2="137.2" y2="234.9"/>
	<line class="st4" x1="180.8" y1="307.5" x2="127" y2="276.3"/>
	<line class="st4" x1="127" y1="297.9" x2="127" y2="276.3"/>
	<line class="st4" x1="180.8" y1="329.1" x2="127" y2="297.9"/>
	<line class="st4" x1="200.3" y1="385.1" x2="180.8" y2="307.5"/>
	<line class="st4" x1="180.8" y1="329.1" x2="180.8" y2="307.5"/>
	<line class="st4" x1="171.7" y1="235.1" x2="225.1" y2="233"/>
	<line class="st4" x1="225.1" y1="233" x2="225.1" y2="211.4"/>
	<line class="st4" x1="198.8" y1="314.6" x2="214.7" y2="377.1"/>
	<line class="st4" x1="198.8" y1="293" x2="219.4" y2="374"/>
	<line class="st4" x1="150.7" y1="265" x2="198.8" y2="293"/>
	<line class="st4" x1="198.8" y1="314.6" x2="198.8" y2="293"/>
	<line class="st4" x1="150.7" y1="286.6" x2="198.8" y2="314.6"/>
	<line class="st4" x1="156.6" y1="228.5" x2="150.7" y2="265"/>
	<line class="st4" x1="150.7" y1="286.6" x2="150.7" y2="265"/>
	<line class="st4" x1="156.6" y1="250.1" x2="150.7" y2="286.6"/>
	<line class="st4" x1="202" y1="209.3" x2="156.6" y2="228.5"/>
	<line class="st4" x1="156.6" y1="250.1" x2="156.6" y2="228.5"/>
	<line class="st4" x1="202" y1="230.9" x2="156.6" y2="250.1"/>
	<line class="st4" x1="188" y1="59.4" x2="202" y2="209.3"/>
	<line class="st4" x1="202" y1="230.9" x2="202" y2="209.3"/>
	<line class="st4" x1="186" y1="59.3" x2="202" y2="230.9"/>
	<line class="st4" x1="188.8" y1="212.8" x2="225.1" y2="211.4"/>
	<path class="st4" d="M176.5,218.2c1.2,0.1,2.2,0.5,3.3-0.4c0.9-0.7,1.8-1.5,2.8-2.1c2-1.2,4.1-2.1,6.2-2.9"/>
	<line class="st4" x1="136.1" y1="334.8" x2="90.7" y2="381.4"/>
	<line class="st4" x1="136.1" y1="313.2" x2="90.7" y2="359.8"/>
	<line class="st4" x1="222.1" y1="302.5" x2="136.1" y2="313.2"/>
	<line class="st4" x1="136.1" y1="334.8" x2="136.1" y2="313.2"/>
	<line class="st4" x1="222.1" y1="324.1" x2="136.1" y2="334.8"/>
	<line class="st4" x1="222" y1="249.1" x2="222.1" y2="302.5"/>
	<line class="st4" x1="222.1" y1="324.1" x2="222.1" y2="302.5"/>
	<line class="st4" x1="222" y1="270.7" x2="222.1" y2="324.1"/>
	<line class="st4" x1="281.8" y1="228.1" x2="222" y2="249.1"/>
	<line class="st4" x1="222" y1="270.7" x2="222" y2="249.1"/>
	<line class="st4" x1="281.8" y1="249.7" x2="222" y2="270.7"/>
	<line class="st4" x1="243.6" y1="281" x2="292.7" y2="265.5"/>
	<line class="st4" x1="243.6" y1="259.4" x2="292.7" y2="243.9"/>
	<line class="st4" x1="243.8" y1="321.6" x2="243.6" y2="259.4"/>
	<line class="st4" x1="243.6" y1="281" x2="243.6" y2="259.4"/>
	<line class="st4" x1="243.8" y1="343.2" x2="243.6" y2="281"/>
	<line class="st4" x1="149.2" y1="333.3" x2="243.8" y2="321.6"/>
	<line class="st4" x1="243.8" y1="343.2" x2="243.8" y2="321.6"/>
	<line class="st4" x1="149.2" y1="354.9" x2="243.8" y2="343.2"/>
	<line class="st4" x1="103.1" y1="378.5" x2="149.2" y2="333.3"/>
	<line class="st4" x1="149.2" y1="354.9" x2="149.2" y2="333.3"/>
	<line class="st4" x1="103.1" y1="400.1" x2="149.2" y2="354.9"/>
	<path class="st4" d="M176.5,213.3c0.6-0.2,1.1-0.4,1.7-0.5"/>
	<line class="st4" x1="157.7" y1="434.3" x2="115.9" y2="450.3"/>
	<line class="st4" x1="157.7" y1="412.7" x2="104.1" y2="433.2"/>
	<line class="st4" x1="129.6" y1="378.1" x2="157.7" y2="412.7"/>
	<line class="st4" x1="157.7" y1="434.3" x2="157.7" y2="412.7"/>
	<line class="st4" x1="129.6" y1="399.7" x2="157.7" y2="434.3"/>
	<line class="st4" x1="150.2" y1="317.7" x2="129.6" y2="378.1"/>
	<line class="st4" x1="129.6" y1="399.7" x2="129.6" y2="378.1"/>
	<line class="st4" x1="150.2" y1="339.3" x2="129.6" y2="399.7"/>
	<line class="st4" x1="212.3" y1="315.3" x2="150.2" y2="317.7"/>
	<line class="st4" x1="150.2" y1="339.3" x2="150.2" y2="317.7"/>
	<line class="st4" x1="165.8" y1="338.7" x2="150.2" y2="339.3"/>
	<line class="st4" x1="271.8" y1="282.3" x2="212.3" y2="315.3"/>
	<line class="st4" x1="212.3" y1="336.9" x2="212.3" y2="315.3"/>
	<line class="st4" x1="271.8" y1="303.9" x2="212.3" y2="336.9"/>
	<line class="st4" x1="221.4" y1="358.2" x2="282.9" y2="322.5"/>
	<line class="st4" x1="221.4" y1="336.6" x2="282.9" y2="300.9"/>
	<line class="st4" x1="165.8" y1="338.7" x2="221.4" y2="336.6"/>
	<line class="st4" x1="221.4" y1="358.2" x2="221.4" y2="336.6"/>
	<line class="st4" x1="165.8" y1="360.3" x2="221.4" y2="358.2"/>
	<line class="st4" x1="153.9" y1="373.8" x2="165.8" y2="338.7"/>
	<line class="st4" x1="165.8" y1="360.3" x2="165.8" y2="338.7"/>
	<line class="st4" x1="153.9" y1="395.4" x2="165.8" y2="360.3"/>
	<line class="st4" x1="184.9" y1="412" x2="153.9" y2="373.8"/>
	<line class="st4" x1="153.9" y1="395.4" x2="153.9" y2="373.8"/>
	<line class="st4" x1="184.9" y1="433.6" x2="153.9" y2="395.4"/>
	<line class="st4" x1="115.9" y1="445" x2="184.9" y2="412"/>
	<line class="st4" x1="184.9" y1="433.6" x2="184.9" y2="412"/>
	<line class="st4" x1="115.9" y1="466.6" x2="184.9" y2="433.6"/>
	<path class="st4" d="M232.1,541.9c-1.9,0.9-7.3,2.1-9.1,3.6"/>
	<path class="st4" d="M178.2,212.7c-0.3-1.5-0.6-3.1-0.8-4.6"/>
	<path class="st4" d="M188.8,212.8c-1.9-0.8-3.9-1.6-5.8-2.4c-1-0.4-1.9-0.9-2.8-1.4c-0.6-0.4-1.9-1.4-2.8-0.9"/>
	<line class="st4" x1="9.2" y1="300.7" x2="113.9" y2="452.9"/>
	<line class="st4" x1="113.9" y1="452.9" x2="113.9" y2="431.3"/>
	<line class="st4" x1="9.2" y1="279.1" x2="113.9" y2="431.3"/>
	<line class="st4" x1="113.9" y1="452.9" x2="153.2" y2="423.2"/>
	<line class="st4" x1="153.2" y1="423.2" x2="153.2" y2="401.6"/>
	<line class="st4" x1="113.9" y1="431.3" x2="153.2" y2="401.6"/>
	<line class="st4" x1="153.2" y1="423.2" x2="187.8" y2="436.4"/>
	<line class="st4" x1="187.8" y1="436.4" x2="187.8" y2="414.8"/>
	<line class="st4" x1="153.2" y1="401.6" x2="187.8" y2="414.8"/>
	<line class="st4" x1="187.8" y1="436.4" x2="188" y2="492"/>
	<line class="st4" x1="188" y1="492" x2="188" y2="470.4"/>
	<line class="st4" x1="187.8" y1="414.8" x2="188" y2="470.4"/>
	<line class="st4" x1="242.5" y1="535" x2="209.6" y2="483.7"/>
	<line class="st4" x1="327.6" y1="285.5" x2="327.6" y2="307.1"/>
	<path class="st4" d="M315.2,288.3c1,1.6,2.2,3,3.3,4.5c1.1,1.5,2.1,3.1,3.1,4.7c1,1.6,2,3.2,2.9,4.8c1,1.6,2.2,3,3,4.7"/>
	<line class="st4" x1="315.2" y1="288.3" x2="315.2" y2="266.7"/>
	<path class="st4" d="M315.2,266.7c1,1.6,2.2,3,3.3,4.5c1.1,1.5,2.1,3.1,3.1,4.7c1,1.6,2,3.2,2.9,4.8c1,1.6,2.2,3,3,4.7"/>
	<path class="st4" d="M292.7,265.5c-3.6-5.3-7.2-10.6-10.9-15.9"/>
	<line class="st4" x1="281.8" y1="228.1" x2="281.8" y2="249.7"/>
	<path class="st4" d="M292.7,243.9c-3.6-5.3-7.2-10.6-10.9-15.9"/>
	<line class="st4" x1="292.7" y1="265.5" x2="292.7" y2="243.9"/>
	<path class="st4" d="M282.9,322.5c-4.2-5.9-7-12.7-11.1-18.6"/>
	<line class="st4" x1="271.8" y1="282.3" x2="271.8" y2="303.9"/>
	<path class="st4" d="M282.9,300.9c-4.2-5.9-7-12.7-11.1-18.6"/>
	<line class="st4" x1="282.9" y1="322.5" x2="282.9" y2="300.9"/>
	<line class="st4" x1="209.6" y1="483.7" x2="209.6" y2="462.1"/>
	<line class="st4" x1="225.5" y1="260.2" x2="225.5" y2="1"/>
	<line class="st4" x1="355.1" y1="484.7" x2="225.5" y2="260.2"/>
	<line class="st4" x1="251.2" y1="526.9" x2="209.6" y2="462.1"/>
	<line class="st4" x1="209.6" y1="483.7" x2="209.4" y2="421.5"/>
	<line class="st4" x1="209.4" y1="421.5" x2="209.4" y2="401.4"/>
	<line class="st4" x1="209.6" y1="462.1" x2="209.4" y2="399.9"/>
	<line class="st4" x1="209.4" y1="421.5" x2="149.7" y2="398.8"/>
	<line class="st4" x1="149.7" y1="398.8" x2="149.7" y2="377.2"/>
	<line class="st4" x1="209.4" y1="399.9" x2="149.7" y2="377.2"/>
	<line class="st4" x1="149.7" y1="398.8" x2="114.1" y2="425.6"/>
	<line class="st4" x1="114.1" y1="425.6" x2="114.1" y2="404"/>
	<line class="st4" x1="149.7" y1="377.2" x2="114.1" y2="404"/>
	<line class="st4" x1="114.1" y1="404" x2="29.3" y2="274.6"/>
	<line class="st4" x1="114.1" y1="425.6" x2="29.3" y2="296.2"/>
	<line class="st4" x1="188" y1="470.4" x2="232.1" y2="537.8"/>
	<line class="st4" x1="188" y1="492" x2="223" y2="545.6"/>
	<line class="st4" x1="200.3" y1="406.7" x2="180.8" y2="329.1"/>
	<line class="st4" x1="232.1" y1="555.7" x2="223" y2="545.6"/>
	<line class="st3" x1="251.2" y1="526.9" x2="251.2" y2="544.7"/>
	<line class="st3" x1="355.1" y1="484.7" x2="355.1" y2="225.5"/>
	<line class="st3" x1="130.6" y1="355.1" x2="355.1" y2="225.5"/>
	<line class="st3" x1="130.6" y1="614.3" x2="130.6" y2="355.1"/>
	<line class="st3" x1="130.6" y1="614.3" x2="232.1" y2="555.7"/>
	<line class="st3" x1="232.1" y1="555.7" x2="232.1" y2="537.8"/>
	<path class="st3" d="M232.1,537.8c2-0.2,8.1-4.6,9.5-5.5c3.1-2,6.6-3.3,9.6-5.5"/>
	<path class="st3" d="M219.4,374c-2.1,2.2-7,4.2-9.5,5.6c-3.3,1.7-6,4.2-9.6,5.6"/>
	<line class="st3" x1="219.4" y1="395.6" x2="219.4" y2="374"/>
	<path class="st3" d="M219.4,395.6c-2.1,2.2-7,4.2-9.5,5.6c-3.3,1.7-6,4.2-9.6,5.6"/>
	<line class="st3" x1="200.3" y1="385.1" x2="200.3" y2="406.7"/>
	<line class="st3" x1="295.5" y1="329" x2="295.5" y2="307.4"/>
	<path class="st3" d="M295.5,307.4c2.1-1,3.5-2.7,5.3-4c1.8-1.3,3.6-2.6,5.4-3.8c1.9-1.2,3.7-2.4,5.6-3.6c0.9-0.6,1.8-1.2,2.7-1.9
		c0.9-0.6,1.7-1.4,2.8-1.8"/>
	<line class="st3" x1="317.3" y1="292.4" x2="317.3" y2="314"/>
	<path class="st3" d="M295.5,329c2.1-1,3.5-2.7,5.3-4c1.8-1.3,3.6-2.6,5.4-3.8c1.9-1.2,3.7-2.4,5.6-3.6c0.9-0.6,1.8-1.2,2.7-1.9
		c0.9-0.6,1.7-1.4,2.8-1.8"/>
	<line class="st3" x1="355.1" y1="225.5" x2="225.5" y2="1"/>
	<line class="st3" x1="1" y1="389.8" x2="130.6" y2="614.3"/>
	<line class="st3" x1="242.5" y1="535" x2="251.2" y2="544.7"/>
	<line class="st3" x1="1" y1="130.6" x2="130.6" y2="355.1"/>
	<path class="st3" d="M104.1,433.2c0.9,1.1,2.2,1.7,3.2,2.7c1,1,2,1.9,3,3c1.9,2,3.8,4.1,5.6,6.2"/>
	<line class="st3" x1="115.9" y1="445" x2="115.9" y2="466.6"/>
	<path class="st3" d="M104.1,454.8c0.9,1.1,2.2,1.7,3.2,2.7c1,1,2,1.9,3,3c1.9,2,3.8,4.1,5.6,6.2"/>
	<line class="st3" x1="104.1" y1="454.8" x2="104.1" y2="433.2"/>
	<path class="st3" d="M90.7,359.8c1,1.6,2.2,3,3.3,4.5c1.1,1.5,2.1,3.1,3.1,4.7c1,1.6,2,3.2,2.9,4.8c1,1.6,2.2,3,3,4.7"/>
	<line class="st3" x1="103.1" y1="378.5" x2="103.1" y2="400.1"/>
	<path class="st3" d="M90.7,381.4c1,1.6,2.2,3,3.3,4.5c1.1,1.5,2.1,3.1,3.1,4.7c1,1.6,2,3.2,2.9,4.8c1,1.6,2.2,3,3,4.7"/>
	<line class="st3" x1="90.7" y1="381.4" x2="90.7" y2="359.8"/>
	<line class="st3" x1="68.2" y1="431.7" x2="68.2" y2="410.1"/>
	<path class="st3" d="M68.2,431.7c-3.6-5.3-7.2-10.6-10.9-15.9"/>
	<line class="st3" x1="57.3" y1="394.2" x2="57.3" y2="415.8"/>
	<path class="st3" d="M68.2,410.1c-3.6-5.3-7.2-10.6-10.9-15.9"/>
	<path class="st3" d="M242.5,535c-3.1,0.9-3,1-5.5,3c-1.6,1.3-2.9,3-4.9,4"/>
	<line class="st3" x1="115.9" y1="450.3" x2="104.1" y2="454.8"/>
	<line class="st3" x1="188" y1="59.4" x2="183.1" y2="25.5"/>
	<line class="st3" x1="183.1" y1="29" x2="186" y2="59.3"/>
	<line class="st3" x1="214.7" y1="377.1" x2="219.4" y2="395.6"/>
	<line class="st3" x1="251.2" y1="544.7" x2="355.1" y2="484.7"/>
	<line class="st3" x1="163" y1="37.1" x2="165.6" y2="55.6"/>
	<line class="st3" x1="225.5" y1="1" x2="183.1" y2="25.5"/>
	<line class="st3" x1="1" y1="389.8" x2="1" y2="130.6"/>
	<line class="st3" x1="163" y1="37.1" x2="1" y2="130.6"/>
	<path class="st3" d="M164.3,46.5c5.9-6.2,12.3-11.9,18.8-17.5"/>
	<line class="st3" x1="183.1" y1="25.5" x2="183.1" y2="29"/>
	<path class="st3" d="M165.6,55.6c1-0.1,1.8,0.4,2.7,0.7c0.9,0.3,1.8,0.6,2.7,0.9c1.8,0.5,3.7,0.8,5.6,1.1c3.8,0.6,7.5,1.2,11.3,1.1
		"/>
	<line class="st3" x1="57.3" y1="415.8" x2="67" y2="408.4"/>
	<line class="st3" x1="311.4" y1="313.1" x2="295.5" y2="310.6"/>
</g>
</svg>
