<?xml version="1.0" encoding="utf-8"?>
<!-- Generator: Adobe Illustrator 21.0.2, SVG Export Plug-In . SVG Version: 6.00 Build 0)  -->
<svg version="1.1" xmlns="http://www.w3.org/2000/svg" xmlns:xlink="http://www.w3.org/1999/xlink" x="0px" y="0px"
	 viewBox="0 0 356.1 615.3" style="enable-background:new 0 0 356.1 615.3;" xml:space="preserve">
<style type="text/css">
	.st0{display:none;}
	.st1{display:inline;}
	.st2{fill:none;stroke:#000000;stroke-width:0.5;stroke-miterlimit:10;}
	.st3{fill:none;stroke:#000000;stroke-width:2;stroke-linecap:round;stroke-linejoin:round;}
	.st4{fill:none;stroke:#000000;stroke-width:0.5;stroke-linecap:round;stroke-linejoin:round;}
</style>
<g id="Layer_1" class="st0">
	<g id="Make2D::hidden::lines" class="st1">
		<line class="st2" x1="274.5" y1="215.4" x2="311.9" y2="193.8"/>
		<line class="st2" x1="311.9" y1="193.8" x2="311.9" y2="150.6"/>
		<line class="st2" x1="231.3" y1="140.6" x2="231.3" y2="97.4"/>
		<line class="st2" x1="250" y1="129.8" x2="231.3" y2="140.6"/>
		<line class="st2" x1="274.5" y1="215.4" x2="274.5" y2="172.2"/>
		<line class="st2" x1="225.5" y1="130.6" x2="188.1" y2="152.2"/>
		<line class="st2" x1="231.3" y1="140.6" x2="225.5" y2="130.6"/>
		<line class="st2" x1="336.4" y1="365.9" x2="333.5" y2="360.9"/>
		<line class="st2" x1="140.6" y1="242.8" x2="140.6" y2="199.6"/>
		<line class="st2" x1="333.5" y1="360.9" x2="296.1" y2="382.5"/>
		<line class="st2" x1="296.1" y1="382.5" x2="317.7" y2="419.9"/>
		<line class="st2" x1="119" y1="205.4" x2="119" y2="162.2"/>
		<line class="st2" x1="119" y1="205.4" x2="140.6" y2="242.8"/>
		<line class="st2" x1="137.7" y1="194.6" x2="119" y2="205.4"/>
		<line class="st2" x1="296.1" y1="382.5" x2="296.1" y2="339.3"/>
		<line class="st2" x1="333.5" y1="360.9" x2="333.5" y2="317.7"/>
		<line class="st2" x1="178" y1="221.2" x2="159.3" y2="188.8"/>
		<line class="st2" x1="140.6" y1="242.8" x2="178" y2="221.2"/>
		<line class="st2" x1="296.1" y1="339.3" x2="317.7" y2="376.7"/>
		<line class="st2" x1="81.6" y1="313.4" x2="44.2" y2="335"/>
		<line class="st2" x1="355.1" y1="355.1" x2="333.5" y2="317.7"/>
		<line class="st2" x1="103.2" y1="350.8" x2="81.6" y2="313.4"/>
		<line class="st2" x1="81.6" y1="356.6" x2="81.6" y2="313.4"/>
		<line class="st2" x1="333.5" y1="317.7" x2="296.1" y2="339.3"/>
		<line class="st2" x1="81.6" y1="356.6" x2="62.9" y2="367.4"/>
		<line class="st2" x1="103.2" y1="394" x2="81.6" y2="356.6"/>
		<line class="st2" x1="178" y1="221.2" x2="178" y2="178"/>
		<line class="st2" x1="209.7" y1="189.6" x2="247.1" y2="168"/>
		<line class="st2" x1="247.1" y1="211.2" x2="247.1" y2="168"/>
		<line class="st2" x1="188.1" y1="195.4" x2="188.1" y2="152.2"/>
		<line class="st2" x1="188.1" y1="152.2" x2="209.7" y2="189.6"/>
		<line class="st2" x1="209.7" y1="232.8" x2="209.7" y2="189.6"/>
		<line class="st2" x1="209.7" y1="232.8" x2="247.1" y2="211.2"/>
		<line class="st2" x1="188.1" y1="195.4" x2="209.7" y2="232.8"/>
		<line class="st2" x1="225.5" y1="173.8" x2="188.1" y2="195.4"/>
		<line class="st2" x1="247.1" y1="211.2" x2="225.5" y2="173.8"/>
		<line class="st2" x1="146.4" y1="425.7" x2="109" y2="447.3"/>
		<line class="st2" x1="225.5" y1="260.2" x2="225.5" y2="173.8"/>
		<line class="st2" x1="225.5" y1="260.2" x2="1" y2="389.8"/>
		<line class="st2" x1="168" y1="463.1" x2="146.4" y2="425.7"/>
		<line class="st2" x1="146.4" y1="468.9" x2="146.4" y2="425.7"/>
		<line class="st2" x1="225.5" y1="130.6" x2="225.5" y2="1"/>
		<line class="st2" x1="146.4" y1="468.9" x2="127.7" y2="479.7"/>
		<line class="st2" x1="149.3" y1="473.9" x2="146.4" y2="468.9"/>
		<line class="st2" x1="311.9" y1="193.8" x2="293.2" y2="161.4"/>
		<line class="st2" x1="231.3" y1="140.6" x2="274.5" y2="215.4"/>
		<line class="st2" x1="355.1" y1="484.7" x2="317.7" y2="419.9"/>
		<line class="st2" x1="103.2" y1="394" x2="103.2" y2="350.8"/>
		<line class="st2" x1="103.2" y1="350.8" x2="65.8" y2="372.4"/>
		<line class="st2" x1="296.1" y1="382.5" x2="225.5" y2="260.2"/>
		<line class="st2" x1="65.8" y1="415.6" x2="103.2" y2="394"/>
	</g>
	<g id="Make2D::visible::lines" class="st1">
		<line class="st3" x1="1" y1="389.8" x2="130.6" y2="614.3"/>
		<line class="st3" x1="65.8" y1="415.6" x2="65.8" y2="372.4"/>
		<line class="st3" x1="109" y1="490.5" x2="130.6" y2="527.9"/>
		<line class="st3" x1="355.1" y1="355.1" x2="355.1" y2="225.5"/>
		<line class="st3" x1="355.1" y1="484.7" x2="355.1" y2="398.3"/>
		<line class="st3" x1="130.6" y1="614.3" x2="355.1" y2="484.7"/>
		<line class="st3" x1="130.6" y1="614.3" x2="130.6" y2="527.9"/>
		<line class="st3" x1="130.6" y1="484.7" x2="130.6" y2="398.3"/>
		<line class="st3" x1="1" y1="130.6" x2="109" y2="317.7"/>
		<line class="st3" x1="268.7" y1="75.8" x2="225.5" y2="1"/>
		<line class="st3" x1="355.1" y1="225.5" x2="311.9" y2="150.6"/>
		<line class="st3" x1="168" y1="333.5" x2="355.1" y2="225.5"/>
		<line class="st3" x1="231.3" y1="97.4" x2="274.5" y2="172.2"/>
		<line class="st3" x1="130.6" y1="527.9" x2="168" y2="506.3"/>
		<line class="st3" x1="293.2" y1="161.4" x2="268.7" y2="119"/>
		<line class="st3" x1="168" y1="506.3" x2="149.3" y2="473.9"/>
		<line class="st3" x1="127.7" y1="479.7" x2="109" y2="490.5"/>
		<line class="st3" x1="225.5" y1="1" x2="1" y2="130.6"/>
		<line class="st3" x1="1" y1="389.8" x2="1" y2="130.6"/>
		<line class="st3" x1="168" y1="506.3" x2="168" y2="463.1"/>
		<line class="st3" x1="109" y1="490.5" x2="109" y2="447.3"/>
		<line class="st3" x1="156.4" y1="140.6" x2="178" y2="178"/>
		<line class="st3" x1="44.2" y1="378.2" x2="65.8" y2="415.6"/>
		<line class="st3" x1="62.9" y1="367.4" x2="44.2" y2="378.2"/>
		<line class="st3" x1="44.2" y1="378.2" x2="44.2" y2="335"/>
		<line class="st3" x1="317.7" y1="376.7" x2="355.1" y2="355.1"/>
		<line class="st3" x1="44.2" y1="335" x2="65.8" y2="372.4"/>
		<line class="st3" x1="317.7" y1="419.9" x2="317.7" y2="376.7"/>
		<line class="st3" x1="159.3" y1="188.8" x2="156.4" y2="183.8"/>
		<line class="st3" x1="156.4" y1="183.8" x2="137.7" y2="194.6"/>
		<line class="st3" x1="156.4" y1="140.6" x2="119" y2="162.2"/>
		<line class="st3" x1="156.4" y1="140.6" x2="156.4" y2="183.8"/>
		<line class="st3" x1="119" y1="162.2" x2="140.6" y2="199.6"/>
		<line class="st3" x1="355.1" y1="398.3" x2="336.4" y2="365.9"/>
		<line class="st3" x1="317.7" y1="419.9" x2="355.1" y2="398.3"/>
		<line class="st3" x1="146.4" y1="296.1" x2="109" y2="317.7"/>
		<line class="st3" x1="109" y1="360.9" x2="109" y2="317.7"/>
		<line class="st3" x1="168" y1="376.7" x2="168" y2="333.5"/>
		<line class="st3" x1="168" y1="333.5" x2="146.4" y2="296.1"/>
		<line class="st3" x1="146.4" y1="339.3" x2="146.4" y2="296.1"/>
		<line class="st3" x1="146.4" y1="339.3" x2="109" y2="360.9"/>
		<line class="st3" x1="168" y1="376.7" x2="146.4" y2="339.3"/>
		<line class="st3" x1="130.6" y1="398.3" x2="168" y2="376.7"/>
		<line class="st3" x1="109" y1="360.9" x2="130.6" y2="398.3"/>
		<line class="st3" x1="178" y1="178" x2="140.6" y2="199.6"/>
		<line class="st3" x1="130.6" y1="484.7" x2="168" y2="463.1"/>
		<line class="st3" x1="109" y1="447.3" x2="130.6" y2="484.7"/>
		<line class="st3" x1="268.7" y1="119" x2="250" y2="129.8"/>
		<line class="st3" x1="274.5" y1="172.2" x2="311.9" y2="150.6"/>
		<line class="st3" x1="268.7" y1="75.8" x2="231.3" y2="97.4"/>
		<line class="st3" x1="268.7" y1="119" x2="268.7" y2="75.8"/>
	</g>
</g>
<g id="Layer_2">
	<line class="st4" x1="90.6" y1="394.6" x2="90.6" y2="329.8"/>
	<line class="st4" x1="71.9" y1="405.4" x2="90.6" y2="394.6"/>
	<line class="st4" x1="208.7" y1="361.4" x2="208.7" y2="253.4"/>
	<line class="st4" x1="154.7" y1="246.3" x2="197.9" y2="321.1"/>
	<line class="st4" x1="154.7" y1="267.9" x2="154.7" y2="246.3"/>
	<line class="st4" x1="79.8" y1="311.1" x2="154.7" y2="267.9"/>
	<line class="st4" x1="90.6" y1="329.8" x2="79.8" y2="311.1"/>
	<line class="st4" x1="90.6" y1="329.8" x2="146.8" y2="297.4"/>
	<line class="st4" x1="190" y1="372.2" x2="208.7" y2="361.4"/>
	<line class="st4" x1="154.7" y1="267.9" x2="208.7" y2="361.4"/>
	<line class="st4" x1="146.8" y1="275.8" x2="179.2" y2="331.9"/>
	<line class="st4" x1="190" y1="285.8" x2="190" y2="372.2"/>
	<line class="st4" x1="146.8" y1="297.4" x2="190" y2="372.2"/>
	<line class="st4" x1="146.8" y1="275.8" x2="146.8" y2="297.4"/>
	<line class="st4" x1="133.8" y1="296.6" x2="208.7" y2="253.4"/>
	<line class="st4" x1="208.7" y1="253.4" x2="197.9" y2="234.7"/>
	<line class="st4" x1="179.2" y1="331.9" x2="179.2" y2="267.1"/>
	<line class="st4" x1="197.9" y1="321.1" x2="179.2" y2="331.9"/>
	<line class="st4" x1="197.9" y1="321.1" x2="197.9" y2="234.7"/>
	<line class="st4" x1="197.9" y1="234.7" x2="104.3" y2="288.7"/>
	<line class="st4" x1="104.3" y1="310.3" x2="104.3" y2="288.7"/>
	<line class="st4" x1="104.3" y1="288.7" x2="158.3" y2="382.3"/>
	<line class="st4" x1="133.8" y1="318.2" x2="190" y2="285.8"/>
	<line class="st4" x1="71.9" y1="319" x2="146.8" y2="275.8"/>
	<line class="st4" x1="104.3" y1="310.3" x2="179.2" y2="267.1"/>
	<line class="st4" x1="104.3" y1="310.3" x2="158.3" y2="403.9"/>
	<line class="st4" x1="123" y1="450.7" x2="123" y2="472.3"/>
	<line class="st4" x1="123" y1="472.3" x2="254" y2="396.7"/>
	<line class="st4" x1="254" y1="375.1" x2="254" y2="396.7"/>
	<line class="st4" x1="123" y1="450.7" x2="254" y2="375.1"/>
	<line class="st4" x1="190" y1="285.8" x2="254" y2="396.7"/>
	<line class="st4" x1="178.4" y1="265.8" x2="179.2" y2="267.1"/>
	<line class="st4" x1="178.4" y1="244.2" x2="254" y2="375.1"/>
	<line class="st4" x1="197.1" y1="255" x2="283.5" y2="404.6"/>
	<line class="st4" x1="283.5" y1="404.6" x2="283.5" y2="383"/>
	<line class="st4" x1="208.7" y1="253.4" x2="283.5" y2="383"/>
	<line class="st4" x1="197.1" y1="233.4" x2="197.9" y2="234.7"/>
	<line class="st4" x1="71.9" y1="405.4" x2="71.9" y2="319"/>
	<line class="st4" x1="133.8" y1="318.2" x2="167.7" y2="376.9"/>
	<line class="st4" x1="133.8" y1="296.6" x2="177" y2="371.5"/>
	<line class="st4" x1="133.8" y1="318.2" x2="133.8" y2="296.6"/>
	<line class="st4" x1="79.8" y1="397.5" x2="79.8" y2="311.1"/>
	<line class="st4" x1="90.6" y1="394.6" x2="123" y2="450.7"/>
	<line class="st4" x1="197.1" y1="233.4" x2="178.4" y2="244.2"/>
	<line class="st4" x1="197.1" y1="255" x2="197.1" y2="233.4"/>
	<line class="st4" x1="178.4" y1="265.8" x2="197.1" y2="255"/>
	<line class="st4" x1="178.4" y1="244.2" x2="178.4" y2="265.8"/>
	<line class="st4" x1="79.8" y1="397.5" x2="123" y2="472.3"/>
	<line class="st4" x1="61.1" y1="300.3" x2="61.1" y2="408.3"/>
	<line class="st4" x1="225.5" y1="260.2" x2="1" y2="389.8"/>
	<line class="st4" x1="61.1" y1="408.3" x2="79.8" y2="397.5"/>
	<line class="st4" x1="225.5" y1="260.2" x2="225.5" y2="1"/>
	<line class="st4" x1="355.1" y1="484.7" x2="225.5" y2="260.2"/>
	<line class="st4" x1="61.1" y1="300.3" x2="154.7" y2="246.3"/>
	<line class="st4" x1="115.1" y1="480.2" x2="115.1" y2="501.8"/>
	<line class="st4" x1="115.1" y1="501.8" x2="283.5" y2="404.6"/>
	<line class="st4" x1="283.5" y1="383" x2="115.1" y2="480.2"/>
	<line class="st4" x1="115.1" y1="501.8" x2="61.1" y2="408.3"/>
	<line class="st4" x1="61.1" y1="300.3" x2="71.9" y2="319"/>
	<line class="st4" x1="179.2" y1="267.1" x2="190" y2="285.8"/>
	<line class="st4" x1="71.9" y1="405.4" x2="115.1" y2="480.2"/>
	<line class="st3" x1="130.6" y1="614.3" x2="355.1" y2="484.7"/>
	<line class="st3" x1="130.6" y1="355.1" x2="355.1" y2="225.5"/>
	<line class="st3" x1="130.6" y1="614.3" x2="130.6" y2="355.1"/>
	<line class="st3" x1="158.3" y1="403.9" x2="177" y2="393.1"/>
	<line class="st3" x1="158.3" y1="382.3" x2="158.3" y2="403.9"/>
	<line class="st3" x1="177" y1="371.5" x2="158.3" y2="382.3"/>
	<line class="st3" x1="177" y1="393.1" x2="177" y2="371.5"/>
	<line class="st3" x1="355.1" y1="225.5" x2="225.5" y2="1"/>
	<line class="st3" x1="1" y1="389.8" x2="1" y2="130.6"/>
	<line class="st3" x1="225.5" y1="1" x2="1" y2="130.6"/>
	<line class="st3" x1="1" y1="389.8" x2="130.6" y2="614.3"/>
	<line class="st3" x1="1" y1="130.6" x2="130.6" y2="355.1"/>
	<line class="st3" x1="167.7" y1="376.9" x2="177" y2="393.1"/>
	<line class="st3" x1="355.1" y1="484.7" x2="355.1" y2="225.5"/>
</g>
</svg>
