<?xml version="1.0" encoding="utf-8"?>
<!-- Generator: Adobe Illustrator 21.0.2, SVG Export Plug-In . SVG Version: 6.00 Build 0)  -->
<svg version="1.1" xmlns="http://www.w3.org/2000/svg" xmlns:xlink="http://www.w3.org/1999/xlink" x="0px" y="0px"
	 viewBox="0 0 356.1 615.3" style="enable-background:new 0 0 356.1 615.3;" xml:space="preserve">
<style type="text/css">
	.st0{display:none;}
	.st1{display:inline;}
	.st2{fill:none;stroke:#000000;stroke-width:0.5;stroke-miterlimit:10;}
	.st3{fill:none;stroke:#000000;stroke-width:2;stroke-linecap:round;stroke-linejoin:round;}
	.st4{fill:none;stroke:#000000;stroke-width:0.5;stroke-linecap:round;stroke-linejoin:round;}
</style>
<g id="Layer_1" class="st0">
	<g id="Make2D::hidden::lines" class="st1">
		<line class="st2" x1="274.5" y1="215.4" x2="311.9" y2="193.8"/>
		<line class="st2" x1="311.9" y1="193.8" x2="311.9" y2="150.6"/>
		<line class="st2" x1="231.3" y1="140.6" x2="231.3" y2="97.4"/>
		<line class="st2" x1="250" y1="129.8" x2="231.3" y2="140.6"/>
		<line class="st2" x1="274.5" y1="215.4" x2="274.5" y2="172.2"/>
		<line class="st2" x1="225.5" y1="130.6" x2="188.1" y2="152.2"/>
		<line class="st2" x1="231.3" y1="140.6" x2="225.5" y2="130.6"/>
		<line class="st2" x1="336.4" y1="365.9" x2="333.5" y2="360.9"/>
		<line class="st2" x1="140.6" y1="242.8" x2="140.6" y2="199.6"/>
		<line class="st2" x1="333.5" y1="360.9" x2="296.1" y2="382.5"/>
		<line class="st2" x1="296.1" y1="382.5" x2="317.7" y2="419.9"/>
		<line class="st2" x1="119" y1="205.4" x2="119" y2="162.2"/>
		<line class="st2" x1="119" y1="205.4" x2="140.6" y2="242.8"/>
		<line class="st2" x1="137.7" y1="194.6" x2="119" y2="205.4"/>
		<line class="st2" x1="296.1" y1="382.5" x2="296.1" y2="339.3"/>
		<line class="st2" x1="333.5" y1="360.9" x2="333.5" y2="317.7"/>
		<line class="st2" x1="178" y1="221.2" x2="159.3" y2="188.8"/>
		<line class="st2" x1="140.6" y1="242.8" x2="178" y2="221.2"/>
		<line class="st2" x1="296.1" y1="339.3" x2="317.7" y2="376.7"/>
		<line class="st2" x1="81.6" y1="313.4" x2="44.2" y2="335"/>
		<line class="st2" x1="355.1" y1="355.1" x2="333.5" y2="317.7"/>
		<line class="st2" x1="103.2" y1="350.8" x2="81.6" y2="313.4"/>
		<line class="st2" x1="81.6" y1="356.6" x2="81.6" y2="313.4"/>
		<line class="st2" x1="333.5" y1="317.7" x2="296.1" y2="339.3"/>
		<line class="st2" x1="81.6" y1="356.6" x2="62.9" y2="367.4"/>
		<line class="st2" x1="103.2" y1="394" x2="81.6" y2="356.6"/>
		<line class="st2" x1="178" y1="221.2" x2="178" y2="178"/>
		<line class="st2" x1="209.7" y1="189.6" x2="247.1" y2="168"/>
		<line class="st2" x1="247.1" y1="211.2" x2="247.1" y2="168"/>
		<line class="st2" x1="188.1" y1="195.4" x2="188.1" y2="152.2"/>
		<line class="st2" x1="188.1" y1="152.2" x2="209.7" y2="189.6"/>
		<line class="st2" x1="209.7" y1="232.8" x2="209.7" y2="189.6"/>
		<line class="st2" x1="209.7" y1="232.8" x2="247.1" y2="211.2"/>
		<line class="st2" x1="188.1" y1="195.4" x2="209.7" y2="232.8"/>
		<line class="st2" x1="225.5" y1="173.8" x2="188.1" y2="195.4"/>
		<line class="st2" x1="247.1" y1="211.2" x2="225.5" y2="173.8"/>
		<line class="st2" x1="146.4" y1="425.7" x2="109" y2="447.3"/>
		<line class="st2" x1="225.5" y1="260.2" x2="225.5" y2="173.8"/>
		<line class="st2" x1="225.5" y1="260.2" x2="1" y2="389.8"/>
		<line class="st2" x1="168" y1="463.1" x2="146.4" y2="425.7"/>
		<line class="st2" x1="146.4" y1="468.9" x2="146.4" y2="425.7"/>
		<line class="st2" x1="225.5" y1="130.6" x2="225.5" y2="1"/>
		<line class="st2" x1="146.4" y1="468.9" x2="127.7" y2="479.7"/>
		<line class="st2" x1="149.3" y1="473.9" x2="146.4" y2="468.9"/>
		<line class="st2" x1="311.9" y1="193.8" x2="293.2" y2="161.4"/>
		<line class="st2" x1="231.3" y1="140.6" x2="274.5" y2="215.4"/>
		<line class="st2" x1="355.1" y1="484.7" x2="317.7" y2="419.9"/>
		<line class="st2" x1="103.2" y1="394" x2="103.2" y2="350.8"/>
		<line class="st2" x1="103.2" y1="350.8" x2="65.8" y2="372.4"/>
		<line class="st2" x1="296.1" y1="382.5" x2="225.5" y2="260.2"/>
		<line class="st2" x1="65.8" y1="415.6" x2="103.2" y2="394"/>
	</g>
	<g id="Make2D::visible::lines" class="st1">
		<line class="st3" x1="1" y1="389.8" x2="130.6" y2="614.3"/>
		<line class="st3" x1="65.8" y1="415.6" x2="65.8" y2="372.4"/>
		<line class="st3" x1="109" y1="490.5" x2="130.6" y2="527.9"/>
		<line class="st3" x1="355.1" y1="355.1" x2="355.1" y2="225.5"/>
		<line class="st3" x1="355.1" y1="484.7" x2="355.1" y2="398.3"/>
		<line class="st3" x1="130.6" y1="614.3" x2="355.1" y2="484.7"/>
		<line class="st3" x1="130.6" y1="614.3" x2="130.6" y2="527.9"/>
		<line class="st3" x1="130.6" y1="484.7" x2="130.6" y2="398.3"/>
		<line class="st3" x1="1" y1="130.6" x2="109" y2="317.7"/>
		<line class="st3" x1="268.7" y1="75.8" x2="225.5" y2="1"/>
		<line class="st3" x1="355.1" y1="225.5" x2="311.9" y2="150.6"/>
		<line class="st3" x1="168" y1="333.5" x2="355.1" y2="225.5"/>
		<line class="st3" x1="231.3" y1="97.4" x2="274.5" y2="172.2"/>
		<line class="st3" x1="130.6" y1="527.9" x2="168" y2="506.3"/>
		<line class="st3" x1="293.2" y1="161.4" x2="268.7" y2="119"/>
		<line class="st3" x1="168" y1="506.3" x2="149.3" y2="473.9"/>
		<line class="st3" x1="127.7" y1="479.7" x2="109" y2="490.5"/>
		<line class="st3" x1="225.5" y1="1" x2="1" y2="130.6"/>
		<line class="st3" x1="1" y1="389.8" x2="1" y2="130.6"/>
		<line class="st3" x1="168" y1="506.3" x2="168" y2="463.1"/>
		<line class="st3" x1="109" y1="490.5" x2="109" y2="447.3"/>
		<line class="st3" x1="156.4" y1="140.6" x2="178" y2="178"/>
		<line class="st3" x1="44.2" y1="378.2" x2="65.8" y2="415.6"/>
		<line class="st3" x1="62.9" y1="367.4" x2="44.2" y2="378.2"/>
		<line class="st3" x1="44.2" y1="378.2" x2="44.2" y2="335"/>
		<line class="st3" x1="317.7" y1="376.7" x2="355.1" y2="355.1"/>
		<line class="st3" x1="44.2" y1="335" x2="65.8" y2="372.4"/>
		<line class="st3" x1="317.7" y1="419.9" x2="317.7" y2="376.7"/>
		<line class="st3" x1="159.3" y1="188.8" x2="156.4" y2="183.8"/>
		<line class="st3" x1="156.4" y1="183.8" x2="137.7" y2="194.6"/>
		<line class="st3" x1="156.4" y1="140.6" x2="119" y2="162.2"/>
		<line class="st3" x1="156.4" y1="140.6" x2="156.4" y2="183.8"/>
		<line class="st3" x1="119" y1="162.2" x2="140.6" y2="199.6"/>
		<line class="st3" x1="355.1" y1="398.3" x2="336.4" y2="365.9"/>
		<line class="st3" x1="317.7" y1="419.9" x2="355.1" y2="398.3"/>
		<line class="st3" x1="146.4" y1="296.1" x2="109" y2="317.7"/>
		<line class="st3" x1="109" y1="360.9" x2="109" y2="317.7"/>
		<line class="st3" x1="168" y1="376.7" x2="168" y2="333.5"/>
		<line class="st3" x1="168" y1="333.5" x2="146.4" y2="296.1"/>
		<line class="st3" x1="146.4" y1="339.3" x2="146.4" y2="296.1"/>
		<line class="st3" x1="146.4" y1="339.3" x2="109" y2="360.9"/>
		<line class="st3" x1="168" y1="376.7" x2="146.4" y2="339.3"/>
		<line class="st3" x1="130.6" y1="398.3" x2="168" y2="376.7"/>
		<line class="st3" x1="109" y1="360.9" x2="130.6" y2="398.3"/>
		<line class="st3" x1="178" y1="178" x2="140.6" y2="199.6"/>
		<line class="st3" x1="130.6" y1="484.7" x2="168" y2="463.1"/>
		<line class="st3" x1="109" y1="447.3" x2="130.6" y2="484.7"/>
		<line class="st3" x1="268.7" y1="119" x2="250" y2="129.8"/>
		<line class="st3" x1="274.5" y1="172.2" x2="311.9" y2="150.6"/>
		<line class="st3" x1="268.7" y1="75.8" x2="231.3" y2="97.4"/>
		<line class="st3" x1="268.7" y1="119" x2="268.7" y2="75.8"/>
	</g>
</g>
<g id="Layer_2">
	<line class="st4" x1="272.9" y1="468.1" x2="272.9" y2="489.7"/>
	<line class="st4" x1="127.9" y1="573.4" x2="272.9" y2="489.7"/>
	<line class="st4" x1="127.9" y1="551.8" x2="272.9" y2="468.1"/>
	<line class="st4" x1="245.9" y1="421.3" x2="256.7" y2="440"/>
	<line class="st4" x1="117.1" y1="554.7" x2="262.1" y2="471"/>
	<line class="st4" x1="245.9" y1="442.9" x2="245.9" y2="421.3"/>
	<line class="st4" x1="100.9" y1="505" x2="245.9" y2="421.3"/>
	<line class="st4" x1="272.9" y1="489.7" x2="262.1" y2="471"/>
	<line class="st4" x1="256.7" y1="461.6" x2="245.9" y2="442.9"/>
	<line class="st4" x1="100.9" y1="526.6" x2="245.9" y2="442.9"/>
	<line class="st4" x1="117.1" y1="533.1" x2="262.1" y2="449.4"/>
	<line class="st4" x1="111.7" y1="523.7" x2="256.7" y2="440"/>
	<line class="st4" x1="256.7" y1="440" x2="256.7" y2="461.6"/>
	<line class="st4" x1="111.7" y1="545.3" x2="256.7" y2="461.6"/>
	<line class="st4" x1="262.1" y1="471" x2="262.1" y2="449.4"/>
	<line class="st4" x1="229.7" y1="393.3" x2="240.5" y2="412"/>
	<line class="st4" x1="262.1" y1="449.4" x2="272.9" y2="468.1"/>
	<line class="st4" x1="229.7" y1="414.9" x2="229.7" y2="393.3"/>
	<line class="st4" x1="84.7" y1="477" x2="229.7" y2="393.3"/>
	<line class="st4" x1="95.5" y1="484.9" x2="240.5" y2="401.2"/>
	<line class="st4" x1="240.5" y1="433.6" x2="229.7" y2="414.9"/>
	<line class="st4" x1="84.7" y1="498.6" x2="229.7" y2="414.9"/>
	<line class="st4" x1="240.5" y1="379.6" x2="240.5" y2="401.2"/>
	<line class="st4" x1="95.5" y1="495.7" x2="240.5" y2="412"/>
	<line class="st4" x1="240.5" y1="412" x2="240.5" y2="433.6"/>
	<line class="st4" x1="95.5" y1="517.3" x2="240.5" y2="433.6"/>
	<line class="st4" x1="95.5" y1="463.3" x2="240.5" y2="379.6"/>
	<line class="st4" x1="262.1" y1="481.8" x2="272.9" y2="500.5"/>
	<line class="st4" x1="84.7" y1="466.2" x2="229.7" y2="382.5"/>
	<line class="st4" x1="262.1" y1="503.4" x2="262.1" y2="481.8"/>
	<line class="st4" x1="117.1" y1="565.5" x2="262.1" y2="481.8"/>
	<line class="st4" x1="240.5" y1="401.2" x2="229.7" y2="382.5"/>
	<line class="st4" x1="272.9" y1="522.1" x2="262.1" y2="503.4"/>
	<line class="st4" x1="117.1" y1="587.1" x2="262.1" y2="503.4"/>
	<line class="st4" x1="84.7" y1="444.6" x2="229.7" y2="360.9"/>
	<line class="st4" x1="127.9" y1="584.2" x2="272.9" y2="500.5"/>
	<line class="st4" x1="272.9" y1="500.5" x2="272.9" y2="522.1"/>
	<line class="st4" x1="127.9" y1="605.8" x2="272.9" y2="522.1"/>
	<line class="st4" x1="229.7" y1="382.5" x2="229.7" y2="360.9"/>
	<line class="st4" x1="245.9" y1="453.7" x2="256.7" y2="472.4"/>
	<line class="st4" x1="229.7" y1="360.9" x2="240.5" y2="379.6"/>
	<line class="st4" x1="245.9" y1="475.3" x2="245.9" y2="453.7"/>
	<line class="st4" x1="100.9" y1="537.4" x2="245.9" y2="453.7"/>
	<line class="st4" x1="111.7" y1="512.9" x2="256.7" y2="429.2"/>
	<line class="st4" x1="256.7" y1="494" x2="245.9" y2="475.3"/>
	<line class="st4" x1="100.9" y1="559" x2="245.9" y2="475.3"/>
	<line class="st4" x1="256.7" y1="407.6" x2="256.7" y2="429.2"/>
	<line class="st4" x1="111.7" y1="556.1" x2="256.7" y2="472.4"/>
	<line class="st4" x1="256.7" y1="472.4" x2="256.7" y2="494"/>
	<line class="st4" x1="111.7" y1="577.7" x2="256.7" y2="494"/>
	<line class="st4" x1="111.7" y1="491.3" x2="256.7" y2="407.6"/>
	<line class="st4" x1="229.7" y1="425.7" x2="240.5" y2="444.4"/>
	<line class="st4" x1="100.9" y1="494.2" x2="245.9" y2="410.5"/>
	<line class="st4" x1="229.7" y1="447.3" x2="229.7" y2="425.7"/>
	<line class="st4" x1="84.7" y1="509.4" x2="229.7" y2="425.7"/>
	<line class="st4" x1="256.7" y1="429.2" x2="245.9" y2="410.5"/>
	<line class="st4" x1="240.5" y1="466" x2="229.7" y2="447.3"/>
	<line class="st4" x1="84.7" y1="531" x2="229.7" y2="447.3"/>
	<line class="st4" x1="100.9" y1="472.6" x2="245.9" y2="388.9"/>
	<line class="st4" x1="95.5" y1="528.1" x2="240.5" y2="444.4"/>
	<line class="st4" x1="240.5" y1="444.4" x2="240.5" y2="466"/>
	<line class="st4" x1="95.5" y1="549.7" x2="240.5" y2="466"/>
	<line class="st4" x1="245.9" y1="410.5" x2="245.9" y2="388.9"/>
	<line class="st4" x1="304.5" y1="175.7" x2="304.5" y2="154.1"/>
	<line class="st4" x1="220.8" y1="30.7" x2="220.8" y2="9.1"/>
	<line class="st4" x1="285.8" y1="186.5" x2="304.5" y2="175.7"/>
	<line class="st4" x1="220.8" y1="30.7" x2="304.5" y2="175.7"/>
	<line class="st4" x1="202.1" y1="41.5" x2="220.8" y2="30.7"/>
	<line class="st4" x1="285.8" y1="164.9" x2="285.8" y2="186.5"/>
	<line class="st4" x1="276.5" y1="170.3" x2="285.8" y2="186.5"/>
	<line class="st4" x1="202.1" y1="19.9" x2="202.1" y2="41.5"/>
	<line class="st4" x1="220.8" y1="9.1" x2="304.5" y2="154.1"/>
	<line class="st4" x1="304.5" y1="154.1" x2="285.8" y2="164.9"/>
	<line class="st4" x1="202.1" y1="19.9" x2="285.8" y2="164.9"/>
	<line class="st4" x1="220.8" y1="9.1" x2="202.1" y2="19.9"/>
	<line class="st4" x1="276.5" y1="191.9" x2="276.5" y2="170.3"/>
	<line class="st4" x1="192.8" y1="46.9" x2="192.8" y2="25.3"/>
	<line class="st4" x1="257.8" y1="202.7" x2="276.5" y2="191.9"/>
	<line class="st4" x1="192.8" y1="46.9" x2="276.5" y2="191.9"/>
	<line class="st4" x1="174.1" y1="57.7" x2="192.8" y2="46.9"/>
	<line class="st4" x1="257.8" y1="181.1" x2="257.8" y2="202.7"/>
	<line class="st4" x1="248.4" y1="186.5" x2="257.8" y2="202.7"/>
	<line class="st4" x1="174.1" y1="36.1" x2="174.1" y2="57.7"/>
	<line class="st4" x1="192.8" y1="25.3" x2="276.5" y2="170.3"/>
	<line class="st4" x1="276.5" y1="170.3" x2="257.8" y2="181.1"/>
	<line class="st4" x1="174.1" y1="36.1" x2="257.8" y2="181.1"/>
	<line class="st4" x1="192.8" y1="25.3" x2="174.1" y2="36.1"/>
	<line class="st4" x1="248.4" y1="208.1" x2="248.4" y2="186.5"/>
	<line class="st4" x1="164.7" y1="63.1" x2="164.7" y2="41.5"/>
	<line class="st4" x1="229.7" y1="218.9" x2="248.4" y2="208.1"/>
	<line class="st4" x1="164.7" y1="63.1" x2="248.4" y2="208.1"/>
	<line class="st4" x1="146" y1="73.9" x2="164.7" y2="63.1"/>
	<line class="st4" x1="229.7" y1="197.3" x2="229.7" y2="218.9"/>
	<line class="st4" x1="146" y1="73.9" x2="229.7" y2="218.9"/>
	<line class="st4" x1="146" y1="52.3" x2="146" y2="73.9"/>
	<line class="st4" x1="164.7" y1="41.5" x2="248.4" y2="186.5"/>
	<line class="st4" x1="248.4" y1="186.5" x2="229.7" y2="197.3"/>
	<line class="st4" x1="146" y1="52.3" x2="229.7" y2="197.3"/>
	<line class="st4" x1="164.7" y1="41.5" x2="146" y2="52.3"/>
	<line class="st4" x1="304.5" y1="208.1" x2="304.5" y2="186.5"/>
	<line class="st4" x1="220.8" y1="63.1" x2="220.8" y2="41.5"/>
	<line class="st4" x1="285.8" y1="218.9" x2="304.5" y2="208.1"/>
	<line class="st4" x1="220.8" y1="63.1" x2="304.5" y2="208.1"/>
	<line class="st4" x1="202.1" y1="73.9" x2="220.8" y2="63.1"/>
	<line class="st4" x1="285.8" y1="197.3" x2="285.8" y2="218.9"/>
	<line class="st4" x1="276.5" y1="202.7" x2="285.8" y2="218.9"/>
	<line class="st4" x1="202.1" y1="52.3" x2="202.1" y2="73.9"/>
	<line class="st4" x1="220.8" y1="41.5" x2="304.5" y2="186.5"/>
	<line class="st4" x1="304.5" y1="186.5" x2="285.8" y2="197.3"/>
	<line class="st4" x1="202.1" y1="52.3" x2="285.8" y2="197.3"/>
	<line class="st4" x1="220.8" y1="41.5" x2="202.1" y2="52.3"/>
	<line class="st4" x1="276.5" y1="224.3" x2="276.5" y2="202.7"/>
	<line class="st4" x1="192.8" y1="79.3" x2="192.8" y2="57.7"/>
	<line class="st4" x1="257.8" y1="235.1" x2="276.5" y2="224.3"/>
	<line class="st4" x1="192.8" y1="79.3" x2="276.5" y2="224.3"/>
	<line class="st4" x1="174.1" y1="90.1" x2="192.8" y2="79.3"/>
	<line class="st4" x1="257.8" y1="213.5" x2="257.8" y2="235.1"/>
	<line class="st4" x1="248.4" y1="218.9" x2="257.8" y2="235.1"/>
	<line class="st4" x1="174.1" y1="68.5" x2="174.1" y2="90.1"/>
	<line class="st4" x1="192.8" y1="57.7" x2="276.5" y2="202.7"/>
	<line class="st4" x1="276.5" y1="202.7" x2="257.8" y2="213.5"/>
	<line class="st4" x1="174.1" y1="68.5" x2="257.8" y2="213.5"/>
	<line class="st4" x1="192.8" y1="57.7" x2="174.1" y2="68.5"/>
	<line class="st4" x1="248.4" y1="240.5" x2="248.4" y2="218.9"/>
	<line class="st4" x1="164.7" y1="95.5" x2="164.7" y2="73.9"/>
	<line class="st4" x1="229.7" y1="251.3" x2="248.4" y2="240.5"/>
	<line class="st4" x1="164.7" y1="95.5" x2="248.4" y2="240.5"/>
	<line class="st4" x1="146" y1="106.3" x2="164.7" y2="95.5"/>
	<line class="st4" x1="229.7" y1="229.7" x2="229.7" y2="251.3"/>
	<line class="st4" x1="146" y1="106.3" x2="229.7" y2="251.3"/>
	<line class="st4" x1="146" y1="84.7" x2="146" y2="106.3"/>
	<line class="st4" x1="164.7" y1="73.9" x2="248.4" y2="218.9"/>
	<line class="st4" x1="248.4" y1="218.9" x2="229.7" y2="229.7"/>
	<line class="st4" x1="146" y1="84.7" x2="229.7" y2="229.7"/>
	<line class="st4" x1="164.7" y1="73.9" x2="146" y2="84.7"/>
	<line class="st4" x1="167.8" y1="383.3" x2="167.8" y2="361.7"/>
	<line class="st4" x1="336.2" y1="286.1" x2="336.2" y2="264.5"/>
	<line class="st4" x1="157" y1="364.6" x2="167.8" y2="383.3"/>
	<line class="st4" x1="336.2" y1="286.1" x2="167.8" y2="383.3"/>
	<line class="st4" x1="245.9" y1="388.9" x2="256.7" y2="407.6"/>
	<line class="st4" x1="157" y1="343" x2="157" y2="364.6"/>
	<line class="st4" x1="325.4" y1="267.4" x2="157" y2="364.6"/>
	<line class="st4" x1="325.4" y1="245.8" x2="325.4" y2="267.4"/>
	<line class="st4" x1="336.2" y1="264.5" x2="167.8" y2="361.7"/>
	<line class="st4" x1="167.8" y1="361.7" x2="157" y2="343"/>
	<line class="st4" x1="325.4" y1="245.8" x2="157" y2="343"/>
	<line class="st4" x1="336.2" y1="264.5" x2="325.4" y2="245.8"/>
	<line class="st4" x1="151.6" y1="355.3" x2="151.6" y2="333.7"/>
	<line class="st4" x1="320" y1="258.1" x2="320" y2="236.5"/>
	<line class="st4" x1="140.8" y1="336.6" x2="151.6" y2="355.3"/>
	<line class="st4" x1="320" y1="258.1" x2="151.6" y2="355.3"/>
	<line class="st4" x1="309.2" y1="239.4" x2="320" y2="258.1"/>
	<line class="st4" x1="140.8" y1="315" x2="140.8" y2="336.6"/>
	<line class="st4" x1="309.2" y1="239.4" x2="140.8" y2="336.6"/>
	<line class="st4" x1="309.2" y1="217.8" x2="309.2" y2="239.4"/>
	<line class="st4" x1="320" y1="236.5" x2="151.6" y2="333.7"/>
	<line class="st4" x1="151.6" y1="333.7" x2="140.8" y2="315"/>
	<line class="st4" x1="309.2" y1="217.8" x2="140.8" y2="315"/>
	<line class="st4" x1="320" y1="236.5" x2="309.2" y2="217.8"/>
	<line class="st4" x1="135.4" y1="327.2" x2="135.4" y2="305.6"/>
	<line class="st4" x1="303.8" y1="230" x2="303.8" y2="208.4"/>
	<line class="st4" x1="124.6" y1="308.5" x2="135.4" y2="327.2"/>
	<line class="st4" x1="303.8" y1="230" x2="135.4" y2="327.2"/>
	<line class="st4" x1="293" y1="211.3" x2="303.8" y2="230"/>
	<line class="st4" x1="124.6" y1="286.9" x2="124.6" y2="308.5"/>
	<line class="st4" x1="293" y1="211.3" x2="124.6" y2="308.5"/>
	<line class="st4" x1="293" y1="189.7" x2="293" y2="211.3"/>
	<line class="st4" x1="303.8" y1="208.4" x2="135.4" y2="305.6"/>
	<line class="st4" x1="135.4" y1="305.6" x2="124.6" y2="286.9"/>
	<line class="st4" x1="293" y1="189.7" x2="124.6" y2="286.9"/>
	<line class="st4" x1="303.8" y1="208.4" x2="293" y2="189.7"/>
	<line class="st4" x1="119.2" y1="299.2" x2="119.2" y2="277.6"/>
	<line class="st4" x1="287.6" y1="202" x2="287.6" y2="180.4"/>
	<line class="st4" x1="108.4" y1="280.5" x2="119.2" y2="299.2"/>
	<line class="st4" x1="287.6" y1="202" x2="119.2" y2="299.2"/>
	<line class="st4" x1="276.8" y1="183.3" x2="287.6" y2="202"/>
	<line class="st4" x1="108.4" y1="258.9" x2="108.4" y2="280.5"/>
	<line class="st4" x1="276.8" y1="183.3" x2="108.4" y2="280.5"/>
	<line class="st4" x1="276.8" y1="161.7" x2="276.8" y2="183.3"/>
	<line class="st4" x1="287.6" y1="180.4" x2="119.2" y2="277.6"/>
	<line class="st4" x1="119.2" y1="277.6" x2="108.4" y2="258.9"/>
	<line class="st4" x1="276.8" y1="161.7" x2="108.4" y2="258.9"/>
	<line class="st4" x1="287.6" y1="180.4" x2="276.8" y2="161.7"/>
	<line class="st4" x1="103" y1="271.1" x2="103" y2="249.5"/>
	<line class="st4" x1="271.4" y1="173.9" x2="271.4" y2="152.3"/>
	<line class="st4" x1="92.2" y1="252.4" x2="103" y2="271.1"/>
	<line class="st4" x1="271.4" y1="173.9" x2="103" y2="271.1"/>
	<line class="st4" x1="260.6" y1="155.2" x2="271.4" y2="173.9"/>
	<line class="st4" x1="92.2" y1="230.8" x2="92.2" y2="252.4"/>
	<line class="st4" x1="260.6" y1="155.2" x2="92.2" y2="252.4"/>
	<line class="st4" x1="260.6" y1="133.6" x2="260.6" y2="155.2"/>
	<line class="st4" x1="271.4" y1="152.3" x2="103" y2="249.5"/>
	<line class="st4" x1="103" y1="249.5" x2="92.2" y2="230.8"/>
	<line class="st4" x1="260.6" y1="133.6" x2="92.2" y2="230.8"/>
	<line class="st4" x1="271.4" y1="152.3" x2="260.6" y2="133.6"/>
	<line class="st4" x1="167.8" y1="415.7" x2="167.8" y2="394.1"/>
	<line class="st4" x1="336.2" y1="318.5" x2="336.2" y2="296.9"/>
	<line class="st4" x1="157" y1="397" x2="167.8" y2="415.7"/>
	<line class="st4" x1="336.2" y1="318.5" x2="167.8" y2="415.7"/>
	<line class="st4" x1="325.4" y1="299.8" x2="336.2" y2="318.5"/>
	<line class="st4" x1="157" y1="375.4" x2="157" y2="397"/>
	<line class="st4" x1="325.4" y1="299.8" x2="157" y2="397"/>
	<line class="st4" x1="325.4" y1="278.2" x2="325.4" y2="299.8"/>
	<line class="st4" x1="336.2" y1="296.9" x2="167.8" y2="394.1"/>
	<line class="st4" x1="167.8" y1="394.1" x2="157" y2="375.4"/>
	<line class="st4" x1="325.4" y1="278.2" x2="157" y2="375.4"/>
	<line class="st4" x1="336.2" y1="296.9" x2="325.4" y2="278.2"/>
	<line class="st4" x1="151.6" y1="387.7" x2="151.6" y2="366.1"/>
	<line class="st4" x1="320" y1="290.5" x2="320" y2="268.9"/>
	<line class="st4" x1="140.8" y1="369" x2="151.6" y2="387.7"/>
	<line class="st4" x1="320" y1="290.5" x2="151.6" y2="387.7"/>
	<line class="st4" x1="309.2" y1="271.8" x2="320" y2="290.5"/>
	<line class="st4" x1="140.8" y1="347.4" x2="140.8" y2="369"/>
	<line class="st4" x1="309.2" y1="271.8" x2="140.8" y2="369"/>
	<line class="st4" x1="309.2" y1="250.2" x2="309.2" y2="271.8"/>
	<line class="st4" x1="320" y1="268.9" x2="151.6" y2="366.1"/>
	<line class="st4" x1="151.6" y1="366.1" x2="140.8" y2="347.4"/>
	<line class="st4" x1="309.2" y1="250.2" x2="140.8" y2="347.4"/>
	<line class="st4" x1="320" y1="268.9" x2="309.2" y2="250.2"/>
	<line class="st4" x1="135.4" y1="359.6" x2="135.4" y2="338"/>
	<line class="st4" x1="303.8" y1="262.4" x2="303.8" y2="240.8"/>
	<line class="st4" x1="124.6" y1="340.9" x2="135.4" y2="359.6"/>
	<line class="st4" x1="303.8" y1="262.4" x2="135.4" y2="359.6"/>
	<line class="st4" x1="293" y1="243.7" x2="303.8" y2="262.4"/>
	<line class="st4" x1="124.6" y1="319.3" x2="124.6" y2="340.9"/>
	<line class="st4" x1="293" y1="243.7" x2="124.6" y2="340.9"/>
	<line class="st4" x1="293" y1="222.1" x2="293" y2="243.7"/>
	<line class="st4" x1="303.8" y1="240.8" x2="135.4" y2="338"/>
	<line class="st4" x1="135.4" y1="338" x2="124.6" y2="319.3"/>
	<line class="st4" x1="293" y1="222.1" x2="124.6" y2="319.3"/>
	<line class="st4" x1="303.8" y1="240.8" x2="293" y2="222.1"/>
	<line class="st4" x1="119.2" y1="331.6" x2="119.2" y2="310"/>
	<line class="st4" x1="287.6" y1="234.4" x2="287.6" y2="212.8"/>
	<line class="st4" x1="108.4" y1="312.9" x2="119.2" y2="331.6"/>
	<line class="st4" x1="287.6" y1="234.4" x2="119.2" y2="331.6"/>
	<line class="st4" x1="276.8" y1="215.7" x2="287.6" y2="234.4"/>
	<line class="st4" x1="108.4" y1="291.3" x2="108.4" y2="312.9"/>
	<line class="st4" x1="276.8" y1="215.7" x2="108.4" y2="312.9"/>
	<line class="st4" x1="276.8" y1="194.1" x2="276.8" y2="215.7"/>
	<line class="st4" x1="287.6" y1="212.8" x2="119.2" y2="310"/>
	<line class="st4" x1="119.2" y1="310" x2="108.4" y2="291.3"/>
	<line class="st4" x1="276.8" y1="194.1" x2="108.4" y2="291.3"/>
	<line class="st4" x1="287.6" y1="212.8" x2="276.8" y2="194.1"/>
	<line class="st4" x1="103" y1="303.5" x2="103" y2="281.9"/>
	<line class="st4" x1="271.4" y1="206.3" x2="271.4" y2="184.7"/>
	<line class="st4" x1="92.2" y1="284.8" x2="103" y2="303.5"/>
	<line class="st4" x1="271.4" y1="206.3" x2="103" y2="303.5"/>
	<line class="st4" x1="260.6" y1="187.6" x2="271.4" y2="206.3"/>
	<line class="st4" x1="92.2" y1="263.2" x2="92.2" y2="284.8"/>
	<line class="st4" x1="260.6" y1="187.6" x2="92.2" y2="284.8"/>
	<line class="st4" x1="260.6" y1="166" x2="260.6" y2="187.6"/>
	<line class="st4" x1="271.4" y1="184.7" x2="103" y2="281.9"/>
	<line class="st4" x1="103" y1="281.9" x2="92.2" y2="263.2"/>
	<line class="st4" x1="260.6" y1="166" x2="92.2" y2="263.2"/>
	<line class="st4" x1="271.4" y1="184.7" x2="260.6" y2="166"/>
	<line class="st4" x1="167.8" y1="448.1" x2="167.8" y2="426.5"/>
	<line class="st4" x1="336.2" y1="350.9" x2="336.2" y2="329.3"/>
	<line class="st4" x1="157" y1="429.4" x2="167.8" y2="448.1"/>
	<line class="st4" x1="336.2" y1="350.9" x2="167.8" y2="448.1"/>
	<line class="st4" x1="325.4" y1="332.2" x2="336.2" y2="350.9"/>
	<line class="st4" x1="157" y1="407.8" x2="157" y2="429.4"/>
	<line class="st4" x1="325.4" y1="332.2" x2="157" y2="429.4"/>
	<line class="st4" x1="325.4" y1="310.6" x2="325.4" y2="332.2"/>
	<line class="st4" x1="336.2" y1="329.3" x2="167.8" y2="426.5"/>
	<line class="st4" x1="167.8" y1="426.5" x2="157" y2="407.8"/>
	<line class="st4" x1="325.4" y1="310.6" x2="157" y2="407.8"/>
	<line class="st4" x1="336.2" y1="329.3" x2="325.4" y2="310.6"/>
	<line class="st4" x1="151.6" y1="420.1" x2="151.6" y2="398.5"/>
	<line class="st4" x1="320" y1="322.9" x2="320" y2="301.3"/>
	<line class="st4" x1="140.8" y1="401.4" x2="151.6" y2="420.1"/>
	<line class="st4" x1="320" y1="322.9" x2="151.6" y2="420.1"/>
	<line class="st4" x1="309.2" y1="304.2" x2="320" y2="322.9"/>
	<line class="st4" x1="140.8" y1="379.8" x2="140.8" y2="401.4"/>
	<line class="st4" x1="309.2" y1="304.2" x2="140.8" y2="401.4"/>
	<line class="st4" x1="309.2" y1="282.6" x2="309.2" y2="304.2"/>
	<line class="st4" x1="320" y1="301.3" x2="151.6" y2="398.5"/>
	<line class="st4" x1="151.6" y1="398.5" x2="140.8" y2="379.8"/>
	<line class="st4" x1="309.2" y1="282.6" x2="140.8" y2="379.8"/>
	<line class="st4" x1="320" y1="301.3" x2="309.2" y2="282.6"/>
	<line class="st4" x1="135.4" y1="392" x2="135.4" y2="370.4"/>
	<line class="st4" x1="303.8" y1="294.8" x2="303.8" y2="273.2"/>
	<line class="st4" x1="124.6" y1="373.3" x2="135.4" y2="392"/>
	<line class="st4" x1="303.8" y1="294.8" x2="135.4" y2="392"/>
	<line class="st4" x1="293" y1="276.1" x2="303.8" y2="294.8"/>
	<line class="st4" x1="124.6" y1="351.7" x2="124.6" y2="373.3"/>
	<line class="st4" x1="293" y1="276.1" x2="124.6" y2="373.3"/>
	<line class="st4" x1="293" y1="254.5" x2="293" y2="276.1"/>
	<line class="st4" x1="303.8" y1="273.2" x2="135.4" y2="370.4"/>
	<line class="st4" x1="135.4" y1="370.4" x2="124.6" y2="351.7"/>
	<line class="st4" x1="293" y1="254.5" x2="124.6" y2="351.7"/>
	<line class="st4" x1="303.8" y1="273.2" x2="293" y2="254.5"/>
	<line class="st4" x1="119.2" y1="364" x2="119.2" y2="342.4"/>
	<line class="st4" x1="287.6" y1="266.8" x2="287.6" y2="245.2"/>
	<line class="st4" x1="108.4" y1="345.3" x2="119.2" y2="364"/>
	<line class="st4" x1="287.6" y1="266.8" x2="119.2" y2="364"/>
	<line class="st4" x1="276.8" y1="248.1" x2="287.6" y2="266.8"/>
	<line class="st4" x1="108.4" y1="323.7" x2="108.4" y2="345.3"/>
	<line class="st4" x1="276.8" y1="248.1" x2="108.4" y2="345.3"/>
	<line class="st4" x1="276.8" y1="226.5" x2="276.8" y2="248.1"/>
	<line class="st4" x1="287.6" y1="245.2" x2="119.2" y2="342.4"/>
	<line class="st4" x1="119.2" y1="342.4" x2="108.4" y2="323.7"/>
	<line class="st4" x1="276.8" y1="226.5" x2="108.4" y2="323.7"/>
	<line class="st4" x1="287.6" y1="245.2" x2="276.8" y2="226.5"/>
	<line class="st4" x1="103" y1="335.9" x2="103" y2="314.3"/>
	<line class="st4" x1="271.4" y1="238.7" x2="271.4" y2="217.1"/>
	<line class="st4" x1="92.2" y1="317.2" x2="103" y2="335.9"/>
	<line class="st4" x1="271.4" y1="238.7" x2="103" y2="335.9"/>
	<line class="st4" x1="260.6" y1="220" x2="271.4" y2="238.7"/>
	<line class="st4" x1="92.2" y1="295.6" x2="92.2" y2="317.2"/>
	<line class="st4" x1="260.6" y1="220" x2="92.2" y2="317.2"/>
	<line class="st4" x1="260.6" y1="198.4" x2="260.6" y2="220"/>
	<line class="st4" x1="271.4" y1="217.1" x2="103" y2="314.3"/>
	<line class="st4" x1="103" y1="314.3" x2="92.2" y2="295.6"/>
	<line class="st4" x1="260.6" y1="198.4" x2="92.2" y2="295.6"/>
	<line class="st4" x1="271.4" y1="217.1" x2="260.6" y2="198.4"/>
	<line class="st4" x1="127.9" y1="541" x2="272.9" y2="457.3"/>
	<line class="st4" x1="272.9" y1="435.7" x2="272.9" y2="457.3"/>
	<line class="st4" x1="127.9" y1="519.4" x2="272.9" y2="435.7"/>
	<line class="st4" x1="117.1" y1="522.3" x2="262.1" y2="438.6"/>
	<line class="st4" x1="272.9" y1="457.3" x2="262.1" y2="438.6"/>
	<line class="st4" x1="117.1" y1="500.7" x2="262.1" y2="417"/>
	<line class="st4" x1="262.1" y1="438.6" x2="262.1" y2="417"/>
	<line class="st4" x1="225.5" y1="260.2" x2="1" y2="389.8"/>
	<line class="st4" x1="325.4" y1="267.4" x2="336.2" y2="286.1"/>
	<line class="st4" x1="262.1" y1="417" x2="272.9" y2="435.7"/>
	<line class="st4" x1="225.5" y1="260.2" x2="225.5" y2="1"/>
	<line class="st4" x1="355.1" y1="484.7" x2="225.5" y2="260.2"/>
	<line class="st3" x1="355.1" y1="225.5" x2="225.5" y2="1"/>
	<line class="st3" x1="117.1" y1="500.7" x2="127.9" y2="519.4"/>
	<line class="st3" x1="1" y1="389.8" x2="1" y2="130.6"/>
	<line class="st3" x1="225.5" y1="1" x2="1" y2="130.6"/>
	<line class="st3" x1="117.1" y1="522.3" x2="117.1" y2="500.7"/>
	<line class="st3" x1="1" y1="389.8" x2="130.6" y2="614.3"/>
	<line class="st3" x1="130.6" y1="614.3" x2="130.6" y2="355.1"/>
	<line class="st3" x1="127.9" y1="541" x2="117.1" y2="522.3"/>
	<line class="st3" x1="1" y1="130.6" x2="130.6" y2="355.1"/>
	<line class="st3" x1="130.6" y1="614.3" x2="355.1" y2="484.7"/>
	<line class="st3" x1="130.6" y1="355.1" x2="355.1" y2="225.5"/>
	<line class="st3" x1="127.9" y1="519.4" x2="127.9" y2="541"/>
	<line class="st3" x1="355.1" y1="484.7" x2="355.1" y2="225.5"/>
	<line class="st3" x1="100.9" y1="472.6" x2="111.7" y2="491.3"/>
	<line class="st3" x1="95.5" y1="528.1" x2="95.5" y2="549.7"/>
	<line class="st3" x1="95.5" y1="549.7" x2="84.7" y2="531"/>
	<line class="st3" x1="100.9" y1="494.2" x2="100.9" y2="472.6"/>
	<line class="st3" x1="84.7" y1="531" x2="84.7" y2="509.4"/>
	<line class="st3" x1="84.7" y1="509.4" x2="95.5" y2="528.1"/>
	<line class="st3" x1="111.7" y1="512.9" x2="100.9" y2="494.2"/>
	<line class="st3" x1="111.7" y1="556.1" x2="111.7" y2="577.7"/>
	<line class="st3" x1="111.7" y1="577.7" x2="100.9" y2="559"/>
	<line class="st3" x1="100.9" y1="559" x2="100.9" y2="537.4"/>
	<line class="st3" x1="111.7" y1="491.3" x2="111.7" y2="512.9"/>
	<line class="st3" x1="100.9" y1="537.4" x2="111.7" y2="556.1"/>
	<line class="st3" x1="84.7" y1="444.6" x2="95.5" y2="463.3"/>
	<line class="st3" x1="127.9" y1="584.2" x2="127.9" y2="605.8"/>
	<line class="st3" x1="127.9" y1="605.8" x2="117.1" y2="587.1"/>
	<line class="st3" x1="84.7" y1="466.2" x2="84.7" y2="444.6"/>
	<line class="st3" x1="117.1" y1="587.1" x2="117.1" y2="565.5"/>
	<line class="st3" x1="117.1" y1="565.5" x2="127.9" y2="584.2"/>
	<line class="st3" x1="95.5" y1="484.9" x2="84.7" y2="466.2"/>
	<line class="st3" x1="95.5" y1="495.7" x2="95.5" y2="517.3"/>
	<line class="st3" x1="95.5" y1="517.3" x2="84.7" y2="498.6"/>
	<line class="st3" x1="84.7" y1="498.6" x2="84.7" y2="477"/>
	<line class="st3" x1="95.5" y1="463.3" x2="95.5" y2="484.9"/>
	<line class="st3" x1="84.7" y1="477" x2="95.5" y2="495.7"/>
	<line class="st3" x1="117.1" y1="533.1" x2="127.9" y2="551.8"/>
	<line class="st3" x1="111.7" y1="523.7" x2="111.7" y2="545.3"/>
	<line class="st3" x1="111.7" y1="545.3" x2="100.9" y2="526.6"/>
	<line class="st3" x1="117.1" y1="554.7" x2="117.1" y2="533.1"/>
	<line class="st3" x1="100.9" y1="526.6" x2="100.9" y2="505"/>
	<line class="st3" x1="100.9" y1="505" x2="111.7" y2="523.7"/>
	<line class="st3" x1="127.9" y1="573.4" x2="117.1" y2="554.7"/>
	<line class="st3" x1="127.9" y1="551.8" x2="127.9" y2="573.4"/>
</g>
</svg>
