<?xml version="1.0" encoding="utf-8"?>
<!-- Generator: Adobe Illustrator 21.0.2, SVG Export Plug-In . SVG Version: 6.00 Build 0)  -->
<svg version="1.1" xmlns="http://www.w3.org/2000/svg" xmlns:xlink="http://www.w3.org/1999/xlink" x="0px" y="0px"
	 viewBox="0 0 356.1 615.3" style="enable-background:new 0 0 356.1 615.3;" xml:space="preserve">
<style type="text/css">
	.st0{display:none;}
	.st1{display:inline;}
	.st2{fill:none;stroke:#000000;stroke-width:0.5;stroke-miterlimit:10;}
	.st3{fill:none;stroke:#000000;stroke-width:2;stroke-linecap:round;stroke-linejoin:round;}
	.st4{fill:none;stroke:#000000;stroke-width:0.5;stroke-linecap:round;stroke-linejoin:round;}
</style>
<g id="Layer_1" class="st0">
	<g id="Make2D::hidden::lines" class="st1">
		<line class="st2" x1="274.5" y1="215.4" x2="311.9" y2="193.8"/>
		<line class="st2" x1="311.9" y1="193.8" x2="311.9" y2="150.6"/>
		<line class="st2" x1="231.3" y1="140.6" x2="231.3" y2="97.4"/>
		<line class="st2" x1="250" y1="129.8" x2="231.3" y2="140.6"/>
		<line class="st2" x1="274.5" y1="215.4" x2="274.5" y2="172.2"/>
		<line class="st2" x1="225.5" y1="130.6" x2="188.1" y2="152.2"/>
		<line class="st2" x1="231.3" y1="140.6" x2="225.5" y2="130.6"/>
		<line class="st2" x1="336.4" y1="365.9" x2="333.5" y2="360.9"/>
		<line class="st2" x1="140.6" y1="242.8" x2="140.6" y2="199.6"/>
		<line class="st2" x1="333.5" y1="360.9" x2="296.1" y2="382.5"/>
		<line class="st2" x1="296.1" y1="382.5" x2="317.7" y2="419.9"/>
		<line class="st2" x1="119" y1="205.4" x2="119" y2="162.2"/>
		<line class="st2" x1="119" y1="205.4" x2="140.6" y2="242.8"/>
		<line class="st2" x1="137.7" y1="194.6" x2="119" y2="205.4"/>
		<line class="st2" x1="296.1" y1="382.5" x2="296.1" y2="339.3"/>
		<line class="st2" x1="333.5" y1="360.9" x2="333.5" y2="317.7"/>
		<line class="st2" x1="178" y1="221.2" x2="159.3" y2="188.8"/>
		<line class="st2" x1="140.6" y1="242.8" x2="178" y2="221.2"/>
		<line class="st2" x1="296.1" y1="339.3" x2="317.7" y2="376.7"/>
		<line class="st2" x1="81.6" y1="313.4" x2="44.2" y2="335"/>
		<line class="st2" x1="355.1" y1="355.1" x2="333.5" y2="317.7"/>
		<line class="st2" x1="103.2" y1="350.8" x2="81.6" y2="313.4"/>
		<line class="st2" x1="81.6" y1="356.6" x2="81.6" y2="313.4"/>
		<line class="st2" x1="333.5" y1="317.7" x2="296.1" y2="339.3"/>
		<line class="st2" x1="81.6" y1="356.6" x2="62.9" y2="367.4"/>
		<line class="st2" x1="103.2" y1="394" x2="81.6" y2="356.6"/>
		<line class="st2" x1="178" y1="221.2" x2="178" y2="178"/>
		<line class="st2" x1="209.7" y1="189.6" x2="247.1" y2="168"/>
		<line class="st2" x1="247.1" y1="211.2" x2="247.1" y2="168"/>
		<line class="st2" x1="188.1" y1="195.4" x2="188.1" y2="152.2"/>
		<line class="st2" x1="188.1" y1="152.2" x2="209.7" y2="189.6"/>
		<line class="st2" x1="209.7" y1="232.8" x2="209.7" y2="189.6"/>
		<line class="st2" x1="209.7" y1="232.8" x2="247.1" y2="211.2"/>
		<line class="st2" x1="188.1" y1="195.4" x2="209.7" y2="232.8"/>
		<line class="st2" x1="225.5" y1="173.8" x2="188.1" y2="195.4"/>
		<line class="st2" x1="247.1" y1="211.2" x2="225.5" y2="173.8"/>
		<line class="st2" x1="146.4" y1="425.7" x2="109" y2="447.3"/>
		<line class="st2" x1="225.5" y1="260.2" x2="225.5" y2="173.8"/>
		<line class="st2" x1="225.5" y1="260.2" x2="1" y2="389.8"/>
		<line class="st2" x1="168" y1="463.1" x2="146.4" y2="425.7"/>
		<line class="st2" x1="146.4" y1="468.9" x2="146.4" y2="425.7"/>
		<line class="st2" x1="225.5" y1="130.6" x2="225.5" y2="1"/>
		<line class="st2" x1="146.4" y1="468.9" x2="127.7" y2="479.7"/>
		<line class="st2" x1="149.3" y1="473.9" x2="146.4" y2="468.9"/>
		<line class="st2" x1="311.9" y1="193.8" x2="293.2" y2="161.4"/>
		<line class="st2" x1="231.3" y1="140.6" x2="274.5" y2="215.4"/>
		<line class="st2" x1="355.1" y1="484.7" x2="317.7" y2="419.9"/>
		<line class="st2" x1="103.2" y1="394" x2="103.2" y2="350.8"/>
		<line class="st2" x1="103.2" y1="350.8" x2="65.8" y2="372.4"/>
		<line class="st2" x1="296.1" y1="382.5" x2="225.5" y2="260.2"/>
		<line class="st2" x1="65.8" y1="415.6" x2="103.2" y2="394"/>
	</g>
	<g id="Make2D::visible::lines" class="st1">
		<line class="st3" x1="1" y1="389.8" x2="130.6" y2="614.3"/>
		<line class="st3" x1="65.8" y1="415.6" x2="65.8" y2="372.4"/>
		<line class="st3" x1="109" y1="490.5" x2="130.6" y2="527.9"/>
		<line class="st3" x1="355.1" y1="355.1" x2="355.1" y2="225.5"/>
		<line class="st3" x1="355.1" y1="484.7" x2="355.1" y2="398.3"/>
		<line class="st3" x1="130.6" y1="614.3" x2="355.1" y2="484.7"/>
		<line class="st3" x1="130.6" y1="614.3" x2="130.6" y2="527.9"/>
		<line class="st3" x1="130.6" y1="484.7" x2="130.6" y2="398.3"/>
		<line class="st3" x1="1" y1="130.6" x2="109" y2="317.7"/>
		<line class="st3" x1="268.7" y1="75.8" x2="225.5" y2="1"/>
		<line class="st3" x1="355.1" y1="225.5" x2="311.9" y2="150.6"/>
		<line class="st3" x1="168" y1="333.5" x2="355.1" y2="225.5"/>
		<line class="st3" x1="231.3" y1="97.4" x2="274.5" y2="172.2"/>
		<line class="st3" x1="130.6" y1="527.9" x2="168" y2="506.3"/>
		<line class="st3" x1="293.2" y1="161.4" x2="268.7" y2="119"/>
		<line class="st3" x1="168" y1="506.3" x2="149.3" y2="473.9"/>
		<line class="st3" x1="127.7" y1="479.7" x2="109" y2="490.5"/>
		<line class="st3" x1="225.5" y1="1" x2="1" y2="130.6"/>
		<line class="st3" x1="1" y1="389.8" x2="1" y2="130.6"/>
		<line class="st3" x1="168" y1="506.3" x2="168" y2="463.1"/>
		<line class="st3" x1="109" y1="490.5" x2="109" y2="447.3"/>
		<line class="st3" x1="156.4" y1="140.6" x2="178" y2="178"/>
		<line class="st3" x1="44.2" y1="378.2" x2="65.8" y2="415.6"/>
		<line class="st3" x1="62.9" y1="367.4" x2="44.2" y2="378.2"/>
		<line class="st3" x1="44.2" y1="378.2" x2="44.2" y2="335"/>
		<line class="st3" x1="317.7" y1="376.7" x2="355.1" y2="355.1"/>
		<line class="st3" x1="44.2" y1="335" x2="65.8" y2="372.4"/>
		<line class="st3" x1="317.7" y1="419.9" x2="317.7" y2="376.7"/>
		<line class="st3" x1="159.3" y1="188.8" x2="156.4" y2="183.8"/>
		<line class="st3" x1="156.4" y1="183.8" x2="137.7" y2="194.6"/>
		<line class="st3" x1="156.4" y1="140.6" x2="119" y2="162.2"/>
		<line class="st3" x1="156.4" y1="140.6" x2="156.4" y2="183.8"/>
		<line class="st3" x1="119" y1="162.2" x2="140.6" y2="199.6"/>
		<line class="st3" x1="355.1" y1="398.3" x2="336.4" y2="365.9"/>
		<line class="st3" x1="317.7" y1="419.9" x2="355.1" y2="398.3"/>
		<line class="st3" x1="146.4" y1="296.1" x2="109" y2="317.7"/>
		<line class="st3" x1="109" y1="360.9" x2="109" y2="317.7"/>
		<line class="st3" x1="168" y1="376.7" x2="168" y2="333.5"/>
		<line class="st3" x1="168" y1="333.5" x2="146.4" y2="296.1"/>
		<line class="st3" x1="146.4" y1="339.3" x2="146.4" y2="296.1"/>
		<line class="st3" x1="146.4" y1="339.3" x2="109" y2="360.9"/>
		<line class="st3" x1="168" y1="376.7" x2="146.4" y2="339.3"/>
		<line class="st3" x1="130.6" y1="398.3" x2="168" y2="376.7"/>
		<line class="st3" x1="109" y1="360.9" x2="130.6" y2="398.3"/>
		<line class="st3" x1="178" y1="178" x2="140.6" y2="199.6"/>
		<line class="st3" x1="130.6" y1="484.7" x2="168" y2="463.1"/>
		<line class="st3" x1="109" y1="447.3" x2="130.6" y2="484.7"/>
		<line class="st3" x1="268.7" y1="119" x2="250" y2="129.8"/>
		<line class="st3" x1="274.5" y1="172.2" x2="311.9" y2="150.6"/>
		<line class="st3" x1="268.7" y1="75.8" x2="231.3" y2="97.4"/>
		<line class="st3" x1="268.7" y1="119" x2="268.7" y2="75.8"/>
	</g>
</g>
<g id="Layer_2">
	<path class="st4" d="M271.7,392.8c-1.5-2.7-2.9-5.3-4.4-7.9c-2.3-4.1-4.6-8.2-7-12.4c-5.9-10.4-11.7-20.7-17.6-31
		c-26.2-45.9-52.5-91.8-78.7-137.7c-3.9-6.8-7.7-13.6-11.6-20.4c-2.5-4.4-5-8.8-7.5-13.2"/>
	<line class="st4" x1="144.9" y1="170.2" x2="156.7" y2="163.4"/>
	<path class="st4" d="M156.7,177c2.7,4.5,5.3,9,7.9,13.5c4.1,6.9,8.1,13.8,12.1,20.7c24.4,41.6,48.8,83.3,73.2,124.9
		c10.1,17.2,20.3,34.5,30.4,51.7"/>
	<line class="st4" x1="156.7" y1="163.4" x2="156.7" y2="177"/>
	<path class="st4" d="M289.5,382.5c-1.6-2.5-3.3-5.1-4.9-7.7c-2.5-4-5-8-7.5-12c-6.5-10.6-13-21.2-19.4-31.8
		c-27.4-45.3-54.6-90.8-81.9-136.1c-3.7-6.2-7.5-12.4-11.2-18.5c-2.6-4.3-5.3-8.6-7.9-12.9"/>
	<line class="st4" x1="194.1" y1="155.1" x2="182.3" y2="161.9"/>
	<line class="st4" x1="182.3" y1="161.9" x2="182.3" y2="148.3"/>
	<path class="st4" d="M306.5,395.9c-2.1-4.6-4.4-9.1-6.6-13.6c-3.2-6.4-6.4-12.8-9.7-19.1c-7.9-15.4-16-30.8-24.1-46.1
		c-7.4-14-14.9-27.9-22.5-41.9c-4.8-8.9-9.7-17.9-14.5-26.8c-8.4-15.4-16.8-30.8-25.2-46.2c-2.9-5.3-5.7-10.6-8.6-15.8
		c-2.6-4.7-5.1-9.5-7.7-14.3c-1.8-3.4-3.6-6.8-5.4-10.2"/>
	<line class="st4" x1="182.3" y1="148.3" x2="194.1" y2="141.5"/>
	<path class="st4" d="M306.5,369.5c-2.2-4.1-4.4-8.1-6.6-12.2c-3-5.5-6.1-11-9.1-16.6c-7.9-14.3-15.9-28.5-23.8-42.7
		c-7.6-13.5-15.1-26.9-22.7-40.4c-16.1-28.4-32.2-56.8-48.2-85.2c-4.6-8.1-9.1-16.1-13.6-24.2"/>
	<path class="st4" d="M271.7,413.5c-1.5-2.8-2.9-5.6-4.4-8.5c-2.3-4.3-4.6-8.6-7-13c-6.1-11.2-12.2-22.4-18.4-33.6
		c-25.8-46.7-52-93.2-77.9-139.9c-3.9-7-7.8-14-11.6-21c-2.5-4.6-5-9.1-7.5-13.7"/>
	<path class="st4" d="M194.1,155.1c3.8,6.4,7.6,12.9,11.5,19.3c2.8,4.7,5.6,9.4,8.4,14.2c12.3,20.9,24.7,41.8,37,62.7
		c8,13.5,16,27.1,24,40.6c14.1,23.8,28.2,47.5,42.5,71.2"/>
	<line class="st4" x1="194.1" y1="141.5" x2="194.1" y2="155.1"/>
	<path class="st4" d="M329.4,356.3c-2.7-3.8-5.3-7.6-7.9-11.5c-3.7-5.5-7.4-11.1-11-16.7c-9-13.8-17.9-27.7-26.6-41.7
		c-8.3-13.2-16.5-26.4-24.8-39.7c-17-27.5-33.9-55.1-50.8-82.6c-2.7-4.4-5.5-8.9-8.2-13.3c-2-3.1-3.9-6.3-5.9-9.4"/>
	<line class="st4" x1="81.9" y1="263.4" x2="70.1" y2="270.2"/>
	<line class="st4" x1="70.1" y1="270.2" x2="70.1" y2="256.5"/>
	<path class="st4" d="M192.6,507.1c-2.2-4.4-4.4-8.9-6.6-13.3c-1-2-2-4-3-6.1c-4.5-9-9.1-18-13.6-27c-6.6-13.1-13.1-26.2-19.7-39.3
		c-5.4-10.7-10.9-21.4-16.4-32.1c-6-11.7-12.2-23.4-18.3-35c-11.7-22.1-23.5-44.1-35.3-66.1c-3.2-6.1-6.4-12.1-9.6-18.2"/>
	<line class="st4" x1="70.1" y1="256.5" x2="81.9" y2="249.7"/>
	<path class="st4" d="M192.6,476.8c-2.3-4.2-4.6-8.4-6.9-12.6c-5.4-9.9-10.9-19.8-16.3-29.7c-6.4-11.6-12.7-23.1-19.1-34.7
		c-5.4-9.8-10.8-19.6-16.2-29.3c-6.2-11.1-12.4-22.2-18.6-33.3c-11.9-21.2-23.9-42.4-35.8-63.6c-3.2-5.7-6.4-11.4-9.6-17.1"/>
	<line class="st4" x1="144.9" y1="183.9" x2="144.9" y2="170.2"/>
	<path class="st4" d="M81.9,263.4c3.3,5.6,6.7,11.1,10,16.7c12.2,20.6,24.4,41.2,36.6,61.7c6.6,11.1,13.2,22.1,19.8,33.2
		c5.8,9.8,11.7,19.5,17.6,29.3c8.9,14.7,17.7,29.4,26.6,44c4.3,7.1,8.5,14.1,12.8,21.2"/>
	<line class="st4" x1="81.9" y1="249.7" x2="81.9" y2="263.4"/>
	<path class="st4" d="M218.8,461.6c-2.5-3.6-4.9-7.2-7.3-10.9c-1.2-1.7-2.3-3.5-3.5-5.2c-5.3-8-10.6-16-15.9-24.1
		c-7.5-11.4-15.1-22.7-22.7-34.1c-6.2-9.4-12.4-18.8-18.5-28.3c-7-10.8-13.9-21.7-20.8-32.6c-12.8-20.3-25.5-40.7-38.3-61.1
		c-3.3-5.2-6.6-10.5-10-15.7"/>
	<line class="st4" x1="119.3" y1="241.7" x2="107.5" y2="248.5"/>
	<line class="st4" x1="107.5" y1="248.5" x2="107.5" y2="234.9"/>
	<path class="st4" d="M232.3,481.5c-1.9-4.1-3.9-8.1-5.9-12.1c-2.8-5.6-5.6-11.1-8.5-16.6c-7.3-14-14.7-28-22.1-41.9
		c-7.2-13.5-14.5-26.9-21.8-40.4c-17.1-31.5-34.4-62.9-51.6-94.4c-3-5.5-6-10.9-8.9-16.4c-2-3.7-4-7.4-5.9-11.1"/>
	<line class="st4" x1="107.5" y1="234.9" x2="119.3" y2="228"/>
	<path class="st4" d="M232.3,456.4c-2-3.6-3.9-7.3-5.9-10.9c-2.8-5.1-5.6-10.2-8.5-15.3c-7.3-13.2-14.7-26.3-22.1-39.5
		c-25.2-44.7-50.6-89.3-75.9-133.9c-4.1-7.3-8.2-14.6-12.3-21.9"/>
	<line class="st4" x1="156.7" y1="177" x2="144.9" y2="183.9"/>
	<path class="st4" d="M119.3,241.7c1.8,3.1,3.7,6.2,5.5,9.3c2.6,4.4,5.2,8.7,7.7,13.1c23.7,40.1,47.3,80.3,71,120.3
		c13,22,26.1,44,39.2,65.9"/>
	<line class="st4" x1="119.3" y1="228" x2="119.3" y2="241.7"/>
	<path class="st4" d="M254,443.8c-2.4-3.4-4.7-6.8-7-10.3c-3.2-4.9-6.4-9.8-9.6-14.7c-8.5-13.1-16.8-26.3-25.1-39.6
		c-7.9-12.6-15.7-25.3-23.6-38c-18.1-29.4-36.1-59-54.1-88.4c-3-4.8-6-9.7-9-14.5c-2.1-3.4-4.3-6.8-6.4-10.2"/>
	<line class="st4" x1="156.7" y1="220.2" x2="144.9" y2="227.1"/>
	<line class="st4" x1="144.9" y1="227.1" x2="144.9" y2="213.4"/>
	<path class="st4" d="M269.2,461c-2.1-4.6-4.4-9.1-6.6-13.6c-3-6-6.1-12.1-9.1-18.1c-7.9-15.3-15.9-30.6-23.9-45.8
		c-7.6-14.2-15.2-28.4-22.8-42.6c-4.8-8.9-9.7-17.8-14.5-26.7c-8.4-15.4-16.7-30.7-25.1-46.1c-2.9-5.3-5.7-10.5-8.6-15.8
		c-2.7-5-5.5-10.1-8.2-15.1c-1.8-3.4-3.6-6.7-5.4-10.1"/>
	<path class="st4" d="M214,427c-1.4-2.3-2.9-4.6-4.3-6.9c-2.2-3.6-4.4-7.2-6.6-10.8c-5.8-9.6-11.6-19.2-17.4-28.9
		c-7.6-12.7-15.2-25.4-22.8-38.2c-19.5-32.7-39-65.5-58.5-98.2c-4.7-7.8-9.3-15.6-14-23.4c-2.8-4.7-5.7-9.4-8.5-14"/>
	<path class="st4" d="M153,227.8c-2.7-4.8-5.4-9.6-8.1-14.4"/>
	<path class="st4" d="M269.2,434.6c-2.2-4.1-4.4-8.1-6.6-12.2c-3-5.5-6.1-11-9.1-16.6c-7.7-13.9-15.4-27.7-23.2-41.5
		c-25.3-45-50.8-89.8-76.2-134.8"/>
	<line class="st4" x1="81.9" y1="206.5" x2="81.9" y2="220.2"/>
	<path class="st4" d="M156.7,220.2c4,6.7,7.9,13.4,11.9,20.1c2.8,4.7,5.6,9.4,8.4,14.2c12.3,20.9,24.6,41.7,36.9,62.6
		c8.1,13.8,16.3,27.6,24.5,41.3c13.8,23.3,27.7,46.6,41.7,69.9"/>
	<line class="st4" x1="156.7" y1="206.6" x2="156.7" y2="220.2"/>
	<path class="st4" d="M292,421.5c-2.7-3.8-5.3-7.6-7.8-11.4c-3.7-5.5-7.4-11.1-11-16.7c-9-13.9-17.9-27.8-26.7-41.8
		c-8.2-13-16.2-26-24.3-39c-17.2-27.7-34.2-55.6-51.3-83.4c-2.7-4.4-5.4-8.8-8.2-13.2c-1.9-3.1-3.9-6.2-5.9-9.3"/>
	<line class="st4" x1="194.1" y1="198.3" x2="182.3" y2="205.1"/>
	<line class="st4" x1="182.3" y1="205.1" x2="182.3" y2="191.5"/>
	<path class="st4" d="M308.9,435c-1.4-2.8-2.9-5.6-4.3-8.3c-2.2-4.3-4.5-8.5-6.8-12.7c-6.2-11.5-12.5-23-18.9-34.5
		c-25.8-46.9-52.1-93.6-78-140.4c-3.7-6.6-7.3-13.2-10.9-19.8c-2.6-4.7-5.1-9.4-7.6-14"/>
	<line class="st4" x1="182.3" y1="191.5" x2="194.1" y2="184.7"/>
	<path class="st4" d="M308.9,414c-1.4-2.6-2.9-5.2-4.3-7.8c-2.3-4-4.5-8.1-6.8-12.1c-6.3-11.1-12.6-22.2-18.9-33.3
		c-25.9-45.6-52-91.1-78-136.7c-3.6-6.4-7.3-12.8-10.9-19.2c-2.6-4.5-5.1-9-7.6-13.5"/>
	<path class="st4" d="M81.9,220.2c2.8,4.8,5.7,9.7,8.5,14.5c4.7,8,9.3,16,14,23.9c25.1,43,50.2,86,75.3,128.9
		c8.6,14.8,17.3,29.5,25.9,44.3"/>
	<path class="st4" d="M194.1,198.3c2.7,4.6,5.4,9.2,8.1,13.8c3.8,6.5,7.6,13,11.4,19.5c24.5,41.8,49,83.6,73.5,125.4
		c10.2,17.3,20.4,34.7,30.6,52"/>
	<line class="st4" x1="194.1" y1="184.7" x2="194.1" y2="198.3"/>
	<path class="st4" d="M327.1,403.5c-1.6-2.5-3.2-5-4.8-7.5c-2.5-3.9-4.9-7.8-7.4-11.8c-7-11.3-13.9-22.6-20.8-34
		c-27.3-44.9-54.2-90.1-81.4-135.1c-3.7-6.2-7.5-12.4-11.3-18.6c-2.4-4-4.9-8-7.3-11.9"/>
	<line class="st4" x1="44.5" y1="285" x2="32.7" y2="291.9"/>
	<line class="st4" x1="32.7" y1="291.9" x2="32.7" y2="278.2"/>
	<path class="st4" d="M159.9,520.7c-1.6-3-3.1-5.9-4.7-8.9c-2.1-3.8-4.1-7.6-6.2-11.4c-5.7-10.5-11.5-20.9-17.3-31.3
		c-7.3-13.2-14.7-26.3-22-39.5c-14-25-28-50-42-75c-4.7-8.5-9.5-16.9-14.2-25.4c-4.3-7.7-8.6-15.5-12.9-23.3
		c-2.6-4.7-5.2-9.4-7.7-14.1"/>
	<line class="st4" x1="32.7" y1="278.2" x2="44.5" y2="271.4"/>
	<path class="st4" d="M159.9,501.1c-1.6-2.8-3.1-5.6-4.7-8.4c-2.1-3.7-4.1-7.3-6.2-11c-5.5-9.7-11-19.3-16.5-29
		c-26.3-46.1-52.7-92.1-79.1-138.2c-4.3-7.6-8.6-15.1-12.9-22.7c-2.6-4.5-5.2-9.1-7.7-13.6"/>
	<path class="st4" d="M197.6,436.4c-1.3-2.4-2.7-4.7-4-7.1c-2.1-3.7-4.2-7.3-6.3-11c-5.3-9.3-10.6-18.6-15.9-27.9
		c-26.5-46.4-53.2-92.8-79.7-139.2c-4.5-7.9-9-15.8-13.5-23.6c-2.7-4.7-5.4-9.5-8.1-14.3"/>
	<path class="st4" d="M44.5,285c2.7,4.6,5.4,9.2,8.2,13.9c4.5,7.7,9,15.3,13.5,23c24.7,42.2,49.4,84.4,74.1,126.6
		c9.3,15.9,18.7,31.8,28,47.7"/>
	<line class="st4" x1="44.5" y1="271.4" x2="44.5" y2="285"/>
	<path class="st4" d="M176.9,491.2c-1.7-2.7-3.4-5.4-5.1-8.2c-2.2-3.6-4.4-7.2-6.6-10.8c-6.1-9.9-12.1-19.9-18.1-29.9
		c-27.4-45.5-54.6-91.2-81.9-136.8c-4.2-7-8.3-13.9-12.5-20.8c-2.7-4.5-5.4-8.9-8.2-13.4"/>
	<line class="st4" x1="82" y1="306.5" x2="70.2" y2="313.3"/>
	<line class="st4" x1="70.2" y1="313.3" x2="70.2" y2="299.7"/>
	<path class="st4" d="M194.2,547.6c-2.4-5-4.8-10-7.2-14.9c-3.3-6.5-6.5-13.1-9.9-19.6c-7.9-15.5-16-30.9-24.1-46.3
		c-7.4-14-14.9-27.9-22.4-41.8c-4.8-8.9-9.7-17.9-14.5-26.8c-8.2-15.1-16.4-30.2-24.6-45.3c-2.7-5-5.4-9.9-8.1-14.9
		c-2.6-4.8-5.2-9.6-7.7-14.4c-1.8-3.4-3.7-6.8-5.4-10.3"/>
	<line class="st4" x1="70.2" y1="299.7" x2="82" y2="292.9"/>
	<path class="st4" d="M194.2,520.8c-2.3-4.2-4.5-8.4-6.8-12.6c-3.2-5.9-6.5-11.8-9.8-17.7c-7.9-14.3-15.9-28.6-23.9-42.8
		c-7.4-13.1-14.8-26.3-22.2-39.4c-16-28.4-32.2-56.8-48.2-85.2c-4.4-7.8-8.8-15.6-13.2-23.4"/>
	<line class="st4" x1="70.1" y1="213.3" x2="81.9" y2="206.5"/>
	<path class="st4" d="M82,306.5c3.9,6.5,7.7,13,11.5,19.5c14.8,25,29.6,50.1,44.4,75.2c8,13.5,16,27.1,24,40.6
		c14.4,24.3,28.9,48.5,43.4,72.7"/>
	<line class="st4" x1="82" y1="292.9" x2="82" y2="306.5"/>
	<path class="st4" d="M217.4,507.4c-2.9-4.1-5.8-8.4-8.6-12.6c-3.8-5.7-7.6-11.4-11.3-17.1c-9-13.8-17.9-27.7-26.7-41.7
		c-8.3-13.1-16.5-26.3-24.7-39.5c-16.9-27.2-33.6-54.5-50.4-81.7c-2.7-4.4-5.5-8.9-8.2-13.3c-1.8-2.9-3.6-5.8-5.5-8.7"/>
	<line class="st4" x1="119.4" y1="284.8" x2="107.6" y2="291.7"/>
	<line class="st4" x1="107.6" y1="291.7" x2="107.6" y2="278"/>
	<path class="st4" d="M230.8,527.2c-2.8-5.8-5.6-11.6-8.5-17.3c-4.6-9.3-9.3-18.6-14-27.8c-8.4-16.6-16.9-33.1-25.5-49.5
		c-7.2-13.8-14.5-27.6-21.9-41.3c-4.3-8.1-8.7-16.2-13.1-24.3c-7.5-14-15.1-27.9-22.6-41.9c-2.2-4.1-4.4-8.1-6.5-12.2
		c-2.3-4.3-4.6-8.6-6.9-12.9c-1.5-2.8-3-5.6-4.4-8.4"/>
	<line class="st4" x1="107.6" y1="278" x2="119.4" y2="271.2"/>
	<path class="st4" d="M230.8,498.7c-2.6-4.9-5.3-9.8-8-14.7c-4.6-8.4-9.2-16.9-13.9-25.3c-8.6-15.7-17.3-31.3-26-46.9
		c-7.1-12.7-14.2-25.4-21.4-38.1c-14.2-25.2-28.5-50.4-42.7-75.6c-3.8-6.7-7.6-13.4-11.3-20.1"/>
	<path class="st4" d="M197.6,455.3c-1.3-2.5-2.7-4.9-4-7.4c-2.1-3.8-4.2-7.6-6.3-11.4c-5.3-9.6-10.6-19.1-15.9-28.6
		c-7.3-13.1-14.6-26.1-21.9-39.1c-14.3-25.4-28.5-50.7-42.8-76.1c-5-8.9-10-17.8-15-26.7c-4.5-8.1-9-16.1-13.5-24.2
		c-2.7-4.9-5.4-9.8-8.1-14.7"/>
	<path class="st4" d="M119.4,284.8c3.9,6.6,7.8,13.2,11.8,19.8c14,23.7,28,47.4,42.1,71.1c6.9,11.6,13.7,23.2,20.6,34.7
		c16.2,27.2,32.5,54.3,48.9,81.4"/>
	<line class="st4" x1="119.4" y1="271.2" x2="119.4" y2="284.8"/>
	<path class="st4" d="M255.6,484.4c-3.4-4.8-6.7-9.8-10-14.7c-5.6-8.4-11.2-16.8-16.7-25.2c-9.7-14.7-19.3-29.5-28.8-44.4
		c-8.1-12.7-16.1-25.4-24.1-38.2c-4.7-7.6-9.5-15.2-14.2-22.7c-7.7-12.4-15.4-24.8-23-37.2c-2.5-4.1-5.1-8.2-7.6-12.2
		c-2.3-3.7-4.6-7.3-6.9-11c-1.6-2.6-3.2-5.1-4.9-7.7"/>
	<line class="st4" x1="156.8" y1="263.4" x2="145" y2="270.2"/>
	<line class="st4" x1="145" y1="270.2" x2="145" y2="256.6"/>
	<path class="st4" d="M267.6,506.9c-2.7-5.5-5.4-11-8.1-16.5c-1.2-2.3-2.3-4.7-3.5-7c-3.3-6.5-6.5-13-9.8-19.5
		c-3.1-6.2-6.3-12.5-9.4-18.7c-1.8-3.6-3.6-7.1-5.4-10.7c-6.6-13.1-13.3-26.3-20.1-39.3c-6.5-12.5-13.1-25-19.7-37.5
		c-12.1-22.8-24.4-45.6-36.6-68.4c-3.4-6.4-6.8-12.7-10.1-19.1"/>
	<line class="st4" x1="145" y1="256.6" x2="156.8" y2="249.8"/>
	<path class="st4" d="M267.6,476.9c-2.7-5-5.4-9.9-8.1-14.9c-9.4-17-18.7-34-28.1-51c-6.7-12.1-13.4-24.2-20.1-36.3
		c-6.4-11.4-12.8-22.9-19.2-34.3c-12.3-22-24.7-43.9-37.1-65.9c-3.4-6-6.8-12-10.1-18"/>
	<line class="st4" x1="70.1" y1="227" x2="70.1" y2="213.3"/>
	<path class="st4" d="M156.8,263.4c3.5,5.9,7,11.8,10.5,17.6c12.7,21.3,25.3,42.7,38,64c6.8,11.4,13.5,22.8,20.3,34.1
		c6.6,11,13.2,22.1,19.9,33.1c11.5,19.1,23.1,38.3,34.7,57.4"/>
	<line class="st4" x1="156.8" y1="249.8" x2="156.8" y2="263.4"/>
	<path class="st4" d="M293.6,461.9c-3.1-4.5-6.1-9-9.2-13.6c-5.4-8.2-10.9-16.3-16.3-24.5c-3.8-5.8-7.7-11.5-11.5-17.3
		c-1.8-2.8-3.7-5.5-5.5-8.3c-7.4-11.2-14.8-22.4-22-33.7c-7.5-11.6-14.9-23.2-22.2-34.9c-13.3-21.1-26.4-42.2-39.6-63.3
		c-3.5-5.5-6.9-11.1-10.5-16.6"/>
	<line class="st4" x1="194.2" y1="241.5" x2="182.4" y2="248.3"/>
	<line class="st4" x1="182.4" y1="248.3" x2="182.4" y2="234.7"/>
	<path class="st4" d="M250.4,378.6c-1.8-3.6-3.6-7.3-5.5-10.9c-1.9-3.7-3.7-7.4-5.6-11c-4-7.9-8.1-15.7-12.2-23.6
		c-4.2-8-8.4-16.1-12.7-24.1c-6.4-12-12.8-24-19.1-36c-1.8-3.3-3.5-6.7-5.3-10c-2.6-4.9-5.2-9.8-7.7-14.7"/>
	<path class="st4" d="M304.4,486.1c-0.8-1.6-1.6-3.2-2.4-4.8c-1-2-2-4-3-6c-7.9-15.5-15.9-31-23.7-46.6c-2.7-5.3-5.3-10.6-7.9-15.9
		c-5.6-11.3-11.1-22.6-16.8-33.9"/>
	<line class="st4" x1="182.4" y1="234.7" x2="194.2" y2="227.8"/>
	<path class="st4" d="M304.4,454.6c-1.8-3.3-3.6-6.6-5.4-9.9c-7.7-13.9-15.4-27.8-23-41.7c-2.7-4.9-5.3-9.7-8-14.6
		c-6.2-11.3-12.3-22.5-18.5-33.8c-3.9-7.2-7.9-14.4-11.9-21.5c-5.3-9.5-10.6-19.1-15.9-28.6c-10.1-18.1-20.3-36.2-30.5-54.3
		c-2.9-5.2-5.8-10.4-8.7-15.6"/>
	<line class="st4" x1="81.9" y1="220.2" x2="70.1" y2="227"/>
	<path class="st4" d="M251.8,338.2c2.8,4.6,5.5,9.2,8.3,13.8c2.5,4.2,5,8.3,7.5,12.5c10.3,17,20.6,33.9,30.8,50.9
		c6.4,10.5,12.7,21.1,19.1,31.7"/>
	<path class="st4" d="M194.2,241.5c18,29.9,35.7,60,53.6,89.9"/>
	<line class="st4" x1="194.2" y1="227.8" x2="194.2" y2="241.5"/>
	<path class="st4" d="M331.7,438.9c-2-2.9-3.9-5.8-5.8-8.8c-8.9-13.5-17.6-27-26.6-40.5c-3.1-4.6-6.2-9.2-9.3-13.9
		c-7.2-10.7-14.4-21.3-21.6-32c-4.7-7-9.4-14.1-14-21.2c-6.2-9.5-12.3-19-18.4-28.6c-11-17.3-21.8-34.6-32.7-51.9
		c-3-4.7-6-9.5-9.1-14.2"/>
	<path class="st4" d="M179.4,443.6c-2.6-3.7-5.1-7.5-7.6-11.2c-3.3-4.9-6.5-9.9-9.8-14.9c-8.7-13.5-17.3-27-25.8-40.6
		c-7.9-12.6-15.8-25.3-23.6-38c-17.9-29-35.6-58.1-53.5-87.1c-2.8-4.6-5.7-9.2-8.5-13.8c-2-3.2-4.1-6.5-6.1-9.7"/>
	<line class="st4" x1="44.5" y1="228.2" x2="44.5" y2="241.8"/>
	<path class="st4" d="M44.5,241.8c1.7,2.9,3.5,5.8,5.2,8.7c2.4,4.1,4.9,8.3,7.3,12.4c23.4,39.7,46.8,79.5,70.3,119.2
		c13.5,22.7,27,45.4,40.6,68.1"/>
	<path class="st4" d="M157.2,456.4c-2.1-4-4.3-8-6.5-11.9c-2.9-5.2-5.7-10.4-8.6-15.6c-7.5-13.6-15.1-27.1-22.7-40.6
		c-7.2-12.9-14.5-25.7-21.8-38.6c-16.9-29.9-33.9-59.8-50.8-89.7c-4.7-8.3-9.4-16.7-14.1-25"/>
	<path class="st4" d="M225.5,260.2C150.7,303.4,75.9,346.6,1,389.8"/>
	<line class="st4" x1="32.7" y1="235" x2="44.5" y2="228.2"/>
	<line class="st4" x1="225.5" y1="260.2" x2="225.5" y2="1"/>
	<path class="st4" d="M355.5,484.4c-6.1-10.6-12.3-21.3-18.5-31.9c-7.3-12.7-14.7-25.4-22-38c-12.7-21.8-25.4-43.7-38.1-65.5
		c-5.6-9.6-11.1-19.1-16.7-28.7c-11.6-20-23.2-40.1-34.8-60.1"/>
	<path class="st4" d="M157.2,482.1c-2.1-4.4-4.3-8.9-6.5-13.3c-2.8-5.7-5.7-11.3-8.6-16.9c-7.5-14.5-15.1-28.9-22.7-43.3
		c-7.2-13.5-14.5-27-21.8-40.5c-5.1-9.4-10.2-18.8-15.3-28.2c-8.8-16.2-17.7-32.3-26.5-48.5c-3-5.5-6-11-9-16.6
		c-2.8-5.2-5.7-10.5-8.5-15.7c-1.9-3.5-3.8-7-5.6-10.6"/>
	<line class="st4" x1="32.7" y1="248.7" x2="32.7" y2="235"/>
	<line class="st4" x1="44.5" y1="241.8" x2="32.7" y2="248.7"/>
	<path class="st4" d="M325.6,319.6c-13-21.2-53.2-89.1-65.9-110.6c-21.8-36.9-43.5-74-65.7-110.7"/>
	<line class="st4" x1="194.1" y1="98.3" x2="194.1" y2="112"/>
	<path class="st4" d="M194.1,112c41.4,70.6,82.4,141.5,123.8,212.1"/>
	<path class="st4" d="M310.3,328.5c-42.2-74.7-85.7-148.7-128-223.3"/>
	<line class="st4" x1="182.3" y1="105.1" x2="194.1" y2="98.3"/>
	<path class="st4" d="M310.3,346.2c-12.2-22.5-51.3-91.5-63.9-113.8c-21.4-37.9-43.1-75.6-64.1-113.7"/>
	<line class="st4" x1="182.3" y1="118.8" x2="182.3" y2="105.1"/>
	<line class="st4" x1="194.1" y1="112" x2="182.3" y2="118.8"/>
	<path class="st4" d="M291.2,336.3c-2.4-3.4-4.6-6.8-6.9-10.2c-3.2-4.9-6.4-9.8-9.6-14.7c-8.2-12.8-16.4-25.7-24.4-38.7
		c-7.9-12.7-15.7-25.4-23.5-38.1c-18.2-29.6-36.3-59.4-54.4-89c-3.1-5.1-6.2-10.1-9.4-15.2c-2.1-3.4-4.2-6.8-6.3-10.1"/>
	<line class="st4" x1="156.6" y1="120.3" x2="156.6" y2="133.9"/>
	<path class="st4" d="M156.6,133.9c1.8,3.1,3.6,6.1,5.4,9.2c2.7,4.6,5.4,9.2,8.2,13.8c23.7,40.3,47.4,80.6,71.2,120.8
		c12.8,21.7,25.7,43.4,38.6,65"/>
	<path class="st4" d="M269.8,348.7c-1.9-3.6-3.9-7.2-5.9-10.8c-2.6-4.8-5.3-9.6-8-14.4c-7.3-13.2-14.7-26.3-22.1-39.4
		c-25.2-44.6-50.5-89.1-75.8-133.6c-4.4-7.8-8.8-15.5-13.1-23.3"/>
	<line class="st4" x1="144.8" y1="127.1" x2="156.6" y2="120.3"/>
	<path class="st4" d="M269.8,373.4c-1.9-4-3.9-8-5.9-12c-2.6-5.2-5.3-10.4-8-15.6c-7.3-14-14.7-27.9-22.1-41.8
		c-25.1-46.8-50.9-93.2-76.3-139.9c-2.6-4.7-5.1-9.4-7.6-14.1c-1.7-3.1-3.3-6.3-5-9.4"/>
	<line class="st4" x1="144.8" y1="140.7" x2="144.8" y2="127.1"/>
	<line class="st4" x1="156.6" y1="133.9" x2="144.8" y2="140.7"/>
	<path class="st4" d="M250.4,363.7c-22.2-36.8-43.8-73.9-65.6-111c-21.8-37-43.4-74.2-65.6-111"/>
	<line class="st4" x1="119.2" y1="141.7" x2="119.2" y2="155.3"/>
	<path class="st4" d="M119.2,155.3c41.4,70.8,82.5,141.8,123.8,212.6"/>
	<path class="st4" d="M235.9,372.1c-42.5-74.7-85.9-148.9-128.4-223.6"/>
	<line class="st4" x1="107.4" y1="148.5" x2="119.2" y2="141.7"/>
	<path class="st4" d="M235.9,388.9c-21-38-42.7-75.6-64.2-113.4c-21.5-37.7-43.2-75.4-64.2-113.4"/>
	<line class="st4" x1="107.4" y1="162.1" x2="107.4" y2="148.5"/>
	<line class="st4" x1="119.2" y1="155.3" x2="107.4" y2="162.1"/>
	<path class="st4" d="M212.9,385.5c-22.2-36.8-43.8-74-65.6-111.1c-21.8-37.1-43.4-74.2-65.5-111.1"/>
	<line class="st4" x1="81.8" y1="163.4" x2="81.8" y2="177"/>
	<path class="st4" d="M81.8,177c41.4,70.8,82.5,141.8,123.8,212.7"/>
	<path class="st4" d="M198.6,393.8C156,319.1,112.6,244.9,70,170.2"/>
	<line class="st4" x1="70" y1="170.2" x2="81.8" y2="163.4"/>
	<path class="st4" d="M198.6,410.4c-21-38-42.7-75.6-64.2-113.3c-21.5-37.7-43.2-75.3-64.3-113.3"/>
	<line class="st4" x1="70" y1="183.8" x2="70" y2="170.2"/>
	<line class="st4" x1="81.8" y1="177" x2="70" y2="183.8"/>
	<path class="st4" d="M177.4,403.8c-1.6-2.5-3.2-5-4.8-7.5c-2.5-3.9-4.9-7.8-7.4-11.8c-7-11.3-13.9-22.6-20.8-33.9
		c-27.3-44.9-54.2-90-81.4-135c-3.8-6.2-7.5-12.4-11.3-18.6c-2.4-4-4.9-8-7.3-11.9"/>
	<line class="st4" x1="44.4" y1="185.1" x2="44.4" y2="198.7"/>
	<path class="st4" d="M44.4,198.7c2.7,4.6,5.4,9.2,8.1,13.8c3.8,6.5,7.6,13,11.5,19.5c24.2,41.3,48.4,82.6,72.7,123.9
		c10.5,17.8,20.9,35.6,31.4,53.4"/>
	<path class="st4" d="M159.1,414.4c-1.4-2.6-2.9-5.2-4.4-7.8c-2.3-4-4.5-8.1-6.8-12.1c-6.2-11.1-12.5-22.1-18.8-33.2
		c-25.9-45.6-52-91.1-78-136.7c-3.6-6.4-7.3-12.8-10.9-19.2c-2.5-4.5-5.1-9-7.6-13.5"/>
	<line class="st4" x1="32.6" y1="191.9" x2="44.4" y2="185.1"/>
	<path class="st4" d="M159.1,435.5c-1.4-2.8-2.9-5.6-4.4-8.4c-2.2-4.3-4.5-8.5-6.8-12.8c-6.2-11.5-12.5-23-18.8-34.5
		c-25.8-46.9-52-93.6-78-140.5c-3.7-6.6-7.3-13.2-10.9-19.8c-2.6-4.7-5.1-9.3-7.6-14"/>
	<line class="st4" x1="32.6" y1="205.5" x2="32.6" y2="191.9"/>
	<line class="st4" x1="44.4" y1="198.7" x2="32.6" y2="205.5"/>
	<path class="st4" d="M324.9,277.7C280.7,203.8,238,129.1,194,55.2"/>
	<line class="st4" x1="194" y1="55.2" x2="194" y2="68.8"/>
	<path class="st4" d="M194,68.8c41.4,70.9,82.5,142,123.9,212.9"/>
	<path class="st4" d="M310.9,285.7C268.3,211,224.9,136.7,182.2,62"/>
	<line class="st4" x1="182.2" y1="62" x2="194" y2="55.2"/>
	<path class="st4" d="M310.9,301.8c-21.1-37.9-42.8-75.4-64.4-113.1c-21.5-37.7-43.2-75.2-64.4-113.1"/>
	<line class="st4" x1="182.2" y1="75.6" x2="182.2" y2="62"/>
	<line class="st4" x1="194" y1="68.8" x2="182.2" y2="75.6"/>
	<path class="st4" d="M287.3,299.9c-44-74-86.8-148.7-130.7-222.8"/>
	<line class="st4" x1="156.6" y1="77.1" x2="156.6" y2="90.7"/>
	<path class="st4" d="M156.6,90.7c41.3,71,82.6,142.1,123.9,213.1"/>
	<path class="st4" d="M273.7,307.7C230.9,233,187.5,158.6,144.8,83.9"/>
	<line class="st4" x1="144.8" y1="83.9" x2="156.6" y2="77.1"/>
	<path class="st4" d="M273.7,323.5c-42.4-75.6-86.4-150.3-128.9-225.9"/>
	<line class="st4" x1="144.8" y1="97.5" x2="144.8" y2="83.9"/>
	<line class="st4" x1="156.6" y1="90.7" x2="144.8" y2="97.5"/>
	<path class="st4" d="M251.8,317.9c-1.7-2.6-3.3-5.2-5-7.8c-2.6-4.1-5.1-8.2-7.6-12.3c-6.3-10.3-12.6-20.7-18.9-31
		c-27-44.7-53.7-89.6-80.7-134.3c-4-6.7-8-13.3-12.1-20c-2.8-4.6-5.6-9.3-8.5-13.9"/>
	<line class="st4" x1="119.2" y1="98.5" x2="119.2" y2="112.2"/>
	<path class="st4" d="M119.2,112.2c2.6,4.4,5.2,8.8,7.7,13.2c4.3,7.3,8.6,14.6,12.8,21.9c24.6,42,49.1,84,73.7,125.9
		c9.8,16.7,19.6,33.3,29.4,50"/>
	<path class="st4" d="M234.3,328c-1.5-2.7-3-5.4-4.5-8.1c-2-3.5-4-7.1-6-10.6c-6.1-10.7-12.2-21.5-18.3-32.2
		c-26.1-45.8-52.4-91.6-78.5-137.4c-3.9-6.8-7.7-13.5-11.6-20.3c-2.7-4.7-5.4-9.4-8-14.2"/>
	<line class="st4" x1="107.4" y1="105.3" x2="119.2" y2="98.5"/>
	<path class="st4" d="M234.3,348.3c-1.5-2.9-3-5.7-4.5-8.6c-2-3.7-4-7.4-6-11.1c-6-11.1-12.2-22.2-18.3-33.3
		c-26-47-52.4-93.8-78.5-140.8c-3.9-6.9-7.7-13.9-11.6-20.8c-2.7-4.9-5.4-9.8-8-14.7"/>
	<line class="st4" x1="107.4" y1="119" x2="107.4" y2="105.3"/>
	<line class="st4" x1="119.2" y1="112.2" x2="107.4" y2="119"/>
	<path class="st4" d="M213.5,341.3c-1.5-2.4-2.9-4.8-4.4-7.2c-1.9-3.1-3.7-6.2-5.6-9.2c-5.6-9.3-11.1-18.6-16.7-27.8
		c-7.3-12.2-14.5-24.4-21.8-36.6c-20-33.7-39.9-67.4-59.9-101.1c-4.8-8.1-9.7-16.3-14.5-24.4c-2.9-4.9-5.9-9.8-8.8-14.6"/>
	<line class="st4" x1="81.8" y1="120.2" x2="81.8" y2="133.8"/>
	<path class="st4" d="M81.8,133.8c6.3,10.8,12.7,21.6,19,32.4c25.2,43.2,50.4,86.4,75.6,129.6c5.5,9.4,11,18.9,16.6,28.3
		c4.2,7.2,8.4,14.4,12.6,21.6"/>
	<path class="st4" d="M197.8,350.3c-3.2-5.6-6.3-11.2-9.5-16.8c-5.1-8.9-10.2-17.9-15.3-26.8c-26.8-46.8-53.7-93.5-80.5-140.3
		c-4.7-8.2-9.4-16.4-14.1-24.6c-2.8-4.9-5.6-9.9-8.5-14.8"/>
	<line class="st4" x1="69.9" y1="127" x2="81.8" y2="120.2"/>
	<path class="st4" d="M197.8,368.3c-1.4-2.6-2.8-5.1-4.2-7.6c-1.8-3.2-3.6-6.4-5.3-9.7c-5.1-9.1-10.2-18.3-15.3-27.4
		c-7-12.5-14-24.9-21.1-37.4c-19.8-35.1-39.7-70.1-59.4-105.2c-4.7-8.4-9.4-16.7-14.1-25.1c-2.8-5.1-5.7-10.2-8.5-15.3"/>
	<line class="st4" x1="69.9" y1="140.7" x2="69.9" y2="127"/>
	<line class="st4" x1="81.8" y1="133.8" x2="69.9" y2="140.7"/>
	<path class="st4" d="M180.3,355.4c-3.3-4.7-6.5-9.4-9.6-14.1c-4.9-7.3-9.7-14.5-14.5-21.8c-9.6-14.6-19.1-29.3-28.5-44
		c-8.2-12.8-16.3-25.7-24.4-38.7c-4.9-7.8-9.8-15.7-14.6-23.5c-8.3-13.3-16.5-26.7-24.7-40c-2.5-4.1-5-8.1-7.5-12.2
		c-2.3-3.7-4.6-7.3-6.8-11c-1.7-2.8-3.5-5.5-5.3-8.3"/>
	<line class="st4" x1="44.3" y1="141.9" x2="44.3" y2="155.5"/>
	<path class="st4" d="M44.3,155.5c4.1,6.8,8.1,13.6,12.1,20.4c14.4,24.3,28.7,48.6,43.1,72.9c7,11.9,14.1,23.7,21.1,35.6
		c15.6,26.2,31.3,52.3,47,78.4"/>
	<path class="st4" d="M156,369.5c-2.5-4.7-5.1-9.4-7.7-14.1c-4.2-7.6-8.3-15.2-12.5-22.8c-8.6-15.6-17.3-31.2-26-46.8
		c-7.1-12.7-14.2-25.4-21.4-38.1c-14.7-26.1-29.5-52.2-44.2-78.3c-3.9-6.9-7.8-13.8-11.6-20.7"/>
	<line class="st4" x1="32.5" y1="148.7" x2="44.3" y2="141.9"/>
	<path class="st4" d="M156,397.6c-2.7-5.6-5.4-11.2-8.1-16.7c-4.2-8.4-8.4-16.7-12.6-25.1c-8.4-16.5-16.9-32.9-25.5-49.3
		c-7.2-13.8-14.5-27.5-21.9-41.2c-4.5-8.4-9-16.8-13.5-25.2c-7.7-14.3-15.4-28.5-23.1-42.7c-2.4-4.4-4.7-8.7-7.1-13.1
		c-2.3-4.3-4.6-8.5-6.9-12.8c-1.6-3-3.2-6.1-4.8-9.1"/>
	<line class="st4" x1="32.5" y1="162.3" x2="32.5" y2="148.7"/>
	<line class="st4" x1="44.3" y1="155.5" x2="32.5" y2="162.3"/>
	<path class="st4" d="M257.1,395.2c-2.3-3.4-4.5-6.8-6.7-10.2c-7-10.8-13.9-21.5-20.9-32.3c-3.7-5.7-7.4-11.3-11.2-16.9
		c-3.4-5.2-6.9-10.3-10.4-15.4c-5.4-8-10.9-15.9-16.3-23.8c-2-3-4-5.9-6-8.9c-4.4-6.5-8.8-13.1-13.1-19.7
		c-5.4-8.2-10.6-16.4-15.9-24.6c-9.6-15.1-19.2-30.2-28.8-45.3c-2.8-4.4-5.6-8.9-8.5-13.2"/>
	<line class="st4" x1="119.3" y1="184.8" x2="119.3" y2="198.5"/>
	<path class="st4" d="M119.3,198.5c2.7,4.4,5.3,8.9,8,13.3c9.6,16.1,19.2,32.2,28.8,48.3c5.5,9.2,10.9,18.3,16.4,27.4
		c4.6,7.6,9.2,15.3,13.8,22.9c6.9,11.3,13.8,22.6,20.7,33.9c3.2,5.2,6.3,10.4,9.5,15.6c8.8,14.5,17.5,29.1,26.3,43.7"/>
	<path class="st4" d="M229.1,411.4c-2-3.6-3.9-7.1-5.9-10.7c-6.3-11.4-12.7-22.9-19.1-34.3c-3.1-5.7-6.3-11.3-9.4-17
		c-3.1-5.6-6.1-11.2-9.2-16.8c-6-11-12-22.1-18-33.1c-3.9-7.1-7.7-14.1-11.6-21.1c-4.5-8.2-9.1-16.4-13.6-24.5
		c-9-16.2-18.1-32.3-27.2-48.5c-2.6-4.6-5.1-9.1-7.6-13.7"/>
	<line class="st4" x1="107.5" y1="191.7" x2="119.3" y2="184.8"/>
	<path class="st4" d="M229.1,443.7c-1.9-3.9-3.9-7.7-5.9-11.6c-6.3-12.3-12.7-24.6-19.1-37c-3.2-6.2-6.3-12.3-9.4-18.5
		c-3-6-6-11.9-8.9-17.9c-6.3-12.9-12.5-25.8-18.9-38.7c-3.8-7.6-7.6-15.2-11.4-22.7c-4.5-8.9-9.1-17.7-13.7-26.6
		c-8.8-16.9-17.8-33.7-26.7-50.6c-2.6-4.9-5.1-9.8-7.7-14.7"/>
	<line class="st4" x1="107.5" y1="205.3" x2="107.5" y2="191.7"/>
	<line class="st4" x1="119.3" y1="198.5" x2="107.5" y2="205.3"/>
	<path class="st4" d="M44.6,328.2c2.3,3.8,4.6,7.6,6.8,11.4c8.2,13.6,16.3,27.3,24.5,40.9c4.4,7.3,8.8,14.6,13.2,22
		c4.2,6.9,8.4,13.8,12.6,20.7c7,11.4,14.1,22.8,21.1,34.2c3.4,5.6,6.9,11.2,10.3,16.9c11.8,19.4,23.4,38.9,35,58.4"/>
	<path class="st4" d="M182.8,524.1c-2.4-3.6-4.7-7.2-7-10.8c-8.1-12.6-16.1-25.3-24.2-37.9c-4.3-6.6-8.6-13.3-12.9-19.9
		c-4.3-6.5-8.7-13-13.1-19.5c-1.9-2.8-3.9-5.6-5.9-8.4c-5.4-7.6-10.8-15.1-16.1-22.8c-3.9-5.6-7.8-11.3-11.6-17
		c-4.9-7.3-9.7-14.7-14.5-22.2c-8.7-13.5-17.3-27.1-26-40.6c-2.3-3.5-4.5-7-6.8-10.5"/>
	<line class="st4" x1="44.6" y1="314.6" x2="44.6" y2="328.2"/>
	<path class="st4" d="M153.9,540.8c-2.2-4.1-4.5-8.1-6.8-12.2c-7.3-13.1-14.6-26.1-21.9-39.2c-3.7-6.6-7.4-13.2-11-19.9
		c-3.8-6.8-7.5-13.7-11.2-20.5c-1.6-3-3.2-6-4.8-9c-4.4-8.2-8.7-16.3-13.1-24.5c-3.3-6-6.5-12-9.8-18c-4.1-7.5-8.2-14.9-12.4-22.3
		c-7.8-14-15.6-28-23.4-42c-2.2-3.9-4.4-7.9-6.6-11.8"/>
	<line class="st4" x1="32.7" y1="321.4" x2="44.6" y2="314.6"/>
	<path class="st4" d="M153.9,574.3c-2.1-4.1-4.2-8.1-6.3-12.1c-7.3-14-14.7-27.9-21.9-41.9c-3.9-7.4-7.7-14.9-11.5-22.4
		c-3.8-7.5-7.6-15.1-11.3-22.7c-1.6-3.4-3.2-6.8-4.8-10.2c-4.4-9.3-8.7-18.7-13.1-28c-3.2-6.7-6.5-13.4-9.8-20.1
		c-4.2-8.4-8.5-16.8-12.8-25.1c-7.6-14.7-15.3-29.4-23-44c-2.2-4.2-4.4-8.5-6.6-12.7"/>
	<line class="st4" x1="32.7" y1="335" x2="32.7" y2="321.4"/>
	<line class="st4" x1="144.9" y1="213.4" x2="156.7" y2="206.6"/>
	<line class="st4" x1="44.6" y1="328.2" x2="32.7" y2="335"/>
	<path class="st3" d="M131.1,614c74.8-43.2,149.7-86.4,224.5-129.6"/>
	<path class="st3" d="M153.9,574.3c9.7-5.6,19.3-11.1,29-16.7"/>
	<path class="st3" d="M131.1,354.8c74.8-43.2,149.7-86.4,224.5-129.6"/>
	<line class="st3" x1="131.1" y1="614" x2="131.1" y2="354.8"/>
	<line class="st3" x1="153.9" y1="540.8" x2="153.9" y2="574.3"/>
	<path class="st3" d="M304.4,486.1c9.1-5.3,18.2-10.5,27.3-15.8"/>
	<line class="st3" x1="304.4" y1="454.6" x2="304.4" y2="486.1"/>
	<path class="st3" d="M182.8,524.1c-9.7,5.6-19.3,11.1-29,16.7"/>
	<path class="st3" d="M331.7,438.9c-9.1,5.3-18.2,10.5-27.3,15.8"/>
	<line class="st3" x1="331.7" y1="470.4" x2="331.7" y2="438.9"/>
	<line class="st3" x1="182.8" y1="557.6" x2="182.8" y2="524.1"/>
	<path class="st3" d="M168,532.7c4.9,8.3,9.9,16.6,14.9,24.9"/>
	<path class="st3" d="M267.6,506.9c8.6-5,17.3-10,25.9-15"/>
	<line class="st3" x1="267.6" y1="476.9" x2="267.6" y2="506.9"/>
	<path class="st3" d="M293.6,461.9c-8.6,5-17.3,10-25.9,15"/>
	<line class="st3" x1="293.6" y1="491.9" x2="293.6" y2="461.9"/>
	<path class="st3" d="M230.8,527.2c8.2-4.8,16.5-9.5,24.7-14.3"/>
	<line class="st3" x1="230.8" y1="498.7" x2="230.8" y2="527.2"/>
	<path class="st3" d="M242.7,403.6c4.8,8,9.6,16,14.4,24"/>
	<path class="st3" d="M255.6,484.4c-8.2,4.8-16.5,9.5-24.7,14.3"/>
	<line class="st3" x1="255.6" y1="513" x2="255.6" y2="484.4"/>
	<path class="st3" d="M194.2,547.6c7.7-4.5,15.5-8.9,23.2-13.4"/>
	<line class="st3" x1="194.2" y1="520.8" x2="194.2" y2="547.6"/>
	<path class="st3" d="M217.4,507.4c-7.7,4.5-15.5,8.9-23.2,13.4"/>
	<line class="st3" x1="217.4" y1="534.2" x2="217.4" y2="507.4"/>
	<path class="st3" d="M159.9,520.7c5.7-3.3,11.4-6.6,17-9.8"/>
	<line class="st3" x1="159.9" y1="501.1" x2="159.9" y2="520.7"/>
	<path class="st3" d="M167.7,362.7c4.2,7,8.4,13.9,12.7,20.8"/>
	<path class="st3" d="M176.9,491.2c-5.7,3.3-11.4,6.6-17,9.8"/>
	<line class="st3" x1="176.9" y1="510.9" x2="176.9" y2="491.2"/>
	<path class="st3" d="M308.9,435c6.1-3.5,12.1-7,18.2-10.5"/>
	<line class="st3" x1="308.9" y1="414" x2="308.9" y2="435"/>
	<path class="st3" d="M327.1,403.5c-6.1,3.5-12.1,7-18.2,10.5"/>
	<line class="st3" x1="327.1" y1="424.5" x2="327.1" y2="403.5"/>
	<path class="st3" d="M269.2,461c7.6-4.4,15.2-8.8,22.8-13.2"/>
	<line class="st3" x1="269.2" y1="434.6" x2="269.2" y2="461"/>
	<path class="st3" d="M205.5,345.8c2.6,4.5,5.3,9,7.9,13.5"/>
	<path class="st3" d="M292,421.5c-7.6,4.4-15.2,8.8-22.8,13.2"/>
	<line class="st3" x1="292" y1="447.8" x2="292" y2="421.5"/>
	<path class="st3" d="M232.3,481.5c7.2-4.2,14.5-8.4,21.7-12.6"/>
	<line class="st3" x1="232.3" y1="456.4" x2="232.3" y2="481.5"/>
	<path class="st3" d="M254,443.8c-7.2,4.2-14.5,8.4-21.7,12.6"/>
	<line class="st3" x1="254" y1="468.9" x2="254" y2="443.8"/>
	<path class="st3" d="M192.6,507.1c8.8-5.1,17.5-10.1,26.3-15.2"/>
	<line class="st3" x1="192.6" y1="476.8" x2="192.6" y2="507.1"/>
	<path class="st3" d="M242.9,323.1c3,5,6,10.1,9,15.1"/>
	<path class="st3" d="M218.8,461.6c-8.8,5.1-17.5,10.1-26.3,15.2"/>
	<line class="st3" x1="218.8" y1="491.9" x2="218.8" y2="461.6"/>
	<path class="st3" d="M306.5,395.9c7.6-4.4,15.3-8.8,22.9-13.2"/>
	<line class="st3" x1="306.5" y1="369.5" x2="306.5" y2="395.9"/>
	<path class="st3" d="M329.4,356.3c-7.6,4.4-15.3,8.8-22.9,13.2"/>
	<line class="st3" x1="329.4" y1="382.7" x2="329.4" y2="356.3"/>
	<path class="st3" d="M271.7,413.5c6-3.4,11.9-6.9,17.9-10.3"/>
	<line class="st3" x1="271.7" y1="392.8" x2="271.7" y2="413.5"/>
	<path class="st3" d="M280.4,303.8c2.3,3.9,4.6,7.9,6.9,11.8"/>
	<path class="st3" d="M289.5,382.5c-6,3.4-11.9,6.9-17.9,10.3"/>
	<line class="st3" x1="289.5" y1="403.2" x2="289.5" y2="382.5"/>
	<path class="st3" d="M197.6,455.3c5.4-3.1,10.9-6.3,16.3-9.4"/>
	<line class="st3" x1="197.6" y1="436.4" x2="197.6" y2="455.3"/>
	<path class="st3" d="M214,427c-5.4,3.1-10.9,6.3-16.3,9.4"/>
	<line class="st3" x1="214" y1="445.8" x2="214" y2="427"/>
	<path class="st3" d="M157.2,482.1c7.4-4.3,14.8-8.6,22.2-12.8"/>
	<line class="st3" x1="157.2" y1="456.4" x2="157.2" y2="482.1"/>
	<path class="st3" d="M317.8,281.7c2.3,4,4.7,8,7,12"/>
	<path class="st3" d="M179.4,443.6c-7.4,4.3-14.8,8.6-22.2,12.8"/>
	<line class="st3" x1="179.4" y1="469.2" x2="179.4" y2="443.6"/>
	<path class="st3" d="M310.3,346.2c5.1-3,10.2-5.9,15.4-8.9"/>
	<line class="st3" x1="310.3" y1="328.5" x2="310.3" y2="346.2"/>
	<path class="st3" d="M325.6,319.6c-5.1,3-10.2,5.9-15.4,8.9"/>
	<line class="st3" x1="325.6" y1="337.3" x2="325.6" y2="319.6"/>
	<path class="st3" d="M269.8,373.4c7.2-4.1,14.3-8.3,21.5-12.4"/>
	<line class="st3" x1="269.8" y1="348.7" x2="269.8" y2="373.4"/>
	<path class="st3" d="M168.1,409.2c3.1,5.2,6.2,10.5,9.4,15.7"/>
	<path class="st3" d="M291.2,336.3c-7.2,4.1-14.3,8.3-21.5,12.4"/>
	<line class="st3" x1="291.2" y1="361.1" x2="291.2" y2="336.3"/>
	<path class="st3" d="M235.9,388.9c4.9-2.8,9.7-5.6,14.6-8.4"/>
	<line class="st3" x1="235.9" y1="372.1" x2="235.9" y2="388.9"/>
	<path class="st3" d="M250.4,363.7c-4.9,2.8-9.7,5.6-14.6,8.4"/>
	<line class="st3" x1="250.4" y1="380.5" x2="250.4" y2="363.7"/>
	<path class="st3" d="M198.6,410.4c4.8-2.8,9.6-5.5,14.4-8.3"/>
	<line class="st3" x1="198.6" y1="393.8" x2="198.6" y2="410.4"/>
	<path class="st3" d="M205.7,389.7c2.4,4.1,4.8,8.3,7.2,12.4"/>
	<path class="st3" d="M212.9,385.5c-4.8,2.8-9.6,5.5-14.4,8.3"/>
	<line class="st3" x1="212.9" y1="402.1" x2="212.9" y2="385.5"/>
	<path class="st3" d="M159.1,435.5c6.1-3.5,12.2-7,18.3-10.6"/>
	<line class="st3" x1="159.1" y1="414.4" x2="159.1" y2="435.5"/>
	<path class="st3" d="M177.4,403.8c-6.1,3.5-12.2,7-18.3,10.6"/>
	<line class="st3" x1="177.4" y1="424.9" x2="177.4" y2="403.8"/>
	<path class="st3" d="M310.9,301.8c4.6-2.7,9.3-5.4,13.9-8.1"/>
	<line class="st3" x1="310.9" y1="285.7" x2="310.9" y2="301.8"/>
	<path class="st3" d="M243.1,367.9c2.4,4.2,4.9,8.4,7.4,12.6"/>
	<path class="st3" d="M324.9,277.7c-4.6,2.7-9.3,5.4-13.9,8.1"/>
	<line class="st3" x1="324.9" y1="293.8" x2="324.9" y2="277.7"/>
	<path class="st3" d="M273.7,323.5c4.5-2.6,9.1-5.2,13.6-7.9"/>
	<line class="st3" x1="273.7" y1="307.7" x2="273.7" y2="323.5"/>
	<path class="st3" d="M287.3,299.9c-4.5,2.6-9.1,5.2-13.6,7.9"/>
	<line class="st3" x1="287.3" y1="315.6" x2="287.3" y2="299.9"/>
	<path class="st3" d="M234.3,348.3c5.9-3.4,11.7-6.8,17.6-10.1"/>
	<line class="st3" x1="234.3" y1="328" x2="234.3" y2="348.3"/>
	<path class="st3" d="M280.1,342.7c3.7,6.1,7.4,12.3,11.1,18.4"/>
	<path class="st3" d="M251.8,317.9c-5.9,3.4-11.7,6.8-17.6,10.1"/>
	<line class="st3" x1="251.8" y1="338.2" x2="251.8" y2="317.9"/>
	<path class="st3" d="M197.8,368.3c5.2-3,10.4-6,15.6-9"/>
	<line class="st3" x1="197.8" y1="350.3" x2="197.8" y2="368.3"/>
	<path class="st3" d="M213.5,341.3c-5.2,3-10.4,6-15.6,9"/>
	<line class="st3" x1="213.5" y1="359.3" x2="213.5" y2="341.3"/>
	<path class="st3" d="M156,397.6c8.1-4.7,16.2-9.4,24.4-14.1"/>
	<line class="st3" x1="156" y1="369.5" x2="156" y2="397.6"/>
	<path class="st3" d="M317.9,324.1c2.6,4.4,5.2,8.8,7.8,13.3"/>
	<path class="st3" d="M180.3,355.4c-8.1,4.7-16.2,9.4-24.4,14.1"/>
	<line class="st3" x1="180.3" y1="383.5" x2="180.3" y2="355.4"/>
	<path class="st3" d="M229.1,443.7c9.3-5.4,18.7-10.8,28-16.2"/>
	<line class="st3" x1="229.1" y1="411.4" x2="229.1" y2="443.7"/>
	<path class="st3" d="M257.1,395.2c-9.3,5.4-18.7,10.8-28,16.2"/>
	<line class="st3" x1="257.1" y1="427.6" x2="257.1" y2="395.2"/>
	<path class="st3" d="M355.5,225.2c-6.1-10.6-12.3-21.3-18.5-31.9c-7.3-12.7-14.7-25.4-22-38c-12.7-21.8-25.4-43.7-38.1-65.5
		c-5.6-9.6-11.1-19.1-16.7-28.7C248.7,41.1,237.1,21,225.5,1"/>
	<line class="st3" x1="1" y1="389.8" x2="1" y2="130.6"/>
	<path class="st3" d="M167.9,450.2c3.8,6.4,7.7,12.7,11.5,19"/>
	<path class="st3" d="M225.5,1C150.7,44.2,75.9,87.4,1,130.6"/>
	<path class="st3" d="M1,389.8c6,10.4,12.1,20.8,18.1,31.3c7.2,12.5,14.5,25,21.7,37.5c12.6,21.8,25.3,43.6,38,65.3
		c5.6,9.7,11.2,19.3,16.8,29c11.8,20.4,23.6,40.7,35.4,61.1"/>
	<path class="st3" d="M1,130.6c6,10.4,12.1,20.8,18.1,31.3c7.2,12.5,14.5,25,21.7,37.5c12.6,21.8,25.3,43.6,38,65.3
		c5.6,9.7,11.2,19.3,16.8,29c11.8,20.4,23.6,40.7,35.4,61.1"/>
	<path class="st3" d="M317.6,447c4.7,7.8,9.4,15.6,14.1,23.4"/>
	<path class="st3" d="M280.1,469.7c4.5,7.4,8.9,14.8,13.4,22.2"/>
	<path class="st3" d="M242.7,491.8c4.3,7.1,8.5,14.1,12.8,21.1"/>
	<path class="st3" d="M205.4,514.4c4,6.6,8,13.2,12,19.8"/>
	<path class="st3" d="M168.2,496.3c2.9,4.9,5.8,9.8,8.7,14.7"/>
	<path class="st3" d="M205.7,431.8c2.8,4.7,5.5,9.4,8.3,14.1"/>
	<path class="st3" d="M317.8,408.9c3.1,5.2,6.2,10.4,9.3,15.6"/>
	<path class="st3" d="M280.1,428.3c3.9,6.5,7.9,13,11.8,19.5"/>
	<line class="st3" x1="355.5" y1="484.4" x2="355.5" y2="225.2"/>
	<path class="st3" d="M242.8,450.3c3.7,6.2,7.5,12.4,11.3,18.6"/>
	<path class="st3" d="M205.2,469.5c4.5,7.5,9.1,15,13.6,22.5"/>
	<path class="st3" d="M317.5,363.1c3.9,6.5,7.9,13.1,11.9,19.6"/>
	<path class="st3" d="M280.4,387.8c3,5.1,6.1,10.3,9.1,15.4"/>
</g>
</svg>
