<?xml version="1.0" encoding="utf-8"?>
<!-- Generator: Adobe Illustrator 21.0.2, SVG Export Plug-In . SVG Version: 6.00 Build 0)  -->
<svg version="1.1" xmlns="http://www.w3.org/2000/svg" xmlns:xlink="http://www.w3.org/1999/xlink" x="0px" y="0px"
	 viewBox="0 0 356.1 615.3" style="enable-background:new 0 0 356.1 615.3;" xml:space="preserve">
<style type="text/css">
	.st0{display:none;}
	.st1{display:inline;}
	.st2{fill:none;stroke:#000000;stroke-width:0.5;stroke-miterlimit:10;}
	.st3{fill:none;stroke:#000000;stroke-width:2;stroke-linecap:round;stroke-linejoin:round;}
	.st4{fill:none;stroke:#000000;stroke-width:0.5;stroke-linecap:round;stroke-linejoin:round;}
</style>
<g id="Layer_1" class="st0">
	<g id="Make2D::hidden::lines" class="st1">
		<line class="st2" x1="274.5" y1="215.4" x2="311.9" y2="193.8"/>
		<line class="st2" x1="311.9" y1="193.8" x2="311.9" y2="150.6"/>
		<line class="st2" x1="231.3" y1="140.6" x2="231.3" y2="97.4"/>
		<line class="st2" x1="250" y1="129.8" x2="231.3" y2="140.6"/>
		<line class="st2" x1="274.5" y1="215.4" x2="274.5" y2="172.2"/>
		<line class="st2" x1="225.5" y1="130.6" x2="188.1" y2="152.2"/>
		<line class="st2" x1="231.3" y1="140.6" x2="225.5" y2="130.6"/>
		<line class="st2" x1="336.4" y1="365.9" x2="333.5" y2="360.9"/>
		<line class="st2" x1="140.6" y1="242.8" x2="140.6" y2="199.6"/>
		<line class="st2" x1="333.5" y1="360.9" x2="296.1" y2="382.5"/>
		<line class="st2" x1="296.1" y1="382.5" x2="317.7" y2="419.9"/>
		<line class="st2" x1="119" y1="205.4" x2="119" y2="162.2"/>
		<line class="st2" x1="119" y1="205.4" x2="140.6" y2="242.8"/>
		<line class="st2" x1="137.7" y1="194.6" x2="119" y2="205.4"/>
		<line class="st2" x1="296.1" y1="382.5" x2="296.1" y2="339.3"/>
		<line class="st2" x1="333.5" y1="360.9" x2="333.5" y2="317.7"/>
		<line class="st2" x1="178" y1="221.2" x2="159.3" y2="188.8"/>
		<line class="st2" x1="140.6" y1="242.8" x2="178" y2="221.2"/>
		<line class="st2" x1="296.1" y1="339.3" x2="317.7" y2="376.7"/>
		<line class="st2" x1="81.6" y1="313.4" x2="44.2" y2="335"/>
		<line class="st2" x1="355.1" y1="355.1" x2="333.5" y2="317.7"/>
		<line class="st2" x1="103.2" y1="350.8" x2="81.6" y2="313.4"/>
		<line class="st2" x1="81.6" y1="356.6" x2="81.6" y2="313.4"/>
		<line class="st2" x1="333.5" y1="317.7" x2="296.1" y2="339.3"/>
		<line class="st2" x1="81.6" y1="356.6" x2="62.9" y2="367.4"/>
		<line class="st2" x1="103.2" y1="394" x2="81.6" y2="356.6"/>
		<line class="st2" x1="178" y1="221.2" x2="178" y2="178"/>
		<line class="st2" x1="209.7" y1="189.6" x2="247.1" y2="168"/>
		<line class="st2" x1="247.1" y1="211.2" x2="247.1" y2="168"/>
		<line class="st2" x1="188.1" y1="195.4" x2="188.1" y2="152.2"/>
		<line class="st2" x1="188.1" y1="152.2" x2="209.7" y2="189.6"/>
		<line class="st2" x1="209.7" y1="232.8" x2="209.7" y2="189.6"/>
		<line class="st2" x1="209.7" y1="232.8" x2="247.1" y2="211.2"/>
		<line class="st2" x1="188.1" y1="195.4" x2="209.7" y2="232.8"/>
		<line class="st2" x1="225.5" y1="173.8" x2="188.1" y2="195.4"/>
		<line class="st2" x1="247.1" y1="211.2" x2="225.5" y2="173.8"/>
		<line class="st2" x1="146.4" y1="425.7" x2="109" y2="447.3"/>
		<line class="st2" x1="225.5" y1="260.2" x2="225.5" y2="173.8"/>
		<line class="st2" x1="225.5" y1="260.2" x2="1" y2="389.8"/>
		<line class="st2" x1="168" y1="463.1" x2="146.4" y2="425.7"/>
		<line class="st2" x1="146.4" y1="468.9" x2="146.4" y2="425.7"/>
		<line class="st2" x1="225.5" y1="130.6" x2="225.5" y2="1"/>
		<line class="st2" x1="146.4" y1="468.9" x2="127.7" y2="479.7"/>
		<line class="st2" x1="149.3" y1="473.9" x2="146.4" y2="468.9"/>
		<line class="st2" x1="311.9" y1="193.8" x2="293.2" y2="161.4"/>
		<line class="st2" x1="231.3" y1="140.6" x2="274.5" y2="215.4"/>
		<line class="st2" x1="355.1" y1="484.7" x2="317.7" y2="419.9"/>
		<line class="st2" x1="103.2" y1="394" x2="103.2" y2="350.8"/>
		<line class="st2" x1="103.2" y1="350.8" x2="65.8" y2="372.4"/>
		<line class="st2" x1="296.1" y1="382.5" x2="225.5" y2="260.2"/>
		<line class="st2" x1="65.8" y1="415.6" x2="103.2" y2="394"/>
	</g>
	<g id="Make2D::visible::lines" class="st1">
		<line class="st3" x1="1" y1="389.8" x2="130.6" y2="614.3"/>
		<line class="st3" x1="65.8" y1="415.6" x2="65.8" y2="372.4"/>
		<line class="st3" x1="109" y1="490.5" x2="130.6" y2="527.9"/>
		<line class="st3" x1="355.1" y1="355.1" x2="355.1" y2="225.5"/>
		<line class="st3" x1="355.1" y1="484.7" x2="355.1" y2="398.3"/>
		<line class="st3" x1="130.6" y1="614.3" x2="355.1" y2="484.7"/>
		<line class="st3" x1="130.6" y1="614.3" x2="130.6" y2="527.9"/>
		<line class="st3" x1="130.6" y1="484.7" x2="130.6" y2="398.3"/>
		<line class="st3" x1="1" y1="130.6" x2="109" y2="317.7"/>
		<line class="st3" x1="268.7" y1="75.8" x2="225.5" y2="1"/>
		<line class="st3" x1="355.1" y1="225.5" x2="311.9" y2="150.6"/>
		<line class="st3" x1="168" y1="333.5" x2="355.1" y2="225.5"/>
		<line class="st3" x1="231.3" y1="97.4" x2="274.5" y2="172.2"/>
		<line class="st3" x1="130.6" y1="527.9" x2="168" y2="506.3"/>
		<line class="st3" x1="293.2" y1="161.4" x2="268.7" y2="119"/>
		<line class="st3" x1="168" y1="506.3" x2="149.3" y2="473.9"/>
		<line class="st3" x1="127.7" y1="479.7" x2="109" y2="490.5"/>
		<line class="st3" x1="225.5" y1="1" x2="1" y2="130.6"/>
		<line class="st3" x1="1" y1="389.8" x2="1" y2="130.6"/>
		<line class="st3" x1="168" y1="506.3" x2="168" y2="463.1"/>
		<line class="st3" x1="109" y1="490.5" x2="109" y2="447.3"/>
		<line class="st3" x1="156.4" y1="140.6" x2="178" y2="178"/>
		<line class="st3" x1="44.2" y1="378.2" x2="65.8" y2="415.6"/>
		<line class="st3" x1="62.9" y1="367.4" x2="44.2" y2="378.2"/>
		<line class="st3" x1="44.2" y1="378.2" x2="44.2" y2="335"/>
		<line class="st3" x1="317.7" y1="376.7" x2="355.1" y2="355.1"/>
		<line class="st3" x1="44.2" y1="335" x2="65.8" y2="372.4"/>
		<line class="st3" x1="317.7" y1="419.9" x2="317.7" y2="376.7"/>
		<line class="st3" x1="159.3" y1="188.8" x2="156.4" y2="183.8"/>
		<line class="st3" x1="156.4" y1="183.8" x2="137.7" y2="194.6"/>
		<line class="st3" x1="156.4" y1="140.6" x2="119" y2="162.2"/>
		<line class="st3" x1="156.4" y1="140.6" x2="156.4" y2="183.8"/>
		<line class="st3" x1="119" y1="162.2" x2="140.6" y2="199.6"/>
		<line class="st3" x1="355.1" y1="398.3" x2="336.4" y2="365.9"/>
		<line class="st3" x1="317.7" y1="419.9" x2="355.1" y2="398.3"/>
		<line class="st3" x1="146.4" y1="296.1" x2="109" y2="317.7"/>
		<line class="st3" x1="109" y1="360.9" x2="109" y2="317.7"/>
		<line class="st3" x1="168" y1="376.7" x2="168" y2="333.5"/>
		<line class="st3" x1="168" y1="333.5" x2="146.4" y2="296.1"/>
		<line class="st3" x1="146.4" y1="339.3" x2="146.4" y2="296.1"/>
		<line class="st3" x1="146.4" y1="339.3" x2="109" y2="360.9"/>
		<line class="st3" x1="168" y1="376.7" x2="146.4" y2="339.3"/>
		<line class="st3" x1="130.6" y1="398.3" x2="168" y2="376.7"/>
		<line class="st3" x1="109" y1="360.9" x2="130.6" y2="398.3"/>
		<line class="st3" x1="178" y1="178" x2="140.6" y2="199.6"/>
		<line class="st3" x1="130.6" y1="484.7" x2="168" y2="463.1"/>
		<line class="st3" x1="109" y1="447.3" x2="130.6" y2="484.7"/>
		<line class="st3" x1="268.7" y1="119" x2="250" y2="129.8"/>
		<line class="st3" x1="274.5" y1="172.2" x2="311.9" y2="150.6"/>
		<line class="st3" x1="268.7" y1="75.8" x2="231.3" y2="97.4"/>
		<line class="st3" x1="268.7" y1="119" x2="268.7" y2="75.8"/>
	</g>
</g>
<g id="Layer_2">
	<line class="st4" x1="70.6" y1="259.3" x2="70.6" y2="251.8"/>
	<line class="st4" x1="70.6" y1="215.1" x2="70.6" y2="172.3"/>
	<line class="st4" x1="81.3" y1="348" x2="137.5" y2="315.6"/>
	<line class="st4" x1="87.8" y1="249.4" x2="87.8" y2="150"/>
	<line class="st4" x1="137.5" y1="335.4" x2="137.5" y2="315.6"/>
	<line class="st4" x1="85.9" y1="365.3" x2="137.5" y2="335.4"/>
	<line class="st4" x1="70.6" y1="259.3" x2="87.8" y2="249.4"/>
	<line class="st4" x1="58.7" y1="338.1" x2="58.7" y2="358"/>
	<line class="st4" x1="58.7" y1="358" x2="110.4" y2="328.2"/>
	<line class="st4" x1="110.4" y1="308.3" x2="110.4" y2="328.2"/>
	<line class="st4" x1="101.8" y1="313.3" x2="110.4" y2="308.3"/>
	<line class="st4" x1="97.8" y1="246.7" x2="97.8" y2="236.1"/>
	<line class="st4" x1="97.8" y1="226.9" x2="97.8" y2="187.1"/>
	<line class="st4" x1="1.8" y1="378.6" x2="11.7" y2="372.8"/>
	<line class="st4" x1="19" y1="368.6" x2="19" y2="269.3"/>
	<line class="st4" x1="80.5" y1="256.7" x2="80.5" y2="246"/>
	<line class="st4" x1="80.5" y1="209.4" x2="80.5" y2="197.1"/>
	<line class="st4" x1="97.8" y1="246.7" x2="80.5" y2="256.7"/>
	<line class="st4" x1="110.4" y1="248.7" x2="58.7" y2="278.5"/>
	<line class="st4" x1="28.9" y1="306.4" x2="11.7" y2="316.3"/>
	<line class="st4" x1="28.9" y1="346.1" x2="28.9" y2="306.4"/>
	<line class="st4" x1="58.7" y1="278.5" x2="58.7" y2="258.6"/>
	<line class="st4" x1="110.4" y1="248.7" x2="110.4" y2="228.8"/>
	<line class="st4" x1="137.5" y1="414.9" x2="85.9" y2="444.7"/>
	<line class="st4" x1="137.5" y1="236.1" x2="81.3" y2="268.6"/>
	<line class="st4" x1="137.5" y1="256" x2="85.9" y2="285.8"/>
	<line class="st4" x1="137.5" y1="395.1" x2="81.3" y2="427.5"/>
	<line class="st4" x1="137.5" y1="236.1" x2="137.5" y2="256"/>
	<line class="st4" x1="110.4" y1="387.8" x2="101.8" y2="392.8"/>
	<line class="st4" x1="58.7" y1="437.5" x2="58.7" y2="417.6"/>
	<line class="st4" x1="110.4" y1="407.7" x2="58.7" y2="437.5"/>
	<line class="st4" x1="97.8" y1="326.2" x2="97.8" y2="346.1"/>
	<line class="st4" x1="97.8" y1="346.1" x2="108.4" y2="364.5"/>
	<line class="st4" x1="137.5" y1="395.1" x2="137.5" y2="414.9"/>
	<line class="st4" x1="97.8" y1="326.2" x2="108.4" y2="344.7"/>
	<line class="st4" x1="28.9" y1="187.1" x2="28.9" y2="147.4"/>
	<line class="st4" x1="70.6" y1="338.8" x2="70.6" y2="331.2"/>
	<line class="st4" x1="75.9" y1="328.2" x2="81.3" y2="337.4"/>
	<line class="st4" x1="28.9" y1="147.4" x2="11.7" y2="157.3"/>
	<line class="st4" x1="110.4" y1="407.7" x2="110.4" y2="387.8"/>
	<line class="st4" x1="70.6" y1="338.8" x2="81.3" y2="357.3"/>
	<line class="st4" x1="19" y1="209.7" x2="19" y2="110.3"/>
	<line class="st4" x1="225.5" y1="150" x2="225.5" y2="249.4"/>
	<line class="st4" x1="235.4" y1="266.6" x2="225.5" y2="249.4"/>
	<line class="st4" x1="235.4" y1="168.9" x2="235.4" y2="266.6"/>
	<line class="st4" x1="1.8" y1="219.6" x2="11.7" y2="213.9"/>
	<line class="st4" x1="208.3" y1="179.8" x2="218.2" y2="197.1"/>
	<line class="st4" x1="218.2" y1="246" x2="218.2" y2="256.7"/>
	<line class="st4" x1="110.4" y1="149.3" x2="110.4" y2="169.2"/>
	<line class="st4" x1="213.6" y1="248.7" x2="218.2" y2="256.7"/>
	<line class="st4" x1="58.7" y1="199" x2="110.4" y2="169.2"/>
	<line class="st4" x1="58.7" y1="179.1" x2="58.7" y2="199"/>
	<line class="st4" x1="208.3" y1="179.8" x2="208.3" y2="202.8"/>
	<line class="st4" x1="196.4" y1="278.5" x2="196.4" y2="258.6"/>
	<line class="st4" x1="110.4" y1="169.2" x2="101.8" y2="154.3"/>
	<line class="st4" x1="166.6" y1="226.9" x2="166.6" y2="207"/>
	<line class="st4" x1="167.3" y1="228.1" x2="166.6" y2="226.9"/>
	<line class="st4" x1="189.1" y1="285.8" x2="189.1" y2="305.6"/>
	<line class="st4" x1="137.5" y1="176.5" x2="97.8" y2="107.6"/>
	<line class="st4" x1="160" y1="255.2" x2="141.5" y2="223.1"/>
	<line class="st4" x1="97.8" y1="107.6" x2="97.8" y2="87.8"/>
	<line class="st4" x1="156.7" y1="130.2" x2="206.3" y2="216.2"/>
	<line class="st4" x1="160" y1="235.4" x2="150.1" y2="218.2"/>
	<line class="st4" x1="156.7" y1="130.2" x2="139.5" y2="140.1"/>
	<line class="st4" x1="275.2" y1="335.4" x2="275.2" y2="237.7"/>
	<line class="st4" x1="179.2" y1="189.1" x2="196.4" y2="179.1"/>
	<line class="st4" x1="265.2" y1="318.2" x2="265.2" y2="218.9"/>
	<line class="st4" x1="248" y1="308.3" x2="248" y2="248.7"/>
	<line class="st4" x1="258" y1="265.9" x2="248" y2="248.7"/>
	<line class="st4" x1="258" y1="325.5" x2="258" y2="265.9"/>
	<line class="st4" x1="179.2" y1="149.3" x2="196.4" y2="179.1"/>
	<line class="st4" x1="217" y1="433.4" x2="189.8" y2="386.4"/>
	<line class="st4" x1="196.4" y1="119.5" x2="248" y2="89.7"/>
	<line class="st4" x1="179.2" y1="348" x2="179.2" y2="367.9"/>
	<line class="st4" x1="217" y1="413.5" x2="199.8" y2="383.7"/>
	<line class="st4" x1="248" y1="89.7" x2="258" y2="106.9"/>
	<line class="st4" x1="236.1" y1="426.8" x2="236.1" y2="406.9"/>
	<line class="st4" x1="196.4" y1="119.5" x2="206.3" y2="136.7"/>
	<line class="st4" x1="206.3" y1="375.2" x2="206.3" y2="355.3"/>
	<line class="st4" x1="236.1" y1="426.8" x2="207.1" y2="376.4"/>
	<line class="st4" x1="258" y1="186.4" x2="244.8" y2="163.5"/>
	<line class="st4" x1="305" y1="287.7" x2="305" y2="387.1"/>
	<line class="st4" x1="314.9" y1="404.3" x2="305" y2="387.1"/>
	<line class="st4" x1="314.9" y1="373.8" x2="314.9" y2="404.3"/>
	<line class="st4" x1="223.6" y1="126.8" x2="208.3" y2="100.4"/>
	<line class="st4" x1="287.8" y1="317.5" x2="297.7" y2="334.7"/>
	<line class="st4" x1="297.7" y1="383.7" x2="297.7" y2="394.4"/>
	<line class="st4" x1="208.3" y1="100.4" x2="225.5" y2="90.4"/>
	<line class="st4" x1="293.1" y1="386.4" x2="297.7" y2="394.4"/>
	<line class="st4" x1="275.2" y1="176.5" x2="225.5" y2="90.4"/>
	<line class="st4" x1="258" y1="186.4" x2="275.2" y2="176.5"/>
	<line class="st4" x1="287.8" y1="317.5" x2="287.8" y2="340.5"/>
	<line class="st4" x1="275.9" y1="416.2" x2="275.9" y2="396.3"/>
	<line class="st4" x1="265.2" y1="139.4" x2="235.4" y2="87.8"/>
	<line class="st4" x1="246.1" y1="364.5" x2="246.1" y2="344.7"/>
	<line class="st4" x1="275.9" y1="416.2" x2="246.1" y2="364.5"/>
	<line class="st4" x1="235.4" y1="87.8" x2="218.2" y2="97.7"/>
	<line class="st4" x1="232.2" y1="121.8" x2="218.2" y2="97.7"/>
	<line class="st4" x1="265.2" y1="139.4" x2="248" y2="149.3"/>
	<line class="st4" x1="208.3" y1="100.4" x2="208.3" y2="92.8"/>
	<line class="st4" x1="344.7" y1="455.9" x2="354.7" y2="473.1"/>
	<line class="st4" x1="225.5" y1="90.4" x2="225.5" y2="1"/>
	<line class="st4" x1="235.4" y1="87.8" x2="235.4" y2="77.1"/>
	<line class="st4" x1="344.7" y1="455.9" x2="344.7" y2="356.6"/>
	<line class="st4" x1="218.2" y1="97.7" x2="218.2" y2="87"/>
	<line class="st4" x1="327.5" y1="409.3" x2="327.5" y2="386.4"/>
	<line class="st4" x1="305" y1="228.1" x2="305" y2="128.7"/>
	<line class="st4" x1="337.5" y1="403.6" x2="327.5" y2="386.4"/>
	<line class="st4" x1="287.8" y1="181.5" x2="287.8" y2="158.5"/>
	<line class="st4" x1="167.3" y1="466.6" x2="207.1" y2="535.4"/>
	<line class="st4" x1="207.1" y1="515.5" x2="207.1" y2="535.4"/>
	<line class="st4" x1="236.1" y1="188.4" x2="236.1" y2="267.8"/>
	<line class="st4" x1="218.9" y1="270.2" x2="218.9" y2="277.8"/>
	<line class="st4" x1="228.9" y1="264.5" x2="228.9" y2="275.1"/>
	<line class="st4" x1="246.1" y1="254.5" x2="246.1" y2="265.2"/>
	<line class="st4" x1="268.6" y1="284.3" x2="258.7" y2="267.1"/>
	<line class="st4" x1="81.3" y1="516.2" x2="167.3" y2="466.6"/>
	<line class="st4" x1="167.3" y1="446.7" x2="167.3" y2="466.6"/>
	<line class="st4" x1="258.7" y1="290.1" x2="258.7" y2="267.1"/>
	<line class="st4" x1="107.1" y1="481.5" x2="132.9" y2="466.6"/>
	<line class="st4" x1="258.7" y1="267.1" x2="207.1" y2="296.9"/>
	<line class="st4" x1="108.4" y1="523.5" x2="108.4" y2="503.6"/>
	<line class="st4" x1="275.9" y1="316.8" x2="275.9" y2="237.3"/>
	<line class="st4" x1="117" y1="498.7" x2="142.8" y2="483.8"/>
	<line class="st4" x1="148.2" y1="433.4" x2="108.4" y2="364.5"/>
	<line class="st4" x1="138.2" y1="396.3" x2="121" y2="366.5"/>
	<line class="st4" x1="108.4" y1="285.1" x2="138.2" y2="336.7"/>
	<line class="st4" x1="121" y1="516.2" x2="148.2" y2="500.6"/>
	<line class="st4" x1="167.3" y1="307.6" x2="207.1" y2="376.4"/>
	<line class="st4" x1="108.4" y1="523.5" x2="117" y2="518.6"/>
	<line class="st4" x1="217" y1="473.1" x2="167.3" y2="387.1"/>
	<line class="st4" x1="207.1" y1="436" x2="189.8" y2="406.2"/>
	<line class="st4" x1="108.4" y1="444" x2="138.2" y2="495.7"/>
	<line class="st4" x1="148.2" y1="592.4" x2="108.4" y2="523.5"/>
	<line class="st4" x1="138.2" y1="495.7" x2="121" y2="505.6"/>
	<line class="st4" x1="138.2" y1="555.3" x2="121" y2="525.5"/>
	<line class="st4" x1="138.2" y1="555.3" x2="121" y2="565.2"/>
	<line class="st4" x1="138.2" y1="495.7" x2="138.2" y2="555.3"/>
	<line class="st4" x1="167.3" y1="387.1" x2="167.3" y2="367.2"/>
	<line class="st4" x1="327.5" y1="386.4" x2="275.9" y2="416.2"/>
	<line class="st4" x1="148.2" y1="378.3" x2="107.1" y2="402"/>
	<line class="st4" x1="207.1" y1="535.4" x2="344.7" y2="455.9"/>
	<line class="st4" x1="218.9" y1="357.3" x2="287.8" y2="317.5"/>
	<line class="st4" x1="167.3" y1="387.1" x2="81.3" y2="436.8"/>
	<line class="st4" x1="246.1" y1="364.5" x2="254.7" y2="359.6"/>
	<line class="st4" x1="117" y1="439.1" x2="108.4" y2="444"/>
	<line class="st4" x1="263.3" y1="354.6" x2="285.8" y2="341.6"/>
	<line class="st4" x1="148.2" y1="421.1" x2="125.6" y2="434.1"/>
	<line class="st4" x1="254.7" y1="339.7" x2="285.8" y2="321.7"/>
	<line class="st4" x1="108.4" y1="424.2" x2="108.4" y2="444"/>
	<line class="st4" x1="244.8" y1="322.5" x2="285.8" y2="298.8"/>
	<line class="st4" x1="148.2" y1="401.2" x2="117" y2="419.2"/>
	<line class="st4" x1="305" y1="387.1" x2="236.1" y2="426.8"/>
	<line class="st4" x1="207.1" y1="376.4" x2="189.8" y2="386.4"/>
	<line class="st4" x1="270.6" y1="387.1" x2="244.8" y2="402"/>
	<line class="st4" x1="207.1" y1="436" x2="189.8" y2="446"/>
	<line class="st4" x1="207.1" y1="376.4" x2="207.1" y2="436"/>
	<line class="st4" x1="297.7" y1="394.4" x2="254.7" y2="419.2"/>
	<line class="st4" x1="314.9" y1="404.3" x2="263.3" y2="434.1"/>
	<line class="st4" x1="218.9" y1="348" x2="258" y2="325.5"/>
	<line class="st4" x1="179.2" y1="348" x2="196.4" y2="338.1"/>
	<line class="st4" x1="239.4" y1="313.3" x2="248" y2="308.3"/>
	<line class="st4" x1="81.3" y1="357.3" x2="167.3" y2="307.6"/>
	<line class="st4" x1="167.3" y1="287.7" x2="167.3" y2="307.6"/>
	<line class="st4" x1="179.2" y1="367.9" x2="265.2" y2="318.2"/>
	<line class="st4" x1="107.1" y1="322.5" x2="132.9" y2="307.6"/>
	<line class="st4" x1="206.3" y1="375.2" x2="214.9" y2="370.2"/>
	<line class="st4" x1="108.4" y1="364.5" x2="108.4" y2="344.7"/>
	<line class="st4" x1="223.6" y1="365.3" x2="275.2" y2="335.4"/>
	<line class="st4" x1="117" y1="339.7" x2="142.8" y2="324.8"/>
	<line class="st4" x1="246.1" y1="252.9" x2="218.9" y2="268.6"/>
	<line class="st4" x1="206.3" y1="275.8" x2="189.1" y2="285.8"/>
	<line class="st4" x1="258" y1="265.9" x2="189.1" y2="305.6"/>
	<line class="st4" x1="121" y1="357.3" x2="148.2" y2="341.6"/>
	<line class="st4" x1="248" y1="248.7" x2="196.4" y2="278.5"/>
	<line class="st4" x1="108.4" y1="364.5" x2="117" y2="359.6"/>
	<line class="st4" x1="246.1" y1="229.9" x2="218.9" y2="245.6"/>
	<line class="st4" x1="139.5" y1="219.6" x2="208.3" y2="179.8"/>
	<line class="st4" x1="166.6" y1="226.9" x2="175.2" y2="221.9"/>
	<line class="st4" x1="183.8" y1="216.9" x2="206.3" y2="203.9"/>
	<line class="st4" x1="138.2" y1="336.7" x2="121" y2="346.6"/>
	<line class="st4" x1="175.2" y1="202" x2="206.3" y2="184"/>
	<line class="st4" x1="138.2" y1="396.3" x2="121" y2="406.2"/>
	<line class="st4" x1="138.2" y1="336.7" x2="138.2" y2="396.3"/>
	<line class="st4" x1="167.3" y1="228.1" x2="167.3" y2="208.2"/>
	<line class="st4" x1="165.3" y1="184.8" x2="206.3" y2="161.1"/>
	<line class="st4" x1="225.5" y1="249.4" x2="70.6" y2="338.8"/>
	<line class="st4" x1="167.3" y1="228.1" x2="81.3" y2="277.8"/>
	<line class="st4" x1="191.1" y1="249.4" x2="165.3" y2="264.3"/>
	<line class="st4" x1="117" y1="280.1" x2="108.4" y2="285.1"/>
	<line class="st4" x1="122.2" y1="289.1" x2="96.4" y2="304"/>
	<line class="st4" x1="108.4" y1="265.2" x2="108.4" y2="285.1"/>
	<line class="st4" x1="218.2" y1="256.7" x2="175.2" y2="281.5"/>
	<line class="st4" x1="207.1" y1="296.9" x2="207.1" y2="277.1"/>
	<line class="st4" x1="132.2" y1="306.4" x2="97.8" y2="326.2"/>
	<line class="st4" x1="207.1" y1="296.9" x2="167.3" y2="228.1"/>
	<line class="st4" x1="235.4" y1="266.6" x2="183.8" y2="296.4"/>
	<line class="st4" x1="175.2" y1="301.4" x2="97.8" y2="346.1"/>
	<line class="st4" x1="28.9" y1="306.4" x2="58.7" y2="358"/>
	<line class="st4" x1="228.9" y1="275.1" x2="246.1" y2="265.2"/>
	<line class="st4" x1="246.1" y1="265.2" x2="275.9" y2="316.8"/>
	<line class="st4" x1="258.7" y1="326.7" x2="275.9" y2="316.8"/>
	<line class="st4" x1="58.7" y1="437.5" x2="20.3" y2="370.9"/>
	<line class="st4" x1="228.9" y1="275.1" x2="242.8" y2="299.2"/>
	<line class="st4" x1="236.1" y1="267.8" x2="218.9" y2="277.8"/>
	<line class="st4" x1="81.3" y1="277.8" x2="70.6" y2="259.3"/>
	<line class="st4" x1="218.9" y1="277.8" x2="234.2" y2="304.2"/>
	<line class="st4" x1="108.4" y1="285.1" x2="87.8" y2="249.4"/>
	<line class="st4" x1="236.1" y1="267.8" x2="285.8" y2="353.9"/>
	<line class="st4" x1="297.7" y1="175.8" x2="287.8" y2="158.5"/>
	<line class="st4" x1="287.8" y1="158.5" x2="236.1" y2="188.4"/>
	<line class="st4" x1="246.1" y1="205.6" x2="236.1" y2="188.4"/>
	<line class="st4" x1="108.4" y1="265.2" x2="97.8" y2="246.7"/>
	<line class="st4" x1="81.3" y1="257.9" x2="80.5" y2="256.7"/>
	<line class="st4" x1="80.5" y1="197.1" x2="85.9" y2="206.3"/>
	<line class="st4" x1="101.8" y1="233.8" x2="110.4" y2="248.7"/>
	<line class="st4" x1="75.9" y1="169.2" x2="94.5" y2="201.3"/>
	<line class="st4" x1="93.1" y1="159.3" x2="111.7" y2="191.4"/>
	<line class="st4" x1="132.9" y1="228.1" x2="137.5" y2="236.1"/>
	<line class="st4" x1="97.8" y1="187.1" x2="137.5" y2="256"/>
	<line class="st4" x1="344.7" y1="277.1" x2="327.5" y2="247.3"/>
	<line class="st4" x1="354.7" y1="314.1" x2="305" y2="228.1"/>
	<line class="st4" x1="287.8" y1="238" x2="305" y2="228.1"/>
	<line class="st4" x1="58.7" y1="278.5" x2="20.3" y2="212"/>
	<line class="st4" x1="28.9" y1="147.4" x2="58.7" y2="199"/>
	<line class="st4" x1="344.7" y1="277.1" x2="327.5" y2="287"/>
	<line class="st4" x1="344.7" y1="207.5" x2="344.7" y2="277.1"/>
	<line class="st4" x1="156.7" y1="30.8" x2="156.7" y2="130.2"/>
	<line class="st4" x1="139.5" y1="60.6" x2="139.5" y2="83.6"/>
	<line class="st4" x1="70.6" y1="100.4" x2="139.5" y2="60.6"/>
	<line class="st4" x1="97.8" y1="107.6" x2="106.4" y2="102.7"/>
	<line class="st4" x1="139.5" y1="60.6" x2="149.4" y2="77.8"/>
	<line class="st4" x1="196.4" y1="179.1" x2="196.4" y2="119.5"/>
	<line class="st4" x1="258" y1="155.9" x2="258" y2="186.4"/>
	<line class="st4" x1="275.2" y1="146" x2="275.2" y2="176.5"/>
	<line class="st4" x1="265.2" y1="59.9" x2="265.2" y2="139.4"/>
	<line class="st4" x1="248" y1="89.7" x2="248" y2="112.7"/>
	<line class="st4" x1="97.8" y1="187.1" x2="80.5" y2="197.1"/>
	<line class="st3" x1="248" y1="112.7" x2="248" y2="149.3"/>
	<line class="st3" x1="337.5" y1="234.7" x2="327.5" y2="217.5"/>
	<line class="st3" x1="327.5" y1="217.5" x2="344.7" y2="207.5"/>
	<line class="st3" x1="344.7" y1="207.5" x2="354.7" y2="224.7"/>
	<line class="st3" x1="275.2" y1="77.1" x2="275.2" y2="146"/>
	<line class="st3" x1="208.3" y1="10.9" x2="225.5" y2="1"/>
	<line class="st3" x1="258" y1="106.9" x2="258" y2="155.9"/>
	<line class="st3" x1="166.6" y1="48" x2="156.7" y2="30.8"/>
	<line class="st3" x1="206.3" y1="216.2" x2="206.3" y2="136.7"/>
	<line class="st3" x1="225.5" y1="1" x2="235.4" y2="18.2"/>
	<line class="st3" x1="235.4" y1="18.2" x2="218.2" y2="28.1"/>
	<line class="st3" x1="179.2" y1="189.1" x2="179.2" y2="109.6"/>
	<line class="st3" x1="189.1" y1="226.2" x2="189.1" y2="126.8"/>
	<line class="st3" x1="97.8" y1="87.8" x2="166.6" y2="48"/>
	<line class="st3" x1="166.6" y1="48" x2="166.6" y2="127.5"/>
	<line class="st3" x1="149.4" y1="77.8" x2="149.4" y2="137.4"/>
	<line class="st3" x1="106.4" y1="102.7" x2="149.4" y2="77.8"/>
	<line class="st3" x1="218.2" y1="28.1" x2="208.3" y2="10.9"/>
	<line class="st3" x1="337.5" y1="234.7" x2="337.5" y2="324.1"/>
	<line class="st3" x1="139.5" y1="83.6" x2="139.5" y2="140.1"/>
	<line class="st3" x1="337.5" y1="324.1" x2="354.7" y2="314.1"/>
	<line class="st3" x1="354.7" y1="224.7" x2="354.7" y2="314.1"/>
	<line class="st3" x1="70.6" y1="80.5" x2="156.7" y2="30.8"/>
	<line class="st3" x1="1.8" y1="120.2" x2="51.5" y2="206.3"/>
	<line class="st3" x1="11.7" y1="157.3" x2="51.5" y2="226.2"/>
	<line class="st3" x1="327.5" y1="217.5" x2="327.5" y2="287"/>
	<line class="st3" x1="19" y1="110.3" x2="58.7" y2="179.1"/>
	<line class="st3" x1="20.3" y1="212" x2="19" y2="209.7"/>
	<line class="st3" x1="337.5" y1="324.1" x2="287.8" y2="238"/>
	<line class="st3" x1="51.5" y1="305.6" x2="1.8" y2="219.6"/>
	<line class="st3" x1="51.5" y1="285.8" x2="11.7" y2="216.9"/>
	<line class="st3" x1="58.7" y1="258.6" x2="28.9" y2="207"/>
	<line class="st3" x1="327.5" y1="247.3" x2="314.9" y2="225.4"/>
	<line class="st3" x1="314.9" y1="225.4" x2="297.7" y2="235.4"/>
	<line class="st3" x1="111.7" y1="191.4" x2="132.9" y2="228.1"/>
	<line class="st3" x1="327.5" y1="287" x2="297.7" y2="235.4"/>
	<line class="st3" x1="87.8" y1="150" x2="93.1" y2="159.3"/>
	<line class="st3" x1="94.5" y1="201.3" x2="110.4" y2="228.8"/>
	<line class="st3" x1="305" y1="128.7" x2="218.9" y2="178.4"/>
	<line class="st3" x1="70.6" y1="160" x2="75.9" y2="169.2"/>
	<line class="st3" x1="218.9" y1="178.4" x2="228.9" y2="195.6"/>
	<line class="st3" x1="85.9" y1="206.3" x2="101.8" y2="233.8"/>
	<line class="st3" x1="314.9" y1="146" x2="228.9" y2="195.6"/>
	<line class="st3" x1="305" y1="128.7" x2="314.9" y2="146"/>
	<line class="st3" x1="297.7" y1="175.8" x2="246.1" y2="205.6"/>
	<line class="st3" x1="285.8" y1="353.9" x2="268.6" y2="363.8"/>
	<line class="st3" x1="234.2" y1="304.2" x2="268.6" y2="363.8"/>
	<line class="st3" x1="51.5" y1="444.7" x2="11.7" y2="375.9"/>
	<line class="st3" x1="51.5" y1="464.6" x2="1.8" y2="378.6"/>
	<line class="st3" x1="1.8" y1="279.2" x2="51.5" y2="365.3"/>
	<line class="st3" x1="11.7" y1="316.3" x2="51.5" y2="385.1"/>
	<line class="st3" x1="20.3" y1="370.9" x2="19" y2="368.6"/>
	<line class="st3" x1="242.8" y1="299.2" x2="258.7" y2="326.7"/>
	<line class="st3" x1="58.7" y1="417.6" x2="28.9" y2="366"/>
	<line class="st3" x1="199.8" y1="304.2" x2="160" y2="235.4"/>
	<line class="st3" x1="19" y1="269.3" x2="58.7" y2="338.1"/>
	<line class="st3" x1="199.8" y1="324.1" x2="160" y2="255.2"/>
	<line class="st3" x1="183.8" y1="296.4" x2="175.2" y2="301.4"/>
	<line class="st3" x1="199.8" y1="304.2" x2="199.8" y2="324.1"/>
	<line class="st3" x1="207.1" y1="277.1" x2="167.3" y2="208.2"/>
	<line class="st3" x1="175.2" y1="281.5" x2="132.2" y2="306.4"/>
	<line class="st3" x1="160" y1="235.4" x2="108.4" y2="265.2"/>
	<line class="st3" x1="96.4" y1="304" x2="70.6" y2="319"/>
	<line class="st3" x1="160" y1="255.2" x2="117" y2="280.1"/>
	<line class="st3" x1="165.3" y1="264.3" x2="122.2" y2="289.1"/>
	<line class="st3" x1="160" y1="235.4" x2="160" y2="255.2"/>
	<line class="st3" x1="208.3" y1="239.5" x2="191.1" y2="249.4"/>
	<line class="st3" x1="81.3" y1="277.8" x2="81.3" y2="257.9"/>
	<line class="st3" x1="206.3" y1="161.1" x2="225.5" y2="150"/>
	<line class="st3" x1="167.3" y1="208.2" x2="81.3" y2="257.9"/>
	<line class="st3" x1="139.5" y1="199.7" x2="165.3" y2="184.8"/>
	<line class="st3" x1="206.3" y1="184" x2="235.4" y2="167.2"/>
	<line class="st3" x1="121" y1="346.6" x2="121" y2="406.2"/>
	<line class="st3" x1="166.6" y1="207" x2="175.2" y2="202"/>
	<line class="st3" x1="206.3" y1="203.9" x2="218.2" y2="197.1"/>
	<line class="st3" x1="130.9" y1="344" x2="130.9" y2="443.3"/>
	<line class="st3" x1="175.2" y1="221.9" x2="183.8" y2="216.9"/>
	<line class="st3" x1="130.9" y1="443.3" x2="148.2" y2="433.4"/>
	<line class="st3" x1="148.2" y1="334" x2="148.2" y2="433.4"/>
	<line class="st3" x1="218.9" y1="245.6" x2="196.4" y2="258.6"/>
	<line class="st3" x1="130.9" y1="344" x2="148.2" y2="334"/>
	<line class="st3" x1="265.2" y1="218.9" x2="246.1" y2="229.9"/>
	<line class="st3" x1="117" y1="359.6" x2="121" y2="357.3"/>
	<line class="st3" x1="148.2" y1="341.6" x2="160" y2="334.7"/>
	<line class="st3" x1="160" y1="334.7" x2="160" y2="314.9"/>
	<line class="st3" x1="218.9" y1="268.6" x2="206.3" y2="275.8"/>
	<line class="st3" x1="108.4" y1="344.7" x2="117" y2="339.7"/>
	<line class="st3" x1="275.2" y1="236.1" x2="246.1" y2="252.9"/>
	<line class="st3" x1="142.8" y1="324.8" x2="160" y2="314.9"/>
	<line class="st3" x1="214.9" y1="370.2" x2="223.6" y2="365.3"/>
	<line class="st3" x1="81.3" y1="337.4" x2="107.1" y2="322.5"/>
	<line class="st3" x1="132.9" y1="307.6" x2="167.3" y2="287.7"/>
	<line class="st3" x1="81.3" y1="337.4" x2="81.3" y2="357.3"/>
	<line class="st3" x1="196.4" y1="338.1" x2="239.4" y2="313.3"/>
	<line class="st3" x1="199.8" y1="383.7" x2="199.8" y2="483.1"/>
	<line class="st3" x1="199.8" y1="483.1" x2="217" y2="473.1"/>
	<line class="st3" x1="206.3" y1="355.3" x2="218.9" y2="348"/>
	<line class="st3" x1="263.3" y1="434.1" x2="228.9" y2="454"/>
	<line class="st3" x1="217" y1="373.8" x2="217" y2="473.1"/>
	<line class="st3" x1="254.7" y1="419.2" x2="228.9" y2="434.1"/>
	<line class="st3" x1="199.8" y1="383.7" x2="217" y2="373.8"/>
	<line class="st3" x1="244.8" y1="402" x2="236.1" y2="406.9"/>
	<line class="st3" x1="189.8" y1="386.4" x2="189.8" y2="446"/>
	<line class="st3" x1="287.8" y1="377.1" x2="270.6" y2="387.1"/>
	<line class="st3" x1="160" y1="394.4" x2="148.2" y2="401.2"/>
	<line class="st3" x1="285.8" y1="298.8" x2="305" y2="287.7"/>
	<line class="st3" x1="117" y1="419.2" x2="108.4" y2="424.2"/>
	<line class="st3" x1="218.9" y1="337.4" x2="244.8" y2="322.5"/>
	<line class="st3" x1="285.8" y1="321.7" x2="314.9" y2="304.9"/>
	<line class="st3" x1="160" y1="414.2" x2="148.2" y2="421.1"/>
	<line class="st3" x1="246.1" y1="344.7" x2="254.7" y2="339.7"/>
	<line class="st3" x1="285.8" y1="341.6" x2="297.7" y2="334.7"/>
	<line class="st3" x1="125.6" y1="434.1" x2="117" y2="439.1"/>
	<line class="st3" x1="254.7" y1="359.6" x2="263.3" y2="354.6"/>
	<line class="st3" x1="160" y1="394.4" x2="160" y2="414.2"/>
	<line class="st3" x1="81.3" y1="436.8" x2="81.3" y2="416.9"/>
	<line class="st3" x1="207.1" y1="515.5" x2="327.5" y2="446"/>
	<line class="st3" x1="167.3" y1="367.2" x2="148.2" y2="378.3"/>
	<line class="st3" x1="344.7" y1="356.6" x2="275.9" y2="396.3"/>
	<line class="st3" x1="107.1" y1="402" x2="81.3" y2="416.9"/>
	<line class="st3" x1="199.8" y1="562.5" x2="354.7" y2="473.1"/>
	<line class="st3" x1="199.8" y1="542.7" x2="337.5" y2="463.2"/>
	<line class="st3" x1="337.5" y1="403.6" x2="268.6" y2="443.3"/>
	<line class="st3" x1="354.7" y1="373.8" x2="268.6" y2="423.4"/>
	<line class="st3" x1="130.9" y1="602.3" x2="81.3" y2="516.2"/>
	<line class="st3" x1="121" y1="565.2" x2="81.3" y2="496.4"/>
	<line class="st3" x1="121" y1="525.5" x2="108.4" y2="503.6"/>
	<line class="st3" x1="121" y1="505.6" x2="121" y2="565.2"/>
	<line class="st3" x1="130.9" y1="502.9" x2="130.9" y2="602.3"/>
	<line class="st3" x1="108.4" y1="424.2" x2="148.2" y2="493"/>
	<line class="st3" x1="81.3" y1="416.9" x2="130.9" y2="502.9"/>
	<line class="st3" x1="81.3" y1="436.8" x2="121" y2="505.6"/>
	<line class="st3" x1="130.9" y1="602.3" x2="148.2" y2="592.4"/>
	<line class="st3" x1="189.8" y1="406.2" x2="167.3" y2="367.2"/>
	<line class="st3" x1="148.2" y1="493" x2="148.2" y2="592.4"/>
	<line class="st3" x1="130.9" y1="502.9" x2="148.2" y2="493"/>
	<line class="st3" x1="199.8" y1="483.1" x2="160" y2="414.2"/>
	<line class="st3" x1="189.8" y1="446" x2="160" y2="394.4"/>
	<line class="st3" x1="160" y1="334.7" x2="189.8" y2="386.4"/>
	<line class="st3" x1="117" y1="518.6" x2="121" y2="516.2"/>
	<line class="st3" x1="167.3" y1="287.7" x2="217" y2="373.8"/>
	<line class="st3" x1="160" y1="314.9" x2="199.8" y2="383.7"/>
	<line class="st3" x1="81.3" y1="277.8" x2="121" y2="346.6"/>
	<line class="st3" x1="81.3" y1="257.9" x2="130.9" y2="344"/>
	<line class="st3" x1="130.9" y1="443.3" x2="81.3" y2="357.3"/>
	<line class="st3" x1="121" y1="406.2" x2="81.3" y2="337.4"/>
	<line class="st3" x1="108.4" y1="265.2" x2="148.2" y2="334"/>
	<line class="st3" x1="148.2" y1="500.6" x2="160" y2="493.7"/>
	<line class="st3" x1="121" y1="366.5" x2="108.4" y2="344.7"/>
	<line class="st3" x1="160" y1="493.7" x2="160" y2="473.8"/>
	<line class="st3" x1="108.4" y1="503.6" x2="117" y2="498.7"/>
	<line class="st3" x1="275.9" y1="237.3" x2="285.8" y2="254.5"/>
	<line class="st3" x1="142.8" y1="483.8" x2="160" y2="473.8"/>
	<line class="st3" x1="275.9" y1="237.3" x2="207.1" y2="277.1"/>
	<line class="st3" x1="81.3" y1="496.4" x2="107.1" y2="481.5"/>
	<line class="st3" x1="132.9" y1="466.6" x2="167.3" y2="446.7"/>
	<line class="st3" x1="258.7" y1="326.7" x2="258.7" y2="290.1"/>
	<line class="st3" x1="81.3" y1="496.4" x2="81.3" y2="516.2"/>
	<line class="st3" x1="268.6" y1="363.8" x2="268.6" y2="284.3"/>
	<line class="st3" x1="268.6" y1="284.3" x2="199.8" y2="324.1"/>
	<line class="st3" x1="285.8" y1="254.5" x2="199.8" y2="304.2"/>
	<line class="st3" x1="285.8" y1="353.9" x2="285.8" y2="254.5"/>
	<line class="st3" x1="160" y1="493.7" x2="199.8" y2="562.5"/>
	<line class="st3" x1="246.1" y1="205.6" x2="246.1" y2="254.5"/>
	<line class="st3" x1="199.8" y1="562.5" x2="199.8" y2="542.7"/>
	<line class="st3" x1="228.9" y1="195.6" x2="228.9" y2="264.5"/>
	<line class="st3" x1="160" y1="473.8" x2="199.8" y2="542.7"/>
	<line class="st3" x1="218.9" y1="178.4" x2="218.9" y2="270.2"/>
	<line class="st3" x1="167.3" y1="446.7" x2="207.1" y2="515.5"/>
	<line class="st3" x1="337.5" y1="463.2" x2="337.5" y2="403.6"/>
	<line class="st3" x1="287.8" y1="238" x2="287.8" y2="181.5"/>
	<line class="st3" x1="297.7" y1="235.4" x2="297.7" y2="175.8"/>
	<line class="st3" x1="314.9" y1="225.4" x2="314.9" y2="146"/>
	<line class="st3" x1="327.5" y1="446" x2="327.5" y2="409.3"/>
	<line class="st3" x1="218.2" y1="87" x2="218.2" y2="28.1"/>
	<line class="st3" x1="337.5" y1="463.2" x2="327.5" y2="446"/>
	<line class="st3" x1="235.4" y1="77.1" x2="235.4" y2="18.2"/>
	<line class="st3" x1="344.7" y1="356.6" x2="354.7" y2="373.8"/>
	<line class="st3" x1="354.7" y1="473.1" x2="354.7" y2="373.8"/>
	<line class="st3" x1="208.3" y1="92.8" x2="208.3" y2="10.9"/>
	<line class="st3" x1="268.6" y1="423.4" x2="218.9" y2="337.4"/>
	<line class="st3" x1="218.9" y1="337.4" x2="218.9" y2="357.3"/>
	<line class="st3" x1="268.6" y1="443.3" x2="218.9" y2="357.3"/>
	<line class="st3" x1="248" y1="149.3" x2="232.2" y2="121.8"/>
	<line class="st3" x1="268.6" y1="423.4" x2="268.6" y2="443.3"/>
	<line class="st3" x1="275.9" y1="396.3" x2="246.1" y2="344.7"/>
	<line class="st3" x1="287.8" y1="340.5" x2="287.8" y2="377.1"/>
	<line class="st3" x1="287.8" y1="377.1" x2="293.1" y2="386.4"/>
	<line class="st3" x1="297.7" y1="334.7" x2="297.7" y2="383.7"/>
	<line class="st3" x1="314.9" y1="304.9" x2="314.9" y2="373.8"/>
	<line class="st3" x1="244.8" y1="163.5" x2="223.6" y2="126.8"/>
	<line class="st3" x1="314.9" y1="304.9" x2="305" y2="287.7"/>
	<line class="st3" x1="236.1" y1="406.9" x2="217" y2="373.8"/>
	<line class="st3" x1="206.3" y1="136.7" x2="258" y2="106.9"/>
	<line class="st3" x1="228.9" y1="434.1" x2="217" y2="413.5"/>
	<line class="st3" x1="228.9" y1="454" x2="217" y2="433.4"/>
	<line class="st3" x1="189.1" y1="126.8" x2="179.2" y2="109.6"/>
	<line class="st3" x1="179.2" y1="109.6" x2="265.2" y2="59.9"/>
	<line class="st3" x1="275.2" y1="77.1" x2="265.2" y2="59.9"/>
	<line class="st3" x1="189.1" y1="126.8" x2="275.2" y2="77.1"/>
	<line class="st3" x1="149.4" y1="137.4" x2="166.6" y2="127.5"/>
	<line class="st3" x1="228.9" y1="434.1" x2="228.9" y2="454"/>
	<line class="st3" x1="166.6" y1="127.5" x2="179.2" y2="149.3"/>
	<line class="st3" x1="265.2" y1="218.9" x2="275.2" y2="236.1"/>
	<line class="st3" x1="149.4" y1="137.4" x2="179.2" y2="189.1"/>
	<line class="st3" x1="275.2" y1="237.7" x2="275.2" y2="236.1"/>
	<line class="st3" x1="139.5" y1="140.1" x2="189.1" y2="226.2"/>
	<line class="st3" x1="206.3" y1="216.2" x2="189.1" y2="226.2"/>
	<line class="st3" x1="150.1" y1="218.2" x2="139.5" y2="199.7"/>
	<line class="st3" x1="137.5" y1="156.6" x2="97.8" y2="87.8"/>
	<line class="st3" x1="139.5" y1="199.7" x2="139.5" y2="219.6"/>
	<line class="st3" x1="141.5" y1="223.1" x2="139.5" y2="219.6"/>
	<line class="st3" x1="101.8" y1="154.3" x2="70.6" y2="100.4"/>
	<line class="st3" x1="167.3" y1="208.2" x2="166.6" y2="207"/>
	<line class="st3" x1="70.6" y1="80.5" x2="70.6" y2="100.4"/>
	<line class="st3" x1="110.4" y1="149.3" x2="70.6" y2="80.5"/>
	<line class="st3" x1="51.5" y1="226.2" x2="51.5" y2="206.3"/>
	<line class="st3" x1="51.5" y1="206.3" x2="137.5" y2="156.6"/>
	<line class="st3" x1="137.5" y1="176.5" x2="137.5" y2="156.6"/>
	<line class="st3" x1="51.5" y1="226.2" x2="137.5" y2="176.5"/>
	<line class="st3" x1="208.3" y1="202.8" x2="208.3" y2="239.5"/>
	<line class="st3" x1="208.3" y1="239.5" x2="213.6" y2="248.7"/>
	<line class="st3" x1="218.2" y1="197.1" x2="218.2" y2="246"/>
	<line class="st3" x1="58.7" y1="179.1" x2="110.4" y2="149.3"/>
	<line class="st3" x1="11.7" y1="213.9" x2="19" y2="209.7"/>
	<line class="st3" x1="235.4" y1="167.2" x2="235.4" y2="168.9"/>
	<line class="st3" x1="235.4" y1="167.2" x2="225.5" y2="150"/>
	<line class="st3" x1="1.8" y1="120.2" x2="19" y2="110.3"/>
	<line class="st3" x1="1.8" y1="219.6" x2="1.8" y2="120.2"/>
	<line class="st3" x1="28.9" y1="207" x2="11.7" y2="216.9"/>
	<line class="st3" x1="11.7" y1="216.9" x2="11.7" y2="157.3"/>
	<line class="st3" x1="70.6" y1="319" x2="75.9" y2="328.2"/>
	<line class="st3" x1="70.6" y1="331.2" x2="70.6" y2="319"/>
	<line class="st3" x1="28.9" y1="207" x2="28.9" y2="187.1"/>
	<line class="st3" x1="101.8" y1="392.8" x2="58.7" y2="417.6"/>
	<line class="st3" x1="85.9" y1="285.8" x2="51.5" y2="305.6"/>
	<line class="st3" x1="81.3" y1="427.5" x2="51.5" y2="444.7"/>
	<line class="st3" x1="51.5" y1="285.8" x2="51.5" y2="305.6"/>
	<line class="st3" x1="81.3" y1="268.6" x2="51.5" y2="285.8"/>
	<line class="st3" x1="51.5" y1="444.7" x2="51.5" y2="464.6"/>
	<line class="st3" x1="85.9" y1="444.7" x2="51.5" y2="464.6"/>
	<line class="st3" x1="110.4" y1="228.8" x2="58.7" y2="258.6"/>
	<line class="st3" x1="28.9" y1="366" x2="28.9" y2="346.1"/>
	<line class="st3" x1="11.7" y1="375.9" x2="11.7" y2="316.3"/>
	<line class="st3" x1="28.9" y1="366" x2="11.7" y2="375.9"/>
	<line class="st3" x1="1.8" y1="378.6" x2="1.8" y2="279.2"/>
	<line class="st3" x1="80.5" y1="246" x2="80.5" y2="209.4"/>
	<line class="st3" x1="1.8" y1="279.2" x2="19" y2="269.3"/>
	<line class="st3" x1="354.7" y1="224.7" x2="337.5" y2="234.7"/>
	<line class="st3" x1="11.7" y1="372.8" x2="19" y2="368.6"/>
	<line class="st3" x1="97.8" y1="236.1" x2="97.8" y2="226.9"/>
	<line class="st3" x1="58.7" y1="338.1" x2="101.8" y2="313.3"/>
	<line class="st3" x1="51.5" y1="385.1" x2="85.9" y2="365.3"/>
	<line class="st3" x1="51.5" y1="365.3" x2="81.3" y2="348"/>
	<line class="st3" x1="70.6" y1="160" x2="87.8" y2="150"/>
	<line class="st3" x1="70.6" y1="172.3" x2="70.6" y2="160"/>
	<line class="st3" x1="51.5" y1="385.1" x2="51.5" y2="365.3"/>
	<line class="st3" x1="70.6" y1="251.8" x2="70.6" y2="215.1"/>
</g>
</svg>
