<?xml version="1.0" encoding="utf-8"?>
<!-- Generator: Adobe Illustrator 21.0.2, SVG Export Plug-In . SVG Version: 6.00 Build 0)  -->
<svg version="1.1" xmlns="http://www.w3.org/2000/svg" xmlns:xlink="http://www.w3.org/1999/xlink" x="0px" y="0px"
	 viewBox="0 0 356.1 615.3" style="enable-background:new 0 0 356.1 615.3;" xml:space="preserve">
<style type="text/css">
	.st0{display:none;}
	.st1{display:inline;}
	.st2{fill:none;stroke:#000000;stroke-width:0.5;stroke-miterlimit:10;}
	.st3{fill:none;stroke:#000000;stroke-width:2;stroke-linecap:round;stroke-linejoin:round;}
	.st4{fill:none;stroke:#000000;stroke-width:0.5;stroke-linecap:round;stroke-linejoin:round;}
</style>
<g id="Layer_1" class="st0">
	<g id="Make2D::hidden::lines" class="st1">
		<line class="st2" x1="274.5" y1="215.4" x2="311.9" y2="193.8"/>
		<line class="st2" x1="311.9" y1="193.8" x2="311.9" y2="150.6"/>
		<line class="st2" x1="231.3" y1="140.6" x2="231.3" y2="97.4"/>
		<line class="st2" x1="250" y1="129.8" x2="231.3" y2="140.6"/>
		<line class="st2" x1="274.5" y1="215.4" x2="274.5" y2="172.2"/>
		<line class="st2" x1="225.5" y1="130.6" x2="188.1" y2="152.2"/>
		<line class="st2" x1="231.3" y1="140.6" x2="225.5" y2="130.6"/>
		<line class="st2" x1="336.4" y1="365.9" x2="333.5" y2="360.9"/>
		<line class="st2" x1="140.6" y1="242.8" x2="140.6" y2="199.6"/>
		<line class="st2" x1="333.5" y1="360.9" x2="296.1" y2="382.5"/>
		<line class="st2" x1="296.1" y1="382.5" x2="317.7" y2="419.9"/>
		<line class="st2" x1="119" y1="205.4" x2="119" y2="162.2"/>
		<line class="st2" x1="119" y1="205.4" x2="140.6" y2="242.8"/>
		<line class="st2" x1="137.7" y1="194.6" x2="119" y2="205.4"/>
		<line class="st2" x1="296.1" y1="382.5" x2="296.1" y2="339.3"/>
		<line class="st2" x1="333.5" y1="360.9" x2="333.5" y2="317.7"/>
		<line class="st2" x1="178" y1="221.2" x2="159.3" y2="188.8"/>
		<line class="st2" x1="140.6" y1="242.8" x2="178" y2="221.2"/>
		<line class="st2" x1="296.1" y1="339.3" x2="317.7" y2="376.7"/>
		<line class="st2" x1="81.6" y1="313.4" x2="44.2" y2="335"/>
		<line class="st2" x1="355.1" y1="355.1" x2="333.5" y2="317.7"/>
		<line class="st2" x1="103.2" y1="350.8" x2="81.6" y2="313.4"/>
		<line class="st2" x1="81.6" y1="356.6" x2="81.6" y2="313.4"/>
		<line class="st2" x1="333.5" y1="317.7" x2="296.1" y2="339.3"/>
		<line class="st2" x1="81.6" y1="356.6" x2="62.9" y2="367.4"/>
		<line class="st2" x1="103.2" y1="394" x2="81.6" y2="356.6"/>
		<line class="st2" x1="178" y1="221.2" x2="178" y2="178"/>
		<line class="st2" x1="209.7" y1="189.6" x2="247.1" y2="168"/>
		<line class="st2" x1="247.1" y1="211.2" x2="247.1" y2="168"/>
		<line class="st2" x1="188.1" y1="195.4" x2="188.1" y2="152.2"/>
		<line class="st2" x1="188.1" y1="152.2" x2="209.7" y2="189.6"/>
		<line class="st2" x1="209.7" y1="232.8" x2="209.7" y2="189.6"/>
		<line class="st2" x1="209.7" y1="232.8" x2="247.1" y2="211.2"/>
		<line class="st2" x1="188.1" y1="195.4" x2="209.7" y2="232.8"/>
		<line class="st2" x1="225.5" y1="173.8" x2="188.1" y2="195.4"/>
		<line class="st2" x1="247.1" y1="211.2" x2="225.5" y2="173.8"/>
		<line class="st2" x1="146.4" y1="425.7" x2="109" y2="447.3"/>
		<line class="st2" x1="225.5" y1="260.2" x2="225.5" y2="173.8"/>
		<line class="st2" x1="225.5" y1="260.2" x2="1" y2="389.8"/>
		<line class="st2" x1="168" y1="463.1" x2="146.4" y2="425.7"/>
		<line class="st2" x1="146.4" y1="468.9" x2="146.4" y2="425.7"/>
		<line class="st2" x1="225.5" y1="130.6" x2="225.5" y2="1"/>
		<line class="st2" x1="146.4" y1="468.9" x2="127.7" y2="479.7"/>
		<line class="st2" x1="149.3" y1="473.9" x2="146.4" y2="468.9"/>
		<line class="st2" x1="311.9" y1="193.8" x2="293.2" y2="161.4"/>
		<line class="st2" x1="231.3" y1="140.6" x2="274.5" y2="215.4"/>
		<line class="st2" x1="355.1" y1="484.7" x2="317.7" y2="419.9"/>
		<line class="st2" x1="103.2" y1="394" x2="103.2" y2="350.8"/>
		<line class="st2" x1="103.2" y1="350.8" x2="65.8" y2="372.4"/>
		<line class="st2" x1="296.1" y1="382.5" x2="225.5" y2="260.2"/>
		<line class="st2" x1="65.8" y1="415.6" x2="103.2" y2="394"/>
	</g>
	<g id="Make2D::visible::lines" class="st1">
		<line class="st3" x1="1" y1="389.8" x2="130.6" y2="614.3"/>
		<line class="st3" x1="65.8" y1="415.6" x2="65.8" y2="372.4"/>
		<line class="st3" x1="109" y1="490.5" x2="130.6" y2="527.9"/>
		<line class="st3" x1="355.1" y1="355.1" x2="355.1" y2="225.5"/>
		<line class="st3" x1="355.1" y1="484.7" x2="355.1" y2="398.3"/>
		<line class="st3" x1="130.6" y1="614.3" x2="355.1" y2="484.7"/>
		<line class="st3" x1="130.6" y1="614.3" x2="130.6" y2="527.9"/>
		<line class="st3" x1="130.6" y1="484.7" x2="130.6" y2="398.3"/>
		<line class="st3" x1="1" y1="130.6" x2="109" y2="317.7"/>
		<line class="st3" x1="268.7" y1="75.8" x2="225.5" y2="1"/>
		<line class="st3" x1="355.1" y1="225.5" x2="311.9" y2="150.6"/>
		<line class="st3" x1="168" y1="333.5" x2="355.1" y2="225.5"/>
		<line class="st3" x1="231.3" y1="97.4" x2="274.5" y2="172.2"/>
		<line class="st3" x1="130.6" y1="527.9" x2="168" y2="506.3"/>
		<line class="st3" x1="293.2" y1="161.4" x2="268.7" y2="119"/>
		<line class="st3" x1="168" y1="506.3" x2="149.3" y2="473.9"/>
		<line class="st3" x1="127.7" y1="479.7" x2="109" y2="490.5"/>
		<line class="st3" x1="225.5" y1="1" x2="1" y2="130.6"/>
		<line class="st3" x1="1" y1="389.8" x2="1" y2="130.6"/>
		<line class="st3" x1="168" y1="506.3" x2="168" y2="463.1"/>
		<line class="st3" x1="109" y1="490.5" x2="109" y2="447.3"/>
		<line class="st3" x1="156.4" y1="140.6" x2="178" y2="178"/>
		<line class="st3" x1="44.2" y1="378.2" x2="65.8" y2="415.6"/>
		<line class="st3" x1="62.9" y1="367.4" x2="44.2" y2="378.2"/>
		<line class="st3" x1="44.2" y1="378.2" x2="44.2" y2="335"/>
		<line class="st3" x1="317.7" y1="376.7" x2="355.1" y2="355.1"/>
		<line class="st3" x1="44.2" y1="335" x2="65.8" y2="372.4"/>
		<line class="st3" x1="317.7" y1="419.9" x2="317.7" y2="376.7"/>
		<line class="st3" x1="159.3" y1="188.8" x2="156.4" y2="183.8"/>
		<line class="st3" x1="156.4" y1="183.8" x2="137.7" y2="194.6"/>
		<line class="st3" x1="156.4" y1="140.6" x2="119" y2="162.2"/>
		<line class="st3" x1="156.4" y1="140.6" x2="156.4" y2="183.8"/>
		<line class="st3" x1="119" y1="162.2" x2="140.6" y2="199.6"/>
		<line class="st3" x1="355.1" y1="398.3" x2="336.4" y2="365.9"/>
		<line class="st3" x1="317.7" y1="419.9" x2="355.1" y2="398.3"/>
		<line class="st3" x1="146.4" y1="296.1" x2="109" y2="317.7"/>
		<line class="st3" x1="109" y1="360.9" x2="109" y2="317.7"/>
		<line class="st3" x1="168" y1="376.7" x2="168" y2="333.5"/>
		<line class="st3" x1="168" y1="333.5" x2="146.4" y2="296.1"/>
		<line class="st3" x1="146.4" y1="339.3" x2="146.4" y2="296.1"/>
		<line class="st3" x1="146.4" y1="339.3" x2="109" y2="360.9"/>
		<line class="st3" x1="168" y1="376.7" x2="146.4" y2="339.3"/>
		<line class="st3" x1="130.6" y1="398.3" x2="168" y2="376.7"/>
		<line class="st3" x1="109" y1="360.9" x2="130.6" y2="398.3"/>
		<line class="st3" x1="178" y1="178" x2="140.6" y2="199.6"/>
		<line class="st3" x1="130.6" y1="484.7" x2="168" y2="463.1"/>
		<line class="st3" x1="109" y1="447.3" x2="130.6" y2="484.7"/>
		<line class="st3" x1="268.7" y1="119" x2="250" y2="129.8"/>
		<line class="st3" x1="274.5" y1="172.2" x2="311.9" y2="150.6"/>
		<line class="st3" x1="268.7" y1="75.8" x2="231.3" y2="97.4"/>
		<line class="st3" x1="268.7" y1="119" x2="268.7" y2="75.8"/>
	</g>
</g>
<g id="Layer_2">
	<line class="st4" x1="124.6" y1="321.2" x2="148.4" y2="404.3"/>
	<line class="st4" x1="179.8" y1="239.7" x2="179.8" y2="249"/>
	<line class="st4" x1="179.8" y1="238.5" x2="179.8" y2="238.7"/>
	<path class="st4" d="M179.8,249c-3.1,0.5-6.2,1.1-9.4,1.6"/>
	<line class="st4" x1="170.4" y1="250.7" x2="170.4" y2="239.8"/>
	<path class="st4" d="M170.4,239.8c3.1-0.5,6.2-0.9,9.4-1.3"/>
	<line class="st4" x1="207.7" y1="211" x2="124.6" y2="234.8"/>
	<line class="st4" x1="124.6" y1="321.2" x2="124.6" y2="234.8"/>
	<line class="st4" x1="207.7" y1="297.4" x2="124.6" y2="321.2"/>
	<line class="st4" x1="231.5" y1="380.5" x2="231.5" y2="294.1"/>
	<line class="st4" x1="231.5" y1="294.1" x2="207.7" y2="211"/>
	<line class="st4" x1="207.7" y1="297.4" x2="207.7" y2="211"/>
	<line class="st4" x1="231.5" y1="380.5" x2="207.7" y2="297.4"/>
	<path class="st4" d="M169.1,292.6c0,0,0,0.1,0,0.1"/>
	<path class="st4" d="M170.2,292.1c0,0.2,0,0.3-0.1,0.5"/>
	<path class="st4" d="M170.6,287.9c0,0.2,0,0.4-0.1,0.6"/>
	<path class="st4" d="M174.7,289.5C174.7,289.5,174.7,289.5,174.7,289.5"/>
	<path class="st4" d="M176.4,288.5c0,0.2-0.1,0.4-0.1,0.5"/>
	<line class="st4" x1="171.6" y1="321.2" x2="209" y2="299.6"/>
	<line class="st4" x1="168.5" y1="358.8" x2="206" y2="337.2"/>
	<line class="st4" x1="150.2" y1="278.1" x2="171.6" y2="321.2"/>
	<line class="st4" x1="168.5" y1="358.8" x2="171.6" y2="321.2"/>
	<line class="st4" x1="147.2" y1="315.7" x2="168.5" y2="358.8"/>
	<path class="st4" d="M177.6,273.5c0.1,2,0.2,3.9,0.3,5.9"/>
	<line class="st4" x1="177.9" y1="279.4" x2="170.9" y2="283.4"/>
	<path class="st4" d="M170.9,283.4c0-2-0.1-4-0.1-6"/>
	<line class="st4" x1="170.8" y1="277.4" x2="177.6" y2="273.5"/>
	<line class="st4" x1="187.6" y1="256.5" x2="150.2" y2="278.1"/>
	<line class="st4" x1="147.2" y1="315.7" x2="150.2" y2="278.1"/>
	<line class="st4" x1="184.6" y1="294.1" x2="147.2" y2="315.7"/>
	<line class="st4" x1="206" y1="337.2" x2="209" y2="299.6"/>
	<line class="st4" x1="209" y1="299.6" x2="187.6" y2="256.5"/>
	<line class="st4" x1="184.6" y1="294.1" x2="187.6" y2="256.5"/>
	<line class="st4" x1="206" y1="337.2" x2="184.6" y2="294.1"/>
	<path class="st4" d="M170.9,274.2c0,0.2,0,0.4,0,0.6"/>
	<path class="st4" d="M171.2,266.8c0,0.3,0,0.6,0,0.9"/>
	<path class="st4" d="M170.6,254.1c0,0.9,0.1,1.7,0.1,2.6"/>
	<path class="st4" d="M179.7,242.3c0-1.1,0-2.1,0-3.2"/>
	<path class="st4" d="M174.7,289.5C174.7,289.4,174.7,289.4,174.7,289.5"/>
	<path class="st4" d="M179.8,249c0,1.2,0,2.3-0.1,3.5"/>
	<path class="st4" d="M179.7,236.7c0,0.1,0,0.2,0,0.2"/>
	<line class="st4" x1="157.6" y1="344" x2="269.8" y2="279.2"/>
	<line class="st4" x1="150.8" y1="461.2" x2="263" y2="396.4"/>
	<line class="st4" x1="93.1" y1="218.9" x2="157.6" y2="344"/>
	<line class="st4" x1="150.8" y1="461.2" x2="157.6" y2="344"/>
	<line class="st4" x1="86.3" y1="336" x2="150.8" y2="461.2"/>
	<path class="st4" d="M178.8,200.7c0,3.7-0.1,7.4-0.1,11.1"/>
	<line class="st4" x1="178.7" y1="211.8" x2="167.3" y2="218.3"/>
	<path class="st4" d="M167.3,218.3c0.1-3.7,0.1-7.4,0.2-11.1"/>
	<line class="st4" x1="167.6" y1="207.2" x2="178.8" y2="200.7"/>
	<line class="st4" x1="205.3" y1="154.1" x2="93.1" y2="218.9"/>
	<line class="st4" x1="86.3" y1="336" x2="93.1" y2="218.9"/>
	<line class="st4" x1="198.6" y1="271.2" x2="86.3" y2="336"/>
	<line class="st4" x1="263" y1="396.4" x2="269.8" y2="279.2"/>
	<line class="st4" x1="269.8" y1="279.2" x2="205.3" y2="154.1"/>
	<line class="st4" x1="198.6" y1="271.2" x2="205.3" y2="154.1"/>
	<line class="st4" x1="263" y1="396.4" x2="198.6" y2="271.2"/>
	<path class="st4" d="M171.2,266.1c0,0.6,0,1.2,0,1.9"/>
	<path class="st4" d="M170.8,248.2c0.1,1.5,0.1,3,0.2,4.5"/>
	<path class="st4" d="M170.6,243.6c0.1,1.4,0.1,2.8,0.2,4.2"/>
	<path class="st4" d="M169.3,225.1c0.1,1.5,0.2,2.9,0.4,4.4"/>
	<path class="st4" d="M168.8,219.7c0.2,1.6,0.3,3.3,0.4,4.9"/>
	<path class="st4" d="M168.3,214.6c0.2,1.5,0.3,3,0.4,4.5"/>
	<path class="st4" d="M171.2,268.6c0,0.5,0,1,0,1.5"/>
	<path class="st4" d="M170.8,258.1c0.1,1.3,0.1,2.6,0.2,3.9"/>
	<path class="st4" d="M170.8,256.6c0,0.4,0,0.8,0.1,1.2"/>
	<path class="st4" d="M170.6,253.6c0,0.2,0,0.3,0,0.5"/>
	<path class="st4" d="M170.3,249.2c0.1,1.3,0.2,2.6,0.2,3.8"/>
	<path class="st4" d="M168.8,231.4c0.1,1.4,0.3,2.8,0.4,4.2"/>
	<path class="st4" d="M168.2,226.1c0.2,1.6,0.3,3.2,0.5,4.8"/>
	<path class="st4" d="M167.9,223c0.1,0.9,0.2,1.8,0.3,2.7"/>
	<path class="st4" d="M179.4,213c-0.1-1.5-0.1-3.1-0.2-4.6"/>
	<path class="st4" d="M179.6,218.7c0-1.7-0.1-3.4-0.2-5.1"/>
	<path class="st4" d="M179.7,223.7c0-1.5-0.1-3-0.1-4.5"/>
	<path class="st4" d="M179.8,238.5c0,0,0-0.1,0-0.1"/>
	<path class="st4" d="M179.8,239.1c0-0.1,0-0.2,0-0.4"/>
	<path class="st4" d="M179.7,242.8c0-0.2,0-0.3,0-0.5"/>
	<path class="st4" d="M178,270.7C178,270.6,178,270.6,178,270.7"/>
	<path class="st4" d="M179.7,252.5c0,0.1,0,0.1,0,0.2"/>
	<path class="st4" d="M179.7,236.9c0,0.7,0,1.4,0,2.2"/>
	<path class="st4" d="M179.4,225.3c0.1,1.5,0.1,2.9,0.2,4.4"/>
	<path class="st4" d="M179.1,219.8c0.1,1.6,0.1,3.3,0.2,4.9"/>
	<path class="st4" d="M178.9,214.9c0.1,1.5,0.2,3,0.2,4.5"/>
	<line class="st4" x1="130.3" y1="333.7" x2="290.5" y2="269"/>
	<line class="st4" x1="130.3" y1="506.5" x2="290.5" y2="441.8"/>
	<line class="st4" x1="65.6" y1="173.5" x2="130.3" y2="333.7"/>
	<line class="st4" x1="130.3" y1="506.5" x2="130.3" y2="333.7"/>
	<line class="st4" x1="65.6" y1="346.3" x2="130.3" y2="506.5"/>
	<line class="st4" x1="176.9" y1="170.6" x2="176.9" y2="185.4"/>
	<path class="st4" d="M176.9,185.4c-4.4,1.6-8.8,3.1-13.2,4.7"/>
	<line class="st4" x1="163.6" y1="190.1" x2="163.6" y2="175.1"/>
	<line class="st4" x1="148.4" y1="404.3" x2="148.4" y2="317.9"/>
	<line class="st4" x1="225.8" y1="108.8" x2="65.6" y2="173.5"/>
	<line class="st4" x1="65.6" y1="346.3" x2="65.6" y2="173.5"/>
	<line class="st4" x1="225.8" y1="281.6" x2="65.6" y2="346.3"/>
	<line class="st4" x1="290.5" y1="441.8" x2="290.5" y2="269"/>
	<line class="st4" x1="290.5" y1="269" x2="225.8" y2="108.8"/>
	<line class="st4" x1="225.8" y1="281.6" x2="225.8" y2="108.8"/>
	<line class="st4" x1="290.5" y1="441.8" x2="225.8" y2="281.6"/>
	<path class="st4" d="M169.1,292.8c-0.1,0.6-0.2,1.3-0.3,1.9"/>
	<path class="st4" d="M170.8,277.3c-0.3,5.1-0.8,10.2-1.7,15.3"/>
	<path class="st4" d="M171,252.7c0,0.2,0,0.4,0,0.6"/>
	<path class="st4" d="M170.8,247.9c0,0.1,0,0.2,0,0.3"/>
	<path class="st4" d="M169.7,229.5c0.4,4.7,0.7,9.4,0.9,14.2"/>
	<path class="st4" d="M169.3,224.6c0,0.2,0,0.3,0,0.5"/>
	<path class="st4" d="M168.8,219.1c0,0.2,0,0.3,0,0.5"/>
	<path class="st4" d="M164,177.9c1.6,12.2,3.1,24.5,4.3,36.7"/>
	<path class="st4" d="M159.3,144.8c0.7,4.5,1.3,9.1,2,13.6"/>
	<path class="st4" d="M169.9,294c-0.3,2.3-0.7,4.6-1.2,6.9"/>
	<path class="st4" d="M170.1,292.7c0,0.4-0.1,0.7-0.1,1.1"/>
	<path class="st4" d="M170.3,291.1c0,0.3-0.1,0.5-0.1,0.8"/>
	<path class="st4" d="M170.5,288.5c0,0.5-0.1,0.9-0.1,1.4"/>
	<path class="st4" d="M170.6,287.5c0,0.1,0,0.2,0,0.3"/>
	<path class="st4" d="M170.8,285c-0.1,0.8-0.1,1.6-0.2,2.3"/>
	<path class="st4" d="M171.2,268.6c0,0.5,0,1,0,1.6"/>
	<path class="st4" d="M171,262c0,0.4,0,0.7,0,1.1"/>
	<path class="st4" d="M170.8,257.8c0,0.1,0,0.2,0,0.3"/>
	<path class="st4" d="M170.6,253c0,0.2,0,0.4,0,0.5"/>
	<path class="st4" d="M169.2,235.6c0.4,4.5,0.8,9.1,1.1,13.6"/>
	<path class="st4" d="M168.7,230.9c0,0.2,0,0.3,0,0.5"/>
	<path class="st4" d="M168.2,225.7c0,0.1,0,0.3,0,0.4"/>
	<path class="st4" d="M163.8,191.2c1.5,10.6,2.9,21.1,4.1,31.7"/>
	<path class="st4" d="M159,159.7c0.9,5.9,1.8,11.9,2.7,17.8"/>
	<path class="st4" d="M175.5,153.8c-0.5-5.8-1-11.6-1.6-17.4"/>
	<path class="st4" d="M179.2,208.4c-0.6-12.6-1.3-25.3-2.3-37.9"/>
	<path class="st4" d="M179.4,213.6c0-0.2,0-0.4,0-0.5"/>
	<path class="st4" d="M179.6,219.2c0-0.2,0-0.3,0-0.5"/>
	<path class="st4" d="M179.8,238.4c0-4.9,0-9.8-0.1-14.7"/>
	<path class="st4" d="M178,270.6c0-0.4,0.1-0.9,0.1-1.3"/>
	<path class="st4" d="M174.8,289.4c1.4-6.2,2.5-12.3,3.2-18.6"/>
	<path class="st4" d="M174.2,291.6c0.2-0.7,0.3-1.4,0.5-2"/>
	<path class="st4" d="M176.3,289.1c-0.6,3-1.3,5.9-2.1,8.8"/>
	<path class="st4" d="M178.2,277.3c-0.4,3.6-1,7.3-1.7,10.9"/>
	<path class="st4" d="M179.7,252.7c0,0.1,0,0.2,0,0.3"/>
	<path class="st4" d="M179.5,229.6c0.1,2.4,0.1,4.7,0.2,7.1"/>
	<path class="st4" d="M179.4,224.8c0,0.2,0,0.3,0,0.5"/>
	<path class="st4" d="M179.1,219.4c0,0.2,0,0.3,0,0.5"/>
	<path class="st4" d="M176.7,183.7c0.9,10.4,1.6,20.7,2.2,31.1"/>
	<path class="st4" d="M173.7,151.2c0.6,6.1,1.2,12.2,1.8,18.4"/>
	<line class="st4" x1="143" y1="364.8" x2="330.1" y2="256.8"/>
	<line class="st4" x1="133.6" y1="563.7" x2="320.7" y2="455.7"/>
	<line class="st4" x1="35.4" y1="159.6" x2="143" y2="364.8"/>
	<line class="st4" x1="133.6" y1="563.7" x2="143" y2="364.8"/>
	<line class="st4" x1="26" y1="358.5" x2="133.6" y2="563.7"/>
	<path class="st4" d="M173.9,136.4c-0.1,4.9-0.1,9.9-0.2,14.8"/>
	<line class="st4" x1="173.7" y1="151.2" x2="159" y2="159.7"/>
	<path class="st4" d="M159,159.7c0.1-5,0.2-9.9,0.3-14.9"/>
	<line class="st4" x1="159.3" y1="144.8" x2="173.9" y2="136.4"/>
	<line class="st4" x1="222.5" y1="51.6" x2="35.4" y2="159.6"/>
	<line class="st4" x1="26" y1="358.5" x2="35.4" y2="159.6"/>
	<line class="st4" x1="213.1" y1="250.5" x2="26" y2="358.5"/>
	<line class="st4" x1="320.7" y1="455.7" x2="330.1" y2="256.8"/>
	<line class="st4" x1="330.1" y1="256.8" x2="222.5" y2="51.6"/>
	<line class="st4" x1="213.1" y1="250.5" x2="222.5" y2="51.6"/>
	<line class="st4" x1="320.7" y1="455.7" x2="213.1" y2="250.5"/>
	<line class="st4" x1="174.2" y1="291.6" x2="168.8" y2="294.7"/>
	<line class="st4" x1="168.8" y1="294.7" x2="168.8" y2="301"/>
	<path class="st4" d="M170.9,274.8c0,0.8-0.1,1.6-0.1,2.5"/>
	<path class="st4" d="M171,253.3c0.2,7,0.2,14-0.1,21"/>
	<path class="st4" d="M161.3,158.4c0.9,6.5,1.8,13,2.7,19.5"/>
	<path class="st4" d="M153.8,107.6c1.9,12.4,3.7,24.8,5.5,37.2"/>
	<line class="st4" x1="168.8" y1="301" x2="174.2" y2="297.8"/>
	<path class="st4" d="M170,293.8c0,0.1,0,0.2,0,0.3"/>
	<path class="st4" d="M170.2,291.8c0,0.1,0,0.2,0,0.3"/>
	<path class="st4" d="M171.2,272.2c0,4.3-0.1,8.5-0.4,12.8"/>
	<path class="st4" d="M171.1,268c0,0.7,0,1.4,0,2.1"/>
	<path class="st4" d="M171,263.1c0,1.5,0.1,2.9,0.1,4.4"/>
	<path class="st4" d="M161.8,177.5c0.7,4.6,1.4,9.1,2,13.7"/>
	<path class="st4" d="M153.8,126.6c1.8,11,3.5,22.1,5.2,33.1"/>
	<path class="st4" d="M173.9,136.4c-1.2-12.8-2.4-25.5-3.6-38.3"/>
	<path class="st4" d="M176.8,170.5c-0.4-5.6-0.9-11.1-1.4-16.7"/>
	<path class="st4" d="M178.1,269.3c1-8.8,1.4-17.7,1.6-26.6"/>
	<line class="st4" x1="174.2" y1="297.8" x2="174.2" y2="291.6"/>
	<path class="st4" d="M176.5,288.2c0,0.1,0,0.2-0.1,0.3"/>
	<path class="st4" d="M179.7,253c-0.2,8.1-0.6,16.2-1.6,24.3"/>
	<path class="st4" d="M179.7,236.7c0,1,0,2,0,3"/>
	<path class="st4" d="M175.5,169.6c0.4,4.7,0.8,9.4,1.2,14.2"/>
	<path class="st4" d="M170.3,117.1c1.2,11.4,2.3,22.7,3.4,34.1"/>
	<line class="st4" x1="124.6" y1="234.8" x2="148.4" y2="317.9"/>
	<line class="st4" x1="148.4" y1="404.3" x2="231.5" y2="380.5"/>
	<line class="st4" x1="148.4" y1="317.9" x2="231.5" y2="294.1"/>
	<path class="st4" d="M178,270.8c0,0,0-0.1,0-0.1"/>
	<path class="st4" d="M170.6,287.4c0,0.1,0,0.1,0,0.2"/>
	<line class="st4" x1="170.3" y1="98.1" x2="170.3" y2="117.1"/>
	<line class="st4" x1="170.3" y1="117.1" x2="153.8" y2="126.6"/>
	<line class="st4" x1="153.8" y1="126.6" x2="153.8" y2="107.6"/>
	<line class="st4" x1="153.8" y1="107.6" x2="170.3" y2="98.1"/>
	<path class="st4" d="M170.4,289.9c0,0.4-0.1,0.8-0.1,1.2"/>
	<line class="st4" x1="179.8" y1="238.5" x2="179.8" y2="241.7"/>
	<line class="st4" x1="225.5" y1="260.2" x2="1" y2="389.8"/>
	<path class="st4" d="M163.6,175.1c4.4-1.5,8.8-3,13.2-4.5"/>
	<line class="st4" x1="171.2" y1="266.4" x2="171.2" y2="272.2"/>
	<line class="st4" x1="225.5" y1="260.2" x2="225.5" y2="1"/>
	<line class="st4" x1="355.1" y1="484.7" x2="225.5" y2="260.2"/>
	<line class="st3" x1="355.1" y1="225.5" x2="225.5" y2="1"/>
	<line class="st3" x1="1" y1="389.8" x2="1" y2="130.6"/>
	<line class="st3" x1="225.5" y1="1" x2="1" y2="130.6"/>
	<line class="st3" x1="1" y1="389.8" x2="130.6" y2="614.3"/>
	<line class="st3" x1="130.6" y1="614.3" x2="130.6" y2="355.1"/>
	<line class="st3" x1="1" y1="130.6" x2="130.6" y2="355.1"/>
	<line class="st3" x1="130.6" y1="614.3" x2="355.1" y2="484.7"/>
	<line class="st3" x1="130.6" y1="355.1" x2="355.1" y2="225.5"/>
	<line class="st3" x1="355.1" y1="484.7" x2="355.1" y2="225.5"/>
</g>
</svg>
