<?xml version="1.0" encoding="utf-8"?>
<!-- Generator: Adobe Illustrator 21.0.2, SVG Export Plug-In . SVG Version: 6.00 Build 0)  -->
<svg version="1.1" xmlns="http://www.w3.org/2000/svg" xmlns:xlink="http://www.w3.org/1999/xlink" x="0px" y="0px"
	 viewBox="0 0 356.1 615.3" style="enable-background:new 0 0 356.1 615.3;" xml:space="preserve">
<style type="text/css">
	.st0{display:none;}
	.st1{display:inline;}
	.st2{fill:none;stroke:#000000;stroke-width:0.5;stroke-miterlimit:10;}
	.st3{fill:none;stroke:#000000;stroke-width:2;stroke-linecap:round;stroke-linejoin:round;}
	.st4{fill:none;stroke:#000000;stroke-width:0.5;stroke-linecap:round;stroke-linejoin:round;}
</style>
<g id="Layer_1" class="st0">
	<g id="Make2D::hidden::lines" class="st1">
		<line class="st2" x1="274.5" y1="215.4" x2="311.9" y2="193.8"/>
		<line class="st2" x1="311.9" y1="193.8" x2="311.9" y2="150.6"/>
		<line class="st2" x1="231.3" y1="140.6" x2="231.3" y2="97.4"/>
		<line class="st2" x1="250" y1="129.8" x2="231.3" y2="140.6"/>
		<line class="st2" x1="274.5" y1="215.4" x2="274.5" y2="172.2"/>
		<line class="st2" x1="225.5" y1="130.6" x2="188.1" y2="152.2"/>
		<line class="st2" x1="231.3" y1="140.6" x2="225.5" y2="130.6"/>
		<line class="st2" x1="336.4" y1="365.9" x2="333.5" y2="360.9"/>
		<line class="st2" x1="140.6" y1="242.8" x2="140.6" y2="199.6"/>
		<line class="st2" x1="333.5" y1="360.9" x2="296.1" y2="382.5"/>
		<line class="st2" x1="296.1" y1="382.5" x2="317.7" y2="419.9"/>
		<line class="st2" x1="119" y1="205.4" x2="119" y2="162.2"/>
		<line class="st2" x1="119" y1="205.4" x2="140.6" y2="242.8"/>
		<line class="st2" x1="137.7" y1="194.6" x2="119" y2="205.4"/>
		<line class="st2" x1="296.1" y1="382.5" x2="296.1" y2="339.3"/>
		<line class="st2" x1="333.5" y1="360.9" x2="333.5" y2="317.7"/>
		<line class="st2" x1="178" y1="221.2" x2="159.3" y2="188.8"/>
		<line class="st2" x1="140.6" y1="242.8" x2="178" y2="221.2"/>
		<line class="st2" x1="296.1" y1="339.3" x2="317.7" y2="376.7"/>
		<line class="st2" x1="81.6" y1="313.4" x2="44.2" y2="335"/>
		<line class="st2" x1="355.1" y1="355.1" x2="333.5" y2="317.7"/>
		<line class="st2" x1="103.2" y1="350.8" x2="81.6" y2="313.4"/>
		<line class="st2" x1="81.6" y1="356.6" x2="81.6" y2="313.4"/>
		<line class="st2" x1="333.5" y1="317.7" x2="296.1" y2="339.3"/>
		<line class="st2" x1="81.6" y1="356.6" x2="62.9" y2="367.4"/>
		<line class="st2" x1="103.2" y1="394" x2="81.6" y2="356.6"/>
		<line class="st2" x1="178" y1="221.2" x2="178" y2="178"/>
		<line class="st2" x1="209.7" y1="189.6" x2="247.1" y2="168"/>
		<line class="st2" x1="247.1" y1="211.2" x2="247.1" y2="168"/>
		<line class="st2" x1="188.1" y1="195.4" x2="188.1" y2="152.2"/>
		<line class="st2" x1="188.1" y1="152.2" x2="209.7" y2="189.6"/>
		<line class="st2" x1="209.7" y1="232.8" x2="209.7" y2="189.6"/>
		<line class="st2" x1="209.7" y1="232.8" x2="247.1" y2="211.2"/>
		<line class="st2" x1="188.1" y1="195.4" x2="209.7" y2="232.8"/>
		<line class="st2" x1="225.5" y1="173.8" x2="188.1" y2="195.4"/>
		<line class="st2" x1="247.1" y1="211.2" x2="225.5" y2="173.8"/>
		<line class="st2" x1="146.4" y1="425.7" x2="109" y2="447.3"/>
		<line class="st2" x1="225.5" y1="260.2" x2="225.5" y2="173.8"/>
		<line class="st2" x1="225.5" y1="260.2" x2="1" y2="389.8"/>
		<line class="st2" x1="168" y1="463.1" x2="146.4" y2="425.7"/>
		<line class="st2" x1="146.4" y1="468.9" x2="146.4" y2="425.7"/>
		<line class="st2" x1="225.5" y1="130.6" x2="225.5" y2="1"/>
		<line class="st2" x1="146.4" y1="468.9" x2="127.7" y2="479.7"/>
		<line class="st2" x1="149.3" y1="473.9" x2="146.4" y2="468.9"/>
		<line class="st2" x1="311.9" y1="193.8" x2="293.2" y2="161.4"/>
		<line class="st2" x1="231.3" y1="140.6" x2="274.5" y2="215.4"/>
		<line class="st2" x1="355.1" y1="484.7" x2="317.7" y2="419.9"/>
		<line class="st2" x1="103.2" y1="394" x2="103.2" y2="350.8"/>
		<line class="st2" x1="103.2" y1="350.8" x2="65.8" y2="372.4"/>
		<line class="st2" x1="296.1" y1="382.5" x2="225.5" y2="260.2"/>
		<line class="st2" x1="65.8" y1="415.6" x2="103.2" y2="394"/>
	</g>
	<g id="Make2D::visible::lines" class="st1">
		<line class="st3" x1="1" y1="389.8" x2="130.6" y2="614.3"/>
		<line class="st3" x1="65.8" y1="415.6" x2="65.8" y2="372.4"/>
		<line class="st3" x1="109" y1="490.5" x2="130.6" y2="527.9"/>
		<line class="st3" x1="355.1" y1="355.1" x2="355.1" y2="225.5"/>
		<line class="st3" x1="355.1" y1="484.7" x2="355.1" y2="398.3"/>
		<line class="st3" x1="130.6" y1="614.3" x2="355.1" y2="484.7"/>
		<line class="st3" x1="130.6" y1="614.3" x2="130.6" y2="527.9"/>
		<line class="st3" x1="130.6" y1="484.7" x2="130.6" y2="398.3"/>
		<line class="st3" x1="1" y1="130.6" x2="109" y2="317.7"/>
		<line class="st3" x1="268.7" y1="75.8" x2="225.5" y2="1"/>
		<line class="st3" x1="355.1" y1="225.5" x2="311.9" y2="150.6"/>
		<line class="st3" x1="168" y1="333.5" x2="355.1" y2="225.5"/>
		<line class="st3" x1="231.3" y1="97.4" x2="274.5" y2="172.2"/>
		<line class="st3" x1="130.6" y1="527.9" x2="168" y2="506.3"/>
		<line class="st3" x1="293.2" y1="161.4" x2="268.7" y2="119"/>
		<line class="st3" x1="168" y1="506.3" x2="149.3" y2="473.9"/>
		<line class="st3" x1="127.7" y1="479.7" x2="109" y2="490.5"/>
		<line class="st3" x1="225.5" y1="1" x2="1" y2="130.6"/>
		<line class="st3" x1="1" y1="389.8" x2="1" y2="130.6"/>
		<line class="st3" x1="168" y1="506.3" x2="168" y2="463.1"/>
		<line class="st3" x1="109" y1="490.5" x2="109" y2="447.3"/>
		<line class="st3" x1="156.4" y1="140.6" x2="178" y2="178"/>
		<line class="st3" x1="44.2" y1="378.2" x2="65.8" y2="415.6"/>
		<line class="st3" x1="62.9" y1="367.4" x2="44.2" y2="378.2"/>
		<line class="st3" x1="44.2" y1="378.2" x2="44.2" y2="335"/>
		<line class="st3" x1="317.7" y1="376.7" x2="355.1" y2="355.1"/>
		<line class="st3" x1="44.2" y1="335" x2="65.8" y2="372.4"/>
		<line class="st3" x1="317.7" y1="419.9" x2="317.7" y2="376.7"/>
		<line class="st3" x1="159.3" y1="188.8" x2="156.4" y2="183.8"/>
		<line class="st3" x1="156.4" y1="183.8" x2="137.7" y2="194.6"/>
		<line class="st3" x1="156.4" y1="140.6" x2="119" y2="162.2"/>
		<line class="st3" x1="156.4" y1="140.6" x2="156.4" y2="183.8"/>
		<line class="st3" x1="119" y1="162.2" x2="140.6" y2="199.6"/>
		<line class="st3" x1="355.1" y1="398.3" x2="336.4" y2="365.9"/>
		<line class="st3" x1="317.7" y1="419.9" x2="355.1" y2="398.3"/>
		<line class="st3" x1="146.4" y1="296.1" x2="109" y2="317.7"/>
		<line class="st3" x1="109" y1="360.9" x2="109" y2="317.7"/>
		<line class="st3" x1="168" y1="376.7" x2="168" y2="333.5"/>
		<line class="st3" x1="168" y1="333.5" x2="146.4" y2="296.1"/>
		<line class="st3" x1="146.4" y1="339.3" x2="146.4" y2="296.1"/>
		<line class="st3" x1="146.4" y1="339.3" x2="109" y2="360.9"/>
		<line class="st3" x1="168" y1="376.7" x2="146.4" y2="339.3"/>
		<line class="st3" x1="130.6" y1="398.3" x2="168" y2="376.7"/>
		<line class="st3" x1="109" y1="360.9" x2="130.6" y2="398.3"/>
		<line class="st3" x1="178" y1="178" x2="140.6" y2="199.6"/>
		<line class="st3" x1="130.6" y1="484.7" x2="168" y2="463.1"/>
		<line class="st3" x1="109" y1="447.3" x2="130.6" y2="484.7"/>
		<line class="st3" x1="268.7" y1="119" x2="250" y2="129.8"/>
		<line class="st3" x1="274.5" y1="172.2" x2="311.9" y2="150.6"/>
		<line class="st3" x1="268.7" y1="75.8" x2="231.3" y2="97.4"/>
		<line class="st3" x1="268.7" y1="119" x2="268.7" y2="75.8"/>
	</g>
</g>
<g id="Layer_2">
	<line class="st4" x1="225.5" y1="260.2" x2="225.5" y2="1"/>
	<line class="st4" x1="225.5" y1="260.2" x2="1" y2="389.8"/>
	<path class="st4" d="M225.4,370.6c8.8-16.2,15.6-32.9,21-50.5"/>
	<line class="st4" x1="225.4" y1="241" x2="269.8" y2="317.9"/>
	<line class="st4" x1="225.4" y1="370.6" x2="269.8" y2="447.5"/>
	<line class="st4" x1="269.8" y1="360.7" x2="246.4" y2="320.1"/>
	<line class="st4" x1="177.8" y1="201.3" x2="177.8" y2="71.7"/>
	<line class="st4" x1="307.4" y1="296.2" x2="246.4" y2="190.5"/>
	<line class="st4" x1="177.8" y1="71.7" x2="140.2" y2="93.4"/>
	<line class="st4" x1="225.4" y1="370.6" x2="225.4" y2="241"/>
	<line class="st4" x1="246.4" y1="190.5" x2="246.4" y2="320.1"/>
	<path class="st4" d="M225.4,241c8.8-16.2,15.6-32.9,21-50.5"/>
	<line class="st4" x1="140.2" y1="223" x2="140.2" y2="93.4"/>
	<line class="st4" x1="177.8" y1="201.3" x2="140.2" y2="223"/>
	<path class="st4" d="M249.5,301.7c-9.4,39.2-26.5,78.2-50.5,110.8c-25.5,34.7-55.1,58.4-94.5,75.7"/>
	<path class="st4" d="M104.4,568.9c45.4-23,87.6-56.8,114.8-101.1c27-44,39.5-97,40.9-147.6"/>
	<line class="st4" x1="355.1" y1="484.7" x2="260.1" y2="320.1"/>
	<line class="st4" x1="249.5" y1="301.7" x2="249.5" y2="136.4"/>
	<line class="st4" x1="260.1" y1="320.1" x2="260.1" y2="60.9"/>
	<line class="st4" x1="199.4" y1="236" x2="199.4" y2="325.5"/>
	<line class="st4" x1="225" y1="283.1" x2="225" y2="198.5"/>
	<line class="st4" x1="249.5" y1="301.7" x2="225.5" y2="260.2"/>
	<line class="st4" x1="225" y1="283.1" x2="177.8" y2="201.3"/>
	<line class="st4" x1="225" y1="153.5" x2="177.8" y2="71.7"/>
	<line class="st4" x1="140.2" y1="93.4" x2="199.4" y2="195.9"/>
	<line class="st4" x1="140.2" y1="223" x2="199.4" y2="325.5"/>
	<path class="st4" d="M225,283.1c-7.3,14.9-15.8,29-25.6,42.4"/>
	<line class="st3" x1="1" y1="389.8" x2="1" y2="130.6"/>
	<line class="st3" x1="355.1" y1="484.7" x2="355.1" y2="225.5"/>
	<line class="st3" x1="130.6" y1="355.1" x2="355.1" y2="225.5"/>
	<line class="st3" x1="130.6" y1="614.3" x2="130.6" y2="355.1"/>
	<line class="st3" x1="269.8" y1="447.5" x2="269.8" y2="317.9"/>
	<line class="st3" x1="269.8" y1="317.9" x2="307.4" y2="296.2"/>
	<line class="st3" x1="225" y1="198.5" x2="225" y2="153.5"/>
	<line class="st3" x1="307.4" y1="425.8" x2="307.4" y2="296.2"/>
	<line class="st3" x1="269.8" y1="447.5" x2="307.4" y2="425.8"/>
	<line class="st3" x1="199.4" y1="195.9" x2="199.4" y2="236"/>
	<path class="st3" d="M225,153.5c-7.3,14.9-15.8,29-25.6,42.4"/>
	<line class="st3" x1="249.5" y1="136.4" x2="249.5" y2="42.5"/>
	<line class="st3" x1="355.1" y1="225.5" x2="260.1" y2="60.9"/>
	<path class="st3" d="M104.4,488.3C91.8,493.8,79,498.3,65.8,502"/>
	<line class="st3" x1="104.4" y1="568.9" x2="130.6" y2="614.3"/>
	<line class="st3" x1="249.5" y1="42.5" x2="225.5" y2="1"/>
	<path class="st3" d="M249.5,42.5c-10.9,45.6-32.3,91.1-63.3,126.8c-32.8,37.8-73.1,60.1-120.3,73.5"/>
	<line class="st3" x1="1" y1="389.8" x2="65.8" y2="502"/>
	<line class="st3" x1="1" y1="130.6" x2="65.8" y2="242.8"/>
	<line class="st3" x1="65.8" y1="502" x2="65.8" y2="242.8"/>
	<path class="st3" d="M104.4,309.7c45.4-23,87.6-56.8,114.8-101.1c27-44,39.5-97,40.9-147.6"/>
	<line class="st3" x1="104.4" y1="568.9" x2="104.4" y2="309.7"/>
	<line class="st3" x1="104.4" y1="309.7" x2="130.6" y2="355.1"/>
	<line class="st3" x1="307.4" y1="425.8" x2="269.8" y2="360.7"/>
	<line class="st3" x1="130.6" y1="614.3" x2="355.1" y2="484.7"/>
	<line class="st3" x1="225.5" y1="1" x2="1" y2="130.6"/>
</g>
</svg>
