<?xml version="1.0" encoding="utf-8"?>
<!-- Generator: Adobe Illustrator 21.0.2, SVG Export Plug-In . SVG Version: 6.00 Build 0)  -->
<svg version="1.1" xmlns="http://www.w3.org/2000/svg" xmlns:xlink="http://www.w3.org/1999/xlink" x="0px" y="0px"
	 viewBox="0 0 356.1 615.3" style="enable-background:new 0 0 356.1 615.3;" xml:space="preserve">
<style type="text/css">
	.st0{display:none;}
	.st1{display:inline;}
	.st2{fill:none;stroke:#000000;stroke-width:0.5;stroke-miterlimit:10;}
	.st3{fill:none;stroke:#000000;stroke-width:2;stroke-linecap:round;stroke-linejoin:round;}
	.st4{fill:none;stroke:#000000;stroke-width:0.5;stroke-linecap:round;stroke-linejoin:round;}
</style>
<g id="Layer_1" class="st0">
	<g id="Make2D::hidden::lines" class="st1">
		<line class="st2" x1="274.5" y1="215.4" x2="311.9" y2="193.8"/>
		<line class="st2" x1="311.9" y1="193.8" x2="311.9" y2="150.6"/>
		<line class="st2" x1="231.3" y1="140.6" x2="231.3" y2="97.4"/>
		<line class="st2" x1="250" y1="129.8" x2="231.3" y2="140.6"/>
		<line class="st2" x1="274.5" y1="215.4" x2="274.5" y2="172.2"/>
		<line class="st2" x1="225.5" y1="130.6" x2="188.1" y2="152.2"/>
		<line class="st2" x1="231.3" y1="140.6" x2="225.5" y2="130.6"/>
		<line class="st2" x1="336.4" y1="365.9" x2="333.5" y2="360.9"/>
		<line class="st2" x1="140.6" y1="242.8" x2="140.6" y2="199.6"/>
		<line class="st2" x1="333.5" y1="360.9" x2="296.1" y2="382.5"/>
		<line class="st2" x1="296.1" y1="382.5" x2="317.7" y2="419.9"/>
		<line class="st2" x1="119" y1="205.4" x2="119" y2="162.2"/>
		<line class="st2" x1="119" y1="205.4" x2="140.6" y2="242.8"/>
		<line class="st2" x1="137.7" y1="194.6" x2="119" y2="205.4"/>
		<line class="st2" x1="296.1" y1="382.5" x2="296.1" y2="339.3"/>
		<line class="st2" x1="333.5" y1="360.9" x2="333.5" y2="317.7"/>
		<line class="st2" x1="178" y1="221.2" x2="159.3" y2="188.8"/>
		<line class="st2" x1="140.6" y1="242.8" x2="178" y2="221.2"/>
		<line class="st2" x1="296.1" y1="339.3" x2="317.7" y2="376.7"/>
		<line class="st2" x1="81.6" y1="313.4" x2="44.2" y2="335"/>
		<line class="st2" x1="355.1" y1="355.1" x2="333.5" y2="317.7"/>
		<line class="st2" x1="103.2" y1="350.8" x2="81.6" y2="313.4"/>
		<line class="st2" x1="81.6" y1="356.6" x2="81.6" y2="313.4"/>
		<line class="st2" x1="333.5" y1="317.7" x2="296.1" y2="339.3"/>
		<line class="st2" x1="81.6" y1="356.6" x2="62.9" y2="367.4"/>
		<line class="st2" x1="103.2" y1="394" x2="81.6" y2="356.6"/>
		<line class="st2" x1="178" y1="221.2" x2="178" y2="178"/>
		<line class="st2" x1="209.7" y1="189.6" x2="247.1" y2="168"/>
		<line class="st2" x1="247.1" y1="211.2" x2="247.1" y2="168"/>
		<line class="st2" x1="188.1" y1="195.4" x2="188.1" y2="152.2"/>
		<line class="st2" x1="188.1" y1="152.2" x2="209.7" y2="189.6"/>
		<line class="st2" x1="209.7" y1="232.8" x2="209.7" y2="189.6"/>
		<line class="st2" x1="209.7" y1="232.8" x2="247.1" y2="211.2"/>
		<line class="st2" x1="188.1" y1="195.4" x2="209.7" y2="232.8"/>
		<line class="st2" x1="225.5" y1="173.8" x2="188.1" y2="195.4"/>
		<line class="st2" x1="247.1" y1="211.2" x2="225.5" y2="173.8"/>
		<line class="st2" x1="146.4" y1="425.7" x2="109" y2="447.3"/>
		<line class="st2" x1="225.5" y1="260.2" x2="225.5" y2="173.8"/>
		<line class="st2" x1="225.5" y1="260.2" x2="1" y2="389.8"/>
		<line class="st2" x1="168" y1="463.1" x2="146.4" y2="425.7"/>
		<line class="st2" x1="146.4" y1="468.9" x2="146.4" y2="425.7"/>
		<line class="st2" x1="225.5" y1="130.6" x2="225.5" y2="1"/>
		<line class="st2" x1="146.4" y1="468.9" x2="127.7" y2="479.7"/>
		<line class="st2" x1="149.3" y1="473.9" x2="146.4" y2="468.9"/>
		<line class="st2" x1="311.9" y1="193.8" x2="293.2" y2="161.4"/>
		<line class="st2" x1="231.3" y1="140.6" x2="274.5" y2="215.4"/>
		<line class="st2" x1="355.1" y1="484.7" x2="317.7" y2="419.9"/>
		<line class="st2" x1="103.2" y1="394" x2="103.2" y2="350.8"/>
		<line class="st2" x1="103.2" y1="350.8" x2="65.8" y2="372.4"/>
		<line class="st2" x1="296.1" y1="382.5" x2="225.5" y2="260.2"/>
		<line class="st2" x1="65.8" y1="415.6" x2="103.2" y2="394"/>
	</g>
	<g id="Make2D::visible::lines" class="st1">
		<line class="st3" x1="1" y1="389.8" x2="130.6" y2="614.3"/>
		<line class="st3" x1="65.8" y1="415.6" x2="65.8" y2="372.4"/>
		<line class="st3" x1="109" y1="490.5" x2="130.6" y2="527.9"/>
		<line class="st3" x1="355.1" y1="355.1" x2="355.1" y2="225.5"/>
		<line class="st3" x1="355.1" y1="484.7" x2="355.1" y2="398.3"/>
		<line class="st3" x1="130.6" y1="614.3" x2="355.1" y2="484.7"/>
		<line class="st3" x1="130.6" y1="614.3" x2="130.6" y2="527.9"/>
		<line class="st3" x1="130.6" y1="484.7" x2="130.6" y2="398.3"/>
		<line class="st3" x1="1" y1="130.6" x2="109" y2="317.7"/>
		<line class="st3" x1="268.7" y1="75.8" x2="225.5" y2="1"/>
		<line class="st3" x1="355.1" y1="225.5" x2="311.9" y2="150.6"/>
		<line class="st3" x1="168" y1="333.5" x2="355.1" y2="225.5"/>
		<line class="st3" x1="231.3" y1="97.4" x2="274.5" y2="172.2"/>
		<line class="st3" x1="130.6" y1="527.9" x2="168" y2="506.3"/>
		<line class="st3" x1="293.2" y1="161.4" x2="268.7" y2="119"/>
		<line class="st3" x1="168" y1="506.3" x2="149.3" y2="473.9"/>
		<line class="st3" x1="127.7" y1="479.7" x2="109" y2="490.5"/>
		<line class="st3" x1="225.5" y1="1" x2="1" y2="130.6"/>
		<line class="st3" x1="1" y1="389.8" x2="1" y2="130.6"/>
		<line class="st3" x1="168" y1="506.3" x2="168" y2="463.1"/>
		<line class="st3" x1="109" y1="490.5" x2="109" y2="447.3"/>
		<line class="st3" x1="156.4" y1="140.6" x2="178" y2="178"/>
		<line class="st3" x1="44.2" y1="378.2" x2="65.8" y2="415.6"/>
		<line class="st3" x1="62.9" y1="367.4" x2="44.2" y2="378.2"/>
		<line class="st3" x1="44.2" y1="378.2" x2="44.2" y2="335"/>
		<line class="st3" x1="317.7" y1="376.7" x2="355.1" y2="355.1"/>
		<line class="st3" x1="44.2" y1="335" x2="65.8" y2="372.4"/>
		<line class="st3" x1="317.7" y1="419.9" x2="317.7" y2="376.7"/>
		<line class="st3" x1="159.3" y1="188.8" x2="156.4" y2="183.8"/>
		<line class="st3" x1="156.4" y1="183.8" x2="137.7" y2="194.6"/>
		<line class="st3" x1="156.4" y1="140.6" x2="119" y2="162.2"/>
		<line class="st3" x1="156.4" y1="140.6" x2="156.4" y2="183.8"/>
		<line class="st3" x1="119" y1="162.2" x2="140.6" y2="199.6"/>
		<line class="st3" x1="355.1" y1="398.3" x2="336.4" y2="365.9"/>
		<line class="st3" x1="317.7" y1="419.9" x2="355.1" y2="398.3"/>
		<line class="st3" x1="146.4" y1="296.1" x2="109" y2="317.7"/>
		<line class="st3" x1="109" y1="360.9" x2="109" y2="317.7"/>
		<line class="st3" x1="168" y1="376.7" x2="168" y2="333.5"/>
		<line class="st3" x1="168" y1="333.5" x2="146.4" y2="296.1"/>
		<line class="st3" x1="146.4" y1="339.3" x2="146.4" y2="296.1"/>
		<line class="st3" x1="146.4" y1="339.3" x2="109" y2="360.9"/>
		<line class="st3" x1="168" y1="376.7" x2="146.4" y2="339.3"/>
		<line class="st3" x1="130.6" y1="398.3" x2="168" y2="376.7"/>
		<line class="st3" x1="109" y1="360.9" x2="130.6" y2="398.3"/>
		<line class="st3" x1="178" y1="178" x2="140.6" y2="199.6"/>
		<line class="st3" x1="130.6" y1="484.7" x2="168" y2="463.1"/>
		<line class="st3" x1="109" y1="447.3" x2="130.6" y2="484.7"/>
		<line class="st3" x1="268.7" y1="119" x2="250" y2="129.8"/>
		<line class="st3" x1="274.5" y1="172.2" x2="311.9" y2="150.6"/>
		<line class="st3" x1="268.7" y1="75.8" x2="231.3" y2="97.4"/>
		<line class="st3" x1="268.7" y1="119" x2="268.7" y2="75.8"/>
	</g>
</g>
<g id="Layer_2">
	<line class="st4" x1="116.4" y1="323.2" x2="116.4" y2="64"/>
	<line class="st4" x1="246" y1="547.6" x2="116.4" y2="323.2"/>
	<line class="st4" x1="113.3" y1="325" x2="113.3" y2="76.8"/>
	<line class="st4" x1="130.6" y1="355.1" x2="238.1" y2="541.3"/>
	<line class="st4" x1="252.8" y1="543.7" x2="123.2" y2="319.3"/>
	<line class="st4" x1="123.2" y1="319.3" x2="123.2" y2="60.1"/>
	<line class="st4" x1="123.2" y1="319.3" x2="120" y2="321.1"/>
	<line class="st4" x1="120" y1="321.1" x2="120" y2="70.2"/>
	<line class="st4" x1="88.3" y1="339.4" x2="210.6" y2="551.2"/>
	<line class="st4" x1="120" y1="321.1" x2="246" y2="539.4"/>
	<line class="st4" x1="258.5" y1="540.4" x2="128.9" y2="315.9"/>
	<line class="st4" x1="88.3" y1="339.4" x2="88.3" y2="97.1"/>
	<line class="st4" x1="94.5" y1="335.9" x2="88.3" y2="339.4"/>
	<line class="st4" x1="128.9" y1="315.9" x2="128.9" y2="56.7"/>
	<line class="st4" x1="94.5" y1="335.9" x2="94.5" y2="76.7"/>
	<line class="st4" x1="224.1" y1="560.3" x2="94.5" y2="335.9"/>
	<line class="st4" x1="128.9" y1="315.9" x2="125.8" y2="317.8"/>
	<line class="st4" x1="125.8" y1="317.8" x2="125.8" y2="64.5"/>
	<line class="st4" x1="125.8" y1="317.8" x2="252.8" y2="537.8"/>
	<line class="st4" x1="265.9" y1="536.2" x2="153.7" y2="341.8"/>
	<line class="st4" x1="136.3" y1="311.7" x2="136.3" y2="52.5"/>
	<line class="st4" x1="136.3" y1="311.7" x2="133.1" y2="313.5"/>
	<line class="st4" x1="77.8" y1="345.5" x2="193.7" y2="546.3"/>
	<line class="st4" x1="133.1" y1="313.5" x2="133.1" y2="64"/>
	<line class="st4" x1="133.1" y1="313.5" x2="258.5" y2="530.7"/>
	<line class="st4" x1="77.8" y1="345.5" x2="77.8" y2="117.8"/>
	<line class="st4" x1="81" y1="343.7" x2="77.8" y2="345.5"/>
	<line class="st4" x1="299.7" y1="516.6" x2="170.1" y2="292.2"/>
	<line class="st4" x1="81" y1="343.7" x2="81" y2="84.5"/>
	<line class="st4" x1="210.6" y1="568.1" x2="81" y2="343.7"/>
	<line class="st4" x1="170.1" y1="292.2" x2="170.1" y2="33"/>
	<line class="st4" x1="170.1" y1="292.2" x2="167" y2="294"/>
	<line class="st4" x1="167" y1="294" x2="167" y2="40.8"/>
	<line class="st4" x1="167" y1="294" x2="294" y2="514"/>
	<line class="st4" x1="294" y1="520" x2="164.4" y2="295.5"/>
	<line class="st4" x1="164.4" y1="295.5" x2="164.4" y2="36.3"/>
	<line class="st4" x1="100.5" y1="332.4" x2="224.1" y2="546.5"/>
	<line class="st4" x1="164.4" y1="295.5" x2="161.2" y2="297.3"/>
	<line class="st4" x1="161.2" y1="297.3" x2="161.2" y2="48.6"/>
	<line class="st4" x1="100.5" y1="332.4" x2="100.5" y2="87"/>
	<line class="st4" x1="108.5" y1="327.7" x2="100.5" y2="332.4"/>
	<line class="st4" x1="161.2" y1="297.3" x2="286.2" y2="513.9"/>
	<line class="st4" x1="108.5" y1="327.7" x2="108.5" y2="68.5"/>
	<line class="st4" x1="238.1" y1="552.2" x2="108.5" y2="327.7"/>
	<line class="st4" x1="317.3" y1="506.5" x2="187.7" y2="282"/>
	<line class="st4" x1="187.7" y1="282" x2="187.7" y2="22.8"/>
	<line class="st4" x1="187.7" y1="282" x2="180.7" y2="286.1"/>
	<line class="st4" x1="180.7" y1="286.1" x2="180.7" y2="34.3"/>
	<line class="st4" x1="180.7" y1="286.1" x2="307.1" y2="505"/>
	<line class="st4" x1="307.1" y1="512.4" x2="177.5" y2="287.9"/>
	<line class="st4" x1="24.1" y1="376.5" x2="143.8" y2="583.9"/>
	<line class="st4" x1="177.5" y1="287.9" x2="177.5" y2="28.7"/>
	<line class="st4" x1="177.5" y1="287.9" x2="173.1" y2="290.5"/>
	<line class="st4" x1="24.1" y1="376.5" x2="24.1" y2="140.1"/>
	<line class="st4" x1="30.7" y1="372.7" x2="24.1" y2="376.5"/>
	<line class="st4" x1="173.1" y1="290.5" x2="173.1" y2="38.1"/>
	<line class="st4" x1="30.7" y1="372.7" x2="30.7" y2="113.5"/>
	<line class="st4" x1="160.3" y1="597.2" x2="30.7" y2="372.7"/>
	<line class="st4" x1="173.1" y1="290.5" x2="299.7" y2="509.8"/>
	<line class="st4" x1="335.9" y1="495.8" x2="206.3" y2="271.3"/>
	<line class="st4" x1="206.3" y1="271.3" x2="206.3" y2="12.1"/>
	<line class="st4" x1="206.3" y1="271.3" x2="201.9" y2="273.8"/>
	<line class="st4" x1="201.9" y1="273.8" x2="201.9" y2="47.5"/>
	<line class="st4" x1="201.9" y1="273.8" x2="317.3" y2="473.7"/>
	<line class="st4" x1="167.7" y1="592.9" x2="38.1" y2="368.4"/>
	<line class="st4" x1="38.1" y1="368.4" x2="38.1" y2="109.2"/>
	<line class="st4" x1="14.2" y1="382.2" x2="1" y2="389.8"/>
	<line class="st4" x1="38.1" y1="368.4" x2="34.9" y2="370.3"/>
	<line class="st4" x1="14.2" y1="382.2" x2="14.2" y2="123"/>
	<line class="st4" x1="143.8" y1="606.7" x2="14.2" y2="382.2"/>
	<line class="st4" x1="34.9" y1="370.3" x2="34.9" y2="120.8"/>
	<line class="st4" x1="34.9" y1="370.3" x2="160.3" y2="587.4"/>
	<line class="st4" x1="193.7" y1="577.8" x2="64.1" y2="353.4"/>
	<line class="st4" x1="64.1" y1="353.4" x2="64.1" y2="94.2"/>
	<line class="st4" x1="64.1" y1="353.4" x2="61" y2="355.2"/>
	<line class="st4" x1="61" y1="355.2" x2="61" y2="148.9"/>
	<line class="st4" x1="220.9" y1="262.9" x2="335.9" y2="462.1"/>
	<line class="st4" x1="61" y1="355.2" x2="167.7" y2="540"/>
	<line class="st4" x1="286.2" y1="524.4" x2="156.6" y2="300"/>
	<line class="st4" x1="220.9" y1="262.9" x2="220.9" y2="37.4"/>
	<line class="st4" x1="225.5" y1="260.2" x2="220.9" y2="262.9"/>
	<line class="st4" x1="156.6" y1="300" x2="156.6" y2="40.8"/>
	<line class="st4" x1="225.5" y1="260.2" x2="225.5" y2="1"/>
	<line class="st4" x1="355.1" y1="484.7" x2="242.9" y2="290.3"/>
	<line class="st4" x1="156.6" y1="300" x2="147" y2="305.5"/>
	<line class="st4" x1="147" y1="305.5" x2="147" y2="70.9"/>
	<line class="st4" x1="147" y1="305.5" x2="265.9" y2="511.6"/>
	<line class="st4" x1="116.4" y1="323.2" x2="113.3" y2="325"/>
	<line class="st3" x1="147" y1="46.3" x2="276.6" y2="270.8"/>
	<line class="st3" x1="265.9" y1="511.6" x2="276.6" y2="530"/>
	<line class="st3" x1="355.1" y1="484.7" x2="355.1" y2="225.5"/>
	<line class="st3" x1="156.6" y1="40.8" x2="147" y2="46.3"/>
	<line class="st3" x1="147" y1="70.9" x2="147" y2="46.3"/>
	<line class="st3" x1="350.5" y1="228.1" x2="355.1" y2="225.5"/>
	<line class="st3" x1="350.5" y1="487.3" x2="350.5" y2="228.1"/>
	<line class="st3" x1="286.2" y1="265.2" x2="156.6" y2="40.8"/>
	<line class="st3" x1="355.1" y1="225.5" x2="225.5" y2="1"/>
	<line class="st3" x1="220.9" y1="37.4" x2="220.9" y2="3.7"/>
	<line class="st3" x1="276.6" y1="530" x2="276.6" y2="270.8"/>
	<line class="st3" x1="276.6" y1="270.8" x2="286.2" y2="265.2"/>
	<line class="st3" x1="286.2" y1="524.4" x2="286.2" y2="265.2"/>
	<line class="st3" x1="276.6" y1="530" x2="286.2" y2="524.4"/>
	<line class="st3" x1="61" y1="96" x2="190.6" y2="320.5"/>
	<line class="st3" x1="167.7" y1="540" x2="190.6" y2="579.7"/>
	<line class="st3" x1="225.5" y1="1" x2="220.9" y2="3.7"/>
	<line class="st3" x1="64.1" y1="94.2" x2="61" y2="96"/>
	<line class="st3" x1="61" y1="148.9" x2="61" y2="96"/>
	<line class="st3" x1="335.9" y1="462.1" x2="350.5" y2="487.3"/>
	<line class="st3" x1="220.9" y1="3.7" x2="350.5" y2="228.1"/>
	<line class="st3" x1="193.7" y1="318.6" x2="64.1" y2="94.2"/>
	<line class="st3" x1="130.6" y1="614.3" x2="143.8" y2="606.7"/>
	<line class="st3" x1="143.8" y1="606.7" x2="143.8" y2="347.5"/>
	<line class="st3" x1="190.6" y1="579.7" x2="190.6" y2="320.5"/>
	<line class="st3" x1="190.6" y1="320.5" x2="193.7" y2="318.6"/>
	<line class="st3" x1="193.7" y1="577.8" x2="193.7" y2="318.6"/>
	<line class="st3" x1="190.6" y1="579.7" x2="193.7" y2="577.8"/>
	<line class="st3" x1="34.9" y1="111.1" x2="164.5" y2="335.5"/>
	<line class="st3" x1="160.3" y1="587.4" x2="164.5" y2="594.7"/>
	<line class="st3" x1="130.6" y1="355.1" x2="143.8" y2="347.5"/>
	<line class="st3" x1="38.1" y1="109.2" x2="34.9" y2="111.1"/>
	<line class="st3" x1="34.9" y1="120.8" x2="34.9" y2="111.1"/>
	<line class="st3" x1="130.6" y1="614.3" x2="130.6" y2="355.1"/>
	<line class="st3" x1="143.8" y1="347.5" x2="14.2" y2="123"/>
	<line class="st3" x1="167.7" y1="333.7" x2="38.1" y2="109.2"/>
	<line class="st3" x1="1" y1="389.8" x2="1" y2="130.6"/>
	<line class="st3" x1="14.2" y1="123" x2="1" y2="130.6"/>
	<line class="st3" x1="164.5" y1="594.7" x2="164.5" y2="335.5"/>
	<line class="st3" x1="164.5" y1="335.5" x2="167.7" y2="333.7"/>
	<line class="st3" x1="167.7" y1="592.9" x2="167.7" y2="333.7"/>
	<line class="st3" x1="164.5" y1="594.7" x2="167.7" y2="592.9"/>
	<line class="st3" x1="201.9" y1="14.6" x2="331.5" y2="239.1"/>
	<line class="st3" x1="317.3" y1="473.7" x2="331.5" y2="498.3"/>
	<line class="st3" x1="1" y1="389.8" x2="130.6" y2="614.3"/>
	<line class="st3" x1="206.3" y1="12.1" x2="201.9" y2="14.6"/>
	<line class="st3" x1="201.9" y1="47.5" x2="201.9" y2="14.6"/>
	<line class="st3" x1="1" y1="130.6" x2="130.6" y2="355.1"/>
	<line class="st3" x1="153.7" y1="601" x2="160.3" y2="597.2"/>
	<line class="st3" x1="335.9" y1="236.6" x2="206.3" y2="12.1"/>
	<line class="st3" x1="160.3" y1="597.2" x2="160.3" y2="338"/>
	<line class="st3" x1="153.7" y1="341.8" x2="160.3" y2="338"/>
	<line class="st3" x1="331.5" y1="498.3" x2="331.5" y2="239.1"/>
	<line class="st3" x1="331.5" y1="239.1" x2="335.9" y2="236.6"/>
	<line class="st3" x1="335.9" y1="495.8" x2="335.9" y2="236.6"/>
	<line class="st3" x1="331.5" y1="498.3" x2="335.9" y2="495.8"/>
	<line class="st3" x1="173.1" y1="31.3" x2="302.7" y2="255.7"/>
	<line class="st3" x1="299.7" y1="509.8" x2="302.7" y2="514.9"/>
	<line class="st3" x1="153.7" y1="601" x2="153.7" y2="341.8"/>
	<line class="st3" x1="177.5" y1="28.7" x2="173.1" y2="31.3"/>
	<line class="st3" x1="173.1" y1="38.1" x2="173.1" y2="31.3"/>
	<line class="st3" x1="160.3" y1="338" x2="30.7" y2="113.5"/>
	<line class="st3" x1="24.1" y1="140.1" x2="24.1" y2="117.3"/>
	<line class="st3" x1="307.1" y1="253.2" x2="177.5" y2="28.7"/>
	<line class="st3" x1="30.7" y1="113.5" x2="24.1" y2="117.3"/>
	<line class="st3" x1="143.8" y1="583.9" x2="153.7" y2="601"/>
	<line class="st3" x1="302.7" y1="514.9" x2="302.7" y2="255.7"/>
	<line class="st3" x1="302.7" y1="255.7" x2="307.1" y2="253.2"/>
	<line class="st3" x1="307.1" y1="512.4" x2="307.1" y2="253.2"/>
	<line class="st3" x1="302.7" y1="514.9" x2="307.1" y2="512.4"/>
	<line class="st3" x1="180.7" y1="26.9" x2="310.3" y2="251.3"/>
	<line class="st3" x1="307.1" y1="505" x2="310.3" y2="510.5"/>
	<line class="st3" x1="24.1" y1="117.3" x2="153.7" y2="341.8"/>
	<line class="st3" x1="187.7" y1="22.8" x2="180.7" y2="26.9"/>
	<line class="st3" x1="180.7" y1="34.3" x2="180.7" y2="26.9"/>
	<line class="st3" x1="230.1" y1="556.9" x2="238.1" y2="552.2"/>
	<line class="st3" x1="238.1" y1="552.2" x2="238.1" y2="293"/>
	<line class="st3" x1="317.3" y1="247.3" x2="187.7" y2="22.8"/>
	<line class="st3" x1="230.1" y1="297.7" x2="238.1" y2="293"/>
	<line class="st3" x1="230.1" y1="556.9" x2="230.1" y2="297.7"/>
	<line class="st3" x1="310.3" y1="510.5" x2="310.3" y2="251.3"/>
	<line class="st3" x1="310.3" y1="251.3" x2="317.3" y2="247.3"/>
	<line class="st3" x1="317.3" y1="506.5" x2="317.3" y2="247.3"/>
	<line class="st3" x1="310.3" y1="510.5" x2="317.3" y2="506.5"/>
	<line class="st3" x1="161.2" y1="38.1" x2="290.8" y2="262.6"/>
	<line class="st3" x1="286.2" y1="513.9" x2="290.8" y2="521.8"/>
	<line class="st3" x1="238.1" y1="293" x2="108.5" y2="68.5"/>
	<line class="st3" x1="164.4" y1="36.3" x2="161.2" y2="38.1"/>
	<line class="st3" x1="161.2" y1="48.6" x2="161.2" y2="38.1"/>
	<line class="st3" x1="100.5" y1="87" x2="100.5" y2="73.2"/>
	<line class="st3" x1="108.5" y1="68.5" x2="100.5" y2="73.2"/>
	<line class="st3" x1="294" y1="260.8" x2="164.4" y2="36.3"/>
	<line class="st3" x1="224.1" y1="546.5" x2="230.1" y2="556.9"/>
	<line class="st3" x1="100.5" y1="73.2" x2="230.1" y2="297.7"/>
	<line class="st3" x1="290.8" y1="521.8" x2="290.8" y2="262.6"/>
	<line class="st3" x1="290.8" y1="262.6" x2="294" y2="260.8"/>
	<line class="st3" x1="294" y1="520" x2="294" y2="260.8"/>
	<line class="st3" x1="290.8" y1="521.8" x2="294" y2="520"/>
	<line class="st3" x1="167" y1="34.8" x2="296.6" y2="259.3"/>
	<line class="st3" x1="294" y1="514" x2="296.6" y2="518.5"/>
	<line class="st3" x1="207.4" y1="570" x2="210.6" y2="568.1"/>
	<line class="st3" x1="170.1" y1="33" x2="167" y2="34.8"/>
	<line class="st3" x1="167" y1="40.8" x2="167" y2="34.8"/>
	<line class="st3" x1="210.6" y1="568.1" x2="210.6" y2="308.9"/>
	<line class="st3" x1="207.4" y1="310.8" x2="210.6" y2="308.9"/>
	<line class="st3" x1="299.7" y1="257.4" x2="170.1" y2="33"/>
	<line class="st3" x1="207.4" y1="570" x2="207.4" y2="310.8"/>
	<line class="st3" x1="210.6" y1="308.9" x2="81" y2="84.5"/>
	<line class="st3" x1="296.6" y1="518.5" x2="296.6" y2="259.3"/>
	<line class="st3" x1="296.6" y1="259.3" x2="299.7" y2="257.4"/>
	<line class="st3" x1="299.7" y1="516.6" x2="299.7" y2="257.4"/>
	<line class="st3" x1="296.6" y1="518.5" x2="299.7" y2="516.6"/>
	<line class="st3" x1="133.1" y1="54.3" x2="262.7" y2="278.8"/>
	<line class="st3" x1="258.5" y1="530.7" x2="262.7" y2="538"/>
	<line class="st3" x1="77.8" y1="117.8" x2="77.8" y2="86.3"/>
	<line class="st3" x1="136.3" y1="52.5" x2="133.1" y2="54.3"/>
	<line class="st3" x1="133.1" y1="64" x2="133.1" y2="54.3"/>
	<line class="st3" x1="81" y1="84.5" x2="77.8" y2="86.3"/>
	<line class="st3" x1="193.7" y1="546.3" x2="207.4" y2="570"/>
	<line class="st3" x1="265.9" y1="277" x2="136.3" y2="52.5"/>
	<line class="st3" x1="77.8" y1="86.3" x2="207.4" y2="310.8"/>
	<line class="st3" x1="217.9" y1="563.9" x2="224.1" y2="560.3"/>
	<line class="st3" x1="262.7" y1="538" x2="262.7" y2="278.8"/>
	<line class="st3" x1="262.7" y1="278.8" x2="265.9" y2="277"/>
	<line class="st3" x1="265.9" y1="536.2" x2="265.9" y2="277"/>
	<line class="st3" x1="262.7" y1="538" x2="265.9" y2="536.2"/>
	<line class="st3" x1="125.8" y1="58.6" x2="255.4" y2="283.1"/>
	<line class="st3" x1="252.8" y1="537.8" x2="255.4" y2="542.3"/>
	<line class="st3" x1="224.1" y1="560.3" x2="224.1" y2="301.1"/>
	<line class="st3" x1="128.9" y1="56.7" x2="125.8" y2="58.6"/>
	<line class="st3" x1="125.8" y1="64.5" x2="125.8" y2="58.6"/>
	<line class="st3" x1="217.9" y1="304.7" x2="224.1" y2="301.1"/>
	<line class="st3" x1="217.9" y1="563.9" x2="217.9" y2="304.7"/>
	<line class="st3" x1="258.5" y1="281.2" x2="128.9" y2="56.7"/>
	<line class="st3" x1="224.1" y1="301.1" x2="94.5" y2="76.7"/>
	<line class="st3" x1="88.3" y1="97.1" x2="88.3" y2="80.2"/>
	<line class="st3" x1="255.4" y1="542.3" x2="255.4" y2="283.1"/>
	<line class="st3" x1="255.4" y1="283.1" x2="258.5" y2="281.2"/>
	<line class="st3" x1="258.5" y1="540.4" x2="258.5" y2="281.2"/>
	<line class="st3" x1="255.4" y1="542.3" x2="258.5" y2="540.4"/>
	<line class="st3" x1="120" y1="61.9" x2="249.6" y2="286.4"/>
	<line class="st3" x1="246" y1="539.4" x2="249.6" y2="545.6"/>
	<line class="st3" x1="94.5" y1="76.7" x2="88.3" y2="80.2"/>
	<line class="st3" x1="123.2" y1="60.1" x2="120" y2="61.9"/>
	<line class="st3" x1="120" y1="70.2" x2="120" y2="61.9"/>
	<line class="st3" x1="210.6" y1="551.2" x2="217.9" y2="563.9"/>
	<line class="st3" x1="88.3" y1="80.2" x2="217.9" y2="304.7"/>
	<line class="st3" x1="252.8" y1="284.5" x2="123.2" y2="60.1"/>
	<line class="st3" x1="242.9" y1="549.5" x2="246" y2="547.6"/>
	<line class="st3" x1="246" y1="547.6" x2="246" y2="288.4"/>
	<line class="st3" x1="249.6" y1="545.6" x2="249.6" y2="286.4"/>
	<line class="st3" x1="249.6" y1="286.4" x2="252.8" y2="284.5"/>
	<line class="st3" x1="252.8" y1="543.7" x2="252.8" y2="284.5"/>
	<line class="st3" x1="249.6" y1="545.6" x2="252.8" y2="543.7"/>
	<line class="st3" x1="113.3" y1="65.8" x2="242.9" y2="290.3"/>
	<line class="st3" x1="238.1" y1="541.3" x2="242.9" y2="549.5"/>
	<line class="st3" x1="242.9" y1="290.3" x2="246" y2="288.4"/>
	<line class="st3" x1="116.4" y1="64" x2="113.3" y2="65.8"/>
	<line class="st3" x1="113.3" y1="76.8" x2="113.3" y2="65.8"/>
	<line class="st3" x1="242.9" y1="549.5" x2="242.9" y2="290.3"/>
	<line class="st3" x1="246" y1="288.4" x2="116.4" y2="64"/>
	<line class="st3" x1="350.5" y1="487.3" x2="355.1" y2="484.7"/>
</g>
</svg>
