<?xml version="1.0" encoding="utf-8"?>
<!-- Generator: Adobe Illustrator 21.0.2, SVG Export Plug-In . SVG Version: 6.00 Build 0)  -->
<svg version="1.1" xmlns="http://www.w3.org/2000/svg" xmlns:xlink="http://www.w3.org/1999/xlink" x="0px" y="0px"
	 viewBox="0 0 356.1 615.3" style="enable-background:new 0 0 356.1 615.3;" xml:space="preserve">
<style type="text/css">
	.st0{display:none;}
	.st1{display:inline;}
	.st2{fill:none;stroke:#000000;stroke-width:0.5;stroke-miterlimit:10;}
	.st3{fill:none;stroke:#000000;stroke-width:2;stroke-linecap:round;stroke-linejoin:round;}
	.st4{fill:none;stroke:#000000;stroke-width:0.5;stroke-linecap:round;stroke-linejoin:round;}
</style>
<g id="Layer_1" class="st0">
	<g id="Make2D::hidden::lines" class="st1">
		<line class="st2" x1="274.5" y1="215.4" x2="311.9" y2="193.8"/>
		<line class="st2" x1="311.9" y1="193.8" x2="311.9" y2="150.6"/>
		<line class="st2" x1="231.3" y1="140.6" x2="231.3" y2="97.4"/>
		<line class="st2" x1="250" y1="129.8" x2="231.3" y2="140.6"/>
		<line class="st2" x1="274.5" y1="215.4" x2="274.5" y2="172.2"/>
		<line class="st2" x1="225.5" y1="130.6" x2="188.1" y2="152.2"/>
		<line class="st2" x1="231.3" y1="140.6" x2="225.5" y2="130.6"/>
		<line class="st2" x1="336.4" y1="365.9" x2="333.5" y2="360.9"/>
		<line class="st2" x1="140.6" y1="242.8" x2="140.6" y2="199.6"/>
		<line class="st2" x1="333.5" y1="360.9" x2="296.1" y2="382.5"/>
		<line class="st2" x1="296.1" y1="382.5" x2="317.7" y2="419.9"/>
		<line class="st2" x1="119" y1="205.4" x2="119" y2="162.2"/>
		<line class="st2" x1="119" y1="205.4" x2="140.6" y2="242.8"/>
		<line class="st2" x1="137.7" y1="194.6" x2="119" y2="205.4"/>
		<line class="st2" x1="296.1" y1="382.5" x2="296.1" y2="339.3"/>
		<line class="st2" x1="333.5" y1="360.9" x2="333.5" y2="317.7"/>
		<line class="st2" x1="178" y1="221.2" x2="159.3" y2="188.8"/>
		<line class="st2" x1="140.6" y1="242.8" x2="178" y2="221.2"/>
		<line class="st2" x1="296.1" y1="339.3" x2="317.7" y2="376.7"/>
		<line class="st2" x1="81.6" y1="313.4" x2="44.2" y2="335"/>
		<line class="st2" x1="355.1" y1="355.1" x2="333.5" y2="317.7"/>
		<line class="st2" x1="103.2" y1="350.8" x2="81.6" y2="313.4"/>
		<line class="st2" x1="81.6" y1="356.6" x2="81.6" y2="313.4"/>
		<line class="st2" x1="333.5" y1="317.7" x2="296.1" y2="339.3"/>
		<line class="st2" x1="81.6" y1="356.6" x2="62.9" y2="367.4"/>
		<line class="st2" x1="103.2" y1="394" x2="81.6" y2="356.6"/>
		<line class="st2" x1="178" y1="221.2" x2="178" y2="178"/>
		<line class="st2" x1="209.7" y1="189.6" x2="247.1" y2="168"/>
		<line class="st2" x1="247.1" y1="211.2" x2="247.1" y2="168"/>
		<line class="st2" x1="188.1" y1="195.4" x2="188.1" y2="152.2"/>
		<line class="st2" x1="188.1" y1="152.2" x2="209.7" y2="189.6"/>
		<line class="st2" x1="209.7" y1="232.8" x2="209.7" y2="189.6"/>
		<line class="st2" x1="209.7" y1="232.8" x2="247.1" y2="211.2"/>
		<line class="st2" x1="188.1" y1="195.4" x2="209.7" y2="232.8"/>
		<line class="st2" x1="225.5" y1="173.8" x2="188.1" y2="195.4"/>
		<line class="st2" x1="247.1" y1="211.2" x2="225.5" y2="173.8"/>
		<line class="st2" x1="146.4" y1="425.7" x2="109" y2="447.3"/>
		<line class="st2" x1="225.5" y1="260.2" x2="225.5" y2="173.8"/>
		<line class="st2" x1="225.5" y1="260.2" x2="1" y2="389.8"/>
		<line class="st2" x1="168" y1="463.1" x2="146.4" y2="425.7"/>
		<line class="st2" x1="146.4" y1="468.9" x2="146.4" y2="425.7"/>
		<line class="st2" x1="225.5" y1="130.6" x2="225.5" y2="1"/>
		<line class="st2" x1="146.4" y1="468.9" x2="127.7" y2="479.7"/>
		<line class="st2" x1="149.3" y1="473.9" x2="146.4" y2="468.9"/>
		<line class="st2" x1="311.9" y1="193.8" x2="293.2" y2="161.4"/>
		<line class="st2" x1="231.3" y1="140.6" x2="274.5" y2="215.4"/>
		<line class="st2" x1="355.1" y1="484.7" x2="317.7" y2="419.9"/>
		<line class="st2" x1="103.2" y1="394" x2="103.2" y2="350.8"/>
		<line class="st2" x1="103.2" y1="350.8" x2="65.8" y2="372.4"/>
		<line class="st2" x1="296.1" y1="382.5" x2="225.5" y2="260.2"/>
		<line class="st2" x1="65.8" y1="415.6" x2="103.2" y2="394"/>
	</g>
	<g id="Make2D::visible::lines" class="st1">
		<line class="st3" x1="1" y1="389.8" x2="130.6" y2="614.3"/>
		<line class="st3" x1="65.8" y1="415.6" x2="65.8" y2="372.4"/>
		<line class="st3" x1="109" y1="490.5" x2="130.6" y2="527.9"/>
		<line class="st3" x1="355.1" y1="355.1" x2="355.1" y2="225.5"/>
		<line class="st3" x1="355.1" y1="484.7" x2="355.1" y2="398.3"/>
		<line class="st3" x1="130.6" y1="614.3" x2="355.1" y2="484.7"/>
		<line class="st3" x1="130.6" y1="614.3" x2="130.6" y2="527.9"/>
		<line class="st3" x1="130.6" y1="484.7" x2="130.6" y2="398.3"/>
		<line class="st3" x1="1" y1="130.6" x2="109" y2="317.7"/>
		<line class="st3" x1="268.7" y1="75.8" x2="225.5" y2="1"/>
		<line class="st3" x1="355.1" y1="225.5" x2="311.9" y2="150.6"/>
		<line class="st3" x1="168" y1="333.5" x2="355.1" y2="225.5"/>
		<line class="st3" x1="231.3" y1="97.4" x2="274.5" y2="172.2"/>
		<line class="st3" x1="130.6" y1="527.9" x2="168" y2="506.3"/>
		<line class="st3" x1="293.2" y1="161.4" x2="268.7" y2="119"/>
		<line class="st3" x1="168" y1="506.3" x2="149.3" y2="473.9"/>
		<line class="st3" x1="127.7" y1="479.7" x2="109" y2="490.5"/>
		<line class="st3" x1="225.5" y1="1" x2="1" y2="130.6"/>
		<line class="st3" x1="1" y1="389.8" x2="1" y2="130.6"/>
		<line class="st3" x1="168" y1="506.3" x2="168" y2="463.1"/>
		<line class="st3" x1="109" y1="490.5" x2="109" y2="447.3"/>
		<line class="st3" x1="156.4" y1="140.6" x2="178" y2="178"/>
		<line class="st3" x1="44.2" y1="378.2" x2="65.8" y2="415.6"/>
		<line class="st3" x1="62.9" y1="367.4" x2="44.2" y2="378.2"/>
		<line class="st3" x1="44.2" y1="378.2" x2="44.2" y2="335"/>
		<line class="st3" x1="317.7" y1="376.7" x2="355.1" y2="355.1"/>
		<line class="st3" x1="44.2" y1="335" x2="65.8" y2="372.4"/>
		<line class="st3" x1="317.7" y1="419.9" x2="317.7" y2="376.7"/>
		<line class="st3" x1="159.3" y1="188.8" x2="156.4" y2="183.8"/>
		<line class="st3" x1="156.4" y1="183.8" x2="137.7" y2="194.6"/>
		<line class="st3" x1="156.4" y1="140.6" x2="119" y2="162.2"/>
		<line class="st3" x1="156.4" y1="140.6" x2="156.4" y2="183.8"/>
		<line class="st3" x1="119" y1="162.2" x2="140.6" y2="199.6"/>
		<line class="st3" x1="355.1" y1="398.3" x2="336.4" y2="365.9"/>
		<line class="st3" x1="317.7" y1="419.9" x2="355.1" y2="398.3"/>
		<line class="st3" x1="146.4" y1="296.1" x2="109" y2="317.7"/>
		<line class="st3" x1="109" y1="360.9" x2="109" y2="317.7"/>
		<line class="st3" x1="168" y1="376.7" x2="168" y2="333.5"/>
		<line class="st3" x1="168" y1="333.5" x2="146.4" y2="296.1"/>
		<line class="st3" x1="146.4" y1="339.3" x2="146.4" y2="296.1"/>
		<line class="st3" x1="146.4" y1="339.3" x2="109" y2="360.9"/>
		<line class="st3" x1="168" y1="376.7" x2="146.4" y2="339.3"/>
		<line class="st3" x1="130.6" y1="398.3" x2="168" y2="376.7"/>
		<line class="st3" x1="109" y1="360.9" x2="130.6" y2="398.3"/>
		<line class="st3" x1="178" y1="178" x2="140.6" y2="199.6"/>
		<line class="st3" x1="130.6" y1="484.7" x2="168" y2="463.1"/>
		<line class="st3" x1="109" y1="447.3" x2="130.6" y2="484.7"/>
		<line class="st3" x1="268.7" y1="119" x2="250" y2="129.8"/>
		<line class="st3" x1="274.5" y1="172.2" x2="311.9" y2="150.6"/>
		<line class="st3" x1="268.7" y1="75.8" x2="231.3" y2="97.4"/>
		<line class="st3" x1="268.7" y1="119" x2="268.7" y2="75.8"/>
	</g>
</g>
<g id="Layer_2">
	<line class="st3" x1="225.9" y1="196.1" x2="236.7" y2="214.8"/>
	<line class="st3" x1="355.1" y1="484.7" x2="355.1" y2="225.5"/>
	<line class="st3" x1="130.6" y1="355.1" x2="355.1" y2="225.5"/>
	<line class="st3" x1="198.2" y1="256.1" x2="192.8" y2="246.8"/>
	<line class="st3" x1="130.6" y1="614.3" x2="130.6" y2="355.1"/>
	<line class="st3" x1="289.6" y1="500.9" x2="270.9" y2="511.7"/>
	<line class="st3" x1="182" y1="228.1" x2="179.5" y2="223.7"/>
	<line class="st3" x1="191.4" y1="222.7" x2="182" y2="228.1"/>
	<line class="st3" x1="270.9" y1="511.7" x2="270.9" y2="468.5"/>
	<line class="st3" x1="289.6" y1="457.7" x2="270.9" y2="468.5"/>
	<line class="st3" x1="182" y1="228.1" x2="182" y2="222.3"/>
	<line class="st3" x1="289.6" y1="500.9" x2="289.6" y2="457.7"/>
	<line class="st3" x1="196.1" y1="554.9" x2="196.1" y2="511.7"/>
	<line class="st3" x1="192.8" y1="216.1" x2="192.8" y2="246.8"/>
	<line class="st3" x1="214.8" y1="500.9" x2="196.1" y2="511.7"/>
	<line class="st3" x1="214.8" y1="544.1" x2="214.8" y2="500.9"/>
	<line class="st3" x1="163.3" y1="238.9" x2="154" y2="244.3"/>
	<line class="st3" x1="163.3" y1="217.3" x2="163.3" y2="238.9"/>
	<line class="st3" x1="214.8" y1="544.1" x2="196.1" y2="554.9"/>
	<line class="st3" x1="233.5" y1="533.3" x2="233.5" y2="490.1"/>
	<line class="st3" x1="252.2" y1="479.3" x2="233.5" y2="490.1"/>
	<line class="st3" x1="252.2" y1="522.5" x2="252.2" y2="479.3"/>
	<line class="st3" x1="154" y1="244.3" x2="154" y2="201.1"/>
	<line class="st3" x1="154" y1="244.3" x2="164.8" y2="263"/>
	<line class="st3" x1="164.8" y1="263" x2="164.8" y2="219.8"/>
	<line class="st3" x1="154" y1="201.1" x2="164.8" y2="219.8"/>
	<line class="st3" x1="148.6" y1="170.1" x2="170.2" y2="207.5"/>
	<line class="st3" x1="252.2" y1="522.5" x2="233.5" y2="533.3"/>
	<line class="st3" x1="289.6" y1="414.5" x2="270.9" y2="425.3"/>
	<line class="st3" x1="270.9" y1="425.3" x2="270.9" y2="382.1"/>
	<line class="st3" x1="164.8" y1="225.6" x2="163.3" y2="226.4"/>
	<line class="st3" x1="289.6" y1="371.3" x2="270.9" y2="382.1"/>
	<line class="st3" x1="289.6" y1="414.5" x2="289.6" y2="371.3"/>
	<line class="st3" x1="196.1" y1="468.5" x2="196.1" y2="425.3"/>
	<line class="st3" x1="186" y1="148.5" x2="148.6" y2="170.1"/>
	<line class="st3" x1="148.6" y1="294.8" x2="148.6" y2="170.1"/>
	<line class="st3" x1="214.8" y1="414.5" x2="196.1" y2="425.3"/>
	<line class="st3" x1="214.8" y1="457.7" x2="214.8" y2="414.5"/>
	<line class="st3" x1="192.8" y1="225.2" x2="191.4" y2="222.7"/>
	<line class="st3" x1="214.8" y1="457.7" x2="196.1" y2="468.5"/>
	<line class="st3" x1="233.5" y1="446.9" x2="233.5" y2="403.7"/>
	<line class="st3" x1="191.4" y1="222.7" x2="191.4" y2="216.9"/>
	<line class="st3" x1="252.2" y1="392.9" x2="233.5" y2="403.7"/>
	<line class="st3" x1="252.2" y1="436.1" x2="252.2" y2="392.9"/>
	<line class="st3" x1="207.6" y1="185.9" x2="186" y2="148.5"/>
	<line class="st3" x1="252.2" y1="436.1" x2="233.5" y2="446.9"/>
	<line class="st3" x1="198.2" y1="256.1" x2="198.2" y2="212.9"/>
	<line class="st3" x1="179.5" y1="223.7" x2="198.2" y2="212.9"/>
	<line class="st3" x1="179.5" y1="266.9" x2="179.5" y2="223.7"/>
	<line class="st3" x1="179.5" y1="266.9" x2="198.2" y2="256.1"/>
	<line class="st3" x1="170.2" y1="282.4" x2="170.2" y2="207.5"/>
	<line class="st3" x1="289.6" y1="328.1" x2="270.9" y2="338.9"/>
	<line class="st3" x1="170.2" y1="207.5" x2="207.6" y2="185.9"/>
	<line class="st3" x1="207.6" y1="260.8" x2="207.6" y2="185.9"/>
	<line class="st3" x1="270.9" y1="338.9" x2="270.9" y2="295.7"/>
	<line class="st3" x1="289.6" y1="284.9" x2="270.9" y2="295.7"/>
	<line class="st3" x1="289.6" y1="328.1" x2="289.6" y2="284.9"/>
	<line class="st3" x1="196.1" y1="338.9" x2="214.8" y2="371.3"/>
	<line class="st3" x1="196.1" y1="382.1" x2="196.1" y2="338.9"/>
	<line class="st3" x1="214.8" y1="328.1" x2="196.1" y2="338.9"/>
	<line class="st3" x1="214.8" y1="371.3" x2="214.8" y2="328.1"/>
	<line class="st3" x1="233.5" y1="317.3" x2="252.2" y2="349.7"/>
	<line class="st3" x1="214.8" y1="371.3" x2="196.1" y2="382.1"/>
	<line class="st3" x1="233.5" y1="360.5" x2="233.5" y2="317.3"/>
	<line class="st3" x1="252.2" y1="306.5" x2="233.5" y2="317.3"/>
	<line class="st3" x1="270.9" y1="295.7" x2="289.6" y2="328.1"/>
	<line class="st3" x1="252.2" y1="349.7" x2="252.2" y2="306.5"/>
	<line class="st3" x1="252.2" y1="349.7" x2="233.5" y2="360.5"/>
	<line class="st3" x1="355.1" y1="225.5" x2="225.5" y2="1"/>
	<line class="st3" x1="1" y1="389.8" x2="1" y2="130.6"/>
	<line class="st3" x1="225.5" y1="1" x2="1" y2="130.6"/>
	<line class="st3" x1="1" y1="389.8" x2="130.6" y2="614.3"/>
	<line class="st3" x1="1" y1="130.6" x2="130.6" y2="355.1"/>
	<line class="st3" x1="258.3" y1="184" x2="247.5" y2="190.3"/>
	<line class="st3" x1="49.6" y1="452.4" x2="49.6" y2="409.2"/>
	<line class="st3" x1="49.6" y1="452.4" x2="38.8" y2="433.7"/>
	<line class="st3" x1="38.8" y1="433.7" x2="38.8" y2="390.5"/>
	<line class="st3" x1="88.1" y1="151.8" x2="106.8" y2="184.2"/>
	<line class="st3" x1="49.6" y1="409.2" x2="38.8" y2="390.5"/>
	<line class="st3" x1="71.2" y1="489.8" x2="60.4" y2="471.1"/>
	<line class="st3" x1="125.5" y1="130.2" x2="144.2" y2="162.6"/>
	<line class="st3" x1="60.4" y1="471.1" x2="60.4" y2="427.9"/>
	<line class="st3" x1="71.2" y1="446.6" x2="60.4" y2="427.9"/>
	<line class="st3" x1="71.2" y1="489.8" x2="71.2" y2="446.6"/>
	<line class="st3" x1="92.8" y1="527.2" x2="82" y2="508.5"/>
	<line class="st3" x1="236.7" y1="146.6" x2="225.9" y2="152.9"/>
	<line class="st3" x1="82" y1="508.5" x2="82" y2="465.3"/>
	<line class="st3" x1="92.8" y1="484" x2="82" y2="465.3"/>
	<line class="st3" x1="92.8" y1="527.2" x2="92.8" y2="484"/>
	<line class="st3" x1="162.9" y1="108.6" x2="181.6" y2="141"/>
	<line class="st3" x1="49.6" y1="366" x2="49.6" y2="322.8"/>
	<line class="st3" x1="49.6" y1="366" x2="38.8" y2="347.3"/>
	<line class="st3" x1="38.8" y1="347.3" x2="38.8" y2="304.1"/>
	<line class="st3" x1="49.6" y1="254.6" x2="38.8" y2="260.9"/>
	<line class="st3" x1="49.6" y1="322.8" x2="38.8" y2="304.1"/>
	<line class="st3" x1="71.2" y1="403.4" x2="60.4" y2="384.7"/>
	<line class="st3" x1="60.4" y1="384.7" x2="60.4" y2="341.5"/>
	<line class="st3" x1="71.2" y1="360.2" x2="60.4" y2="341.5"/>
	<line class="st3" x1="71.2" y1="292" x2="60.4" y2="298.3"/>
	<line class="st3" x1="71.2" y1="403.4" x2="71.2" y2="360.2"/>
	<line class="st3" x1="92.8" y1="440.8" x2="82" y2="422.1"/>
	<line class="st3" x1="82" y1="422.1" x2="82" y2="378.9"/>
	<line class="st3" x1="92.8" y1="397.6" x2="82" y2="378.9"/>
	<line class="st3" x1="92.8" y1="329.5" x2="82" y2="335.7"/>
	<line class="st3" x1="92.8" y1="440.8" x2="92.8" y2="397.6"/>
	<line class="st3" x1="49.6" y1="279.6" x2="49.6" y2="236.4"/>
	<line class="st3" x1="49.6" y1="279.6" x2="38.8" y2="260.9"/>
	<line class="st3" x1="38.8" y1="260.9" x2="38.8" y2="217.7"/>
	<line class="st3" x1="49.6" y1="236.4" x2="38.8" y2="217.7"/>
	<line class="st3" x1="196.1" y1="425.3" x2="214.8" y2="457.7"/>
	<line class="st3" x1="71.2" y1="317" x2="60.4" y2="298.3"/>
	<line class="st3" x1="60.4" y1="298.3" x2="60.4" y2="255.1"/>
	<line class="st3" x1="71.2" y1="273.8" x2="60.4" y2="255.1"/>
	<line class="st3" x1="233.5" y1="403.7" x2="252.2" y2="436.1"/>
	<line class="st3" x1="71.2" y1="317" x2="71.2" y2="273.8"/>
	<line class="st3" x1="92.8" y1="354.4" x2="82" y2="335.7"/>
	<line class="st3" x1="82" y1="335.7" x2="82" y2="292.5"/>
	<line class="st3" x1="270.9" y1="382.1" x2="289.6" y2="414.5"/>
	<line class="st3" x1="92.8" y1="311.2" x2="82" y2="292.5"/>
	<line class="st3" x1="92.8" y1="354.4" x2="92.8" y2="311.2"/>
	<line class="st3" x1="146.4" y1="296.1" x2="60" y2="146.4"/>
	<line class="st3" x1="209.7" y1="259.5" x2="209.7" y2="60"/>
	<line class="st3" x1="60" y1="146.4" x2="209.7" y2="60"/>
	<line class="st3" x1="125.5" y1="216.6" x2="144.2" y2="205.8"/>
	<line class="st3" x1="144.2" y1="249" x2="144.2" y2="205.8"/>
	<line class="st3" x1="144.2" y1="249" x2="125.5" y2="259.8"/>
	<line class="st3" x1="125.5" y1="259.8" x2="125.5" y2="216.6"/>
	<line class="st3" x1="162.9" y1="151.8" x2="162.9" y2="108.6"/>
	<line class="st3" x1="162.9" y1="108.6" x2="181.6" y2="97.8"/>
	<line class="st3" x1="181.6" y1="141" x2="181.6" y2="97.8"/>
	<line class="st3" x1="125.5" y1="216.6" x2="144.2" y2="249"/>
	<line class="st3" x1="181.6" y1="141" x2="162.9" y2="151.8"/>
	<line class="st3" x1="106.8" y1="184.2" x2="88.1" y2="195"/>
	<line class="st3" x1="88.1" y1="195" x2="88.1" y2="151.8"/>
	<line class="st3" x1="236.7" y1="233" x2="225.9" y2="239.3"/>
	<line class="st3" x1="88.1" y1="151.8" x2="106.8" y2="141"/>
	<line class="st3" x1="106.8" y1="184.2" x2="106.8" y2="141"/>
	<line class="st3" x1="125.5" y1="130.2" x2="144.2" y2="119.4"/>
	<line class="st3" x1="144.2" y1="162.6" x2="144.2" y2="119.4"/>
	<line class="st3" x1="144.2" y1="162.6" x2="125.5" y2="173.4"/>
	<line class="st3" x1="125.5" y1="173.4" x2="125.5" y2="130.2"/>
	<line class="st3" x1="209.7" y1="60" x2="296.1" y2="209.7"/>
	<line class="st3" x1="49.6" y1="341" x2="38.8" y2="347.3"/>
	<line class="st3" x1="247.5" y1="233.5" x2="249.3" y2="236.7"/>
	<line class="st3" x1="247.5" y1="237.7" x2="247.5" y2="233.5"/>
	<line class="st3" x1="130.6" y1="614.3" x2="355.1" y2="484.7"/>
	<line class="st3" x1="236.7" y1="244" x2="236.7" y2="214.8"/>
	<line class="st3" x1="71.2" y1="378.4" x2="60.4" y2="384.7"/>
	<line class="st3" x1="230.6" y1="247.5" x2="225.9" y2="239.3"/>
	<line class="st3" x1="225.9" y1="239.3" x2="225.9" y2="196.1"/>
	<line class="st3" x1="269.1" y1="184.5" x2="279.9" y2="203.2"/>
	<line class="st3" x1="279.9" y1="219" x2="279.9" y2="203.2"/>
	<line class="st3" x1="92.8" y1="415.9" x2="82" y2="422.1"/>
	<line class="st3" x1="269.1" y1="225.2" x2="269.1" y2="184.5"/>
	<line class="st3" x1="247.5" y1="147.1" x2="258.3" y2="165.8"/>
	<line class="st3" x1="258.3" y1="209" x2="258.3" y2="165.8"/>
	<line class="st3" x1="258.3" y1="209" x2="247.5" y2="190.3"/>
	<line class="st3" x1="247.5" y1="190.3" x2="247.5" y2="147.1"/>
	<line class="st3" x1="196.1" y1="511.7" x2="214.8" y2="544.1"/>
	<line class="st3" x1="225.9" y1="109.7" x2="236.7" y2="128.4"/>
	<line class="st3" x1="236.7" y1="171.6" x2="236.7" y2="128.4"/>
	<line class="st3" x1="236.7" y1="171.6" x2="225.9" y2="152.9"/>
	<line class="st3" x1="233.5" y1="490.1" x2="252.2" y2="522.5"/>
	<line class="st3" x1="225.9" y1="152.9" x2="225.9" y2="109.7"/>
	<line class="st3" x1="296.1" y1="209.7" x2="146.4" y2="296.1"/>
	<line class="st3" x1="92.8" y1="502.3" x2="82" y2="508.5"/>
	<line class="st3" x1="270.9" y1="468.5" x2="289.6" y2="500.9"/>
	<line class="st3" x1="71.2" y1="464.8" x2="60.4" y2="471.1"/>
	<line class="st3" x1="49.6" y1="427.4" x2="38.8" y2="433.7"/>
	<line class="st4" x1="317.3" y1="397.6" x2="279.9" y2="419.2"/>
	<line class="st4" x1="306.5" y1="378.9" x2="269.1" y2="400.5"/>
	<line class="st4" x1="269.1" y1="357.3" x2="306.5" y2="335.7"/>
	<line class="st4" x1="279.9" y1="376" x2="317.3" y2="354.4"/>
	<line class="st4" x1="295.7" y1="360.2" x2="258.3" y2="381.8"/>
	<line class="st4" x1="284.9" y1="341.5" x2="247.5" y2="363.1"/>
	<line class="st4" x1="247.5" y1="319.9" x2="284.9" y2="298.3"/>
	<line class="st4" x1="258.3" y1="338.6" x2="295.7" y2="317"/>
	<line class="st4" x1="88.1" y1="324.6" x2="106.8" y2="357"/>
	<line class="st4" x1="66.5" y1="330.4" x2="88.1" y2="367.8"/>
	<line class="st4" x1="88.1" y1="324.6" x2="66.5" y2="287.2"/>
	<line class="st4" x1="125.5" y1="303" x2="144.2" y2="335.4"/>
	<line class="st4" x1="125.5" y1="303" x2="106.8" y2="270.6"/>
	<line class="st4" x1="274.1" y1="322.8" x2="236.7" y2="344.4"/>
	<line class="st4" x1="263.3" y1="304.1" x2="225.9" y2="325.7"/>
	<line class="st4" x1="225.9" y1="282.5" x2="263.3" y2="260.9"/>
	<line class="st4" x1="236.7" y1="301.2" x2="274.1" y2="279.6"/>
	<line class="st4" x1="162.9" y1="281.4" x2="174.5" y2="301.5"/>
	<line class="st4" x1="146.4" y1="296.1" x2="162.9" y2="324.6"/>
	<line class="st4" x1="162.9" y1="281.4" x2="144.2" y2="249"/>
	<line class="st4" x1="174.1" y1="257.6" x2="163.3" y2="238.9"/>
	<line class="st4" x1="181.6" y1="270.6" x2="179.5" y2="266.9"/>
	<line class="st4" x1="270.9" y1="468.5" x2="252.2" y2="436.1"/>
	<line class="st4" x1="76.2" y1="412.1" x2="49.6" y2="427.4"/>
	<line class="st4" x1="87" y1="430.8" x2="49.6" y2="452.4"/>
	<line class="st4" x1="49.6" y1="409.2" x2="87" y2="387.6"/>
	<line class="st4" x1="38.8" y1="390.5" x2="76.2" y2="368.9"/>
	<line class="st4" x1="289.6" y1="457.7" x2="270.9" y2="425.3"/>
	<line class="st4" x1="97.8" y1="449.5" x2="71.2" y2="464.8"/>
	<line class="st4" x1="108.6" y1="468.2" x2="71.2" y2="489.8"/>
	<line class="st4" x1="71.2" y1="446.6" x2="108.6" y2="425"/>
	<line class="st4" x1="60.4" y1="427.9" x2="97.8" y2="406.3"/>
	<line class="st4" x1="252.2" y1="479.3" x2="270.9" y2="511.7"/>
	<line class="st4" x1="119.4" y1="486.9" x2="92.8" y2="502.3"/>
	<line class="st4" x1="130.2" y1="505.6" x2="92.8" y2="527.2"/>
	<line class="st4" x1="92.8" y1="484" x2="130.2" y2="462.4"/>
	<line class="st4" x1="82" y1="465.3" x2="119.4" y2="443.7"/>
	<line class="st4" x1="268" y1="247.5" x2="268" y2="290.7"/>
	<line class="st4" x1="249.3" y1="301.5" x2="268" y2="290.7"/>
	<line class="st4" x1="249.3" y1="258.3" x2="249.3" y2="301.5"/>
	<line class="st4" x1="268" y1="247.5" x2="249.3" y2="258.3"/>
	<line class="st4" x1="230.6" y1="269.1" x2="230.6" y2="312.3"/>
	<line class="st4" x1="211.9" y1="323.1" x2="230.6" y2="312.3"/>
	<line class="st4" x1="211.9" y1="279.9" x2="211.9" y2="323.1"/>
	<line class="st4" x1="230.6" y1="269.1" x2="211.9" y2="279.9"/>
	<line class="st4" x1="193.2" y1="290.7" x2="193.2" y2="333.9"/>
	<line class="st4" x1="174.5" y1="344.7" x2="193.2" y2="333.9"/>
	<line class="st4" x1="174.5" y1="301.5" x2="174.5" y2="344.7"/>
	<line class="st4" x1="193.2" y1="290.7" x2="174.5" y2="301.5"/>
	<line class="st4" x1="268" y1="333.9" x2="268" y2="377.1"/>
	<line class="st4" x1="249.3" y1="387.9" x2="268" y2="377.1"/>
	<line class="st4" x1="249.3" y1="344.7" x2="249.3" y2="387.9"/>
	<line class="st4" x1="268" y1="333.9" x2="249.3" y2="344.7"/>
	<line class="st4" x1="230.6" y1="355.5" x2="230.6" y2="398.7"/>
	<line class="st4" x1="211.9" y1="409.5" x2="230.6" y2="398.7"/>
	<line class="st4" x1="211.9" y1="366.3" x2="211.9" y2="409.5"/>
	<line class="st4" x1="230.6" y1="355.5" x2="211.9" y2="366.3"/>
	<line class="st4" x1="193.2" y1="377.1" x2="193.2" y2="420.3"/>
	<line class="st4" x1="174.5" y1="431.1" x2="193.2" y2="420.3"/>
	<line class="st4" x1="174.5" y1="387.9" x2="174.5" y2="431.1"/>
	<line class="st4" x1="193.2" y1="377.1" x2="174.5" y2="387.9"/>
	<line class="st4" x1="268" y1="420.3" x2="268" y2="463.5"/>
	<line class="st4" x1="249.3" y1="474.3" x2="268" y2="463.5"/>
	<line class="st4" x1="249.3" y1="431.1" x2="249.3" y2="474.3"/>
	<line class="st4" x1="268" y1="420.3" x2="249.3" y2="431.1"/>
	<line class="st4" x1="230.6" y1="441.9" x2="230.6" y2="485.1"/>
	<line class="st4" x1="211.9" y1="495.9" x2="230.6" y2="485.1"/>
	<line class="st4" x1="211.9" y1="452.7" x2="211.9" y2="495.9"/>
	<line class="st4" x1="230.6" y1="441.9" x2="211.9" y2="452.7"/>
	<line class="st4" x1="193.2" y1="463.5" x2="193.2" y2="506.7"/>
	<line class="st4" x1="174.5" y1="517.5" x2="193.2" y2="506.7"/>
	<line class="st4" x1="174.5" y1="474.3" x2="174.5" y2="517.5"/>
	<line class="st4" x1="193.2" y1="463.5" x2="174.5" y2="474.3"/>
	<line class="st4" x1="233.5" y1="490.1" x2="214.8" y2="457.7"/>
	<line class="st4" x1="296.1" y1="468.9" x2="146.4" y2="555.3"/>
	<line class="st4" x1="252.2" y1="479.3" x2="233.5" y2="446.9"/>
	<line class="st4" x1="214.8" y1="500.9" x2="233.5" y2="533.3"/>
	<line class="st4" x1="196.1" y1="511.7" x2="174.5" y2="474.3"/>
	<line class="st4" x1="214.8" y1="500.9" x2="196.1" y2="468.5"/>
	<line class="st4" x1="174.5" y1="517.5" x2="196.1" y2="554.9"/>
	<line class="st4" x1="82" y1="378.9" x2="119.4" y2="357.3"/>
	<line class="st4" x1="92.8" y1="397.6" x2="130.2" y2="376"/>
	<line class="st4" x1="130.2" y1="419.2" x2="92.8" y2="440.8"/>
	<line class="st4" x1="119.4" y1="400.5" x2="92.8" y2="415.9"/>
	<line class="st4" x1="269.1" y1="227.7" x2="269.1" y2="225.2"/>
	<line class="st4" x1="279.9" y1="246.4" x2="269.1" y2="227.7"/>
	<line class="st4" x1="60.4" y1="341.5" x2="97.8" y2="319.9"/>
	<line class="st4" x1="279.9" y1="246.4" x2="279.9" y2="219"/>
	<line class="st4" x1="71.2" y1="360.2" x2="108.6" y2="338.6"/>
	<line class="st4" x1="108.6" y1="381.8" x2="71.2" y2="403.4"/>
	<line class="st4" x1="97.8" y1="363.1" x2="71.2" y2="378.4"/>
	<line class="st4" x1="236.7" y1="258" x2="230.6" y2="247.5"/>
	<line class="st4" x1="38.8" y1="304.1" x2="76.2" y2="282.5"/>
	<line class="st4" x1="236.7" y1="258" x2="236.7" y2="244"/>
	<line class="st4" x1="49.6" y1="322.8" x2="87" y2="301.2"/>
	<line class="st4" x1="87" y1="344.4" x2="49.6" y2="366"/>
	<line class="st4" x1="247.5" y1="276.7" x2="247.5" y2="237.7"/>
	<line class="st4" x1="258.3" y1="295.4" x2="247.5" y2="276.7"/>
	<line class="st4" x1="258.3" y1="295.4" x2="258.3" y2="252.2"/>
	<line class="st4" x1="249.3" y1="236.7" x2="258.3" y2="252.2"/>
	<line class="st4" x1="76.2" y1="325.7" x2="49.6" y2="341"/>
	<line class="st4" x1="269.1" y1="314.1" x2="269.1" y2="270.9"/>
	<line class="st4" x1="279.9" y1="332.8" x2="269.1" y2="314.1"/>
	<line class="st4" x1="279.9" y1="332.8" x2="279.9" y2="289.6"/>
	<line class="st4" x1="269.1" y1="270.9" x2="279.9" y2="289.6"/>
	<line class="st4" x1="225.9" y1="325.7" x2="225.9" y2="282.5"/>
	<line class="st4" x1="236.7" y1="344.4" x2="225.9" y2="325.7"/>
	<line class="st4" x1="236.7" y1="344.4" x2="236.7" y2="301.2"/>
	<line class="st4" x1="225.9" y1="282.5" x2="236.7" y2="301.2"/>
	<line class="st4" x1="247.5" y1="363.1" x2="247.5" y2="319.9"/>
	<line class="st4" x1="258.3" y1="381.8" x2="247.5" y2="363.1"/>
	<line class="st4" x1="258.3" y1="381.8" x2="258.3" y2="338.6"/>
	<line class="st4" x1="247.5" y1="319.9" x2="258.3" y2="338.6"/>
	<line class="st4" x1="269.1" y1="400.5" x2="269.1" y2="357.3"/>
	<line class="st4" x1="279.9" y1="419.2" x2="269.1" y2="400.5"/>
	<line class="st4" x1="279.9" y1="419.2" x2="279.9" y2="376"/>
	<line class="st4" x1="269.1" y1="357.3" x2="279.9" y2="376"/>
	<line class="st4" x1="176.6" y1="175.5" x2="162.9" y2="151.8"/>
	<line class="st4" x1="296.1" y1="468.9" x2="296.1" y2="209.7"/>
	<line class="st4" x1="289.6" y1="457.7" x2="296.1" y2="468.9"/>
	<line class="st4" x1="148.6" y1="170.1" x2="144.2" y2="162.6"/>
	<line class="st4" x1="144.2" y1="205.8" x2="157.9" y2="229.5"/>
	<line class="st4" x1="170.2" y1="207.5" x2="174.1" y2="214.4"/>
	<line class="st4" x1="236.7" y1="214.8" x2="274.1" y2="193.2"/>
	<line class="st4" x1="225.9" y1="196.1" x2="263.3" y2="174.5"/>
	<line class="st4" x1="263.3" y1="217.7" x2="236.7" y2="233"/>
	<line class="st4" x1="274.1" y1="236.4" x2="236.7" y2="258"/>
	<line class="st4" x1="144.2" y1="205.8" x2="125.5" y2="173.4"/>
	<line class="st4" x1="125.5" y1="216.6" x2="106.8" y2="184.2"/>
	<line class="st4" x1="88.1" y1="238.2" x2="66.5" y2="200.8"/>
	<line class="st4" x1="88.1" y1="238.2" x2="106.8" y2="270.6"/>
	<line class="st4" x1="258.3" y1="252.2" x2="295.7" y2="230.6"/>
	<line class="st4" x1="247.5" y1="233.5" x2="284.9" y2="211.9"/>
	<line class="st4" x1="284.9" y1="255.1" x2="247.5" y2="276.7"/>
	<line class="st4" x1="295.7" y1="273.8" x2="258.3" y2="295.4"/>
	<line class="st4" x1="279.9" y1="289.6" x2="317.3" y2="268"/>
	<line class="st4" x1="106.8" y1="270.6" x2="106.8" y2="227.4"/>
	<line class="st4" x1="88.1" y1="238.2" x2="106.8" y2="227.4"/>
	<line class="st4" x1="88.1" y1="281.4" x2="88.1" y2="238.2"/>
	<line class="st4" x1="106.8" y1="270.6" x2="88.1" y2="281.4"/>
	<line class="st4" x1="181.6" y1="227.4" x2="162.9" y2="238.2"/>
	<line class="st4" x1="181.6" y1="227.4" x2="181.6" y2="184.2"/>
	<line class="st4" x1="162.9" y1="195" x2="181.6" y2="184.2"/>
	<line class="st4" x1="162.9" y1="238.2" x2="162.9" y2="195"/>
	<line class="st4" x1="125.5" y1="346.2" x2="125.5" y2="303"/>
	<line class="st4" x1="144.2" y1="335.4" x2="125.5" y2="346.2"/>
	<line class="st4" x1="144.2" y1="335.4" x2="144.2" y2="292.2"/>
	<line class="st4" x1="125.5" y1="303" x2="144.2" y2="292.2"/>
	<line class="st4" x1="106.8" y1="357" x2="106.8" y2="313.8"/>
	<line class="st4" x1="88.1" y1="324.6" x2="106.8" y2="313.8"/>
	<line class="st4" x1="88.1" y1="367.8" x2="88.1" y2="324.6"/>
	<line class="st4" x1="106.8" y1="357" x2="88.1" y2="367.8"/>
	<line class="st4" x1="181.6" y1="313.8" x2="162.9" y2="324.6"/>
	<line class="st4" x1="181.6" y1="313.8" x2="181.6" y2="270.6"/>
	<line class="st4" x1="162.9" y1="281.4" x2="181.6" y2="270.6"/>
	<line class="st4" x1="162.9" y1="324.6" x2="162.9" y2="281.4"/>
	<line class="st4" x1="269.1" y1="270.9" x2="306.5" y2="249.3"/>
	<line class="st4" x1="306.5" y1="292.5" x2="269.1" y2="314.1"/>
	<line class="st4" x1="209.7" y1="319.2" x2="209.7" y2="259.5"/>
	<line class="st4" x1="60" y1="405.6" x2="209.7" y2="319.2"/>
	<line class="st4" x1="130.2" y1="289.6" x2="130.2" y2="332.8"/>
	<line class="st4" x1="119.4" y1="314.1" x2="130.2" y2="332.8"/>
	<line class="st4" x1="119.4" y1="270.9" x2="119.4" y2="314.1"/>
	<line class="st4" x1="130.2" y1="289.6" x2="119.4" y2="270.9"/>
	<line class="st4" x1="108.6" y1="252.2" x2="108.6" y2="295.4"/>
	<line class="st4" x1="97.8" y1="276.7" x2="108.6" y2="295.4"/>
	<line class="st4" x1="97.8" y1="233.5" x2="97.8" y2="276.7"/>
	<line class="st4" x1="108.6" y1="252.2" x2="97.8" y2="233.5"/>
	<line class="st4" x1="87" y1="214.8" x2="87" y2="258"/>
	<line class="st4" x1="76.2" y1="239.3" x2="87" y2="258"/>
	<line class="st4" x1="76.2" y1="196.1" x2="76.2" y2="239.3"/>
	<line class="st4" x1="87" y1="214.8" x2="76.2" y2="196.1"/>
	<line class="st4" x1="130.2" y1="376" x2="130.2" y2="419.2"/>
	<line class="st4" x1="119.4" y1="400.5" x2="130.2" y2="419.2"/>
	<line class="st4" x1="119.4" y1="357.3" x2="119.4" y2="400.5"/>
	<line class="st4" x1="130.2" y1="376" x2="119.4" y2="357.3"/>
	<line class="st4" x1="108.6" y1="338.6" x2="108.6" y2="381.8"/>
	<line class="st4" x1="97.8" y1="363.1" x2="108.6" y2="381.8"/>
	<line class="st4" x1="97.8" y1="319.9" x2="97.8" y2="363.1"/>
	<line class="st4" x1="108.6" y1="338.6" x2="97.8" y2="319.9"/>
	<line class="st4" x1="87" y1="301.2" x2="87" y2="344.4"/>
	<line class="st4" x1="76.2" y1="325.7" x2="82" y2="335.7"/>
	<line class="st4" x1="76.2" y1="282.5" x2="76.2" y2="325.7"/>
	<line class="st4" x1="82" y1="292.5" x2="76.2" y2="282.5"/>
	<line class="st4" x1="130.2" y1="462.4" x2="130.2" y2="505.6"/>
	<line class="st4" x1="119.4" y1="486.9" x2="130.2" y2="505.6"/>
	<line class="st4" x1="119.4" y1="443.7" x2="119.4" y2="486.9"/>
	<line class="st4" x1="130.2" y1="462.4" x2="119.4" y2="443.7"/>
	<line class="st4" x1="108.6" y1="425" x2="108.6" y2="468.2"/>
	<line class="st4" x1="97.8" y1="449.5" x2="108.6" y2="468.2"/>
	<line class="st4" x1="97.8" y1="406.3" x2="97.8" y2="449.5"/>
	<line class="st4" x1="108.6" y1="425" x2="97.8" y2="406.3"/>
	<line class="st4" x1="87" y1="387.6" x2="87" y2="430.8"/>
	<line class="st4" x1="76.2" y1="412.1" x2="82" y2="422.1"/>
	<line class="st4" x1="76.2" y1="368.9" x2="76.2" y2="412.1"/>
	<line class="st4" x1="82" y1="378.9" x2="76.2" y2="368.9"/>
	<line class="st4" x1="146.4" y1="555.3" x2="146.4" y2="296.1"/>
	<line class="st4" x1="317.3" y1="311.2" x2="279.9" y2="332.8"/>
	<line class="st4" x1="60" y1="405.6" x2="60" y2="146.4"/>
	<line class="st4" x1="146.4" y1="555.3" x2="60" y2="405.6"/>
	<line class="st4" x1="270.9" y1="382.1" x2="252.2" y2="349.7"/>
	<line class="st4" x1="289.6" y1="371.3" x2="270.9" y2="338.9"/>
	<line class="st4" x1="252.2" y1="392.9" x2="270.9" y2="425.3"/>
	<line class="st4" x1="233.5" y1="403.7" x2="214.8" y2="371.3"/>
	<line class="st4" x1="252.2" y1="392.9" x2="233.5" y2="360.5"/>
	<line class="st4" x1="214.8" y1="414.5" x2="233.5" y2="446.9"/>
	<line class="st4" x1="196.1" y1="425.3" x2="174.5" y2="387.9"/>
	<line class="st4" x1="214.8" y1="414.5" x2="196.1" y2="382.1"/>
	<line class="st4" x1="174.5" y1="431.1" x2="196.1" y2="468.5"/>
	<line class="st4" x1="82" y1="292.5" x2="119.4" y2="270.9"/>
	<line class="st4" x1="92.8" y1="311.2" x2="130.2" y2="289.6"/>
	<line class="st4" x1="130.2" y1="332.8" x2="92.8" y2="354.4"/>
	<line class="st4" x1="119.4" y1="314.1" x2="92.8" y2="329.5"/>
	<line class="st4" x1="60.4" y1="255.1" x2="97.8" y2="233.5"/>
	<line class="st4" x1="71.2" y1="273.8" x2="108.6" y2="252.2"/>
	<line class="st4" x1="108.6" y1="295.4" x2="71.2" y2="317"/>
	<line class="st4" x1="97.8" y1="276.7" x2="71.2" y2="292"/>
	<line class="st4" x1="38.8" y1="217.7" x2="76.2" y2="196.1"/>
	<line class="st4" x1="49.6" y1="236.4" x2="87" y2="214.8"/>
	<line class="st4" x1="87" y1="258" x2="49.6" y2="279.6"/>
	<line class="st4" x1="76.2" y1="239.3" x2="49.6" y2="254.6"/>
	<line class="st4" x1="181.6" y1="97.8" x2="160" y2="60.4"/>
	<line class="st4" x1="162.9" y1="108.6" x2="141.3" y2="71.2"/>
	<line class="st4" x1="144.2" y1="119.4" x2="162.9" y2="151.8"/>
	<line class="st4" x1="236.7" y1="128.4" x2="274.1" y2="106.8"/>
	<line class="st4" x1="225.9" y1="109.7" x2="263.3" y2="88.1"/>
	<line class="st4" x1="263.3" y1="131.3" x2="236.7" y2="146.6"/>
	<line class="st4" x1="274.1" y1="150" x2="236.7" y2="171.6"/>
	<line class="st4" x1="144.2" y1="119.4" x2="122.6" y2="82"/>
	<line class="st4" x1="125.5" y1="130.2" x2="103.9" y2="92.8"/>
	<line class="st4" x1="106.8" y1="141" x2="125.5" y2="173.4"/>
	<line class="st4" x1="106.8" y1="141" x2="85.2" y2="103.6"/>
	<line class="st4" x1="88.1" y1="151.8" x2="66.5" y2="114.4"/>
	<line class="st4" x1="258.3" y1="165.8" x2="295.7" y2="144.2"/>
	<line class="st4" x1="247.5" y1="147.1" x2="284.9" y2="125.5"/>
	<line class="st4" x1="284.9" y1="168.7" x2="258.3" y2="184"/>
	<line class="st4" x1="295.7" y1="187.4" x2="258.3" y2="209"/>
	<line class="st4" x1="279.9" y1="203.2" x2="317.3" y2="181.6"/>
	<line class="st4" x1="85.2" y1="103.6" x2="85.2" y2="146.8"/>
	<line class="st4" x1="85.2" y1="146.8" x2="66.5" y2="157.6"/>
	<line class="st4" x1="66.5" y1="114.4" x2="66.5" y2="157.6"/>
	<line class="st4" x1="85.2" y1="103.6" x2="66.5" y2="114.4"/>
	<line class="st4" x1="160" y1="60.4" x2="160" y2="103.6"/>
	<line class="st4" x1="160" y1="103.6" x2="141.3" y2="114.4"/>
	<line class="st4" x1="141.3" y1="71.2" x2="141.3" y2="114.4"/>
	<line class="st4" x1="160" y1="60.4" x2="141.3" y2="71.2"/>
	<line class="st4" x1="122.6" y1="82" x2="103.9" y2="92.8"/>
	<line class="st4" x1="122.6" y1="82" x2="122.6" y2="125.2"/>
	<line class="st4" x1="122.6" y1="125.2" x2="103.9" y2="136"/>
	<line class="st4" x1="103.9" y1="92.8" x2="103.9" y2="136"/>
	<line class="st4" x1="85.2" y1="190" x2="85.2" y2="233.2"/>
	<line class="st4" x1="85.2" y1="233.2" x2="66.5" y2="244"/>
	<line class="st4" x1="66.5" y1="200.8" x2="66.5" y2="244"/>
	<line class="st4" x1="85.2" y1="190" x2="66.5" y2="200.8"/>
	<line class="st4" x1="160" y1="146.8" x2="160" y2="190"/>
	<line class="st4" x1="160" y1="190" x2="141.3" y2="200.8"/>
	<line class="st4" x1="141.3" y1="157.6" x2="141.3" y2="200.8"/>
	<line class="st4" x1="160" y1="146.8" x2="141.3" y2="157.6"/>
	<line class="st4" x1="122.6" y1="168.4" x2="103.9" y2="179.2"/>
	<line class="st4" x1="122.6" y1="168.4" x2="122.6" y2="211.6"/>
	<line class="st4" x1="122.6" y1="211.6" x2="103.9" y2="222.4"/>
	<line class="st4" x1="103.9" y1="179.2" x2="103.9" y2="222.4"/>
	<line class="st4" x1="85.2" y1="276.4" x2="85.2" y2="319.6"/>
	<line class="st4" x1="85.2" y1="319.6" x2="66.5" y2="330.4"/>
	<line class="st4" x1="66.5" y1="287.2" x2="66.5" y2="330.4"/>
	<line class="st4" x1="85.2" y1="276.4" x2="66.5" y2="287.2"/>
	<line class="st4" x1="160" y1="233.2" x2="160" y2="276.4"/>
	<line class="st4" x1="160" y1="276.4" x2="141.3" y2="287.2"/>
	<line class="st4" x1="141.3" y1="244" x2="141.3" y2="287.2"/>
	<line class="st4" x1="160" y1="233.2" x2="141.3" y2="244"/>
	<line class="st4" x1="122.6" y1="254.8" x2="103.9" y2="265.6"/>
	<line class="st4" x1="122.6" y1="254.8" x2="122.6" y2="298"/>
	<line class="st4" x1="122.6" y1="298" x2="103.9" y2="308.8"/>
	<line class="st4" x1="103.9" y1="265.6" x2="103.9" y2="308.8"/>
	<line class="st4" x1="269.1" y1="184.5" x2="306.5" y2="162.9"/>
	<line class="st4" x1="306.5" y1="206.1" x2="269.1" y2="227.7"/>
	<line class="st4" x1="225.5" y1="260.2" x2="1" y2="389.8"/>
	<line class="st4" x1="295.7" y1="187.4" x2="284.9" y2="168.7"/>
	<line class="st4" x1="284.9" y1="125.5" x2="284.9" y2="168.7"/>
	<line class="st4" x1="295.7" y1="144.2" x2="284.9" y2="125.5"/>
	<line class="st4" x1="295.7" y1="144.2" x2="295.7" y2="187.4"/>
	<line class="st4" x1="274.1" y1="106.8" x2="263.3" y2="88.1"/>
	<line class="st4" x1="274.1" y1="106.8" x2="274.1" y2="150"/>
	<line class="st4" x1="274.1" y1="150" x2="263.3" y2="131.3"/>
	<line class="st4" x1="263.3" y1="88.1" x2="263.3" y2="131.3"/>
	<line class="st4" x1="317.3" y1="181.6" x2="317.3" y2="224.8"/>
	<line class="st4" x1="317.3" y1="224.8" x2="306.5" y2="206.1"/>
	<line class="st4" x1="306.5" y1="162.9" x2="306.5" y2="206.1"/>
	<line class="st4" x1="317.3" y1="181.6" x2="306.5" y2="162.9"/>
	<line class="st4" x1="295.7" y1="273.8" x2="284.9" y2="255.1"/>
	<line class="st4" x1="284.9" y1="211.9" x2="284.9" y2="255.1"/>
	<line class="st4" x1="295.7" y1="230.6" x2="284.9" y2="211.9"/>
	<line class="st4" x1="295.7" y1="230.6" x2="295.7" y2="273.8"/>
	<line class="st4" x1="269.1" y1="184.5" x2="263.3" y2="174.5"/>
	<line class="st4" x1="274.1" y1="193.2" x2="274.1" y2="236.4"/>
	<line class="st4" x1="269.1" y1="227.7" x2="263.3" y2="217.7"/>
	<line class="st4" x1="263.3" y1="174.5" x2="263.3" y2="217.7"/>
	<line class="st4" x1="317.3" y1="268" x2="317.3" y2="311.2"/>
	<line class="st4" x1="317.3" y1="311.2" x2="306.5" y2="292.5"/>
	<line class="st4" x1="306.5" y1="249.3" x2="306.5" y2="292.5"/>
	<line class="st4" x1="317.3" y1="268" x2="306.5" y2="249.3"/>
	<line class="st4" x1="295.7" y1="360.2" x2="284.9" y2="341.5"/>
	<line class="st4" x1="284.9" y1="298.3" x2="284.9" y2="341.5"/>
	<line class="st4" x1="295.7" y1="317" x2="284.9" y2="298.3"/>
	<line class="st4" x1="295.7" y1="317" x2="295.7" y2="360.2"/>
	<line class="st4" x1="269.1" y1="270.9" x2="263.3" y2="260.9"/>
	<line class="st4" x1="274.1" y1="279.6" x2="274.1" y2="322.8"/>
	<line class="st4" x1="269.1" y1="314.1" x2="263.3" y2="304.1"/>
	<line class="st4" x1="263.3" y1="260.9" x2="263.3" y2="304.1"/>
	<line class="st4" x1="317.3" y1="354.4" x2="317.3" y2="397.6"/>
	<line class="st4" x1="317.3" y1="397.6" x2="306.5" y2="378.9"/>
	<line class="st4" x1="306.5" y1="335.7" x2="306.5" y2="378.9"/>
	<line class="st4" x1="317.3" y1="354.4" x2="306.5" y2="335.7"/>
	<line class="st4" x1="317.3" y1="224.8" x2="279.9" y2="246.4"/>
	<line class="st4" x1="225.5" y1="260.2" x2="225.5" y2="1"/>
	<line class="st4" x1="230.6" y1="269.1" x2="225.5" y2="260.2"/>
	<line class="st4" x1="355.1" y1="484.7" x2="289.6" y2="371.3"/>
	<line class="st4" x1="270.9" y1="295.7" x2="249.3" y2="258.3"/>
	<line class="st4" x1="289.6" y1="284.9" x2="268" y2="247.5"/>
	<line class="st4" x1="252.2" y1="306.5" x2="270.9" y2="338.9"/>
	<line class="st4" x1="233.5" y1="317.3" x2="211.9" y2="279.9"/>
	<line class="st4" x1="252.2" y1="306.5" x2="230.6" y2="269.1"/>
	<line class="st4" x1="214.8" y1="328.1" x2="233.5" y2="360.5"/>
	<line class="st4" x1="196.1" y1="338.9" x2="174.5" y2="301.5"/>
	<line class="st4" x1="214.8" y1="328.1" x2="193.2" y2="290.7"/>
	<line class="st4" x1="174.5" y1="344.7" x2="196.1" y2="382.1"/>
	<line class="st4" x1="170.2" y1="466.7" x2="207.6" y2="445.1"/>
	<line class="st4" x1="207.6" y1="445.1" x2="207.6" y2="260.8"/>
	<line class="st4" x1="170.2" y1="466.7" x2="170.2" y2="282.4"/>
	<line class="st4" x1="186" y1="407.7" x2="186" y2="148.5"/>
	<line class="st4" x1="202.2" y1="241.4" x2="202.2" y2="198.2"/>
	<line class="st4" x1="202.2" y1="198.2" x2="191.4" y2="179.5"/>
	<line class="st4" x1="191.4" y1="216.9" x2="191.4" y2="179.5"/>
	<line class="st4" x1="202.2" y1="241.4" x2="192.8" y2="225.2"/>
	<line class="st4" x1="186" y1="407.7" x2="148.6" y2="429.3"/>
	<line class="st4" x1="148.6" y1="429.3" x2="148.6" y2="294.8"/>
	<line class="st4" x1="176.6" y1="175.5" x2="157.9" y2="186.3"/>
	<line class="st4" x1="157.9" y1="229.5" x2="157.9" y2="186.3"/>
	<line class="st4" x1="176.6" y1="218.7" x2="164.8" y2="225.6"/>
	<line class="st4" x1="163.3" y1="226.4" x2="157.9" y2="229.5"/>
	<line class="st4" x1="176.6" y1="218.7" x2="176.6" y2="175.5"/>
	<line class="st4" x1="148.6" y1="429.3" x2="170.2" y2="466.7"/>
	<line class="st4" x1="174.1" y1="257.6" x2="174.1" y2="214.4"/>
	<line class="st4" x1="164.8" y1="219.8" x2="174.1" y2="214.4"/>
	<line class="st4" x1="164.8" y1="263" x2="174.1" y2="257.6"/>
	<line class="st4" x1="163.3" y1="195.7" x2="163.3" y2="217.3"/>
	<line class="st4" x1="163.3" y1="195.7" x2="154" y2="201.1"/>
	<line class="st4" x1="192.8" y1="203.6" x2="192.8" y2="216.1"/>
	<line class="st4" x1="192.8" y1="246.8" x2="202.2" y2="241.4"/>
	<line class="st4" x1="192.8" y1="203.6" x2="202.2" y2="198.2"/>
	<line class="st4" x1="182" y1="222.3" x2="182" y2="184.9"/>
	<line class="st4" x1="191.4" y1="179.5" x2="182" y2="184.9"/>
	<line class="st4" x1="182" y1="184.9" x2="176.6" y2="175.5"/>
	<line class="st4" x1="198.2" y1="212.9" x2="192.8" y2="203.6"/>
	<line class="st4" x1="157.9" y1="229.5" x2="163.3" y2="238.9"/>
	<line class="st4" x1="174.1" y1="257.6" x2="179.5" y2="266.9"/>
	<line class="st4" x1="174.1" y1="214.4" x2="179.5" y2="223.7"/>
</g>
</svg>
