<?xml version="1.0" encoding="utf-8"?>
<!-- Generator: Adobe Illustrator 21.0.2, SVG Export Plug-In . SVG Version: 6.00 Build 0)  -->
<svg version="1.1" xmlns="http://www.w3.org/2000/svg" xmlns:xlink="http://www.w3.org/1999/xlink" x="0px" y="0px"
	 viewBox="0 0 356.1 615.3" style="enable-background:new 0 0 356.1 615.3;" xml:space="preserve">
<style type="text/css">
	.st0{fill:none;stroke:#000000;stroke-width:0.5;stroke-miterlimit:10;}
	.st1{fill:none;stroke:#000000;stroke-width:2;stroke-linecap:round;stroke-linejoin:round;}
</style>
<g id="Make2D::hidden::lines">
	<line class="st0" x1="274.5" y1="215.4" x2="311.9" y2="193.8"/>
	<line class="st0" x1="311.9" y1="193.8" x2="311.9" y2="150.6"/>
	<line class="st0" x1="231.3" y1="140.6" x2="231.3" y2="97.4"/>
	<line class="st0" x1="250" y1="129.8" x2="231.3" y2="140.6"/>
	<line class="st0" x1="274.5" y1="215.4" x2="274.5" y2="172.2"/>
	<line class="st0" x1="225.5" y1="130.6" x2="188.1" y2="152.2"/>
	<line class="st0" x1="231.3" y1="140.6" x2="225.5" y2="130.6"/>
	<line class="st0" x1="336.4" y1="365.9" x2="333.5" y2="360.9"/>
	<line class="st0" x1="140.6" y1="242.8" x2="140.6" y2="199.6"/>
	<line class="st0" x1="333.5" y1="360.9" x2="296.1" y2="382.5"/>
	<line class="st0" x1="296.1" y1="382.5" x2="317.7" y2="419.9"/>
	<line class="st0" x1="119" y1="205.4" x2="119" y2="162.2"/>
	<line class="st0" x1="119" y1="205.4" x2="140.6" y2="242.8"/>
	<line class="st0" x1="137.7" y1="194.6" x2="119" y2="205.4"/>
	<line class="st0" x1="296.1" y1="382.5" x2="296.1" y2="339.3"/>
	<line class="st0" x1="333.5" y1="360.9" x2="333.5" y2="317.7"/>
	<line class="st0" x1="178" y1="221.2" x2="159.3" y2="188.8"/>
	<line class="st0" x1="140.6" y1="242.8" x2="178" y2="221.2"/>
	<line class="st0" x1="296.1" y1="339.3" x2="317.7" y2="376.7"/>
	<line class="st0" x1="81.6" y1="313.4" x2="44.2" y2="335"/>
	<line class="st0" x1="355.1" y1="355.1" x2="333.5" y2="317.7"/>
	<line class="st0" x1="103.2" y1="350.8" x2="81.6" y2="313.4"/>
	<line class="st0" x1="81.6" y1="356.6" x2="81.6" y2="313.4"/>
	<line class="st0" x1="333.5" y1="317.7" x2="296.1" y2="339.3"/>
	<line class="st0" x1="81.6" y1="356.6" x2="62.9" y2="367.4"/>
	<line class="st0" x1="103.2" y1="394" x2="81.6" y2="356.6"/>
	<line class="st0" x1="178" y1="221.2" x2="178" y2="178"/>
	<line class="st0" x1="209.7" y1="189.6" x2="247.1" y2="168"/>
	<line class="st0" x1="247.1" y1="211.2" x2="247.1" y2="168"/>
	<line class="st0" x1="188.1" y1="195.4" x2="188.1" y2="152.2"/>
	<line class="st0" x1="188.1" y1="152.2" x2="209.7" y2="189.6"/>
	<line class="st0" x1="209.7" y1="232.8" x2="209.7" y2="189.6"/>
	<line class="st0" x1="209.7" y1="232.8" x2="247.1" y2="211.2"/>
	<line class="st0" x1="188.1" y1="195.4" x2="209.7" y2="232.8"/>
	<line class="st0" x1="225.5" y1="173.8" x2="188.1" y2="195.4"/>
	<line class="st0" x1="247.1" y1="211.2" x2="225.5" y2="173.8"/>
	<line class="st0" x1="146.4" y1="425.7" x2="109" y2="447.3"/>
	<line class="st0" x1="225.5" y1="260.2" x2="225.5" y2="173.8"/>
	<line class="st0" x1="225.5" y1="260.2" x2="1" y2="389.8"/>
	<line class="st0" x1="168" y1="463.1" x2="146.4" y2="425.7"/>
	<line class="st0" x1="146.4" y1="468.9" x2="146.4" y2="425.7"/>
	<line class="st0" x1="225.5" y1="130.6" x2="225.5" y2="1"/>
	<line class="st0" x1="146.4" y1="468.9" x2="127.7" y2="479.7"/>
	<line class="st0" x1="149.3" y1="473.9" x2="146.4" y2="468.9"/>
	<line class="st0" x1="311.9" y1="193.8" x2="293.2" y2="161.4"/>
	<line class="st0" x1="231.3" y1="140.6" x2="274.5" y2="215.4"/>
	<line class="st0" x1="355.1" y1="484.7" x2="317.7" y2="419.9"/>
	<line class="st0" x1="103.2" y1="394" x2="103.2" y2="350.8"/>
	<line class="st0" x1="103.2" y1="350.8" x2="65.8" y2="372.4"/>
	<line class="st0" x1="296.1" y1="382.5" x2="225.5" y2="260.2"/>
	<line class="st0" x1="65.8" y1="415.6" x2="103.2" y2="394"/>
</g>
<g id="Make2D::visible::lines">
	<line class="st1" x1="1" y1="389.8" x2="130.6" y2="614.3"/>
	<line class="st1" x1="65.8" y1="415.6" x2="65.8" y2="372.4"/>
	<line class="st1" x1="109" y1="490.5" x2="130.6" y2="527.9"/>
	<line class="st1" x1="355.1" y1="355.1" x2="355.1" y2="225.5"/>
	<line class="st1" x1="355.1" y1="484.7" x2="355.1" y2="398.3"/>
	<line class="st1" x1="130.6" y1="614.3" x2="355.1" y2="484.7"/>
	<line class="st1" x1="130.6" y1="614.3" x2="130.6" y2="527.9"/>
	<line class="st1" x1="130.6" y1="484.7" x2="130.6" y2="398.3"/>
	<line class="st1" x1="1" y1="130.6" x2="109" y2="317.7"/>
	<line class="st1" x1="268.7" y1="75.8" x2="225.5" y2="1"/>
	<line class="st1" x1="355.1" y1="225.5" x2="311.9" y2="150.6"/>
	<line class="st1" x1="168" y1="333.5" x2="355.1" y2="225.5"/>
	<line class="st1" x1="231.3" y1="97.4" x2="274.5" y2="172.2"/>
	<line class="st1" x1="130.6" y1="527.9" x2="168" y2="506.3"/>
	<line class="st1" x1="293.2" y1="161.4" x2="268.7" y2="119"/>
	<line class="st1" x1="168" y1="506.3" x2="149.3" y2="473.9"/>
	<line class="st1" x1="127.7" y1="479.7" x2="109" y2="490.5"/>
	<line class="st1" x1="225.5" y1="1" x2="1" y2="130.6"/>
	<line class="st1" x1="1" y1="389.8" x2="1" y2="130.6"/>
	<line class="st1" x1="168" y1="506.3" x2="168" y2="463.1"/>
	<line class="st1" x1="109" y1="490.5" x2="109" y2="447.3"/>
	<line class="st1" x1="156.4" y1="140.6" x2="178" y2="178"/>
	<line class="st1" x1="44.2" y1="378.2" x2="65.8" y2="415.6"/>
	<line class="st1" x1="62.9" y1="367.4" x2="44.2" y2="378.2"/>
	<line class="st1" x1="44.2" y1="378.2" x2="44.2" y2="335"/>
	<line class="st1" x1="317.7" y1="376.7" x2="355.1" y2="355.1"/>
	<line class="st1" x1="44.2" y1="335" x2="65.8" y2="372.4"/>
	<line class="st1" x1="317.7" y1="419.9" x2="317.7" y2="376.7"/>
	<line class="st1" x1="159.3" y1="188.8" x2="156.4" y2="183.8"/>
	<line class="st1" x1="156.4" y1="183.8" x2="137.7" y2="194.6"/>
	<line class="st1" x1="156.4" y1="140.6" x2="119" y2="162.2"/>
	<line class="st1" x1="156.4" y1="140.6" x2="156.4" y2="183.8"/>
	<line class="st1" x1="119" y1="162.2" x2="140.6" y2="199.6"/>
	<line class="st1" x1="355.1" y1="398.3" x2="336.4" y2="365.9"/>
	<line class="st1" x1="317.7" y1="419.9" x2="355.1" y2="398.3"/>
	<line class="st1" x1="146.4" y1="296.1" x2="109" y2="317.7"/>
	<line class="st1" x1="109" y1="360.9" x2="109" y2="317.7"/>
	<line class="st1" x1="168" y1="376.7" x2="168" y2="333.5"/>
	<line class="st1" x1="168" y1="333.5" x2="146.4" y2="296.1"/>
	<line class="st1" x1="146.4" y1="339.3" x2="146.4" y2="296.1"/>
	<line class="st1" x1="146.4" y1="339.3" x2="109" y2="360.9"/>
	<line class="st1" x1="168" y1="376.7" x2="146.4" y2="339.3"/>
	<line class="st1" x1="130.6" y1="398.3" x2="168" y2="376.7"/>
	<line class="st1" x1="109" y1="360.9" x2="130.6" y2="398.3"/>
	<line class="st1" x1="178" y1="178" x2="140.6" y2="199.6"/>
	<line class="st1" x1="130.6" y1="484.7" x2="168" y2="463.1"/>
	<line class="st1" x1="109" y1="447.3" x2="130.6" y2="484.7"/>
	<line class="st1" x1="268.7" y1="119" x2="250" y2="129.8"/>
	<line class="st1" x1="274.5" y1="172.2" x2="311.9" y2="150.6"/>
	<line class="st1" x1="268.7" y1="75.8" x2="231.3" y2="97.4"/>
	<line class="st1" x1="268.7" y1="119" x2="268.7" y2="75.8"/>
</g>
</svg>
